<svg xmlns="http://www.w3.org/2000/svg" viewBox="0 0 820.31 266.43"><defs><style>.cls-1{fill:#fbbf10;}.cls-2{fill:#fed410;}.cls-3{fill:#ea9804;}.cls-4{fill:#fed40e;}.cls-5{fill:#ea9805;}.cls-6{fill:#fbbe11;}.cls-7{fill:#fff;}</style></defs><title>Asset 1</title><g id="Layer_2" data-name="Layer 2"><g id="Layer_1-2" data-name="Layer 1"><path class="cls-1" d="M.23,66.83a62.6,62.6,0,0,1,5.1-3.9q53.25-30.75,106.4-61.6c2.89-1.7,5-1.8,7.89-.1q54.3,31.5,108.6,62.9c1.1.6,1.9,1.8,2.9,2.7-4.5,2.5-8.9,5.1-13.4,7.6-8.1,4.5-16.2,8.9-24.3,13.3-1.2-.6-2.5-1.2-3.7-1.8-22.5-13-45.2-25.9-67.5-39.2-4.6-2.7-7.9-2.8-12.5,0-23.6,13.9-47.5,27.3-71.2,41-2.9-1.4-6-2.6-8.8-4.2C19.93,77.93,10.13,72.33.23,66.83Z"/><path class="cls-2" d="M193.53,87.73c8.1-4.4,16.2-8.9,24.3-13.3,4.5-2.5,9-5,13.4-7.6a52.93,52.93,0,0,1,.5,5.6q.15,61.35.2,122.6c0,2.8-.31,5.1-3.4,6.8-20.7,11.7-41.2,23.7-61.8,35.6-.61.3-1.2.5-2.61,1.1,0-11.6.11-22.7-.1-33.8,0-2.1-1-4.1-1.5-6.2,2.3-2.4,4.3-5.3,7.1-7,6.2-3.9,12.61-7.4,19.2-10.7,3.7-1.9,5.61-4.2,4.9-8.4,0-10.8.1-21.7,0-32.5C193.73,122.43,193.62,105,193.53,87.73Z"/><path class="cls-3" d="M.23,66.83c9.8,5.5,19.7,11.1,29.6,16.6,2.8,1.6,5.9,2.8,8.8,4.2,0,28.4-.1,56.8-.1,85.2-.5,3.6.7,5.9,4.2,7.7,6.5,3.3,12.7,7.4,19.1,10.8,3.9,2.1,6.8,4.4,5.9,9.4v37.4a31,31,0,0,1-3.9-1.6c-20.3-11.7-40.4-23.2-60.5-34.9-1.5-.9-3.2-3.3-3.2-5-.21-42.9-.1-85.9-.1-128.8A3.55,3.55,0,0,1,.23,66.83Z"/><path class="cls-1" d="M67.62,200.63c1-5-2-7.3-5.9-9.4-6.5-3.4-12.6-7.5-19.1-10.8-3.5-1.8-4.7-4.1-4.2-7.7,1.5-.7,3.11-1.4,4.61-2.2,23-13.2,46-26.4,68.9-39.9,3.5-2.1,6-1.9,9.3.1,8.5,5.2,17.2,10.1,25.89,15.1,15.5,8.9,31.11,17.7,46.7,26.5.7,4.2-1.2,6.5-4.89,8.4-6.61,3.3-13,6.8-19.2,10.7-2.7,1.7-4.7,4.7-7.11,7-13.89-7.9-27.8-15.7-41.59-23.8-3.3-1.9-5.6-1.8-8.8.1C97.43,183.53,82.53,192,67.62,200.63Z"/><path class="cls-4" d="M153.43,200.63a9.5,9.5,0,0,1,.89,2.7c.11,12.7.11,25.5-.1,38.2a5.78,5.78,0,0,1-2.4,4.4c-11.8,7-23.8,13.7-35.7,20.5v-44.2C128.53,215,140.93,207.83,153.43,200.63Z"/><path class="cls-5" d="M116.12,222.23v44.2c-12.19-6.9-24.4-13.8-36.5-20.8a4.42,4.42,0,0,1-1.59-3.4c0-13.6.09-27.1.19-40.7,4.5,2.4,9.1,4.8,13.6,7.3C99.93,213.23,108,217.73,116.12,222.23Z"/><path class="cls-6" d="M116.12,222.23c-8.1-4.5-16.19-9-24.3-13.4-4.5-2.5-9.1-4.8-13.6-7.3,3.2-2.1,6.31-4.4,9.6-6.4,6.5-3.9,13.3-7.2,19.5-11.5,5.9-4.2,10.7-4.4,16.9-.2,9.3,6.3,19.4,11.6,29.1,17.3C140.93,207.83,128.53,215,116.12,222.23Z"/><path class="cls-7" d="M322,96.43v13H268V39.6h52.74v13H284V67.72h32.4V80.28H284V96.43Z"/><path class="cls-7" d="M418.47,60.89q5.92,5.94,5.93,17.8V109.4H408.85V81.08q0-6.37-2.65-9.52a9.29,9.29,0,0,0-7.52-3.14A11.1,11.1,0,0,0,390,72q-3.19,3.54-3.19,10.52V109.4H371.26V81.08q0-12.66-10.17-12.66A11,11,0,0,0,352.52,72q-3.19,3.54-3.2,10.52V109.4H333.77V55.76h14.86v6.18A19.63,19.63,0,0,1,356,56.75,24.84,24.84,0,0,1,365.48,55a23.17,23.17,0,0,1,10.27,2.24,18.3,18.3,0,0,1,7.37,6.53,22.07,22.07,0,0,1,8.33-6.48,26.22,26.22,0,0,1,11-2.29Q412.54,55,418.47,60.89Z"/><path class="cls-7" d="M523.05,60.89Q529,66.83,529,78.69V109.4H513.43V81.08q0-6.37-2.64-9.52a9.3,9.3,0,0,0-7.53-3.14A11.08,11.08,0,0,0,494.59,72q-3.19,3.54-3.19,10.52V109.4H475.84V81.08q0-12.66-10.17-12.66A11,11,0,0,0,457.1,72q-3.19,3.54-3.19,10.52V109.4H438.36V55.76h14.85v6.18a19.75,19.75,0,0,1,7.33-5.19A24.76,24.76,0,0,1,470.06,55a23.14,23.14,0,0,1,10.27,2.24,18.26,18.26,0,0,1,7.38,6.53A22,22,0,0,1,496,57.25a26.26,26.26,0,0,1,11-2.29Q517.12,55,523.05,60.89Z"/><path class="cls-7" d="M583.72,60.89q6.67,5.94,6.68,17.9V109.4H575.84v-6.68q-4.38,7.47-16.35,7.47a25.35,25.35,0,0,1-10.72-2.09,16,16,0,0,1-6.92-5.78,15,15,0,0,1-2.4-8.38,14,14,0,0,1,5.64-11.76q5.63-4.29,17.39-4.29h12.37c0-3.39-1-6-3.09-7.83s-5.16-2.74-9.28-2.74a27,27,0,0,0-8.42,1.35,22.34,22.34,0,0,0-7,3.64l-5.58-10.87A33.69,33.69,0,0,1,552,56.65,47.13,47.13,0,0,1,564.58,55Q577,55,583.72,60.89Zm-13.26,37a10.13,10.13,0,0,0,4.39-5.43V87H564.18q-9.57,0-9.57,6.28A5.59,5.59,0,0,0,557,98a10.56,10.56,0,0,0,6.43,1.75A13.55,13.55,0,0,0,570.46,97.88Z"/><path class="cls-7" d="M653.16,60.94q6.14,6,6.13,17.75V109.4H643.74V81.08q0-6.37-2.79-9.52c-1.86-2.09-4.56-3.14-8.08-3.14a12.37,12.37,0,0,0-9.37,3.64Q620,75.69,620,82.88V109.4H604.46V55.76h14.85V62A20.63,20.63,0,0,1,627,56.8,26.73,26.73,0,0,1,637.06,55Q647,55,653.16,60.94Z"/><path class="cls-7" d="M727.39,55.76V109.4H712.63V103a20.59,20.59,0,0,1-7.38,5.34,23.21,23.21,0,0,1-9.27,1.84q-10.58,0-16.75-6.08t-6.18-18V55.76H688.6v28q0,13,10.87,13a11.67,11.67,0,0,0,9-3.64q3.39-3.63,3.39-10.81V55.76Z"/><path class="cls-7" d="M794.09,87H753.51a12.64,12.64,0,0,0,5.18,7.88,17.18,17.18,0,0,0,10.17,2.89,20.41,20.41,0,0,0,7.43-1.25,18,18,0,0,0,6-3.93l8.28,9q-7.59,8.67-22.14,8.67a35,35,0,0,1-16.05-3.54,25.91,25.91,0,0,1-10.77-9.82,27.08,27.08,0,0,1-3.78-14.25,27.44,27.44,0,0,1,3.73-14.21,26.28,26.28,0,0,1,10.27-9.87,31.8,31.8,0,0,1,28.87-.15,24.79,24.79,0,0,1,10,9.72,29,29,0,0,1,3.64,14.71C794.39,83,794.29,84.37,794.09,87ZM757.7,69.71a12.71,12.71,0,0,0-4.39,8.18h26.42a12.84,12.84,0,0,0-4.39-8.13,13.15,13.15,0,0,0-8.77-3A13.41,13.41,0,0,0,757.7,69.71Z"/><path class="cls-7" d="M804.75,35.42h15.56v74H804.75Z"/><path class="cls-7" d="M313.93,214.08h-32.4l-6.18,15H258.8l31.1-69.79h16L337.06,229H320.11Zm-5.08-12.26L297.78,175.1l-11.07,26.72Z"/><path class="cls-7" d="M366.27,208l-7.47,7.38V229H343.24v-74H358.8v41.87l22.73-21.53h18.54l-22.33,22.73L402.07,229H383.22Z"/><path class="cls-7" d="M417.07,226.29a26.3,26.3,0,0,1-10.52-9.82,28.77,28.77,0,0,1,0-28.51,26.37,26.37,0,0,1,10.52-9.82,32.19,32.19,0,0,1,15.21-3.54,31.83,31.83,0,0,1,15.15,3.54A26.43,26.43,0,0,1,457.9,188a28.7,28.7,0,0,1,0,28.51,26.36,26.36,0,0,1-10.47,9.82,31.72,31.72,0,0,1-15.15,3.55A32.08,32.08,0,0,1,417.07,226.29Zm25-13.25q3.84-4,3.84-10.82T442.1,191.4a13,13,0,0,0-9.82-4,13.12,13.12,0,0,0-9.87,4q-3.9,4-3.89,10.82T422.41,213a13.11,13.11,0,0,0,9.87,4A13,13,0,0,0,442.1,213Z"/><path class="cls-7" d="M526.69,155.06v74H511.84v-6.18q-5.79,7-16.75,7a27.84,27.84,0,0,1-13.71-3.39,24.22,24.22,0,0,1-9.62-9.68,32.1,32.1,0,0,1,0-29.11,24.2,24.2,0,0,1,9.62-9.67,27.84,27.84,0,0,1,13.71-3.39q10.26,0,16.05,6.48v-26Zm-19.14,58q3.88-4,3.89-10.82t-3.89-10.82a14,14,0,0,0-19.64,0q-3.89,4-3.89,10.82T487.91,213a14,14,0,0,0,19.64,0Z"/><path class="cls-7" d="M541.85,165.43a8.42,8.42,0,0,1,0-12.36,9.82,9.82,0,0,1,7-2.5,10.08,10.08,0,0,1,7,2.4,7.63,7.63,0,0,1,2.69,6,8.45,8.45,0,0,1-2.69,6.43,10.93,10.93,0,0,1-13.95.05Zm-.8,10H556.6V229H541.05Z"/><path class="cls-7" d="M611.83,180.53q6.69,5.94,6.68,17.9V229H604v-6.68q-4.4,7.47-16.35,7.48a25.28,25.28,0,0,1-10.72-2.1A15.94,15.94,0,0,1,570,222a15,15,0,0,1-2.39-8.38,14,14,0,0,1,5.63-11.76q5.63-4.29,17.4-4.29H603q0-5.09-3.09-7.83T590.6,187a27,27,0,0,0-8.43,1.35,22.34,22.34,0,0,0-7,3.64l-5.58-10.87a33.63,33.63,0,0,1,10.52-4.78,47.12,47.12,0,0,1,12.61-1.7Q605.16,174.6,611.83,180.53Zm-13.26,37a10.09,10.09,0,0,0,4.39-5.43V206.6H592.29q-9.57,0-9.57,6.28a5.59,5.59,0,0,0,2.34,4.74,10.61,10.61,0,0,0,6.44,1.75A13.53,13.53,0,0,0,598.57,217.52Z"/></g></g></svg>