<svg width="644" height="607" viewBox="0 0 644 607" fill="none" xmlns="http://www.w3.org/2000/svg">
<g clip-path="url(#clip0_67_58)">
<mask id="mask0_67_58" style="mask-type:luminance" maskUnits="userSpaceOnUse" x="0" y="0" width="644" height="607">
<path d="M4 0H640C642.21 0 644 1.79 644 4V603C644 605.21 642.21 607 640 607H4C1.79 607 0 605.21 0 603V4C0 1.79 1.79 0 4 0Z" fill="white"/>
</mask>
<g mask="url(#mask0_67_58)">
<path d="M4 0H640C642.2 0 644 1.8 644 4V603C644 605.2 642.2 607 640 607H4C1.8 607 0 605.2 0 603V4C0 1.8 1.8 0 4 0Z" fill="white"/>
<path d="M4 0H640C642.2 0 644 1.8 644 4V603C644 605.2 642.2 607 640 607H4C1.8 607 0 605.2 0 603V4C0 1.8 1.8 0 4 0Z" fill="url(#paint0_linear_67_58)"/>
<path opacity="0.18" d="M54 151H590C591.9 151 593.5 152.6 593.5 154.5V452.5C593.5 454.4 591.9 456 590 456H54C52.1 456 50.5 454.4 50.5 452.5V154.5C50.5 152.6 52.1 151 54 151Z" fill="white"/>
<path d="M54 151H590C591.9 151 593.5 152.6 593.5 154.5V452.5C593.5 454.4 591.9 456 590 456H54C52.1 456 50.5 454.4 50.5 452.5V154.5C50.5 152.6 52.1 151 54 151Z" stroke="#DDDCD6"/>
<path d="M63.2 196.5C63.9 196.5 64.5 197.1 64.5 197.7V235.3C64.5 235.9 63.9 236.5 63.2 236.5C62.6 236.5 62 235.9 62 235.3V197.7C62 197.1 62.6 196.5 63.2 196.5Z" fill="white"/>
<path d="M63.2 248.5C63.9 248.5 64.5 249.1 64.5 249.7V287.3C64.5 287.9 63.9 288.5 63.2 288.5C62.6 288.5 62 287.9 62 287.3V249.7C62 249.1 62.6 248.5 63.2 248.5Z" fill="white"/>
<path d="M63.2 300.5C63.9 300.5 64.5 301.1 64.5 301.7V339.3C64.5 339.9 63.9 340.5 63.2 340.5C62.6 340.5 62 339.9 62 339.3V301.7C62 301.1 62.6 300.5 63.2 300.5Z" fill="white"/>
<path d="M63.2 352.5C63.9 352.5 64.5 353.1 64.5 353.7V391.3C64.5 391.9 63.9 392.5 63.2 392.5C62.6 392.5 62 391.9 62 391.3V353.7C62 353.1 62.6 352.5 63.2 352.5Z" fill="white"/>
<path d="M63.2 404.5C63.9 404.5 64.5 405.1 64.5 405.7V443.3C64.5 443.9 63.9 444.5 63.2 444.5C62.6 444.5 62 443.9 62 443.3V405.7C62 405.1 62.6 404.5 63.2 404.5Z" fill="white"/>
<path d="M580.8 196.5C581.4 196.5 582 197.1 582 197.7V235.3C582 235.9 581.4 236.5 580.8 236.5C580.1 236.5 579.5 235.9 579.5 235.3V197.7C579.5 197.1 580.1 196.5 580.8 196.5Z" fill="white"/>
<path d="M580.8 248.5C581.4 248.5 582 249.1 582 249.7V287.3C582 287.9 581.4 288.5 580.8 288.5C580.1 288.5 579.5 287.9 579.5 287.3V249.7C579.5 249.1 580.1 248.5 580.8 248.5Z" fill="white"/>
<path d="M580.8 300.5C581.4 300.5 582 301.1 582 301.7V339.3C582 339.9 581.4 340.5 580.8 340.5C580.1 340.5 579.5 339.9 579.5 339.3V301.7C579.5 301.1 580.1 300.5 580.8 300.5Z" fill="white"/>
<path d="M580.8 352.5C581.4 352.5 582 353.1 582 353.7V391.3C582 391.9 581.4 392.5 580.8 392.5C580.1 392.5 579.5 391.9 579.5 391.3V353.7C579.5 353.1 580.1 352.5 580.8 352.5Z" fill="white"/>
<path d="M580.8 404.5C581.4 404.5 582 405.1 582 405.7V443.3C582 443.9 581.4 444.5 580.8 444.5C580.1 444.5 579.5 443.9 579.5 443.3V405.7C579.5 405.1 580.1 404.5 580.8 404.5Z" fill="white"/>
<path d="M322 196.5C322.7 196.5 323.2 197.1 323.2 197.7V269.9C323.2 270.6 322.7 271.2 322 271.2C321.3 271.2 320.8 270.6 320.8 269.9V197.7C320.8 197.1 321.3 196.5 322 196.5Z" fill="white"/>
<path d="M322 283.2C322.7 283.2 323.2 283.7 323.2 284.4V356.6C323.2 357.3 322.7 357.8 322 357.8C321.3 357.8 320.8 357.3 320.8 356.6V284.4C320.8 283.7 321.3 283.2 322 283.2Z" fill="white"/>
<path d="M322 369.8C322.7 369.8 323.2 370.4 323.2 371.1V443.3C323.2 443.9 322.7 444.5 322 444.5C321.3 444.5 320.8 443.9 320.8 443.3V371.1C320.8 370.4 321.3 369.8 322 369.8Z" fill="white"/>
<path d="M70.6 170.3C70.6 171.1 70.4333 171.833 70.1 172.5C69.7667 173.167 69.2667 173.667 68.6 174C68 174.4 67.3 174.6 66.5 174.6C65.7 174.6 65 174.4 64.4 174C63.8 173.667 63.3333 173.167 63 172.5C62.6 171.833 62.4 171.1 62.4 170.3C62.4 169.5 62.6 168.767 63 168.1C63.3333 167.433 63.8 166.933 64.4 166.6C65 166.2 65.7 166 66.5 166C67.3 166 68 166.2 68.6 166.6C69.2667 166.933 69.7667 167.433 70.1 168.1C70.4333 168.767 70.6 169.5 70.6 170.3ZM63.9 170.3C63.9 170.9 64 171.433 64.2 171.9C64.4 172.367 64.7 172.733 65.1 173C65.5 173.267 65.9667 173.4 66.5 173.4C67.0333 173.4 67.5 173.267 67.9 173C68.3 172.733 68.6333 172.367 68.9 171.9C69.1 171.433 69.2 170.9 69.2 170.3C69.2 169.7 69.1 169.167 68.9 168.7C68.6333 168.233 68.3 167.867 67.9 167.6C67.5 167.333 67.0333 167.2 66.5 167.2C65.9667 167.2 65.5 167.333 65.1 167.6C64.7 167.867 64.4 168.233 64.2 168.7C64 169.167 63.9 169.7 63.9 170.3ZM75.1 168.4V169.6H74.5C73.9667 169.6 73.5667 169.767 73.3 170.1C73.1 170.433 73 170.867 73 171.4V174.5H71.7V168.4H72.8L73 169.3C73.1333 168.967 73.3667 168.733 73.7 168.6C73.9667 168.467 74.3333 168.4 74.8 168.4H75.1ZM76.6 165.9C76.8 165.9 76.9667 165.967 77.1 166.1C77.3 166.233 77.4 166.433 77.4 166.7C77.4 166.9 77.3 167.067 77.1 167.2C76.9667 167.4 76.8 167.5 76.6 167.5C76.3333 167.5 76.1333 167.4 76 167.2C75.8667 167.067 75.8 166.9 75.8 166.7C75.8 166.433 75.8667 166.233 76 166.1C76.1333 165.967 76.3333 165.9 76.6 165.9ZM75.9 168.4H77.2V174.5H75.9V168.4ZM84.4 168.4V174.3C84.4 175.167 84.1667 175.833 83.7 176.3C83.1667 176.767 82.3667 177 81.3 177C80.5 177 79.8333 176.833 79.3 176.5C78.7667 176.1 78.4667 175.567 78.4 174.9H79.7C79.7667 175.233 79.9667 175.5 80.3 175.7C80.5667 175.9 80.9333 176 81.4 176C82.6 176 83.2 175.4 83.2 174.2V173.6C82.7333 174.267 82.0667 174.6 81.2 174.6C80.6 174.6 80.1 174.467 79.7 174.2C79.2333 173.933 78.8667 173.567 78.6 173.1C78.4 172.633 78.3 172.067 78.3 171.4C78.3 170.8 78.4 170.267 78.6 169.8C78.8667 169.333 79.2333 168.967 79.7 168.7C80.1 168.433 80.6 168.3 81.2 168.3C81.6667 168.3 82.0667 168.4 82.4 168.6C82.7333 168.8 83 169.067 83.2 169.4L83.3 168.4H84.4ZM81.3 173.5C81.8333 173.5 82.2667 173.3 82.6 172.9C82.9333 172.567 83.1 172.1 83.1 171.5C83.1 170.9 82.9333 170.4 82.6 170C82.2667 169.6 81.8333 169.4 81.3 169.4C80.7667 169.4 80.3333 169.6 80 170C79.7333 170.333 79.6 170.8 79.6 171.4C79.6 172 79.7333 172.5 80 172.9C80.3333 173.3 80.7667 173.5 81.3 173.5ZM86.3 165.9C86.5667 165.9 86.7667 166 86.9 166.2C87.0333 166.333 87.1 166.5 87.1 166.7C87.1 166.967 87.0333 167.167 86.9 167.3C86.7667 167.433 86.5667 167.5 86.3 167.5C86.1 167.5 85.9333 167.433 85.8 167.3C85.6 167.167 85.5 166.967 85.5 166.7C85.5 166.5 85.6 166.333 85.8 166.2C85.9333 166 86.1 165.9 86.3 165.9ZM85.7 168.4H87V174.5H85.7V168.4ZM91.5 168.4C92.2333 168.4 92.8333 168.6 93.3 169C93.7667 169.467 94 170.2 94 171.2V174.6H92.7V171.3C92.7 170.7 92.5667 170.233 92.3 169.9C92.0333 169.633 91.6667 169.5 91.2 169.5C90.6667 169.5 90.2667 169.667 90 170C89.6667 170.4 89.5 170.9 89.5 171.5V174.6H88.2V168.4H89.4L89.5 169.2C89.9667 168.667 90.6333 168.4 91.5 168.4Z" fill="white"/>
<path d="M271.8 166.1H278.4V167.3H275.8V174.5H274.4V167.3H271.8V166.1ZM282.1 168.4V169.6H281.5C280.967 169.6 280.567 169.767 280.3 170.1C280.1 170.433 280 170.867 280 171.4V174.5H278.7V168.4H279.8L280 169.3C280.133 169.033 280.367 168.8 280.7 168.6C280.967 168.467 281.333 168.4 281.8 168.4H282.1ZM288.6 173.4V174.5H287.9C287.5 174.5 287.2 174.433 287 174.3C286.867 174.1 286.8 173.833 286.8 173.5C286.333 174.233 285.633 174.6 284.7 174.6C284.033 174.6 283.5 174.433 283.1 174.1C282.633 173.767 282.4 173.333 282.4 172.8C282.4 172.133 282.633 171.633 283.1 171.3C283.567 170.967 284.233 170.8 285.1 170.8H286.6V170.5C286.6 170.1 286.5 169.833 286.3 169.7C286.033 169.5 285.7 169.4 285.3 169.4C284.9 169.4 284.567 169.467 284.3 169.6C284.1 169.733 283.967 169.967 283.9 170.3H282.6C282.667 169.633 282.933 169.133 283.4 168.8C283.933 168.467 284.567 168.3 285.3 168.3C286.167 168.3 286.8 168.5 287.2 168.9C287.667 169.3 287.9 169.833 287.9 170.5V173C287.9 173.267 288.033 173.4 288.3 173.4H288.6ZM286.7 171.8H285.1C284.7 171.8 284.367 171.867 284.1 172C283.9 172.2 283.8 172.433 283.8 172.7C283.8 172.967 283.9 173.167 284.1 173.3C284.3 173.5 284.6 173.6 285 173.6C285.533 173.6 285.933 173.467 286.2 173.2C286.533 172.867 286.7 172.467 286.7 172V171.8ZM292.6 168.3C293.267 168.3 293.833 168.533 294.3 169C294.767 169.467 295 170.2 295 171.2V174.5H293.7V171.2C293.7 170.667 293.567 170.233 293.3 169.9C293.1 169.567 292.767 169.4 292.3 169.4C291.767 169.4 291.333 169.6 291 170C290.733 170.333 290.6 170.8 290.6 171.4V174.5H289.3V168.4H290.4L290.6 169.2C291.067 168.6 291.733 168.3 292.6 168.3ZM297.2 172.5C297.267 172.833 297.433 173.1 297.7 173.3C297.967 173.5 298.333 173.6 298.8 173.6C299.2 173.6 299.5 173.533 299.7 173.4C299.967 173.267 300.1 173.067 300.1 172.8C300.1 172.6 300.033 172.433 299.9 172.3C299.767 172.233 299.633 172.167 299.5 172.1C299.3 172.033 299 172 298.6 172C298.067 171.933 297.633 171.833 297.3 171.7C296.9 171.567 296.6 171.4 296.4 171.2C296.2 170.933 296.1 170.6 296.1 170.2C296.1 169.867 296.2 169.533 296.4 169.2C296.6 168.933 296.9 168.733 297.3 168.6C297.7 168.4 298.133 168.3 298.6 168.3C299.333 168.3 299.967 168.467 300.5 168.8C300.967 169.133 301.2 169.633 301.2 170.3H300C299.933 170.033 299.8 169.8 299.6 169.6C299.333 169.4 299 169.3 298.6 169.3C298.267 169.3 297.967 169.367 297.7 169.5C297.5 169.7 297.4 169.9 297.4 170.1C297.4 170.3 297.433 170.433 297.5 170.5C297.633 170.633 297.8 170.7 298 170.7C298.133 170.767 298.4 170.833 298.8 170.9C299.333 170.9 299.8 170.967 300.2 171.1C300.533 171.233 300.8 171.433 301 171.7C301.267 171.9 301.4 172.233 301.4 172.7C301.4 173.1 301.267 173.433 301 173.7C300.8 173.967 300.5 174.2 300.1 174.4C299.7 174.533 299.267 174.6 298.8 174.6C297.933 174.6 297.267 174.433 296.8 174.1C296.267 173.7 296 173.167 296 172.5H297.2ZM305.6 168.3C306.2 168.3 306.7 168.433 307.1 168.7C307.567 168.967 307.933 169.333 308.2 169.8C308.467 170.267 308.6 170.833 308.6 171.5C308.6 172.1 308.467 172.633 308.2 173.1C307.933 173.567 307.567 173.933 307.1 174.2C306.7 174.467 306.2 174.6 305.6 174.6C305.2 174.6 304.833 174.533 304.5 174.4C304.167 174.2 303.9 173.967 303.7 173.7V176.9H302.4V168.4H303.5L303.6 169.3C304.133 168.633 304.8 168.3 305.6 168.3ZM305.4 173.5C305.933 173.5 306.367 173.3 306.7 172.9C307.033 172.567 307.2 172.1 307.2 171.5C307.2 170.9 307.033 170.4 306.7 170C306.367 169.6 305.933 169.4 305.4 169.4C304.867 169.4 304.433 169.6 304.1 170C303.767 170.333 303.6 170.8 303.6 171.4C303.6 172.067 303.767 172.567 304.1 172.9C304.433 173.3 304.867 173.5 305.4 173.5ZM312.5 174.6C311.9 174.6 311.333 174.467 310.8 174.2C310.333 173.933 309.967 173.567 309.7 173.1C309.5 172.633 309.4 172.1 309.4 171.5C309.4 170.833 309.5 170.267 309.7 169.8C309.967 169.333 310.333 168.967 310.8 168.7C311.333 168.433 311.9 168.3 312.5 168.3C313.1 168.3 313.633 168.433 314.1 168.7C314.567 168.967 314.933 169.333 315.2 169.8C315.467 170.267 315.6 170.833 315.6 171.5C315.6 172.1 315.467 172.633 315.2 173.1C314.933 173.567 314.567 173.933 314.1 174.2C313.633 174.467 313.1 174.6 312.5 174.6ZM312.5 173.5C313.033 173.5 313.467 173.3 313.8 172.9C314.133 172.567 314.3 172.1 314.3 171.5C314.3 170.9 314.133 170.4 313.8 170C313.467 169.6 313.033 169.4 312.5 169.4C311.967 169.4 311.533 169.6 311.2 170C310.867 170.4 310.7 170.9 310.7 171.5C310.7 172.1 310.867 172.567 311.2 172.9C311.533 173.3 311.967 173.5 312.5 173.5ZM320.1 168.4V169.6H319.5C318.967 169.6 318.567 169.767 318.3 170.1C318.1 170.5 318 170.967 318 171.5V174.5H316.7V168.4H317.8L318 169.3C318.133 169.033 318.333 168.8 318.6 168.6C318.933 168.467 319.333 168.4 319.8 168.4H320.1ZM320.9 166.7H322.2V168.4H323.7V169.5H322.2V172.7C322.2 172.967 322.233 173.167 322.3 173.3C322.433 173.367 322.6 173.4 322.8 173.4H323.8V174.5H322.6C322 174.5 321.567 174.367 321.3 174.1C321.033 173.833 320.9 173.433 320.9 172.9V166.7ZM331 166.1C331.6 166.1 332.133 166.233 332.6 166.5C333 166.7 333.333 167 333.6 167.4C333.8 167.8 333.9 168.267 333.9 168.8C333.9 169.333 333.8 169.8 333.6 170.2C333.333 170.6 333 170.933 332.6 171.2C332.133 171.4 331.6 171.5 331 171.5H329.1V174.5H327.7V166.1H331ZM329.1 170.3H330.9C331.367 170.3 331.767 170.167 332.1 169.9C332.367 169.633 332.5 169.267 332.5 168.8C332.5 168.333 332.367 167.967 332.1 167.7C331.833 167.433 331.433 167.3 330.9 167.3H329.1V170.3ZM338.3 168.4V169.6H337.7C337.167 169.6 336.767 169.8 336.5 170.2C336.3 170.533 336.2 170.967 336.2 171.5V174.6H334.9V168.4H336L336.2 169.4C336.333 169.067 336.533 168.833 336.8 168.7C337.133 168.5 337.533 168.4 338 168.4H338.3ZM341.7 174.7C341.1 174.7 340.567 174.567 340.1 174.3C339.567 174.033 339.167 173.667 338.9 173.2C338.7 172.667 338.6 172.1 338.6 171.5C338.6 170.9 338.7 170.367 338.9 169.9C339.167 169.433 339.567 169.067 340.1 168.8C340.567 168.533 341.1 168.4 341.7 168.4C342.3 168.4 342.833 168.533 343.3 168.8C343.767 169.067 344.133 169.433 344.4 169.9C344.667 170.367 344.8 170.9 344.8 171.5C344.8 172.1 344.667 172.667 344.4 173.2C344.133 173.667 343.767 174.033 343.3 174.3C342.833 174.567 342.3 174.7 341.7 174.7ZM341.7 173.5C342.233 173.5 342.667 173.333 343 173C343.333 172.6 343.5 172.1 343.5 171.5C343.5 170.9 343.333 170.4 343 170C342.667 169.667 342.233 169.5 341.7 169.5C341.167 169.5 340.733 169.667 340.4 170C340.067 170.4 339.9 170.9 339.9 171.5C339.9 172.1 340.067 172.6 340.4 173C340.733 173.333 341.167 173.5 341.7 173.5ZM345 168.4H346.4L348.1 173.2L349.8 168.4H351.1L348.9 174.6H347.3L345 168.4ZM352.4 165.9C352.667 165.9 352.867 165.967 353 166.1C353.133 166.3 353.2 166.5 353.2 166.7C353.2 166.9 353.133 167.1 353 167.3C352.867 167.433 352.667 167.5 352.4 167.5C352.2 167.5 352.033 167.433 351.9 167.3C351.7 167.1 351.6 166.9 351.6 166.7C351.6 166.5 351.7 166.3 351.9 166.1C352.033 165.967 352.2 165.9 352.4 165.9ZM351.8 168.4H353.1V174.5H351.8V168.4ZM360.3 166.2V174.6H359.2L359 173.6C358.533 174.267 357.867 174.6 357 174.6C356.467 174.6 355.967 174.5 355.5 174.3C355.1 174.033 354.767 173.667 354.5 173.2C354.233 172.733 354.1 172.167 354.1 171.5C354.1 170.9 354.233 170.367 354.5 169.9C354.767 169.367 355.1 168.967 355.5 168.7C355.967 168.5 356.467 168.4 357 168.4C357.467 168.4 357.867 168.467 358.2 168.6C358.533 168.733 358.8 168.967 359 169.3V166.2H360.3ZM357.2 173.5C357.733 173.5 358.167 173.333 358.5 173C358.833 172.6 359 172.1 359 171.5C359 170.9 358.833 170.4 358.5 170C358.167 169.667 357.733 169.5 357.2 169.5C356.667 169.5 356.233 169.667 355.9 170C355.567 170.4 355.4 170.9 355.4 171.5C355.4 172.1 355.567 172.6 355.9 173C356.233 173.333 356.667 173.5 357.2 173.5ZM361.3 171.5C361.3 170.9 361.433 170.367 361.7 169.9C361.967 169.367 362.333 168.967 362.8 168.7C363.267 168.5 363.767 168.4 364.3 168.4C364.9 168.4 365.433 168.5 365.9 168.7C366.367 168.967 366.733 169.3 367 169.7C367.267 170.167 367.4 170.7 367.4 171.3C367.4 171.433 367.367 171.6 367.3 171.8H362.7C362.7 172.333 362.867 172.767 363.2 173.1C363.533 173.433 363.933 173.6 364.4 173.6C364.8 173.6 365.133 173.5 365.4 173.3C365.667 173.1 365.867 172.833 366 172.5H367.3C367.167 173.1 366.833 173.6 366.3 174C365.833 174.4 365.233 174.6 364.5 174.6C363.9 174.6 363.333 174.5 362.8 174.3C362.333 174.033 361.967 173.667 361.7 173.2C361.433 172.667 361.3 172.1 361.3 171.5ZM366 170.8C366 170.4 365.833 170.067 365.5 169.8C365.233 169.533 364.867 169.4 364.4 169.4C363.933 169.4 363.567 169.533 363.3 169.8C362.967 170.067 362.767 170.4 362.7 170.8H366ZM371.8 168.4V169.6H371.2C370.667 169.6 370.3 169.8 370.1 170.2C369.833 170.533 369.7 170.967 369.7 171.5V174.6H368.4V168.4H369.6L369.7 169.3C369.9 169.033 370.133 168.833 370.4 168.7C370.667 168.5 371.033 168.4 371.5 168.4H371.8Z" fill="white"/>
<path d="M480.8 166.1H482.6L485.2 172.7L487.9 166.1H489.6V174.5H488.3V168.3L485.8 174.5H484.6L482.1 168.3V174.5H480.8V166.1ZM493.9 174.6C493.3 174.6 492.767 174.467 492.3 174.2C491.833 173.933 491.467 173.567 491.2 173.1C490.933 172.633 490.8 172.067 490.8 171.4C490.8 170.8 490.933 170.267 491.2 169.8C491.467 169.333 491.833 168.967 492.3 168.7C492.767 168.433 493.3 168.3 493.9 168.3C494.567 168.3 495.133 168.433 495.6 168.7C496.067 168.967 496.433 169.333 496.7 169.8C496.967 170.267 497.1 170.8 497.1 171.4C497.1 172.067 496.967 172.633 496.7 173.1C496.433 173.567 496.067 173.933 495.6 174.2C495.133 174.467 494.567 174.6 493.9 174.6ZM493.9 173.5C494.5 173.5 494.967 173.3 495.3 172.9C495.633 172.5 495.8 172 495.8 171.4C495.8 170.8 495.633 170.333 495.3 170C494.967 169.6 494.5 169.4 493.9 169.4C493.367 169.4 492.933 169.6 492.6 170C492.267 170.333 492.1 170.8 492.1 171.4C492.1 172 492.267 172.5 492.6 172.9C492.933 173.3 493.367 173.5 493.9 173.5ZM504.1 166.1V174.5H503L502.8 173.6C502.333 174.267 501.667 174.6 500.8 174.6C500.267 174.6 499.767 174.467 499.3 174.2C498.833 173.933 498.5 173.567 498.3 173.1C498.033 172.633 497.9 172.067 497.9 171.4C497.9 170.8 498.033 170.267 498.3 169.8C498.5 169.333 498.833 168.967 499.3 168.7C499.767 168.433 500.267 168.3 500.8 168.3C501.267 168.3 501.667 168.367 502 168.5C502.333 168.7 502.6 168.933 502.8 169.2V166.1H504.1ZM501 173.5C501.533 173.5 501.967 173.3 502.3 172.9C502.633 172.567 502.8 172.1 502.8 171.5C502.8 170.833 502.633 170.333 502.3 170C501.967 169.6 501.533 169.4 501 169.4C500.467 169.4 500.033 169.6 499.7 170C499.367 170.333 499.2 170.8 499.2 171.4C499.2 172 499.367 172.5 499.7 172.9C500.033 173.3 500.467 173.5 501 173.5ZM505.1 171.4C505.1 170.8 505.233 170.267 505.5 169.8C505.767 169.333 506.133 168.967 506.6 168.7C507 168.433 507.5 168.3 508.1 168.3C508.7 168.3 509.233 168.4 509.7 168.6C510.167 168.867 510.5 169.233 510.7 169.7C510.967 170.1 511.133 170.6 511.2 171.2C511.2 171.4 511.167 171.567 511.1 171.7H506.5V171.8C506.5 172.333 506.667 172.733 507 173C507.267 173.333 507.667 173.5 508.2 173.5C508.6 173.5 508.933 173.4 509.2 173.2C509.467 173.067 509.633 172.8 509.7 172.4H511C510.933 173.067 510.633 173.6 510.1 174C509.633 174.4 509.033 174.6 508.3 174.6C507.633 174.6 507.067 174.467 506.6 174.2C506.133 173.933 505.767 173.567 505.5 173.1C505.233 172.633 505.1 172.067 505.1 171.4ZM509.8 170.8C509.733 170.333 509.567 169.967 509.3 169.7C508.967 169.433 508.6 169.3 508.2 169.3C507.733 169.3 507.367 169.433 507.1 169.7C506.767 169.967 506.567 170.333 506.5 170.8H509.8ZM518.2 174.6C517.533 174.6 516.967 174.467 516.5 174.2C516.033 173.933 515.667 173.567 515.4 173.1C515.133 172.633 515 172.067 515 171.4C515 170.8 515.133 170.267 515.4 169.8C515.667 169.333 516.033 168.967 516.5 168.7C516.967 168.433 517.533 168.3 518.2 168.3C518.8 168.3 519.333 168.433 519.8 168.7C520.267 168.967 520.633 169.333 520.9 169.8C521.167 170.267 521.3 170.8 521.3 171.4C521.3 172.067 521.167 172.633 520.9 173.1C520.633 173.567 520.267 173.933 519.8 174.2C519.333 174.467 518.8 174.6 518.2 174.6ZM518.2 173.5C518.733 173.5 519.167 173.3 519.5 172.9C519.833 172.5 520 172 520 171.4C520 170.8 519.833 170.333 519.5 170C519.167 169.6 518.733 169.4 518.2 169.4C517.667 169.4 517.233 169.6 516.9 170C516.567 170.333 516.4 170.8 516.4 171.4C516.4 172 516.567 172.5 516.9 172.9C517.233 173.3 517.667 173.5 518.2 173.5ZM522.7 168.4V167.7C522.7 167.167 522.833 166.767 523.1 166.5C523.367 166.233 523.8 166.1 524.4 166.1H525.7V167.2H524.6C524.4 167.2 524.233 167.267 524.1 167.4C524.033 167.467 524 167.6 524 167.8V168.4H525.6V169.5H524V174.5H522.7V169.5H521.6V168.4H522.7ZM529.1 166.1H535.6V167.3H533V174.5H531.6V167.3H529.1V166.1ZM539.3 168.4V169.6H538.8C538.267 169.6 537.867 169.767 537.6 170.1C537.333 170.433 537.2 170.867 537.2 171.4V174.5H535.9V168.4H537.1L537.2 169.3C537.4 169.033 537.633 168.8 537.9 168.6C538.167 168.467 538.567 168.4 539.1 168.4H539.3ZM545.7 173.4V174.5H545C544.6 174.5 544.333 174.433 544.2 174.3C544 174.1 543.9 173.833 543.9 173.5C543.433 174.233 542.767 174.6 541.9 174.6C541.233 174.6 540.667 174.433 540.2 174.1C539.8 173.767 539.6 173.333 539.6 172.8C539.6 172.133 539.833 171.633 540.3 171.3C540.7 170.967 541.333 170.8 542.2 170.8H543.8V170.5C543.8 170.1 543.667 169.833 543.4 169.7C543.2 169.5 542.867 169.4 542.4 169.4C542.067 169.4 541.767 169.467 541.5 169.6C541.233 169.733 541.1 169.967 541.1 170.3H539.8C539.867 169.633 540.133 169.133 540.6 168.8C541.067 168.467 541.7 168.3 542.5 168.3C543.3 168.3 543.933 168.5 544.4 168.9C544.867 169.3 545.1 169.833 545.1 170.5V173C545.1 173.267 545.233 173.4 545.5 173.4H545.7ZM543.7 171.8H542.1C541.7 171.8 541.4 171.867 541.2 172C541 172.2 540.9 172.433 540.9 172.7C540.9 172.967 541 173.167 541.2 173.3C541.4 173.5 541.667 173.6 542 173.6C542.533 173.6 542.967 173.467 543.3 173.2C543.567 172.867 543.7 172.467 543.7 172V171.8ZM549.6 168.3C550.333 168.3 550.933 168.533 551.4 169C551.867 169.467 552.1 170.2 552.1 171.2V174.5H550.8V171.2C550.8 170.667 550.667 170.233 550.4 169.9C550.133 169.567 549.767 169.4 549.3 169.4C548.833 169.4 548.433 169.6 548.1 170C547.833 170.333 547.7 170.8 547.7 171.4V174.5H546.4V168.4H547.5L547.7 169.2C548.1 168.6 548.733 168.3 549.6 168.3ZM554.3 172.5C554.3 172.833 554.433 173.1 554.7 173.3C555.033 173.5 555.4 173.6 555.8 173.6C556.2 173.6 556.533 173.533 556.8 173.4C557 173.267 557.1 173.067 557.1 172.8C557.1 172.6 557.067 172.433 557 172.3C556.867 172.233 556.7 172.167 556.5 172.1C556.3 172.033 556.033 172 555.7 172C555.167 171.933 554.7 171.833 554.3 171.7C553.967 171.567 553.7 171.4 553.5 171.2C553.3 170.933 553.2 170.6 553.2 170.2C553.2 169.867 553.3 169.533 553.5 169.2C553.7 168.933 554 168.733 554.4 168.6C554.733 168.4 555.133 168.3 555.6 168.3C556.4 168.3 557.033 168.467 557.5 168.8C557.967 169.133 558.233 169.633 558.3 170.3H557C557 170.033 556.867 169.8 556.6 169.6C556.4 169.4 556.1 169.3 555.7 169.3C555.3 169.3 555 169.367 554.8 169.5C554.533 169.7 554.4 169.9 554.4 170.1C554.4 170.3 554.467 170.433 554.6 170.5C554.733 170.633 554.867 170.7 555 170.7C555.2 170.767 555.5 170.833 555.9 170.9C556.433 170.9 556.867 170.967 557.2 171.1C557.6 171.233 557.9 171.433 558.1 171.7C558.3 171.9 558.4 172.233 558.4 172.7C558.4 173.1 558.3 173.433 558.1 173.7C557.833 173.967 557.533 174.2 557.2 174.4C556.8 174.533 556.333 174.6 555.8 174.6C555 174.6 554.333 174.433 553.8 174.1C553.333 173.7 553.1 173.167 553.1 172.5H554.3ZM562.7 168.3C563.233 168.3 563.733 168.433 564.2 168.7C564.667 168.967 565 169.333 565.2 169.8C565.467 170.267 565.6 170.833 565.6 171.5C565.6 172.1 565.467 172.633 565.2 173.1C565 173.567 564.667 173.933 564.2 174.2C563.733 174.467 563.233 174.6 562.7 174.6C562.233 174.6 561.833 174.533 561.5 174.4C561.167 174.2 560.9 173.967 560.7 173.7V176.9H559.4V168.4H560.5L560.7 169.3C561.233 168.633 561.9 168.3 562.7 168.3ZM562.5 173.5C563.033 173.5 563.467 173.3 563.8 172.9C564.133 172.567 564.3 172.1 564.3 171.5C564.3 170.9 564.133 170.4 563.8 170C563.467 169.6 563.033 169.4 562.5 169.4C561.967 169.4 561.533 169.6 561.2 170C560.867 170.333 560.7 170.8 560.7 171.4C560.7 172.067 560.867 172.567 561.2 172.9C561.533 173.3 561.967 173.5 562.5 173.5ZM569.6 174.6C568.933 174.6 568.367 174.467 567.9 174.2C567.433 173.933 567.067 173.567 566.8 173.1C566.533 172.633 566.4 172.1 566.4 171.5C566.4 170.833 566.533 170.267 566.8 169.8C567.067 169.333 567.433 168.967 567.9 168.7C568.367 168.433 568.933 168.3 569.6 168.3C570.2 168.3 570.733 168.433 571.2 168.7C571.667 168.967 572.033 169.333 572.3 169.8C572.567 170.267 572.7 170.833 572.7 171.5C572.7 172.1 572.567 172.633 572.3 173.1C572.033 173.567 571.667 173.933 571.2 174.2C570.733 174.467 570.2 174.6 569.6 174.6ZM569.6 173.5C570.133 173.5 570.567 173.3 570.9 172.9C571.233 172.567 571.4 172.1 571.4 171.5C571.4 170.9 571.233 170.4 570.9 170C570.567 169.6 570.133 169.4 569.6 169.4C569 169.4 568.533 169.6 568.2 170C567.933 170.4 567.8 170.9 567.8 171.5C567.8 172.1 567.933 172.567 568.2 172.9C568.533 173.3 569 173.5 569.6 173.5ZM577.1 168.4V169.6H576.5C575.967 169.6 575.6 169.767 575.4 170.1C575.133 170.5 575 170.967 575 171.5V174.5H573.7V168.4H574.9L575 169.3C575.2 169.033 575.433 168.8 575.7 168.6C575.967 168.467 576.333 168.4 576.8 168.4H577.1ZM578 166.7H579.3V168.4H580.7V169.5H579.3V172.7C579.3 172.967 579.333 173.167 579.4 173.3C579.467 173.367 579.633 173.4 579.9 173.4H580.9V174.5H579.6C579.067 174.5 578.667 174.367 578.4 174.1C578.133 173.833 578 173.433 578 172.9V166.7Z" fill="white"/>
<path opacity="0.32" fill-rule="evenodd" clip-rule="evenodd" d="M64.5 200.5V232.5C192.6 232.5 192.6 242.4 320.8 242.4V200.5C192.6 200.5 192.6 200.5 64.5 200.5Z" fill="url(#paint1_linear_67_58)"/>
<path opacity="0.34" fill-rule="evenodd" clip-rule="evenodd" d="M64.5 252.6V284.4C192.6 284.4 192.6 400.1 320.8 400.1V373.9C192.6 373.9 192.6 252.6 64.5 252.6Z" fill="url(#paint2_linear_67_58)"/>
<path opacity="0.74" fill-rule="evenodd" clip-rule="evenodd" d="M64.5 356.5V388.5C192.6 388.5 192.6 353.7 320.8 353.7V287.2C192.6 287.2 192.6 356.5 64.5 356.5Z" fill="url(#paint3_linear_67_58)"/>
<path opacity="0.28" fill-rule="evenodd" clip-rule="evenodd" d="M64.5 408.5V440.4C192.6 440.4 192.6 264.4 320.8 264.4V250.5C192.6 250.5 192.6 408.5 64.5 408.5Z" fill="url(#paint4_linear_67_58)"/>
<path opacity="0.74" fill-rule="evenodd" clip-rule="evenodd" d="M323.2 287.1V353.7C451.4 353.7 451.4 232.5 579.5 232.5V200.5C451.4 200.5 451.4 287.1 323.2 287.1Z" fill="url(#paint5_linear_67_58)"/>
<path opacity="0.22" fill-rule="evenodd" clip-rule="evenodd" d="M323.2 373.9V440.5C451.4 440.5 451.4 284.4 579.5 284.4V252.5C451.4 252.5 451.4 373.9 323.2 373.9Z" fill="url(#paint6_linear_67_58)"/>
<path opacity="0.28" fill-rule="evenodd" clip-rule="evenodd" d="M323.2 288.5V353.7C451.4 353.7 451.4 440.5 579.5 440.5V408.5C451.4 408.5 451.4 288.5 323.2 288.5Z" fill="url(#paint7_linear_67_58)"/>
<path opacity="0.58" fill-rule="evenodd" clip-rule="evenodd" d="M323.2 200.5V267.1C451.4 267.1 451.4 440.4 579.5 440.4V408.5C451.4 408.5 451.4 200.5 323.2 200.5Z" fill="url(#paint8_linear_67_58)"/>
<path opacity="0.32" fill-rule="evenodd" clip-rule="evenodd" d="M323.2 200.5V267.1C451.4 267.1 451.4 336.4 579.5 336.4V304.6C451.4 304.6 451.4 200.5 323.2 200.5Z" fill="url(#paint9_linear_67_58)"/>
<path opacity="0.58" fill-rule="evenodd" clip-rule="evenodd" d="M64.5 304.5V336.4C192.6 336.4 192.6 267 320.8 267V229.6C192.6 229.6 192.6 304.5 64.5 304.5Z" fill="url(#paint10_linear_67_58)"/>
<path opacity="0.4" fill-rule="evenodd" clip-rule="evenodd" d="M64.5 252.6V284.4C192.6 284.4 192.6 267.1 320.8 267.1V218.7C192.6 218.7 192.6 252.6 64.5 252.6Z" fill="url(#paint11_linear_67_58)"/>
<path d="M123 210.6H234C236.2 210.6 238 212.4 238 214.6V282.6C238 284.8 236.2 286.6 234 286.6H123C120.8 286.6 119 284.8 119 282.6V214.6C119 212.4 120.8 210.6 123 210.6Z" fill="white"/>
<path d="M127.3 223.8C127.3 223.267 127.433 222.767 127.7 222.3C127.9 221.9 128.2 221.567 128.6 221.3C129 221.1 129.467 221 130 221C130.6 221 131.133 221.167 131.6 221.5C132 221.833 132.267 222.3 132.4 222.9H131.7C131.567 222.5 131.367 222.2 131.1 222C130.767 221.733 130.4 221.6 130 221.6C129.6 221.6 129.267 221.7 129 221.9C128.667 222.1 128.433 222.367 128.3 222.7C128.1 223.033 128 223.4 128 223.8C128 224.267 128.1 224.667 128.3 225C128.433 225.333 128.667 225.6 129 225.8C129.267 225.933 129.6 226 130 226C130.4 226 130.767 225.9 131.1 225.7C131.367 225.5 131.533 225.2 131.6 224.8H132.3C132.233 225.4 132 225.867 131.6 226.2C131.133 226.533 130.6 226.7 130 226.7C129.467 226.7 129 226.567 128.6 226.3C128.2 226.1 127.9 225.767 127.7 225.3C127.433 224.9 127.3 224.4 127.3 223.8ZM136.9 226V226.6H136.6C136.333 226.6 136.133 226.567 136 226.5C135.933 226.367 135.867 226.2 135.8 226C135.533 226.467 135.1 226.7 134.5 226.7C134.033 226.7 133.667 226.6 133.4 226.4C133.133 226.133 133 225.833 133 225.5C133 225.1 133.133 224.767 133.4 224.5C133.667 224.3 134.067 224.2 134.6 224.2H135.8V223.9C135.8 223.633 135.7 223.433 135.5 223.3C135.367 223.167 135.133 223.1 134.8 223.1C134.533 223.1 134.3 223.167 134.1 223.3C133.9 223.433 133.8 223.6 133.8 223.8H133.1C133.167 223.4 133.333 223.067 133.6 222.8C133.933 222.6 134.333 222.5 134.8 222.5C135.333 222.5 135.733 222.633 136 222.9C136.333 223.167 136.5 223.533 136.5 224V225.7C136.5 225.9 136.567 226 136.7 226H136.9ZM135.8 224.8H134.6C133.933 224.8 133.6 225 133.6 225.4C133.6 225.667 133.7 225.833 133.9 225.9C134.033 226.033 134.233 226.1 134.5 226.1C134.9 226.1 135.233 226 135.5 225.8C135.7 225.6 135.8 225.333 135.8 225V224.8ZM137.7 223.2H137V222.6H137.7V221.4H138.4V222.6H139.4V223.2H138.4V225.6C138.4 225.733 138.433 225.833 138.5 225.9C138.567 225.967 138.667 226 138.8 226H139.5V226.6H138.8C138.4 226.6 138.133 226.533 138 226.4C137.8 226.2 137.7 225.933 137.7 225.6V223.2ZM139.8 224.6C139.8 224.2 139.867 223.833 140 223.5C140.133 223.167 140.367 222.933 140.7 222.8C140.967 222.6 141.3 222.5 141.7 222.5C142.1 222.5 142.433 222.6 142.7 222.8C142.967 222.933 143.2 223.133 143.4 223.4C143.533 223.733 143.6 224.1 143.6 224.5C143.6 224.5 143.6 224.567 143.6 224.7H140.4V224.8C140.467 225.2 140.6 225.533 140.8 225.8C141.067 226 141.367 226.1 141.7 226.1C142.033 226.1 142.3 226.033 142.5 225.9C142.7 225.767 142.833 225.567 142.9 225.3H143.6C143.467 225.7 143.267 226.033 143 226.3C142.667 226.567 142.267 226.7 141.8 226.7C141.4 226.7 141.033 226.6 140.7 226.4C140.433 226.267 140.2 226.033 140 225.7C139.867 225.367 139.8 225 139.8 224.6ZM142.9 224.2C142.9 223.867 142.8 223.6 142.6 223.4C142.333 223.2 142.033 223.1 141.7 223.1C141.367 223.1 141.1 223.2 140.9 223.4C140.633 223.6 140.5 223.867 140.5 224.2H142.9ZM148.2 222.6V226.4C148.2 227.667 147.533 228.3 146.2 228.3C145.667 228.3 145.233 228.167 144.9 227.9C144.567 227.7 144.367 227.367 144.3 226.9H145C145 227.167 145.133 227.367 145.4 227.5C145.6 227.633 145.867 227.7 146.2 227.7C147.067 227.7 147.5 227.267 147.5 226.4V225.9C147.233 226.433 146.767 226.7 146.1 226.7C145.767 226.7 145.433 226.6 145.1 226.4C144.833 226.267 144.6 226.033 144.4 225.7C144.267 225.433 144.2 225.067 144.2 224.6C144.2 224.2 144.267 223.833 144.4 223.5C144.6 223.167 144.833 222.933 145.1 222.8C145.433 222.6 145.767 222.5 146.1 222.5C146.433 222.5 146.733 222.567 147 222.7C147.2 222.833 147.367 223.033 147.5 223.3L147.6 222.6H148.2ZM146.2 226.1C146.467 226.1 146.7 226.033 146.9 225.9C147.1 225.767 147.267 225.6 147.4 225.4C147.533 225.2 147.6 224.933 147.6 224.6C147.6 224.333 147.533 224.067 147.4 223.8C147.267 223.6 147.1 223.433 146.9 223.3C146.7 223.167 146.467 223.1 146.2 223.1C145.8 223.1 145.467 223.233 145.2 223.5C145 223.767 144.9 224.133 144.9 224.6C144.9 225.067 145 225.433 145.2 225.7C145.467 225.967 145.8 226.1 146.2 226.1ZM151 226.7C150.6 226.7 150.233 226.6 149.9 226.4C149.633 226.267 149.4 226.033 149.2 225.7C149.067 225.367 149 225 149 224.6C149 224.2 149.067 223.833 149.2 223.5C149.4 223.167 149.633 222.933 149.9 222.8C150.233 222.6 150.6 222.5 151 222.5C151.4 222.5 151.733 222.6 152 222.8C152.333 222.933 152.6 223.167 152.8 223.5C152.933 223.833 153 224.2 153 224.6C153 225 152.933 225.367 152.8 225.7C152.6 226.033 152.333 226.267 152 226.4C151.733 226.6 151.4 226.7 151 226.7ZM151 226.1C151.267 226.1 151.5 226.033 151.7 225.9C151.9 225.767 152.067 225.6 152.2 225.4C152.267 225.133 152.3 224.867 152.3 224.6C152.3 224.333 152.267 224.067 152.2 223.8C152.067 223.6 151.9 223.433 151.7 223.3C151.5 223.167 151.267 223.1 151 223.1C150.733 223.1 150.5 223.167 150.3 223.3C150.1 223.433 149.933 223.6 149.8 223.8C149.667 224.067 149.6 224.333 149.6 224.6C149.6 224.867 149.667 225.133 149.8 225.4C149.933 225.6 150.1 225.767 150.3 225.9C150.5 226.033 150.733 226.1 151 226.1ZM155.8 222.6V223.2H155.5C155.1 223.2 154.833 223.333 154.7 223.6C154.5 223.867 154.4 224.2 154.4 224.6V226.6H153.8V222.6H154.3L154.4 223.2C154.533 223 154.7 222.833 154.9 222.7C155.1 222.633 155.367 222.6 155.7 222.6H155.8ZM156.7 222.6L157.9 225.9L159.2 222.6H159.9L158 227.3C157.867 227.567 157.767 227.767 157.7 227.9C157.633 228.033 157.533 228.133 157.4 228.2C157.333 228.2 157.2 228.2 157 228.2H156.2V227.6H156.8C156.933 227.6 157.033 227.6 157.1 227.6C157.167 227.6 157.2 227.567 157.2 227.5C157.267 227.433 157.333 227.333 157.4 227.2L157.6 226.7L156 222.6H156.7ZM160.3 223.2C160.3 223.067 160.333 222.967 160.4 222.9C160.467 222.833 160.567 222.8 160.7 222.8C160.833 222.8 160.933 222.833 161 222.9C161.133 222.967 161.2 223.067 161.2 223.2C161.2 223.333 161.133 223.467 161 223.6C160.933 223.667 160.833 223.7 160.7 223.7C160.567 223.7 160.467 223.667 160.4 223.6C160.333 223.467 160.3 223.333 160.3 223.2ZM160.3 226.2C160.3 226.067 160.333 225.967 160.4 225.9C160.467 225.833 160.567 225.8 160.7 225.8C160.833 225.8 160.933 225.833 161 225.9C161.133 225.967 161.2 226.067 161.2 226.2C161.2 226.333 161.133 226.467 161 226.6C160.933 226.667 160.833 226.7 160.7 226.7C160.567 226.7 160.467 226.667 160.4 226.6C160.333 226.467 160.3 226.333 160.3 226.2Z" fill="#666666"/>
<path d="M178.2 224.8C178.2 225.133 178.333 225.4 178.6 225.6C178.867 225.8 179.2 225.9 179.6 225.9C179.933 225.9 180.2 225.833 180.4 225.7C180.6 225.567 180.7 225.367 180.7 225.1C180.7 224.9 180.633 224.733 180.5 224.6C180.433 224.533 180.3 224.467 180.1 224.4C179.9 224.333 179.6 224.267 179.2 224.2C178.867 224.133 178.567 224.033 178.3 223.9C178.033 223.833 177.833 223.7 177.7 223.5C177.5 223.233 177.4 222.933 177.4 222.6C177.4 222.267 177.5 222 177.7 221.8C177.833 221.533 178.067 221.333 178.4 221.2C178.667 221.067 179 221 179.4 221C179.8 221 180.167 221.067 180.5 221.2C180.833 221.333 181.067 221.533 181.2 221.8C181.4 222.067 181.5 222.367 181.5 222.7H180.6C180.6 222.433 180.467 222.2 180.2 222C180 221.867 179.733 221.8 179.4 221.8C179.067 221.8 178.8 221.867 178.6 222C178.4 222.133 178.3 222.333 178.3 222.6C178.3 222.733 178.367 222.867 178.5 223C178.633 223.133 178.8 223.2 179 223.2C179.2 223.267 179.467 223.333 179.8 223.4C180.133 223.467 180.433 223.567 180.7 223.7C180.967 223.767 181.2 223.9 181.4 224.1C181.533 224.3 181.6 224.6 181.6 225C181.6 225.333 181.533 225.6 181.4 225.8C181.2 226.067 180.933 226.3 180.6 226.5C180.333 226.633 180 226.7 179.6 226.7C179.133 226.7 178.733 226.6 178.4 226.4C178.067 226.267 177.8 226.067 177.6 225.8C177.4 225.467 177.3 225.133 177.3 224.8H178.2ZM182.6 223.3H181.9V222.5H182.6V221.4H183.5V222.5H184.5V223.3H183.5V225.4C183.5 225.6 183.533 225.733 183.6 225.8C183.667 225.867 183.767 225.9 183.9 225.9H184.6V226.6H183.7C183.3 226.6 183.033 226.5 182.9 226.3C182.7 226.167 182.6 225.9 182.6 225.5V223.3ZM184.8 224.6C184.8 224.2 184.867 223.833 185 223.5C185.2 223.167 185.433 222.933 185.7 222.8C186.033 222.6 186.4 222.5 186.8 222.5C187.2 222.5 187.533 222.567 187.8 222.7C188.133 222.9 188.367 223.133 188.5 223.4C188.7 223.733 188.8 224.067 188.8 224.4C188.8 224.533 188.8 224.667 188.8 224.8H185.7C185.7 225.2 185.8 225.5 186 225.7C186.2 225.9 186.467 226 186.8 226C187.067 226 187.3 225.933 187.5 225.8C187.7 225.667 187.833 225.5 187.9 225.3H188.7C188.633 225.7 188.433 226.033 188.1 226.3C187.767 226.567 187.367 226.7 186.9 226.7C186.5 226.7 186.133 226.6 185.8 226.4C185.467 226.267 185.2 226.033 185 225.7C184.867 225.367 184.8 225 184.8 224.6ZM187.9 224.1C187.9 223.833 187.8 223.6 187.6 223.4C187.4 223.267 187.133 223.2 186.8 223.2C186.533 223.2 186.3 223.3 186.1 223.5C185.9 223.633 185.767 223.833 185.7 224.1H187.9ZM189.3 224.6C189.3 224.2 189.4 223.833 189.6 223.5C189.733 223.167 189.967 222.933 190.3 222.8C190.633 222.6 190.967 222.5 191.3 222.5C191.7 222.5 192.067 222.567 192.4 222.7C192.667 222.9 192.9 223.133 193.1 223.4C193.3 223.733 193.4 224.067 193.4 224.4C193.4 224.533 193.367 224.667 193.3 224.8H190.2C190.267 225.2 190.4 225.5 190.6 225.7C190.8 225.9 191.067 226 191.4 226C191.667 226 191.9 225.933 192.1 225.8C192.233 225.667 192.333 225.5 192.4 225.3H193.3C193.233 225.7 193.033 226.033 192.7 226.3C192.367 226.567 191.967 226.7 191.5 226.7C191.033 226.7 190.633 226.6 190.3 226.4C190.033 226.267 189.8 226.033 189.6 225.7C189.4 225.367 189.3 225 189.3 224.6ZM192.5 224.1C192.433 223.833 192.3 223.6 192.1 223.4C191.9 223.267 191.667 223.2 191.4 223.2C191.067 223.2 190.8 223.3 190.6 223.5C190.4 223.633 190.3 223.833 190.3 224.1H192.5ZM194.1 221H194.9V226.6H194.1V221Z" fill="black"/>
<path d="M127.5 233H128.4L130.4 237.7L132.4 233H133.2V238.6H132.6V234.2L130.7 238.6H130.1L128.2 234.2V238.6H127.5V233ZM138 238V238.6H137.7C137.433 238.6 137.233 238.567 137.1 238.5C136.967 238.367 136.9 238.2 136.9 238C136.633 238.467 136.2 238.7 135.6 238.7C135.133 238.7 134.767 238.6 134.5 238.4C134.233 238.133 134.1 237.833 134.1 237.5C134.1 237.1 134.233 236.767 134.5 236.5C134.767 236.3 135.167 236.2 135.7 236.2H136.9V235.9C136.9 235.633 136.8 235.433 136.6 235.3C136.467 235.167 136.233 235.1 135.9 235.1C135.633 235.1 135.4 235.167 135.2 235.3C135 235.433 134.9 235.6 134.9 235.8H134.2C134.267 235.4 134.433 235.067 134.7 234.8C135.033 234.6 135.433 234.5 135.9 234.5C136.433 234.5 136.833 234.633 137.1 234.9C137.433 235.167 137.6 235.533 137.6 236V237.7C137.6 237.9 137.667 238 137.8 238H138ZM136.9 236.8H135.6C135 236.8 134.7 237 134.7 237.4C134.7 237.667 134.8 237.833 135 237.9C135.133 238.033 135.333 238.1 135.6 238.1C136 238.1 136.333 238 136.6 237.8C136.8 237.6 136.9 237.333 136.9 237V236.8ZM138.8 235.2H138.1V234.6H138.8V233.4H139.5V234.6H140.5V235.2H139.5V237.6C139.5 237.733 139.533 237.833 139.6 237.9C139.667 237.967 139.767 238 139.9 238H140.6V238.6H139.9C139.5 238.6 139.233 238.533 139.1 238.4C138.9 238.2 138.8 237.933 138.8 237.6V235.2ZM140.9 236.6C140.9 236.2 140.967 235.833 141.1 235.5C141.233 235.167 141.467 234.933 141.8 234.8C142.067 234.6 142.4 234.5 142.8 234.5C143.133 234.5 143.467 234.6 143.8 234.8C144.067 234.933 144.3 235.133 144.5 235.4C144.633 235.733 144.7 236.1 144.7 236.5C144.7 236.5 144.7 236.567 144.7 236.7H141.5V236.8C141.567 237.2 141.7 237.533 141.9 237.8C142.167 238 142.467 238.1 142.8 238.1C143.133 238.1 143.4 238.033 143.6 237.9C143.8 237.767 143.933 237.567 144 237.3H144.7C144.567 237.7 144.367 238.033 144.1 238.3C143.767 238.567 143.367 238.7 142.9 238.7C142.5 238.7 142.133 238.6 141.8 238.4C141.533 238.267 141.3 238.033 141.1 237.7C140.967 237.367 140.9 237 140.9 236.6ZM144 236.2C144 235.867 143.9 235.6 143.7 235.4C143.433 235.2 143.133 235.1 142.8 235.1C142.467 235.1 142.2 235.2 142 235.4C141.733 235.6 141.6 235.867 141.6 236.2H144ZM147.5 234.6V235.2H147.2C146.8 235.2 146.5 235.333 146.3 235.6C146.167 235.867 146.1 236.2 146.1 236.6V238.6H145.4V234.6H146L146.1 235.2C146.167 235 146.3 234.833 146.5 234.7C146.7 234.633 146.967 234.6 147.3 234.6H147.5ZM148.4 233C148.533 233 148.633 233.033 148.7 233.1C148.767 233.167 148.8 233.267 148.8 233.4C148.8 233.533 148.767 233.633 148.7 233.7C148.633 233.767 148.533 233.8 148.4 233.8C148.267 233.8 148.167 233.767 148.1 233.7C148.033 233.633 148 233.533 148 233.4C148 233.267 148.033 233.167 148.1 233.1C148.167 233.033 148.267 233 148.4 233ZM148.1 234.6H148.8V238.6H148.1V234.6ZM153.5 238.1V238.7H153.1C152.833 238.7 152.633 238.667 152.5 238.6C152.433 238.467 152.4 238.3 152.4 238.1C152.067 238.567 151.6 238.8 151 238.8C150.533 238.8 150.167 238.7 149.9 238.5C149.633 238.233 149.5 237.933 149.5 237.6C149.5 237.2 149.633 236.867 149.9 236.6C150.167 236.4 150.567 236.3 151.1 236.3H152.3V236C152.3 235.733 152.233 235.533 152.1 235.4C151.9 235.267 151.633 235.2 151.3 235.2C151.033 235.2 150.8 235.267 150.6 235.4C150.4 235.533 150.3 235.7 150.3 235.9H149.6C149.667 235.5 149.867 235.167 150.2 234.9C150.467 234.7 150.867 234.6 151.4 234.6C151.867 234.6 152.267 234.733 152.6 235C152.867 235.267 153 235.633 153 236.1V237.8C153 238 153.1 238.1 153.3 238.1H153.5ZM152.3 236.9H151.1C150.5 236.9 150.2 237.1 150.2 237.5C150.2 237.7 150.267 237.867 150.4 238C150.533 238.133 150.733 238.2 151 238.2C151.467 238.2 151.8 238.1 152 237.9C152.2 237.7 152.3 237.433 152.3 237.1V236.9ZM154 233.1H154.6V238.7H154V233.1ZM155.4 235.3C155.4 235.167 155.467 235.067 155.6 235C155.667 234.933 155.767 234.9 155.9 234.9C156.033 234.9 156.133 234.933 156.2 235C156.333 235.067 156.4 235.167 156.4 235.3C156.4 235.433 156.333 235.567 156.2 235.7C156.133 235.767 156.033 235.8 155.9 235.8C155.767 235.8 155.667 235.767 155.6 235.7C155.467 235.567 155.4 235.433 155.4 235.3ZM155.4 238.3C155.4 238.167 155.467 238.067 155.6 238C155.667 237.933 155.767 237.9 155.9 237.9C156.033 237.9 156.133 237.933 156.2 238C156.333 238.067 156.4 238.167 156.4 238.3C156.4 238.433 156.333 238.567 156.2 238.7C156.133 238.767 156.033 238.8 155.9 238.8C155.767 238.8 155.667 238.767 155.6 238.7C155.467 238.567 155.4 238.433 155.4 238.3Z" fill="#666666"/>
<path d="M177.1 238.6L179.2 233H180.3L182.3 238.6H181.4L180.8 237.2H178.5L178 238.6H177.1ZM178.8 236.5H180.6L179.7 234L178.8 236.5ZM183 233.1H184.7C185.3 233.1 185.8 233.2 186.2 233.4C186.667 233.667 187 234 187.2 234.4C187.467 234.867 187.6 235.367 187.6 235.9C187.6 236.433 187.467 236.933 187.2 237.4C187 237.8 186.667 238.1 186.2 238.3C185.8 238.567 185.3 238.7 184.7 238.7H183V233.1ZM184.7 237.9C185.3 237.9 185.767 237.733 186.1 237.4C186.433 237 186.6 236.5 186.6 235.9C186.6 235.3 186.433 234.8 186.1 234.4C185.767 234.067 185.3 233.9 184.7 233.9H183.9V237.9H184.7ZM187.6 238.7L189.7 233.1H190.8L192.9 238.7H191.9L191.4 237.3H189.1L188.6 238.7H187.6ZM189.3 236.5H191.1L190.2 234.1L189.3 236.5ZM193.4 233.1H197V233.9H194.3V235.5H196.5V236.3H194.3V238.7H193.4V233.1ZM199.4 233.1V238.7H198.5V234.9C198.433 234.9 198.333 234.9 198.2 234.9H197.2V234.2H198.1C198.233 234.2 198.333 234.133 198.4 234C198.467 233.933 198.5 233.833 198.5 233.7V233.1H199.4ZM200.3 235.7C200.3 235.167 200.4 234.7 200.6 234.3C200.8 233.9 201.067 233.567 201.4 233.3C201.733 233.1 202.1 233 202.5 233C202.967 233 203.333 233.1 203.6 233.3C204 233.567 204.267 233.9 204.4 234.3C204.6 234.7 204.7 235.167 204.7 235.7V236C204.7 236.533 204.6 237 204.4 237.4C204.267 237.8 204.033 238.133 203.7 238.4C203.367 238.6 202.967 238.7 202.5 238.7C202.1 238.7 201.733 238.6 201.4 238.4C201.067 238.133 200.8 237.8 200.6 237.4C200.4 237 200.3 236.533 200.3 236V235.7ZM203.8 235.7C203.8 235.1 203.7 234.633 203.5 234.3C203.233 233.9 202.9 233.7 202.5 233.7C202.1 233.7 201.8 233.9 201.6 234.3C201.333 234.633 201.2 235.1 201.2 235.7V235.9C201.2 236.5 201.333 237 201.6 237.4C201.8 237.733 202.1 237.9 202.5 237.9C202.9 237.9 203.233 237.733 203.5 237.4C203.7 237 203.8 236.5 203.8 235.9V235.7ZM205.4 235.7C205.4 235.167 205.5 234.7 205.7 234.3C205.833 233.833 206.067 233.5 206.4 233.3C206.733 233.1 207.133 233 207.6 233C208 233 208.367 233.1 208.7 233.3C209.033 233.5 209.3 233.833 209.5 234.3C209.7 234.7 209.8 235.167 209.8 235.7V235.9C209.8 236.5 209.7 237 209.5 237.4C209.3 237.8 209.033 238.1 208.7 238.3C208.367 238.5 208 238.6 207.6 238.6C207.133 238.6 206.733 238.5 206.4 238.3C206.067 238.1 205.833 237.8 205.7 237.4C205.5 237 205.4 236.5 205.4 235.9V235.7ZM208.9 235.8C208.9 235.133 208.767 234.633 208.5 234.3C208.3 233.967 208 233.8 207.6 233.8C207.2 233.8 206.867 233.967 206.6 234.3C206.4 234.633 206.3 235.133 206.3 235.8V236C206.3 236.6 206.4 237.067 206.6 237.4C206.867 237.733 207.2 237.9 207.6 237.9C208 237.9 208.3 237.733 208.5 237.4C208.767 237.067 208.9 236.6 208.9 236V235.8ZM210.3 236.6L213 233H214V236.6H214.9V237.4H214V238.6H213.2V237.4H210.3V236.6ZM211.2 236.5H213.2V233.9L211.2 236.5Z" fill="black"/>
<path d="M128 248.8C128.067 249.2 128.233 249.5 128.5 249.7C128.767 249.9 129.1 250 129.5 250C129.9 250 130.233 249.933 130.5 249.8C130.7 249.6 130.8 249.367 130.8 249.1C130.8 248.9 130.733 248.733 130.6 248.6C130.467 248.467 130.3 248.367 130.1 248.3C129.9 248.233 129.633 248.167 129.3 248.1C128.7 248.033 128.267 247.867 128 247.6C127.667 247.4 127.5 247.067 127.5 246.6C127.5 246.267 127.567 245.967 127.7 245.7C127.833 245.5 128.067 245.333 128.4 245.2C128.667 245.067 129 245 129.4 245C129.8 245 130.133 245.067 130.4 245.2C130.733 245.333 130.967 245.533 131.1 245.8C131.3 246.067 131.4 246.367 131.4 246.7H130.7C130.7 246.367 130.567 246.1 130.3 245.9C130.033 245.7 129.733 245.6 129.4 245.6C129 245.6 128.7 245.7 128.5 245.9C128.3 246.033 128.2 246.233 128.2 246.5C128.2 246.767 128.233 246.933 128.3 247C128.433 247.133 128.6 247.233 128.8 247.3C129 247.367 129.3 247.433 129.7 247.5C130.233 247.567 130.667 247.733 131 248C131.333 248.2 131.5 248.533 131.5 249C131.5 249.333 131.433 249.633 131.3 249.9C131.1 250.167 130.867 250.367 130.6 250.5C130.267 250.633 129.9 250.7 129.5 250.7C129.1 250.7 128.733 250.6 128.4 250.4C128.067 250.267 127.8 250.067 127.6 249.8C127.467 249.533 127.367 249.2 127.3 248.8H128ZM135.8 246.6V250.6H135.3L135.2 250.1C134.867 250.5 134.433 250.7 133.9 250.7C133.367 250.7 132.967 250.533 132.7 250.2C132.433 249.933 132.3 249.467 132.3 248.8V246.6H132.9V248.8C132.9 249.2 133 249.533 133.2 249.8C133.4 250 133.667 250.1 134 250.1C134.333 250.1 134.633 249.967 134.9 249.7C135.1 249.433 135.2 249.067 135.2 248.6V246.6H135.8ZM138.7 246.5C139.1 246.5 139.433 246.6 139.7 246.8C140.033 246.933 140.267 247.167 140.4 247.5C140.6 247.767 140.7 248.133 140.7 248.6C140.7 249 140.6 249.367 140.4 249.7C140.267 250.033 140.033 250.267 139.7 250.4C139.433 250.6 139.1 250.7 138.7 250.7C138.367 250.7 138.1 250.633 137.9 250.5C137.633 250.367 137.433 250.2 137.3 250V252.2H136.7V246.6H137.2L137.3 247.2C137.633 246.733 138.1 246.5 138.7 246.5ZM138.7 250.1C139.1 250.1 139.4 249.967 139.6 249.7C139.867 249.433 140 249.067 140 248.6C140 248.133 139.867 247.767 139.6 247.5C139.4 247.233 139.1 247.1 138.7 247.1C138.433 247.1 138.2 247.167 138 247.3C137.8 247.433 137.633 247.6 137.5 247.8C137.367 248 137.3 248.267 137.3 248.6C137.3 248.867 137.367 249.133 137.5 249.4C137.633 249.6 137.8 249.767 138 249.9C138.2 250.033 138.433 250.1 138.7 250.1ZM143.5 246.5C143.9 246.5 144.233 246.6 144.5 246.8C144.767 246.933 145 247.167 145.2 247.5C145.4 247.767 145.5 248.133 145.5 248.6C145.5 249 145.4 249.367 145.2 249.7C145 250.033 144.767 250.267 144.5 250.4C144.233 250.6 143.9 250.7 143.5 250.7C143.167 250.7 142.867 250.633 142.6 250.5C142.4 250.367 142.233 250.2 142.1 250V252.2H141.4V246.6H142L142.1 247.2C142.433 246.733 142.9 246.5 143.5 246.5ZM143.4 250.1C143.8 250.1 144.133 249.967 144.4 249.7C144.667 249.433 144.8 249.067 144.8 248.6C144.8 248.133 144.667 247.767 144.4 247.5C144.133 247.233 143.8 247.1 143.4 247.1C143.133 247.1 142.9 247.167 142.7 247.3C142.5 247.433 142.367 247.6 142.3 247.8C142.167 248 142.1 248.267 142.1 248.6C142.1 248.867 142.167 249.133 142.3 249.4C142.367 249.6 142.5 249.767 142.7 249.9C142.9 250.033 143.133 250.1 143.4 250.1ZM146.2 245H146.9V250.6H146.2V245ZM148.1 245C148.233 245 148.333 245.033 148.4 245.1C148.467 245.167 148.5 245.267 148.5 245.4C148.5 245.533 148.467 245.633 148.4 245.7C148.333 245.767 148.233 245.8 148.1 245.8C147.967 245.8 147.867 245.767 147.8 245.7C147.733 245.633 147.7 245.533 147.7 245.4C147.7 245.267 147.733 245.167 147.8 245.1C147.867 245.033 147.967 245 148.1 245ZM147.8 246.6H148.4V250.6H147.8V246.6ZM149.2 248.7C149.2 248.233 149.267 247.867 149.4 247.6C149.6 247.267 149.833 247 150.1 246.8C150.367 246.667 150.7 246.6 151.1 246.6C151.5 246.6 151.833 246.667 152.1 246.8C152.367 246.933 152.6 247.167 152.8 247.5C152.933 247.767 153 248.1 153 248.5C153 248.567 153 248.667 153 248.8H149.9V248.9C149.9 249.3 150 249.6 150.2 249.8C150.467 250.067 150.767 250.2 151.1 250.2C151.433 250.2 151.7 250.133 151.9 250C152.1 249.8 152.233 249.567 152.3 249.3H153C152.867 249.767 152.667 250.133 152.4 250.4C152.067 250.667 151.667 250.8 151.2 250.8C150.8 250.8 150.433 250.7 150.1 250.5C149.833 250.3 149.6 250.067 149.4 249.8C149.267 249.467 149.2 249.1 149.2 248.7ZM152.4 248.3C152.333 247.9 152.2 247.6 152 247.4C151.733 247.267 151.433 247.2 151.1 247.2C150.767 247.2 150.5 247.3 150.3 247.5C150.033 247.7 149.9 247.967 149.9 248.3H152.4ZM155.9 246.6V247.3H155.6C155.2 247.3 154.9 247.433 154.7 247.7C154.567 247.967 154.5 248.267 154.5 248.6V250.7H153.8V246.6H154.4L154.5 247.2C154.633 247.067 154.767 246.933 154.9 246.8C155.1 246.667 155.367 246.6 155.7 246.6H155.9ZM156.4 247.3C156.4 247.167 156.467 247.067 156.6 247C156.667 246.933 156.767 246.9 156.9 246.9C157.033 246.9 157.133 246.933 157.2 247C157.267 247.067 157.3 247.167 157.3 247.3C157.3 247.433 157.267 247.533 157.2 247.6C157.133 247.733 157.033 247.8 156.9 247.8C156.767 247.8 156.667 247.733 156.6 247.6C156.467 247.533 156.4 247.433 156.4 247.3ZM156.4 250.3C156.4 250.167 156.467 250.067 156.6 250C156.667 249.933 156.767 249.9 156.9 249.9C157.033 249.9 157.133 249.933 157.2 250C157.267 250.067 157.3 250.167 157.3 250.3C157.3 250.433 157.267 250.533 157.2 250.6C157.133 250.733 157.033 250.8 156.9 250.8C156.767 250.8 156.667 250.733 156.6 250.6C156.467 250.533 156.4 250.433 156.4 250.3Z" fill="#666666"/>
<path d="M178.2 248.8C178.2 249.133 178.333 249.4 178.6 249.6C178.867 249.8 179.2 249.9 179.6 249.9C179.933 249.9 180.2 249.833 180.4 249.7C180.6 249.567 180.7 249.367 180.7 249.1C180.7 248.9 180.633 248.733 180.5 248.6C180.433 248.533 180.3 248.467 180.1 248.4C179.9 248.333 179.6 248.267 179.2 248.2C178.867 248.133 178.567 248.033 178.3 247.9C178.033 247.833 177.833 247.7 177.7 247.5C177.5 247.233 177.4 246.933 177.4 246.6C177.4 246.267 177.5 246 177.7 245.8C177.833 245.533 178.067 245.333 178.4 245.2C178.667 245.067 179 245 179.4 245C179.8 245 180.167 245.067 180.5 245.2C180.833 245.333 181.067 245.533 181.2 245.8C181.4 246.067 181.5 246.367 181.5 246.7H180.6C180.6 246.433 180.467 246.2 180.2 246C180 245.867 179.733 245.8 179.4 245.8C179.067 245.8 178.8 245.867 178.6 246C178.4 246.133 178.3 246.333 178.3 246.6C178.3 246.733 178.367 246.867 178.5 247C178.633 247.133 178.8 247.2 179 247.2C179.2 247.267 179.467 247.333 179.8 247.4C180.133 247.467 180.433 247.567 180.7 247.7C180.967 247.767 181.2 247.9 181.4 248.1C181.533 248.3 181.6 248.6 181.6 249C181.6 249.333 181.533 249.6 181.4 249.8C181.2 250.067 180.933 250.3 180.6 250.5C180.333 250.633 180 250.7 179.6 250.7C179.133 250.7 178.733 250.6 178.4 250.4C178.067 250.267 177.8 250.067 177.6 249.8C177.4 249.467 177.3 249.133 177.3 248.8H178.2ZM186 246.5V250.6H185.3L185.2 250.1C184.867 250.5 184.433 250.7 183.9 250.7C183.433 250.7 183.033 250.533 182.7 250.2C182.433 249.933 182.3 249.467 182.3 248.8V246.5H183.1V248.7C183.1 249.1 183.2 249.4 183.4 249.6C183.533 249.8 183.767 249.9 184.1 249.9C184.433 249.9 184.7 249.8 184.9 249.6C185.1 249.333 185.2 249 185.2 248.6V246.5H186ZM189 246.5C189.4 246.5 189.733 246.567 190 246.7C190.267 246.9 190.5 247.167 190.7 247.5C190.833 247.767 190.9 248.133 190.9 248.6C190.9 249 190.833 249.367 190.7 249.7C190.5 249.967 190.267 250.2 190 250.4C189.733 250.6 189.4 250.7 189 250.7C188.667 250.7 188.4 250.633 188.2 250.5C188 250.367 187.833 250.2 187.7 250V252.2H186.8V246.5H187.6L187.7 247.1C188.033 246.7 188.467 246.5 189 246.5ZM188.8 249.9C189.2 249.9 189.5 249.8 189.7 249.6C189.9 249.333 190 249 190 248.6C190 248.2 189.9 247.867 189.7 247.6C189.5 247.333 189.2 247.2 188.8 247.2C188.467 247.2 188.2 247.333 188 247.6C187.8 247.867 187.7 248.2 187.7 248.6C187.7 249 187.8 249.333 188 249.6C188.2 249.8 188.467 249.9 188.8 249.9ZM193.8 246.5C194.2 246.5 194.533 246.567 194.8 246.7C195.133 246.9 195.367 247.167 195.5 247.5C195.633 247.767 195.733 248.133 195.8 248.6C195.733 249 195.633 249.367 195.5 249.7C195.367 249.967 195.133 250.2 194.8 250.4C194.533 250.6 194.2 250.7 193.8 250.7C193.533 250.7 193.267 250.633 193 250.5C192.8 250.367 192.633 250.2 192.5 250V252.2H191.6V246.5H192.4L192.5 247.1C192.833 246.7 193.267 246.5 193.8 246.5ZM193.7 249.9C194.033 249.9 194.3 249.8 194.5 249.6C194.767 249.333 194.9 249 194.9 248.6C194.9 248.2 194.767 247.867 194.5 247.6C194.3 247.333 194.033 247.2 193.7 247.2C193.3 247.2 193 247.333 192.8 247.6C192.6 247.867 192.5 248.2 192.5 248.6C192.5 249 192.6 249.333 192.8 249.6C193 249.8 193.3 249.9 193.7 249.9ZM196.4 245H197.3V250.6H196.4V245ZM198.6 244.9C198.733 244.9 198.867 244.933 199 245C199.067 245.133 199.1 245.267 199.1 245.4C199.1 245.533 199.067 245.667 199 245.8C198.867 245.867 198.733 245.9 198.6 245.9C198.467 245.9 198.333 245.867 198.2 245.8C198.133 245.667 198.1 245.533 198.1 245.4C198.1 245.267 198.133 245.133 198.2 245C198.333 244.933 198.467 244.9 198.6 244.9ZM198.2 246.5H199V250.6H198.2V246.5ZM199.7 248.6C199.7 248.133 199.8 247.767 200 247.5C200.133 247.167 200.367 246.9 200.7 246.7C200.967 246.567 201.3 246.5 201.7 246.5C202.1 246.5 202.433 246.567 202.7 246.7C203.033 246.833 203.3 247.067 203.5 247.4C203.633 247.667 203.7 248 203.7 248.4C203.7 248.533 203.7 248.633 203.7 248.7H200.6V248.8C200.6 249.133 200.733 249.4 201 249.6C201.2 249.867 201.467 250 201.8 250C202.067 250 202.267 249.933 202.4 249.8C202.6 249.667 202.733 249.467 202.8 249.2H203.7C203.567 249.667 203.333 250.033 203 250.3C202.733 250.567 202.333 250.7 201.8 250.7C201.4 250.7 201.033 250.6 200.7 250.4C200.367 250.2 200.133 249.967 200 249.7C199.8 249.367 199.7 249 199.7 248.6ZM202.8 248.1C202.8 247.833 202.7 247.6 202.5 247.4C202.3 247.267 202.033 247.2 201.7 247.2C201.433 247.2 201.2 247.267 201 247.4C200.8 247.6 200.667 247.833 200.6 248.1H202.8ZM206.7 246.5V247.3H206.3C205.967 247.3 205.7 247.433 205.5 247.7C205.367 247.9 205.3 248.2 205.3 248.6V250.6H204.4V246.5H205.2L205.3 247.1C205.433 246.9 205.567 246.767 205.7 246.7C205.9 246.567 206.167 246.5 206.5 246.5H206.7ZM211.5 246.5C211.967 246.5 212.333 246.633 212.6 246.9C212.933 247.233 213.1 247.733 213.1 248.4V250.6H212.2V248.4C212.2 248 212.133 247.7 212 247.5C211.8 247.3 211.567 247.2 211.3 247.2C210.9 247.2 210.6 247.333 210.4 247.6C210.267 247.8 210.2 248.1 210.2 248.5V250.6H209.3V246.5H210L210.1 247.1C210.433 246.7 210.9 246.5 211.5 246.5ZM217.8 249.9V250.6H217.4C217.133 250.6 216.933 250.533 216.8 250.4C216.667 250.333 216.6 250.2 216.6 250C216.267 250.467 215.8 250.7 215.2 250.7C214.8 250.7 214.433 250.567 214.1 250.3C213.833 250.1 213.7 249.833 213.7 249.5C213.7 249.033 213.867 248.7 214.2 248.5C214.467 248.233 214.9 248.1 215.5 248.1H216.5V247.9C216.5 247.7 216.433 247.533 216.3 247.4C216.1 247.267 215.867 247.2 215.6 247.2C215.333 247.2 215.133 247.233 215 247.3C214.8 247.433 214.7 247.6 214.7 247.8H213.8C213.867 247.333 214.067 247 214.4 246.8C214.733 246.6 215.133 246.5 215.6 246.5C216.2 246.5 216.633 246.633 216.9 246.9C217.233 247.1 217.4 247.467 217.4 248V249.6C217.4 249.8 217.467 249.9 217.6 249.9H217.8ZM216.5 248.8H215.5C215.233 248.8 215.033 248.833 214.9 248.9C214.7 249.033 214.6 249.2 214.6 249.4C214.6 249.6 214.667 249.733 214.8 249.8C214.933 249.933 215.133 250 215.4 250C215.733 250 216 249.9 216.2 249.7C216.4 249.5 216.5 249.233 216.5 248.9V248.8ZM223 246.5C223.467 246.5 223.833 246.667 224.1 247C224.433 247.267 224.6 247.7 224.6 248.3V250.7H223.7V248.4C223.7 248 223.633 247.7 223.5 247.5C223.367 247.367 223.133 247.3 222.8 247.3C222.533 247.3 222.3 247.4 222.1 247.6C221.967 247.8 221.9 248.067 221.9 248.4V250.7H221V248.4C221 248 220.933 247.7 220.8 247.5C220.667 247.367 220.433 247.3 220.1 247.3C219.833 247.3 219.6 247.4 219.4 247.6C219.267 247.8 219.2 248.1 219.2 248.5V250.7H218.3V246.6H219.1L219.2 247.1C219.467 246.7 219.867 246.5 220.4 246.5C220.667 246.5 220.9 246.567 221.1 246.7C221.3 246.833 221.467 247.033 221.6 247.3C221.733 247.033 221.933 246.833 222.2 246.7C222.4 246.567 222.667 246.5 223 246.5ZM225.2 248.6C225.2 248.2 225.267 247.833 225.4 247.5C225.6 247.167 225.833 246.933 226.1 246.8C226.433 246.6 226.8 246.5 227.2 246.5C227.6 246.5 227.933 246.6 228.2 246.8C228.533 246.933 228.767 247.133 228.9 247.4C229.1 247.733 229.2 248.1 229.2 248.5C229.2 248.567 229.2 248.667 229.2 248.8H226.1C226.1 249.2 226.2 249.5 226.4 249.7C226.6 249.9 226.867 250 227.2 250C227.467 250 227.7 249.933 227.9 249.8C228.1 249.667 228.233 249.5 228.3 249.3H229.1C229.033 249.7 228.833 250.033 228.5 250.3C228.167 250.567 227.767 250.7 227.3 250.7C226.9 250.7 226.533 250.6 226.2 250.4C225.867 250.267 225.6 250.033 225.4 249.7C225.267 249.367 225.2 249 225.2 248.6ZM228.3 248.2C228.3 247.867 228.2 247.633 228 247.5C227.8 247.3 227.533 247.2 227.2 247.2C226.933 247.2 226.7 247.3 226.5 247.5C226.3 247.633 226.167 247.867 226.1 248.2H228.3Z" fill="black"/>
<path d="M129.7 257C130.033 257 130.367 257.067 130.7 257.2C130.967 257.4 131.167 257.6 131.3 257.8C131.5 258.067 131.6 258.4 131.6 258.8C131.6 259.133 131.5 259.433 131.3 259.7C131.167 259.967 130.967 260.167 130.7 260.3C130.367 260.433 130.033 260.5 129.7 260.5H128.2V262.6H127.5V257H129.7ZM128.3 259.8H129.7C130.033 259.8 130.333 259.7 130.6 259.5C130.8 259.3 130.9 259.067 130.9 258.8C130.9 258.467 130.8 258.2 130.6 258C130.333 257.8 130.033 257.7 129.7 257.7H128.3V259.8ZM137.5 259.8C137.5 260.333 137.367 260.8 137.1 261.2C136.9 261.667 136.6 262 136.2 262.2C135.8 262.467 135.333 262.6 134.8 262.6C134.267 262.6 133.8 262.467 133.4 262.2C133 262 132.7 261.667 132.5 261.2C132.233 260.8 132.1 260.333 132.1 259.8C132.1 259.2 132.233 258.7 132.5 258.3C132.7 257.9 133 257.567 133.4 257.3C133.8 257.033 134.267 256.9 134.8 256.9C135.333 256.9 135.8 257.033 136.2 257.3C136.6 257.567 136.9 257.9 137.1 258.3C137.367 258.7 137.5 259.2 137.5 259.8ZM132.8 259.8C132.8 260.2 132.9 260.567 133.1 260.9C133.233 261.233 133.467 261.5 133.8 261.7C134.067 261.9 134.4 262 134.8 262C135.2 262 135.533 261.9 135.8 261.7C136.133 261.5 136.367 261.233 136.5 260.9C136.7 260.567 136.8 260.2 136.8 259.8C136.8 259.333 136.7 258.933 136.5 258.6C136.367 258.267 136.133 258 135.8 257.8C135.533 257.667 135.2 257.6 134.8 257.6C134.4 257.6 134.067 257.667 133.8 257.8C133.467 258 133.233 258.267 133.1 258.6C132.9 258.933 132.8 259.333 132.8 259.8ZM138.2 259.2C138.2 259.067 138.233 258.933 138.3 258.8C138.367 258.733 138.467 258.7 138.6 258.7C138.733 258.7 138.867 258.733 139 258.8C139.067 258.933 139.1 259.067 139.1 259.2C139.1 259.333 139.067 259.433 139 259.5C138.867 259.567 138.733 259.6 138.6 259.6C138.467 259.6 138.367 259.567 138.3 259.5C138.233 259.433 138.2 259.333 138.2 259.2ZM138.2 262.2C138.2 262.067 138.233 261.933 138.3 261.8C138.367 261.733 138.467 261.7 138.6 261.7C138.733 261.7 138.867 261.733 139 261.8C139.067 261.933 139.1 262.067 139.1 262.2C139.1 262.333 139.067 262.433 139 262.5C138.867 262.567 138.733 262.6 138.6 262.6C138.467 262.6 138.367 262.567 138.3 262.5C138.233 262.433 138.2 262.333 138.2 262.2Z" fill="#666666"/>
<path d="M179.7 257C180.1 257 180.433 257.1 180.7 257.3C181.033 257.433 181.267 257.633 181.4 257.9C181.6 258.167 181.7 258.467 181.7 258.8C181.7 259.2 181.6 259.533 181.4 259.8C181.267 260.067 181.033 260.267 180.7 260.4C180.433 260.533 180.1 260.6 179.7 260.6H178.4V262.6H177.5V257H179.7ZM178.4 259.8H179.6C179.933 259.8 180.2 259.7 180.4 259.5C180.6 259.367 180.7 259.133 180.7 258.8C180.7 258.533 180.6 258.3 180.4 258.1C180.2 257.9 179.933 257.8 179.6 257.8H178.4V259.8ZM187.6 259.9C187.6 260.433 187.467 260.9 187.2 261.3C187 261.767 186.7 262.1 186.3 262.3C185.9 262.567 185.433 262.7 184.9 262.7C184.367 262.7 183.867 262.567 183.4 262.3C183 262.1 182.7 261.767 182.5 261.3C182.233 260.9 182.1 260.433 182.1 259.9C182.1 259.3 182.233 258.8 182.5 258.4C182.7 258 183 257.667 183.4 257.4C183.867 257.133 184.367 257 184.9 257C185.433 257 185.9 257.133 186.3 257.4C186.7 257.667 187 258 187.2 258.4C187.467 258.8 187.6 259.3 187.6 259.9ZM183.1 259.9C183.1 260.233 183.167 260.567 183.3 260.9C183.433 261.233 183.633 261.467 183.9 261.6C184.167 261.8 184.5 261.9 184.9 261.9C185.233 261.9 185.533 261.8 185.8 261.6C186.067 261.467 186.267 261.233 186.4 260.9C186.533 260.567 186.6 260.233 186.6 259.9C186.6 259.5 186.533 259.133 186.4 258.8C186.267 258.467 186.067 258.233 185.8 258.1C185.533 257.9 185.233 257.8 184.9 257.8C184.5 257.8 184.167 257.9 183.9 258.1C183.633 258.233 183.433 258.467 183.3 258.8C183.167 259.133 183.1 259.5 183.1 259.9ZM188.4 260.7V260H191.1V260.7H188.4ZM193.6 257.1V262.7H192.7V258.9C192.633 258.967 192.5 259 192.3 259H191.4V258.2H192.3C192.433 258.2 192.533 258.167 192.6 258.1C192.667 257.967 192.7 257.833 192.7 257.7V257.1H193.6ZM194.5 259.7C194.5 259.167 194.6 258.7 194.8 258.3C194.933 257.9 195.167 257.6 195.5 257.4C195.833 257.133 196.233 257 196.7 257C197.1 257 197.467 257.133 197.8 257.4C198.133 257.6 198.4 257.9 198.6 258.3C198.8 258.7 198.9 259.167 198.9 259.7V260C198.9 260.533 198.8 261 198.6 261.4C198.4 261.867 198.133 262.2 197.8 262.4C197.467 262.6 197.1 262.7 196.7 262.7C196.233 262.7 195.833 262.6 195.5 262.4C195.167 262.2 194.933 261.867 194.8 261.4C194.6 261 194.5 260.533 194.5 260V259.7ZM198 259.7C198 259.1 197.867 258.633 197.6 258.3C197.4 257.9 197.1 257.7 196.7 257.7C196.3 257.7 195.967 257.9 195.7 258.3C195.5 258.633 195.4 259.1 195.4 259.7V259.9C195.4 260.5 195.5 261 195.7 261.4C195.967 261.733 196.3 261.9 196.7 261.9C197.1 261.9 197.4 261.733 197.6 261.4C197.867 261 198 260.5 198 259.9V259.7ZM199.6 259.7C199.6 259.167 199.667 258.7 199.8 258.3C200 257.833 200.267 257.5 200.6 257.3C200.933 257.1 201.333 257 201.8 257C202.2 257 202.567 257.1 202.9 257.3C203.233 257.5 203.5 257.833 203.7 258.3C203.9 258.7 204 259.167 204 259.7V259.9C204 260.5 203.9 261 203.7 261.4C203.5 261.8 203.233 262.1 202.9 262.3C202.567 262.567 202.2 262.7 201.8 262.7C201.333 262.7 200.933 262.567 200.6 262.3C200.267 262.1 200 261.8 199.8 261.4C199.667 261 199.6 260.5 199.6 259.9V259.7ZM203.1 259.8C203.1 259.133 202.967 258.633 202.7 258.3C202.5 257.967 202.2 257.8 201.8 257.8C201.4 257.8 201.067 257.967 200.8 258.3C200.533 258.633 200.4 259.133 200.4 259.8V260C200.4 260.6 200.533 261.067 200.8 261.4C201.067 261.733 201.4 261.9 201.8 261.9C202.2 261.9 202.5 261.733 202.7 261.4C202.967 261.067 203.1 260.6 203.1 260V259.8ZM206.7 260.1C207.033 259.9 207.267 259.667 207.4 259.4C207.533 259.2 207.6 259 207.6 258.8C207.6 258.467 207.5 258.2 207.3 258C207.1 257.867 206.833 257.8 206.5 257.8C206.233 257.8 206 257.9 205.8 258.1C205.6 258.3 205.5 258.567 205.5 258.9V259H204.6V258.8C204.6 258.467 204.667 258.167 204.8 257.9C205 257.633 205.233 257.4 205.5 257.2C205.833 257.067 206.167 257 206.5 257C207.167 257 207.667 257.167 208 257.5C208.333 257.767 208.5 258.167 208.5 258.7C208.5 259.1 208.4 259.433 208.2 259.7C208 259.967 207.7 260.267 207.3 260.6L205.8 261.9H208.5V262.7H204.6V261.9L206.7 260.1Z" fill="black"/>
<path d="M133 274V274.6H132.5C132.3 274.6 132.133 274.567 132 274.5C131.867 274.5 131.767 274.4 131.7 274.2H131.6C131.133 274.533 130.6 274.7 130 274.7C129.467 274.7 129 274.567 128.6 274.3C128.2 274.033 127.9 273.7 127.7 273.3C127.433 272.833 127.3 272.333 127.3 271.8C127.3 271.267 127.433 270.8 127.7 270.4C127.9 269.933 128.2 269.6 128.6 269.4C129 269.133 129.467 269 130 269C130.533 269 131 269.133 131.4 269.4C131.8 269.6 132.1 269.933 132.3 270.4C132.567 270.8 132.7 271.267 132.7 271.8C132.7 272.2 132.633 272.567 132.5 272.9C132.433 273.167 132.3 273.433 132.1 273.7C132.167 273.833 132.233 273.9 132.3 273.9C132.367 273.967 132.467 274 132.6 274H133ZM130 274C130.467 274 130.867 273.867 131.2 273.6L131 273.4C130.933 273.333 130.867 273.267 130.8 273.2C130.733 273.133 130.633 273.1 130.5 273.1H130.1V272.5H130.6C130.8 272.5 130.967 272.533 131.1 272.6C131.233 272.667 131.333 272.767 131.4 272.9L131.6 273.1C131.8 272.767 131.9 272.333 131.9 271.8C131.9 271.4 131.833 271.033 131.7 270.7C131.5 270.367 131.267 270.1 131 269.9C130.733 269.7 130.4 269.6 130 269.6C129.6 269.6 129.267 269.7 129 269.9C128.667 270.1 128.433 270.367 128.3 270.7C128.1 271.033 128 271.4 128 271.8C128 272.267 128.1 272.667 128.3 273C128.433 273.333 128.667 273.6 129 273.8C129.267 273.933 129.6 274 130 274ZM132.8 269H137.1V269.7H135.3V274.6H134.6V269.7H132.8V269ZM137.4 269H138.2L139.9 271.7L141.5 269H142.3L140.2 272.5V274.6H139.5V272.5L137.4 269ZM142.5 271.2C142.5 271.067 142.567 270.967 142.7 270.9C142.767 270.833 142.867 270.8 143 270.8C143.133 270.8 143.233 270.833 143.3 270.9C143.433 270.967 143.5 271.067 143.5 271.2C143.5 271.333 143.433 271.433 143.3 271.5C143.233 271.633 143.133 271.7 143 271.7C142.867 271.7 142.767 271.633 142.7 271.5C142.567 271.433 142.5 271.333 142.5 271.2ZM142.5 274.2C142.5 274.067 142.567 273.967 142.7 273.9C142.767 273.833 142.867 273.8 143 273.8C143.133 273.8 143.233 273.833 143.3 273.9C143.433 273.967 143.5 274.067 143.5 274.2C143.5 274.333 143.433 274.433 143.3 274.5C143.233 274.633 143.133 274.7 143 274.7C142.867 274.7 142.767 274.633 142.7 274.5C142.567 274.433 142.5 274.333 142.5 274.2Z" fill="#666666"/>
<path d="M179.2 269V274.6H178.3V270.8C178.233 270.867 178.133 270.9 178 270.9H177V270.2H177.9C178.033 270.2 178.133 270.133 178.2 270C178.267 269.933 178.3 269.8 178.3 269.6V269H179.2ZM180.1 271.7C180.1 271.167 180.2 270.7 180.4 270.3C180.6 269.9 180.867 269.567 181.2 269.3C181.533 269.1 181.9 269 182.3 269C182.767 269 183.167 269.1 183.5 269.3C183.833 269.567 184.1 269.9 184.3 270.3C184.433 270.7 184.5 271.167 184.5 271.7V272C184.5 272.533 184.433 273 184.3 273.4C184.1 273.8 183.833 274.133 183.5 274.4C183.167 274.6 182.767 274.7 182.3 274.7C181.9 274.7 181.533 274.6 181.2 274.4C180.867 274.133 180.6 273.8 180.4 273.4C180.2 273 180.1 272.533 180.1 272V271.7ZM183.6 271.7C183.6 271.1 183.5 270.6 183.3 270.2C183.033 269.867 182.7 269.7 182.3 269.7C181.9 269.7 181.6 269.867 181.4 270.2C181.133 270.6 181 271.1 181 271.7V271.9C181 272.5 181.133 272.967 181.4 273.3C181.6 273.7 181.9 273.9 182.3 273.9C182.7 273.9 183.033 273.7 183.3 273.3C183.5 272.967 183.6 272.5 183.6 271.9V271.7Z" fill="black"/>
</g>
</g>
<defs>
<linearGradient id="paint0_linear_67_58" x1="535.68" y1="-14.6771" x2="-382218" y2="623393" gradientUnits="userSpaceOnUse">
<stop stop-color="#636363"/>
<stop offset="1"/>
</linearGradient>
<linearGradient id="paint1_linear_67_58" x1="16594.5" y1="8622.65" x2="82279.1" y2="8622.65" gradientUnits="userSpaceOnUse">
<stop stop-color="white"/>
<stop offset="1" stop-color="#6DA770"/>
</linearGradient>
<linearGradient id="paint2_linear_67_58" x1="-16209.2" y1="-36925.6" x2="-81893.5" y2="-36925.6" gradientUnits="userSpaceOnUse">
<stop stop-color="white"/>
<stop offset="1" stop-color="#6DA770"/>
</linearGradient>
<linearGradient id="paint3_linear_67_58" x1="-16209.2" y1="-28762.5" x2="-81893.5" y2="-28762.5" gradientUnits="userSpaceOnUse">
<stop stop-color="#6DA770"/>
<stop offset="1" stop-color="white"/>
</linearGradient>
<linearGradient id="paint4_linear_67_58" x1="-16209.2" y1="-47228" x2="-81893.5" y2="-47228" gradientUnits="userSpaceOnUse">
<stop stop-color="#6DA770"/>
<stop offset="1" stop-color="white"/>
</linearGradient>
<linearGradient id="paint5_linear_67_58" x1="-82249.8" y1="-30431.3" x2="-147934" y2="-30431.3" gradientUnits="userSpaceOnUse">
<stop stop-color="white"/>
<stop offset="1" stop-color="#6DA770"/>
</linearGradient>
<linearGradient id="paint6_linear_67_58" x1="-82249.5" y1="-47116.2" x2="-147934" y2="-47116.2" gradientUnits="userSpaceOnUse">
<stop stop-color="white"/>
<stop offset="1" stop-color="#6DA770"/>
</linearGradient>
<linearGradient id="paint7_linear_67_58" x1="83152.6" y1="44204.7" x2="148837" y2="44204.7" gradientUnits="userSpaceOnUse">
<stop stop-color="#6DA770"/>
<stop offset="1" stop-color="white"/>
</linearGradient>
<linearGradient id="paint8_linear_67_58" x1="-82249.5" y1="-47793.5" x2="-147934" y2="-47793.5" gradientUnits="userSpaceOnUse">
<stop stop-color="white"/>
<stop offset="1" stop-color="#6DA770"/>
</linearGradient>
<linearGradient id="paint9_linear_67_58" x1="-82249.8" y1="-26994.5" x2="-147934" y2="-26994.5" gradientUnits="userSpaceOnUse">
<stop stop-color="white"/>
<stop offset="1" stop-color="#6DA770"/>
</linearGradient>
<linearGradient id="paint10_linear_67_58" x1="-16209.2" y1="-24257" x2="-81893.2" y2="-24257" gradientUnits="userSpaceOnUse">
<stop stop-color="#6DA770"/>
<stop offset="1" stop-color="white"/>
</linearGradient>
<linearGradient id="paint11_linear_67_58" x1="16594.5" y1="14620.1" x2="82278.8" y2="14620.1" gradientUnits="userSpaceOnUse">
<stop stop-color="white"/>
<stop offset="1" stop-color="#6DA770"/>
</linearGradient>
<clipPath id="clip0_67_58">
<rect width="644" height="607" fill="white"/>
</clipPath>
</defs>
</svg>
