<svg width="132" height="40" viewBox="0 0 132 40" fill="none" xmlns="http://www.w3.org/2000/svg">
<path d="M70.7459 5.10902C71.6046 5.10902 72.3005 4.41302 72.3005 3.5544C72.3005 2.69599 71.6046 2 70.7459 2C69.8873 2 69.1914 2.69599 69.1914 3.5544C69.1914 4.41302 69.8873 5.10902 70.7459 5.10902Z" fill="black"/>
<path d="M11.655 19.8882C13.0922 20.7865 13.7594 22.1467 13.7594 23.9433C13.7594 27.9984 10.7824 30.0001 6.82986 30.0001C5.05902 30.0001 3.46797 29.8205 2.00499 29.2816C1.18372 28.9992 0.798828 28.332 0.798828 27.639C0.798828 26.792 1.38903 25.9965 2.3386 25.9965C2.65143 25.9965 2.93271 26.0989 3.29155 26.2295C3.58046 26.3346 3.91964 26.4581 4.36604 26.5612C4.9052 26.6895 5.57245 26.792 6.49625 26.792C9.11413 26.792 10.2178 25.8424 10.2178 24.3282C10.2178 23.2248 9.67882 22.6856 7.67689 22.1467C7.31661 22.0438 6.88896 21.943 6.43434 21.8359C5.30198 21.5689 4.00232 21.2626 3.15988 20.7865C1.90245 20.068 0.952636 18.8616 0.952636 16.7316C0.952636 12.9076 3.82711 10.8286 7.34329 10.8286C8.83178 10.8286 10.2178 10.9827 11.5267 11.4189C12.348 11.7012 12.7328 12.3429 12.7328 13.0101C12.7328 13.8572 12.1426 14.704 11.0903 14.704C10.8157 14.704 10.5655 14.6144 10.2574 14.5042C10.0182 14.4186 9.74402 14.3205 9.39647 14.242C8.96006 14.1393 8.42116 14.0625 7.62563 14.0625C5.62371 14.0625 4.46882 14.8837 4.46882 16.2695C4.46882 17.6042 5.26434 18.0148 6.98392 18.451C7.36495 18.5477 7.76309 18.6374 8.1639 18.7276C9.4638 19.0203 10.7918 19.3193 11.655 19.8882Z" fill="black"/>
<path fill-rule="evenodd" clip-rule="evenodd" d="M24.977 12.6508C26.9532 17.5014 28.5444 22.4803 29.7506 27.8443C30.0587 29.1788 29.0321 30.0001 28.0055 30.0001C27.261 30.0001 26.5167 29.5894 26.3114 28.6143C26.1061 27.6903 25.8753 26.7665 25.6184 25.8937H19.6129C19.3821 26.7665 19.151 27.6903 18.9457 28.6143C18.7148 29.5639 17.9961 30.0001 17.2776 30.0001C16.3023 30.0001 15.3015 29.1788 15.5836 27.8443C16.8155 22.4803 18.4325 17.5014 20.3829 12.6508C20.9989 11.111 21.8714 10.8029 22.6415 10.8029C23.437 10.8029 24.361 11.111 24.977 12.6508ZM20.46 22.7371H24.7717C24.1299 20.5556 23.4114 18.451 22.6157 16.3723C21.8459 18.451 21.1272 20.5556 20.46 22.7371Z" fill="black"/>
<path d="M42.3518 26.4071C43.3015 26.4071 44.0459 27.1514 44.0459 28.0754C44.0459 29.025 43.3015 29.7693 42.3518 29.7693H34.1135C33.1897 29.7693 32.4453 29.025 32.4453 28.0754V12.5995C32.4453 11.6499 33.2155 10.8286 34.2162 10.8286C35.1917 10.8286 35.9873 11.6499 35.9873 12.5995V26.4071H42.3518Z" fill="black"/>
<path d="M56.0825 11.0597C57.0063 11.0597 57.7762 11.8295 57.7762 12.779C57.7762 13.7286 57.0063 14.4986 56.0825 14.4986H52.1554V28.2292C52.1554 29.2046 51.36 30.0001 50.3845 30.0001C49.4094 30.0001 48.6137 29.2046 48.6137 28.2292V14.4986H44.6869C43.7631 14.4986 42.9932 13.7286 42.9932 12.779C42.9932 11.8295 43.7631 11.0597 44.6869 11.0597H56.0825Z" fill="black"/>
<path d="M80.2581 10.8287C80.8488 10.8287 81.4389 11.2393 81.4389 11.9065C81.4389 12.0081 81.4137 12.1093 81.3885 12.2106L81.3876 12.2144C80.13 17.8608 78.8211 22.9168 77.1784 28.6657C76.9476 29.4869 76.4601 30.0001 75.69 30.0001C74.9714 30.0001 74.4327 29.5125 74.2016 28.6912C72.8926 24.1229 71.789 19.8882 70.7622 15.4995C69.7357 19.8882 68.6321 24.1229 67.3235 28.6912C67.0924 29.5125 66.5533 30.0001 65.8348 30.0001C65.0649 30.0001 64.5772 29.4869 64.3461 28.6657C62.7037 22.9168 61.3948 17.8608 60.1372 12.2144L60.1362 12.2106C60.111 12.1093 60.0859 12.0081 60.0859 11.9065C60.0859 11.2393 60.6762 10.8287 61.2663 10.8287C61.7285 10.8287 62.1905 11.1111 62.3441 11.727C63.3967 16.5776 64.5514 21.1202 65.9116 26.0991C67.2464 21.2742 68.3755 16.7572 69.3765 12.1889C69.5563 11.3934 69.9927 10.8287 70.788 10.8287C71.5837 10.8287 71.9688 11.3676 72.1483 12.1889C73.1748 16.7572 74.2784 21.2742 75.6131 26.0991C76.9989 21.1202 78.128 16.5776 79.1803 11.727C79.3346 11.1111 79.7965 10.8287 80.2581 10.8287Z" fill="black"/>
<path d="M94.7329 27.562C95.3233 27.562 95.811 28.0497 95.811 28.6657C95.811 29.2816 95.3233 29.7693 94.7329 29.7693H85.8019C85.1857 29.7693 84.6982 29.2816 84.6982 28.6657V12.1631C84.6982 11.5729 85.1857 11.0595 85.8019 11.0595H94.3481C94.964 11.0595 95.4773 11.5729 95.4773 12.1631C95.4773 12.7791 94.964 13.2668 94.3481 13.2668H87.0078V19.3493H93.6809C94.271 19.3493 94.7587 19.837 94.7587 20.4272C94.7587 21.0176 94.271 21.5053 93.6809 21.5053H87.0078V27.562H94.7329Z" fill="black"/>
<path d="M109.348 27.562C109.964 27.562 110.452 28.0497 110.452 28.6657C110.452 29.2816 109.964 29.7693 109.348 29.7693H100.468C99.8517 29.7693 99.3643 29.2816 99.3643 28.6657V11.9836C99.3643 11.3676 99.8775 10.8287 100.519 10.8287C101.161 10.8287 101.674 11.3676 101.674 11.9836V27.562H109.348Z" fill="black"/>
<path d="M123.643 27.562C124.259 27.562 124.746 28.0497 124.746 28.6657C124.746 29.2816 124.259 29.7693 123.643 29.7693H114.763C114.147 29.7693 113.659 29.2816 113.659 28.6657V11.9836C113.659 11.3676 114.173 10.8287 114.814 10.8287C115.456 10.8287 115.969 11.3676 115.969 11.9836V27.562H123.643Z" fill="black"/>
<path d="M74.8779 7.79766C74.8779 8.65628 74.182 9.35227 73.3233 9.35227C72.4646 9.35227 71.7686 8.65628 71.7686 7.79766C71.7686 6.93925 72.4646 6.24326 73.3233 6.24326C74.182 6.24326 74.8779 6.93925 74.8779 7.79766Z" fill="black"/>
<path d="M68.1903 9.35227C69.0489 9.35227 69.7448 8.65628 69.7448 7.79766C69.7448 6.93925 69.0489 6.24326 68.1903 6.24326C67.3316 6.24326 66.6357 6.93925 66.6357 7.79766C66.6357 8.65628 67.3316 9.35227 68.1903 9.35227Z" fill="black"/>
<path fill-rule="evenodd" clip-rule="evenodd" d="M129.486 9.67818V9.94264C129.486 10.3094 129.307 10.5997 128.965 10.7363L129.401 11.5982C129.426 11.6409 129.443 11.6919 129.443 11.7518C129.443 11.965 129.264 12.1358 129.051 12.1358C128.889 12.1358 128.778 12.059 128.701 11.8882L128.223 10.8558H127.899V11.7518C127.899 11.9566 127.719 12.1358 127.515 12.1358C127.301 12.1358 127.139 11.9566 127.139 11.7518V9.13182C127.139 8.92721 127.301 8.74786 127.515 8.74786H128.419C129.213 8.74786 129.486 9.20887 129.486 9.67818ZM128.317 10.1985C128.624 10.1985 128.726 10.0535 128.726 9.88279V9.73779C128.726 9.56706 128.632 9.43063 128.377 9.43063H127.899V10.1985H128.317Z" fill="black"/>
<path fill-rule="evenodd" clip-rule="evenodd" d="M128.282 7.25449C130.04 7.25449 131.474 8.68823 131.474 10.4461C131.474 12.204 130.04 13.6291 128.282 13.6291C126.525 13.6291 125.099 12.204 125.099 10.4461C125.099 8.68823 126.525 7.25449 128.282 7.25449ZM128.282 12.8781C129.622 12.8781 130.706 11.7859 130.706 10.4461C130.706 9.10631 129.622 8.00546 128.282 8.00546C126.943 8.00546 125.859 9.10631 125.859 10.4461C125.859 11.7859 126.943 12.8781 128.282 12.8781Z" fill="black"/>
</svg>
