<svg width="126" height="40" viewBox="0 0 126 40" fill="none" xmlns="http://www.w3.org/2000/svg">
<path d="M27.1369 27.6692H9.40859C7.08421 27.6692 5.19845 25.786 5.19845 23.4649V17.7106C5.19845 15.3895 7.08421 13.5063 9.40859 13.5063H27.1369V8.04054C26.6588 7.9671 26.1703 7.92776 25.6739 7.92776H9.54253C4.32911 7.92776 0.100586 12.1504 0.100586 17.3565V23.3311C0.100586 28.5373 4.32911 32.7599 9.54253 32.7599H25.6713C26.1703 32.7599 26.6588 32.7206 27.1342 32.6471V27.6692H27.1369ZM42.0575 23.3154H51.439C55.355 23.3154 58.5303 20.1445 58.5303 16.234V15.0066C58.5303 13.585 58.1075 12.2605 57.3852 11.1511C56.1193 9.21029 53.9315 7.92514 51.439 7.92514H39.5755C34.2965 7.92514 30.018 12.1478 30.018 17.3539V23.3285C30.018 28.5347 34.2965 32.7573 39.5755 32.7573H55.9039C56.4082 32.7573 56.902 32.7179 57.3852 32.6445V27.6692H39.439C37.0857 27.6692 35.1763 25.786 35.1763 23.4649V23.318H42.0575V23.3154ZM35.2498 17.7604C35.242 17.5008 35.2131 15.9717 36.4265 14.739C37.6425 13.5011 39.1816 13.5037 39.4416 13.5063H51.6439C51.8353 13.5063 52.0249 13.544 52.2017 13.6171C52.3786 13.6903 52.5393 13.7975 52.6746 13.9327C52.81 14.0678 52.9173 14.2283 52.9906 14.4049C53.0638 14.5815 53.1015 14.7708 53.1015 14.962V16.7323C53.1015 16.9235 53.0638 17.1128 52.9906 17.2894C52.9173 17.466 52.81 17.6264 52.6746 17.7616C52.5393 17.8968 52.3786 18.004 52.2017 18.0771C52.0249 18.1503 51.8353 18.1879 51.6439 18.1879H35.9117C35.7016 18.1932 35.4888 18.1958 35.2787 18.2011C35.2656 18.0542 35.2577 17.9073 35.2498 17.7604Z" fill="black"/>
<path d="M35.1765 17.6083C35.1791 17.6109 35.1843 17.6135 35.187 17.6162C35.1817 17.6004 35.1791 17.5821 35.1765 17.5663V17.6083ZM35.1765 17.6083V17.5663C35.1555 17.4877 35.1371 17.4063 35.1213 17.3277H34.8271C34.9296 17.4378 35.0478 17.5322 35.1765 17.6083Z" fill="black"/>
<path d="M35.1206 17.325C35.1364 17.4063 35.1574 17.485 35.1758 17.5637V17.325H35.1206ZM77.4032 16.811C77.3533 16.811 77.3034 16.8162 77.2561 16.8215C77.327 16.8162 77.3979 16.8162 77.4688 16.8136C77.4452 16.8136 77.4242 16.811 77.4032 16.811Z" fill="black"/>
<path d="M90.691 7.84113C88.238 11.791 85.7875 15.7382 83.3345 19.6881C82.0554 21.7469 80.7763 23.8084 79.4973 25.8672L78.5439 27.4016C78.2392 27.6848 77.9057 27.8422 77.5564 27.8422C77.3042 27.8422 77.0626 27.7609 76.8315 27.6088C76.3692 26.8639 75.9043 26.1164 75.4421 25.3715L72.0383 19.8874C69.5458 15.872 67.0507 11.8565 64.5583 7.84113H59.0454C63.6443 15.3894 68.2457 22.9403 72.8446 30.4885C72.8708 30.4702 72.8997 30.4518 72.926 30.4334C74.163 31.9205 75.8649 32.8411 77.7428 32.8411C80.5636 32.8411 82.9878 30.7665 84.0383 27.8028C88.0935 21.1489 92.1461 14.495 96.2012 7.84113H90.691Z" fill="black"/>
<path d="M110.873 32.8411C108.906 24.7893 106.936 16.7401 104.969 8.68827C110.038 16.7401 115.104 24.7893 120.173 32.8411H125.899C121.673 26.1872 117.447 19.5333 113.224 12.8794C112.129 9.91572 109.605 7.84113 106.663 7.84113C104.706 7.84113 102.934 8.75909 101.644 10.2488C101.615 10.2304 101.589 10.2121 101.56 10.1937C96.7668 17.742 91.9709 25.2929 87.1777 32.8411H92.9217H110.873Z" fill="black"/>
</svg>
