<svg width="130" height="40" viewBox="0 0 130 40" fill="none" xmlns="http://www.w3.org/2000/svg">
<path d="M116.25 19.2043L110.551 26.4946H110.529V26.6452H113.626L117.841 21.2688L122.056 26.6452H125.174V26.4946L119.476 19.2043L129.798 6H126.572L117.863 17.1613L114.056 12.3011H110.959V12.4516L116.25 19.2043Z" fill="black"/>
<path d="M0.740234 6.30107V6.06451H3.7725L11.1919 23.0323L15.9015 12.2365H19.0413L12.5897 26.5376H9.79401L0.740234 6.30107Z" fill="black"/>
<path d="M104.747 32.6237L104.252 32.6667C104.273 32.9248 104.338 33.1613 104.489 33.3549C104.618 33.5699 104.811 33.7205 105.048 33.828C105.306 33.9355 105.585 33.9785 105.951 33.9785C106.23 33.9785 106.489 33.9355 106.704 33.828C106.919 33.7205 107.091 33.5914 107.22 33.3979C107.327 33.2258 107.392 33.0323 107.392 32.8172C107.392 32.6022 107.327 32.4301 107.22 32.2581C107.091 32.086 106.94 31.957 106.704 31.8495C106.553 31.7635 106.273 31.6774 105.843 31.5914C105.435 31.5054 105.177 31.3979 105.069 31.3119C104.962 31.2258 104.919 31.1183 104.919 30.9678C104.919 30.8172 104.983 30.6667 105.134 30.5592C105.284 30.4516 105.499 30.3871 105.822 30.3871C106.123 30.3871 106.359 30.4516 106.51 30.5807C106.682 30.7097 106.768 30.8817 106.79 31.1398L107.284 31.0968C107.284 30.8602 107.22 30.6452 107.091 30.4731C106.962 30.3011 106.79 30.1506 106.575 30.0645C106.338 29.957 106.101 29.914 105.8 29.914C105.542 29.914 105.306 29.957 105.091 30.043C104.876 30.1291 104.704 30.2581 104.596 30.4301C104.489 30.6022 104.424 30.7957 104.424 30.9893C104.424 31.1828 104.467 31.3334 104.553 31.4839C104.639 31.6344 104.768 31.742 104.962 31.8495C105.112 31.914 105.349 32 105.714 32.086C106.08 32.1721 106.316 32.2366 106.424 32.2796C106.575 32.3441 106.704 32.4301 106.768 32.5162C106.833 32.6022 106.876 32.7097 106.876 32.8387C106.876 32.9678 106.833 33.0753 106.768 33.1828C106.682 33.2688 106.575 33.3549 106.424 33.4194C106.273 33.4839 106.101 33.5054 105.908 33.5054C105.693 33.5054 105.478 33.4624 105.306 33.3979C105.134 33.3334 105.005 33.2258 104.919 33.0968C104.833 32.9893 104.768 32.8172 104.747 32.6237Z" fill="black"/>
<path d="M59.2373 32.5591L59.7534 32.6882C59.6459 33.1183 59.4523 33.4409 59.1727 33.6559C58.8932 33.871 58.5491 34 58.1405 34C57.7104 34 57.3663 33.914 57.1082 33.7419C56.8502 33.5699 56.6351 33.3118 56.5061 32.9892C56.377 32.6667 56.291 32.3011 56.291 31.9355C56.291 31.5269 56.377 31.1613 56.5276 30.8602C56.6781 30.5591 56.9147 30.3226 57.1942 30.172C57.4738 30.0215 57.7964 29.9355 58.1405 29.9355C58.5276 29.9355 58.8717 30.043 59.1297 30.2366C59.3878 30.4301 59.5813 30.7097 59.6889 31.0753L59.1727 31.2043C59.0867 30.9247 58.9577 30.7097 58.7856 30.5806C58.6136 30.4516 58.3985 30.3871 58.1405 30.3871C57.8394 30.3871 57.5813 30.4516 57.3878 30.6022C57.1942 30.7527 57.0437 30.9462 56.9577 31.1828C56.8717 31.4194 56.8287 31.6774 56.8287 31.9355C56.8287 32.2796 56.8717 32.5591 56.9792 32.8172C57.0867 33.0753 57.2373 33.2473 57.4308 33.3763C57.6459 33.5054 57.8609 33.5699 58.0975 33.5699C58.3985 33.5699 58.6351 33.4839 58.8287 33.3118C59.0222 33.1398 59.1512 32.8817 59.2373 32.5591Z" fill="black"/>
<path d="M62.8281 33.9356V30.0001H63.3443V31.613H65.3873V30.0001H65.9034V33.9356H65.3873V32.0861H63.3443V33.9356H62.8281Z" fill="black"/>
<path d="M69.3887 30.0001V33.9356H72.3134V33.4624H69.9048V32.1291H72.0768V31.6775H69.9048V30.4732H72.2274V30.0001H69.3887Z" fill="black"/>
<path d="M75.2852 33.9356V30.0001H76.0593L77.1776 33.3549C77.2206 33.2044 77.2852 33.0108 77.3927 32.7312L78.3389 30.0001H79.0271V33.9356H78.5325V30.6452L77.3927 33.9356H76.9196L75.7798 30.6022V33.9356H75.2852Z" fill="black"/>
<path d="M82.0352 30.0001V33.9356H82.5513V30.0001H82.0352Z" fill="black"/>
<path d="M88.958 32.5591L89.4741 32.6882C89.3666 33.1183 89.173 33.4409 88.8935 33.6559C88.6139 33.871 88.2698 34 87.8612 34C87.4311 34 87.087 33.914 86.8289 33.7419C86.5709 33.5699 86.3558 33.3118 86.2268 32.9892C86.0978 32.6667 86.0117 32.3011 86.0117 31.9355C86.0117 31.5269 86.0978 31.1613 86.2483 30.8602C86.3988 30.5591 86.6354 30.3226 86.915 30.172C87.1945 30.0215 87.5171 29.9355 87.8612 29.9355C88.2483 29.9355 88.5924 30.043 88.8504 30.2366C89.1085 30.4301 89.3021 30.7097 89.4096 31.0753L88.8935 31.2043C88.8074 30.9247 88.6784 30.7097 88.5064 30.5806C88.3343 30.4516 88.1193 30.3871 87.8612 30.3871C87.5601 30.3871 87.3021 30.4516 87.1085 30.6022C86.915 30.7527 86.7644 30.9462 86.6784 31.1828C86.5924 31.4194 86.5494 31.6774 86.5494 31.9355C86.5494 32.2796 86.5924 32.5591 86.6999 32.8172C86.8074 33.0753 86.958 33.2473 87.1515 33.3763C87.3666 33.5054 87.5816 33.5699 87.8182 33.5699C88.1193 33.5699 88.3558 33.4839 88.5494 33.3118C88.7429 33.1398 88.872 32.8817 88.958 32.5591Z" fill="black"/>
<path fill-rule="evenodd" clip-rule="evenodd" d="M93.4936 30L91.9883 33.9355H92.5474L92.9775 32.7527H94.6119L95.0635 33.9355H95.6657L94.0528 30H93.4936ZM94.4614 32.3226H93.1281L93.5582 31.1613L93.5906 31.0647C93.6652 30.8433 93.7356 30.6342 93.7732 30.4087C93.8377 30.6237 93.9237 30.9033 94.0528 31.2259L94.4614 32.3226Z" fill="black"/>
<path d="M98.6992 33.9355V30.0001H99.2154V33.4624H101.151V33.9355H98.6992Z" fill="black"/>
<path d="M50.9389 26.5592V17.7205C50.9389 14.1506 48.8529 11.9355 45.3475 11.9355C43.369 11.871 41.4765 12.7312 40.2507 14.2796V12.2366H37.498V26.5592H40.2507V17.1398C41.6056 15.3549 43.0249 14.5162 44.7454 14.5162C46.8314 14.5162 48.1862 15.7635 48.1862 17.7205V26.5592H50.9389Z" fill="black"/>
<path d="M93.5629 11.914V14.6666C91.5844 14.6021 89.0253 15.4193 87.864 17.6559V26.5376H85.1113V12.215H87.864V14.7097C89.2619 12.7097 91.1113 11.8709 93.5629 11.914Z" fill="black"/>
<path fill-rule="evenodd" clip-rule="evenodd" d="M35.0462 19.4624C35.0462 15.2258 31.6269 11.785 27.3903 11.785C23.1538 11.785 19.7129 15.2043 19.7129 19.4409C19.7129 23.6775 23.1322 27.1183 27.3688 27.1183C29.4333 27.1183 31.4118 26.2796 32.8527 24.8172L30.8742 22.9033C28.9817 24.8387 25.8849 24.8603 23.9495 22.9678C23.3473 22.3871 22.9172 21.6559 22.6806 20.8602H34.8957C34.9817 20.4086 35.0247 19.957 35.0247 19.4839L35.0462 19.4624ZM27.3903 14.5592C29.5624 14.5592 31.4763 16 32.0785 18.0861H22.6806C23.3043 16 25.2183 14.5592 27.3903 14.5592Z" fill="black"/>
<path fill-rule="evenodd" clip-rule="evenodd" d="M102.186 11.785C106.422 11.785 109.842 15.2258 109.842 19.4624L109.82 19.4839C109.82 19.957 109.777 20.4086 109.691 20.8602H97.4756C97.7121 21.6559 98.1422 22.3871 98.7444 22.9678C100.68 24.8603 103.777 24.8387 105.67 22.9033L107.648 24.8172C106.207 26.2796 104.229 27.1183 102.164 27.1183C97.9272 27.1183 94.5078 23.6775 94.5078 19.4409C94.5078 15.2043 97.9487 11.785 102.186 11.785ZM106.895 18.1076C106.272 16.0215 104.358 14.5807 102.186 14.5807C99.9917 14.5807 98.0777 16.0215 97.4756 18.1076H106.895Z" fill="black"/>
<path d="M74.3577 11.828C70.1211 11.8065 66.7018 15.2258 66.6802 19.4624C66.6802 20.7742 66.1641 22.0215 65.2609 22.9463C63.3684 24.8818 60.2501 24.8818 58.3362 22.9678C56.4007 21.0753 56.4007 17.957 58.3146 16.043C60.2071 14.1076 63.3254 14.1076 65.2394 16.0215L67.1964 14.0645C65.7555 12.6237 63.7985 11.828 61.777 11.828C57.5405 11.828 54.1211 15.2473 54.1211 19.4839C54.1211 23.7205 57.5405 27.1398 61.777 27.1398C66.0136 27.1398 69.4329 23.7205 69.4329 19.4839C69.4329 18.1721 69.9491 16.9463 70.8738 16.0215C72.7878 14.1076 75.8846 14.1076 77.7985 16.0215C79.7125 17.9355 79.7125 21.0323 77.7985 22.9463C75.8846 24.8603 72.7878 24.8603 70.8738 22.9463L68.9168 24.9033C70.3577 26.3226 72.2932 27.1398 74.3147 27.1398C78.5512 27.1613 81.9706 23.742 81.9921 19.5054C82.0136 15.2688 78.5942 11.8495 74.3577 11.828Z" fill="black"/>
</svg>
