<svg width="140" height="40" viewBox="0 0 140 40" fill="none" xmlns="http://www.w3.org/2000/svg">
<g clip-path="url(#clip0_1933_15436)">
<path d="M22.9576 29.1513H0V33.6562H22.9576V29.1513Z" fill="black"/>
<path d="M0 26.7105V22.9004C5.34186 20.9449 8.4103 19.9673 11.4788 19.9673C14.5472 19.9673 17.6156 20.9449 22.9576 22.9004V26.7105C20.0736 25.6443 14.7725 23.5077 11.4788 23.5077C8.18497 23.5077 2.88395 25.6443 0 26.7105Z" fill="black"/>
<path d="M11.4788 11.968C14.5437 11.9678 17.6081 13.4371 22.9576 16.3757V19.4048C17.1996 16.2119 14.2172 14.6091 11.4788 14.6091C8.74025 14.6091 5.75789 16.2119 0 19.4048V16.3757C5.34938 13.4371 8.41388 11.9678 11.4788 11.968Z" fill="black"/>
<path d="M11.4788 7.06018C15.8338 7.06011 20.0902 9.0404 22.9576 12.3122V9.30866C20.0195 6.52007 15.5956 5.07787 11.4788 5C7.36184 5.07787 2.938 6.52007 0 9.30866V12.3122C2.86727 9.04041 7.12374 7.06011 11.4788 7.06018Z" fill="black"/>
<path d="M46.6288 22.7695C47.3665 21.7191 47.7363 20.4588 47.7363 18.9878C47.7363 17.5934 47.4246 16.3948 46.8009 15.3924C46.1782 14.3888 45.3204 13.6254 44.2275 13.1001C43.1347 12.5749 41.8697 12.3123 40.4315 12.3123H32.6377V33.6562H36.0314V25.6341H40.2105L44.7449 33.6562H48.599L43.6521 25.0608C44.8984 24.5836 45.891 23.8202 46.6288 22.7695ZM42.5306 22.168C41.9552 22.4737 41.2745 22.6256 40.4886 22.6256H36.0314V15.3198H40.4886C41.2745 15.3198 41.9552 15.4688 42.5306 15.7646C43.1061 16.0607 43.5517 16.4801 43.8675 17.025C44.1843 17.5689 44.3427 18.2136 44.3427 18.9586C44.3427 19.7033 44.1843 20.3481 43.8675 20.893C43.5517 21.4369 43.1061 21.8622 42.5306 22.168ZM62.3818 20.0619C61.7484 19.3653 60.9713 18.8155 60.0515 18.4147C59.1317 18.0138 58.0864 17.8132 56.9131 17.8132C55.4518 17.8132 54.1474 18.1618 52.9971 18.8585C51.8469 19.5563 50.9316 20.506 50.2503 21.7093C49.5702 22.9127 49.229 24.2975 49.229 25.8636C49.229 27.3922 49.5645 28.7712 50.2367 30.0039C50.9077 31.2358 51.8422 32.2099 53.0405 32.9262C54.2387 33.6416 55.615 34 57.1706 34C58.2303 34 59.2037 33.8327 60.0948 33.4986C60.9861 33.1643 61.753 32.7067 62.3954 32.1236C63.038 31.5415 63.5126 30.887 63.8196 30.1607L61.1644 28.8721C60.7808 29.5404 60.2582 30.0853 59.5976 30.5047C58.9368 30.9244 58.1371 31.1339 57.2 31.1346C56.2821 31.1339 55.4641 30.9147 54.7462 30.4763C54.0274 30.0373 53.4705 29.4258 53.0779 28.6428C52.8087 28.1056 52.6625 27.5008 52.6227 26.8376H64.1939C64.2509 26.6083 64.2886 26.3603 64.308 26.0928C64.3273 25.8253 64.3365 25.5677 64.3365 25.3197C64.3365 24.3074 64.1688 23.3517 63.8333 22.4542C63.4978 21.5565 63.014 20.7598 62.3818 20.0619ZM52.697 24.2593C52.7708 23.807 52.8906 23.3896 53.0643 23.0128C53.4283 22.2209 53.9452 21.6094 54.6162 21.1791C55.2861 20.7506 56.0515 20.5353 56.9124 20.5346C57.7732 20.5353 58.5248 20.7506 59.1662 21.1791C59.8075 21.6094 60.2868 22.1915 60.604 22.9265C60.7802 23.3384 60.8689 23.785 60.887 24.2593H52.697ZM119.656 20.0619C119.023 19.3653 118.246 18.8155 117.326 18.4147C116.406 18.0138 115.361 17.8132 114.188 17.8132C112.726 17.8132 111.422 18.1618 110.272 18.8585C109.122 19.5563 108.206 20.506 107.525 21.7093C106.845 22.9127 106.504 24.2975 106.504 25.8636C106.504 27.3922 106.839 28.7712 107.511 30.0039C108.182 31.2358 109.117 32.2099 110.315 32.9262C111.513 33.6416 112.89 34 114.445 34C115.505 34 116.478 33.8327 117.369 33.4986C118.261 33.1643 119.028 32.7067 119.67 32.1236C120.313 31.5415 120.787 30.887 121.094 30.1607L118.439 28.8721C118.056 29.5404 117.533 30.0853 116.872 30.5047C116.211 30.9244 115.412 31.1339 114.475 31.1346C113.557 31.1339 112.739 30.9147 112.021 30.4763C111.302 30.0373 110.745 29.4258 110.353 28.6428C110.083 28.1056 109.937 27.5008 109.897 26.8376H121.468C121.526 26.6083 121.564 26.3603 121.583 26.0928C121.602 25.8253 121.611 25.5677 121.611 25.3197C121.611 24.3074 121.443 23.3517 121.107 22.4542C120.772 21.5565 120.289 20.7598 119.656 20.0619ZM109.972 24.2593C110.045 23.807 110.165 23.3896 110.339 23.0128C110.703 22.2209 111.22 21.6094 111.891 21.1791C112.561 20.7506 113.326 20.5353 114.187 20.5346C115.048 20.5353 115.8 20.7506 116.441 21.1791C117.082 21.6094 117.561 22.1915 117.879 22.9265C118.055 23.3384 118.144 23.785 118.162 24.2593H109.972ZM136.77 12.3123V19.9541C136.285 19.3878 135.695 18.9205 134.996 18.5576C134.037 18.0609 132.935 17.8132 131.685 17.8132C130.204 17.8132 128.88 18.1667 127.711 18.8733C126.542 19.5798 125.611 20.544 124.922 21.7662C124.232 22.9892 123.886 24.3642 123.886 25.8919C123.886 27.4208 124.226 28.7956 124.908 30.0176C125.587 31.2405 126.518 32.2099 127.697 32.9262C128.876 33.6416 130.212 34 131.714 34C132.907 34 133.998 33.7513 134.996 33.2554C135.778 32.8654 136.414 32.3349 136.914 31.674L136.922 33.6562H140V12.3123H136.77ZM136.151 28.5133C135.74 29.2875 135.175 29.8941 134.454 30.3332C133.736 30.7715 132.929 30.9907 132.03 30.9914C131.11 30.9907 130.292 30.7715 129.575 30.3332C128.856 29.8941 128.296 29.2875 127.892 28.5133C127.491 27.7401 127.289 26.866 127.289 25.8919C127.289 24.9177 127.491 24.0495 127.892 23.2851C128.296 22.5218 128.86 21.9201 129.589 21.48C130.316 21.0417 131.131 20.8225 132.03 20.8218C132.929 20.8225 133.736 21.0417 134.454 21.48C135.175 21.9201 135.74 22.5218 136.151 23.2851C136.564 24.0495 136.77 24.9177 136.77 25.8919C136.77 26.866 136.564 27.7401 136.151 28.5133ZM103.208 20.6206C103.726 21.4997 103.984 22.5022 103.984 23.6291L103.975 33.6564H100.735L100.726 24.517C100.726 23.734 100.587 23.0705 100.309 22.5258C100.031 21.9818 99.6464 21.5613 99.158 21.2655C98.6708 20.9703 98.1015 20.8228 97.4519 20.8221C96.8011 20.8228 96.2271 20.9703 95.7309 21.2655C95.2322 21.5613 94.8386 21.9866 94.5509 22.5404C94.2645 23.0941 94.1208 23.7537 94.1208 24.517V33.6564H90.8993L90.8904 24.517C90.8904 23.734 90.7511 23.0705 90.4727 22.5258C90.1953 21.9818 89.812 21.5613 89.3236 21.2655C88.8353 20.9703 88.2569 20.8228 87.5878 20.8221C86.9371 20.8228 86.3643 20.9703 85.8668 21.2655C85.3681 21.5613 84.9789 21.9866 84.7016 22.5404C84.4232 23.0941 84.2851 23.7537 84.2851 24.517V33.6564H81.0262V18.157H84.1325L84.1413 20.0633C84.4791 19.4659 84.9288 18.9767 85.5121 18.6155C86.3748 18.0806 87.363 17.8132 88.4787 17.8132C89.7296 17.8132 90.8376 18.1423 91.8053 18.8017C92.4646 19.2505 92.963 19.8073 93.3243 20.4558C93.7461 19.7341 94.2761 19.1512 94.9312 18.7292C95.8806 18.1186 96.967 17.8132 98.1995 17.8132C99.2776 17.8132 100.25 18.0609 101.123 18.5578C101.995 19.0546 102.691 19.7425 103.208 20.6206ZM69.9937 22.3111C69.9937 22.6736 70.0901 22.9746 70.2819 23.2136C70.4727 23.4527 70.7226 23.6428 71.0294 23.7859C71.3354 23.93 71.6522 24.0495 71.9778 24.1446L74.5087 24.8893C75.7937 25.252 76.7808 25.8203 77.4711 26.5945C78.1616 27.3678 78.5062 28.2889 78.5062 29.3592C78.5062 30.2754 78.262 31.083 77.7725 31.7797C77.2841 32.4774 76.6084 33.0213 75.7458 33.4133C74.8831 33.8043 73.8763 34 72.7227 34C71.1259 34 69.7309 33.6092 68.5329 32.8253C67.3348 32.0424 66.4957 30.9918 66.0166 29.6737L68.5271 28.4997C68.9491 29.3778 69.5284 30.0755 70.2672 30.5908C71.0034 31.1053 71.821 31.3627 72.7208 31.3638C73.4854 31.3632 74.1068 31.1921 74.5865 30.8486C75.0658 30.5047 75.3055 30.0372 75.3055 29.4444C75.3055 29.0631 75.1994 28.7525 74.9894 28.5135C74.7771 28.2753 74.5147 28.0792 74.1974 27.9263C73.8821 27.7735 73.5605 27.6588 73.2349 27.5824L70.7904 26.8944C69.4477 26.5132 68.4463 25.9351 67.7853 25.1619C67.1232 24.3877 66.7926 23.4861 66.7926 22.4542C66.7926 21.5183 67.0327 20.7018 67.5117 20.0043C67.9908 19.3074 68.6519 18.7684 69.4958 18.3863C70.3398 18.004 71.2882 17.8132 72.3475 17.8132C73.7711 17.8132 75.036 18.1618 76.1486 18.8585C77.26 19.5563 78.0463 20.5256 78.5062 21.7662L75.9947 22.9411C75.6877 22.1964 75.204 21.6046 74.5432 21.1645C73.8836 20.7265 73.142 20.5074 72.3201 20.5063C71.6124 20.5069 71.0475 20.674 70.6262 21.0078C70.2042 21.3419 69.9937 21.776 69.9937 22.3111Z" fill="black"/>
</g>
<defs>
<clipPath id="clip0_1933_15436">
<rect width="140" height="29" fill="white" transform="translate(0 5)"/>
</clipPath>
</defs>
</svg>
