<svg width="161" height="40" viewBox="0 0 161 40" fill="none" xmlns="http://www.w3.org/2000/svg">
<path d="M71.4174 12.7014L67.9674 22.9479L64.5165 12.7014H60.8696V26.8206H63.8455V18.3649L66.7119 26.8159H69.2216L72.0874 18.3649V26.8206H75.0633V12.7014H71.4174Z" fill="black"/>
<path d="M105.532 26.8234C102.106 26.8234 100.374 25.0637 100.374 22.4996V17.0298C100.374 14.4219 102.106 12.7056 105.532 12.7056C107.16 12.7056 108.831 12.9164 110.037 13.1501L109.656 15.927C108.429 15.737 106.547 15.5876 105.532 15.5876C103.947 15.5876 103.544 16.4144 103.544 17.5172V21.9475C103.544 23.0508 103.947 23.9618 105.532 23.9618C106.166 23.9618 106.59 23.9409 107.416 23.8343V18.4929H110.396V26.1451C108.853 26.5906 107.16 26.8234 105.532 26.8234Z" fill="black"/>
<path d="M58.7523 12.7051V22.501C58.7523 24.6424 57.4201 26.8261 53.4445 26.8261C49.4689 26.8261 48.1372 24.6424 48.1372 22.501V12.7051H51.3086V22.2035C51.3086 23.3482 51.8588 24.0056 53.4445 24.0056C55.0316 24.0056 55.58 23.3482 55.58 22.2035V12.7051H58.7523Z" fill="black"/>
<path d="M148.364 12.7051V22.501C148.364 24.6424 147.032 26.8261 143.056 26.8261C139.08 26.8261 137.749 24.6424 137.749 22.501V12.7051H140.92V22.2035C140.92 23.3482 141.47 24.0056 143.056 24.0056C144.641 24.0056 145.191 23.3482 145.191 22.2035V12.7051H148.364Z" fill="black"/>
<path d="M86.042 12.7051V15.2692H80.3539V18.4915H86.0499V20.9727H80.3539V24.2574H86.042V26.8233H77.1807V12.7051H86.042Z" fill="black"/>
<path d="M46.0103 12.7051V15.2692H40.3218V18.4915H46.0187V20.9727H40.3218V24.2574H46.0103V26.8233H37.1504V12.7051H46.0103Z" fill="black"/>
<path d="M132.459 17.3025C132.459 16.1993 131.76 15.521 130.176 15.521C128.589 15.521 127.892 16.1993 127.892 17.3025V22.2166C127.892 23.3185 128.589 23.9967 130.176 23.9967C131.76 23.9967 132.459 23.3185 132.459 22.2166V17.3025ZM135.631 22.4917C135.631 24.6335 134.151 26.8159 130.176 26.8159C126.2 26.8159 124.72 24.6335 124.72 22.4917V17.0265C124.72 14.8842 126.2 12.7014 130.176 12.7014C134.151 12.7014 135.631 14.8842 135.631 17.0265V22.4917Z" fill="black"/>
<path d="M153.655 15.2692H155.621C156.51 15.2692 156.889 15.6509 156.889 16.2668V17.4948C156.889 18.1107 156.508 18.4924 155.621 18.4924H153.655V15.2692ZM160.051 15.4828V15.4503H160.049C159.92 13.7469 158.8 12.7042 156.043 12.7042H150.482V26.8234H153.654V21.0574H156.043C158.982 21.0574 160.056 19.8699 160.056 17.9622C160.056 17.9622 160.057 15.5867 160.051 15.4828Z" fill="black"/>
<path d="M28.1167 15.2692H30.0831C31.0777 15.2692 31.8597 15.481 31.8597 16.4991V17.3049C31.8597 18.0893 31.374 18.4915 30.5275 18.4915H28.1167V15.2692ZM31.8597 23.0284C31.8597 24.0465 31.0777 24.2584 30.0831 24.2584H28.1167V20.9727H30.5275C31.374 20.9727 31.8597 21.3754 31.8597 22.1593V23.0284ZM35.0325 16.8547V16.0755C35.0325 14.0826 33.7634 12.7042 30.9514 12.7042H24.9453V19.4668V26.8234H30.9514C33.7634 26.8234 35.0325 25.445 35.0325 23.4535V22.0751C35.0325 20.7604 34.1224 19.7428 32.9606 19.4668H32.9685C32.9662 19.4658 32.9652 19.4649 32.9639 19.4649C32.9704 19.4616 32.975 19.4588 32.9801 19.457C34.134 19.173 35.0325 18.1614 35.0325 16.8547Z" fill="black"/>
<path d="M115.686 15.2692H117.651C118.647 15.2692 119.428 15.481 119.428 16.4986V17.3049C119.428 18.0897 118.943 18.4915 118.096 18.4915H115.686V15.2692ZM115.686 24.2574V22.7217V20.9722H118.096C118.943 20.9722 119.428 21.3754 119.428 22.1589V26.8238H122.601V22.0751C122.601 20.76 121.692 19.7428 120.528 19.4672H120.536C120.534 19.4663 120.533 19.4654 120.532 19.4654C120.539 19.4616 120.542 19.4588 120.549 19.457C121.702 19.1735 122.601 18.1614 122.601 16.8552V16.0759C122.601 14.083 121.332 12.7046 118.519 12.7046H112.515V19.4672V26.8238H115.685V24.2574H115.686Z" fill="black"/>
<path d="M91.3388 15.2692H93.3058C94.2999 15.2692 95.0827 15.481 95.0827 16.4986V17.3049C95.0827 18.0897 94.598 18.4915 93.751 18.4915H91.3388V15.2692ZM91.3388 24.2574V22.7217V20.9722H93.751C94.598 20.9722 95.0827 21.3754 95.0827 22.1589V26.8238H98.2551V22.0751C98.2551 20.76 97.3459 19.7428 96.1823 19.4672H96.1906C96.1897 19.4663 96.1874 19.4654 96.1865 19.4654C96.1925 19.4616 96.1976 19.4588 96.2027 19.457C97.3557 19.1735 98.2551 18.1614 98.2551 16.8552V16.0759C98.2551 14.083 96.986 12.7046 94.1741 12.7046H88.167V19.4672V26.8238H91.3384V24.2574H91.3388Z" fill="black"/>
<path d="M9.22845 26.7088C5.93031 26.1204 3.42477 23.2375 3.42477 19.7628C3.42477 16.2868 5.93031 13.4048 9.22845 12.8163V10.3035C4.56146 10.9161 0.943848 14.9196 0.943848 19.7628C0.943848 24.6061 4.56146 28.6091 9.22845 29.2222V26.7088Z" fill="black"/>
<path d="M11.71 10.303V12.8159C15.0081 13.4043 17.5141 16.2868 17.5141 19.7624C17.5141 23.2384 15.0081 26.1209 11.71 26.7088V29.2222C16.377 28.6091 19.9955 24.6061 19.9955 19.7624C19.995 14.9191 16.377 10.9156 11.71 10.303Z" fill="black"/>
<path d="M11.7102 29.2222C11.303 29.2752 10.8907 29.3115 10.4696 29.3115C10.0484 29.3115 9.63654 29.2752 9.22932 29.2222V31.8109H7.49365L10.47 38.9245L13.4459 31.8109H11.7102V29.2222Z" fill="black"/>
<path d="M9.2295 10.303C9.63672 10.2495 10.0486 10.2122 10.4697 10.2122C10.8909 10.2122 11.3032 10.2495 11.7104 10.303V7.7245L12.7231 6.71619V2.8412V0.610901L10.4702 2.871L8.2168 0.610901V2.8412V6.71619L9.2295 7.7245V10.303Z" fill="black"/>
<path d="M10.4687 12.6995C10.0448 12.6995 9.63156 12.7442 9.22852 12.8159V26.7088C9.63156 26.7801 10.0448 26.8252 10.4687 26.8252C10.8927 26.8252 11.3059 26.7801 11.7094 26.7088V12.8159C11.3064 12.7446 10.8927 12.6995 10.4687 12.6995Z" fill="black"/>
</svg>
