<svg width="122" height="40" viewBox="0 0 122 40" fill="none" xmlns="http://www.w3.org/2000/svg">
<g clip-path="url(#clip0_1925_13705)">
<path fill-rule="evenodd" clip-rule="evenodd" d="M8.27771 7C6.69536 6.99955 5.14839 7.46834 3.8325 8.34711C2.51661 9.22589 1.49086 10.4752 0.885011 11.9369C0.279159 13.3987 0.120411 15.0073 0.428835 16.5593C0.737257 18.1113 1.49901 19.537 2.61773 20.6561C3.73647 21.7751 5.16193 22.5372 6.71385 22.8461C8.26572 23.155 9.8744 22.9967 11.3363 22.3912C12.7983 21.7857 14.0478 20.7605 14.927 19.4448C15.8061 18.1291 16.2754 16.5823 16.2754 15C16.2756 13.9495 16.069 12.9093 15.6672 11.9387C15.2654 10.9681 14.6765 10.0862 13.9337 9.34328C13.1911 8.60039 12.3093 8.01107 11.3388 7.60902C10.3683 7.20695 9.32814 7 8.27771 7ZM8.27771 20.1111C7.26625 20.1111 6.27754 19.8111 5.43658 19.2492C4.59565 18.6873 3.94025 17.8885 3.5533 16.954C3.16634 16.0195 3.06522 14.9912 3.26271 13.9993C3.4602 13.0073 3.94742 12.0962 4.66278 11.3811C5.37812 10.6662 6.28948 10.1793 7.28154 9.98226C8.27355 9.78523 9.30176 9.88681 10.2361 10.2742C11.1704 10.6616 11.9689 11.3173 12.5305 12.1585C13.0921 12.9997 13.3916 13.9886 13.3911 15C13.3905 16.3557 12.8514 17.6558 11.8926 18.6142C10.9337 19.5727 9.63346 20.1111 8.27771 20.1111Z" fill="black"/>
<path d="M13.2754 30.0297C13.2754 27.2684 11.0368 25.0166 8.27537 25.0001C5.51393 24.9837 3.27539 27.2089 3.27539 29.9703C3.27539 32.7317 5.51398 34.9835 8.27537 34.9999C11.0368 35.0164 13.2754 32.7911 13.2754 30.0297Z" fill="black"/>
<path fill-rule="evenodd" clip-rule="evenodd" d="M118.438 6.19821C118.247 6.27855 118.122 6.46967 118.122 6.68185V14.0227C117.958 13.9101 117.79 13.8021 117.618 13.6986C116.18 12.8365 114.565 12.4054 112.774 12.4054C111.008 12.4054 109.406 12.8495 107.968 13.7378C106.53 14.6 105.382 15.7626 104.524 17.2256C103.692 18.6887 103.275 20.3346 103.275 22.1634C103.275 23.9924 103.692 25.6513 104.524 27.1405C105.382 28.6297 106.53 29.8185 107.968 30.7067C109.406 31.5689 111.008 32 112.774 32C114.565 32 116.18 31.5689 117.618 30.7067C117.79 30.6001 117.958 30.4891 118.122 30.3738V31.0856C118.122 31.3742 118.35 31.6081 118.63 31.6081H121.803C122.083 31.6081 122.275 31.3742 122.275 31.0856V5.52307C122.275 5.15165 121.91 4.8988 121.576 5.03944L118.438 6.19821ZM118.122 21.6426V22.5063C118.068 23.3822 117.846 24.1748 117.454 24.8842C117.026 25.7084 116.408 26.3579 115.601 26.8325C114.818 27.2821 113.91 27.507 112.876 27.507C111.867 27.507 110.959 27.2821 110.151 26.8325C109.369 26.3579 108.751 25.7084 108.297 24.8842C107.868 24.0599 107.654 23.1231 107.654 22.0741C107.654 21.025 107.868 20.1008 108.297 19.3014C108.751 18.5021 109.369 17.8777 110.151 17.4281C110.959 16.9535 111.867 16.7162 112.876 16.7162C113.91 16.7162 114.818 16.9535 115.601 17.4281C116.382 17.8777 117 18.5021 117.454 19.3014C117.846 19.9894 118.068 20.7697 118.122 21.6426Z" fill="black"/>
<path d="M28.9521 31.6C29.9352 31.8667 30.9583 32 32.0211 32C34.2532 32 36.0203 31.4533 37.3223 30.36C38.6243 29.2667 39.2754 27.7866 39.2754 25.92C39.2754 24.7466 39.0362 23.8 38.558 23.0799C38.0797 22.3334 37.4551 21.7467 36.6846 21.32C35.9405 20.8666 35.1434 20.5201 34.2932 20.2801C33.4694 20.0134 32.6722 19.7734 31.9016 19.56C31.1576 19.3468 30.5463 19.0934 30.068 18.8C29.5897 18.5067 29.3506 18.0934 29.3506 17.5601C29.3506 17.0533 29.5897 16.6667 30.068 16.4C30.5463 16.1334 31.2239 16 32.1009 16C33.0309 16 33.8547 16.1734 34.5721 16.52C35.1271 16.7882 35.6344 17.1601 36.0939 17.6357C36.3138 17.8633 36.6799 17.8847 36.9033 17.6607L38.9533 15.6032C39.1386 15.4172 39.1626 15.122 38.9964 14.9187C38.2495 14.0058 37.346 13.3129 36.2861 12.84C35.1168 12.28 33.7616 12 32.2205 12C30.7589 12 29.4967 12.24 28.4338 12.72C27.3976 13.2 26.5872 13.8801 26.0026 14.76C25.4445 15.64 25.1654 16.6934 25.1654 17.9201C25.1654 19.0667 25.4047 19.9999 25.883 20.72C26.3613 21.4399 26.9724 22.0133 27.7164 22.44C28.487 22.84 29.2842 23.16 30.108 23.4C30.9583 23.6399 31.7555 23.8799 32.4994 24.12C33.2701 24.3333 33.8945 24.6 34.3728 24.9201C34.8511 25.24 35.0902 25.6933 35.0902 26.28C35.0902 26.84 34.8378 27.2666 34.333 27.56C33.828 27.8533 33.084 28 32.1009 28C31.0113 28 30.0282 27.8134 29.1514 27.44C28.4628 27.1161 27.8351 26.6697 27.2686 26.101C27.05 25.8817 26.6932 25.8668 26.4748 26.0861L24.43 28.138C24.2368 28.3321 24.2205 28.6428 24.4048 28.8455C24.9433 29.4376 25.5556 29.9559 26.2417 30.4C27.0654 30.9067 27.9689 31.3067 28.9521 31.6Z" fill="black"/>
<path fill-rule="evenodd" clip-rule="evenodd" d="M73.2056 30.68C74.7165 31.5599 76.3998 32 78.2554 32C80.1377 32 81.8338 31.5599 83.3451 30.68C84.856 29.7733 86.0488 28.5599 86.9236 27.04C87.825 25.52 88.2754 23.8267 88.2754 21.9599C88.2754 20.0933 87.825 18.4133 86.9236 16.92C86.0488 15.4 84.856 14.2 83.3451 13.32C81.8338 12.44 80.1377 12 78.2554 12C76.3998 12 74.7165 12.4534 73.2056 13.36C71.6947 14.24 70.4886 15.4267 69.5873 16.92C68.7125 18.4133 68.2754 20.0933 68.2754 21.9599C68.2754 23.8267 68.7125 25.52 69.5873 27.04C70.4886 28.5599 71.6947 29.7733 73.2056 30.68ZM81.2252 26.7256C80.4033 27.1845 79.4491 27.414 78.3625 27.414C77.302 27.414 76.3479 27.1845 75.4998 26.7256C74.6779 26.2412 74.0285 25.5783 73.5513 24.737C73.1008 23.8956 72.8752 22.9395 72.8752 21.8687C72.8752 20.7979 73.1008 19.8546 73.5513 19.0387C74.0285 18.2229 74.6779 17.5856 75.4998 17.1266C76.3479 16.6423 77.302 16.4 78.3625 16.4C79.4491 16.4 80.4033 16.6423 81.2252 17.1266C82.047 17.5856 82.6966 18.2229 83.1737 19.0387C83.6508 19.8546 83.8894 20.7979 83.8894 21.8687C83.8894 22.9395 83.6508 23.8956 83.1737 24.737C82.7227 25.5783 82.0733 26.2412 81.2252 26.7256Z" fill="black"/>
<path d="M90.2754 31.4558C90.2754 31.7563 90.5099 32 90.7996 32H94.0762C94.366 32 94.6005 31.7563 94.6005 31.4558V21.102C94.6005 19.415 94.9937 18.1769 95.78 17.3878C96.5668 16.5987 97.563 16.2041 98.7688 16.2041C99.3192 16.2041 99.8041 16.2858 100.224 16.449C100.434 16.5308 100.634 16.64 100.825 16.7765C101.117 16.9859 101.542 16.9377 101.716 16.6168L103.209 13.8722C103.32 13.6682 103.292 13.4137 103.124 13.258C102.887 13.0392 102.512 12.7357 102.072 12.5306C101.311 12.1769 100.459 12 99.5158 12C97.3663 12 95.7538 12.7755 94.6791 14.3265C94.6632 14.3498 94.6474 14.3733 94.6316 14.3968C94.6212 14.4122 94.6109 14.4277 94.6005 14.4432V12.9524C94.6005 12.6519 94.366 12.4082 94.0762 12.4082H90.7996C90.5099 12.4082 90.2754 12.6519 90.2754 12.9524V31.4558Z" fill="black"/>
<path d="M40.3131 13.7247C40.177 13.3779 40.4261 13 40.7907 13H44.0726C44.2876 13 44.48 13.137 44.555 13.3436L48.7915 25.004L52.9168 13.3478C52.9909 13.139 53.1843 13 53.4008 13H55.15C55.3665 13 55.56 13.139 55.634 13.3478L59.7594 25.004L63.9961 13.3436C64.071 13.137 64.2631 13 64.4781 13H67.7602C68.1247 13 68.3737 13.3779 68.2377 13.7247L61.2003 31.6691C61.1221 31.869 60.9327 32 60.7228 32H58.951C58.7391 32 58.5488 31.867 58.4715 31.6647L54.2755 20.678L50.0792 31.6647C50.0021 31.867 49.8117 32 49.5999 32H47.8281C47.618 32 47.4289 31.869 47.3505 31.6691L40.3131 13.7247Z" fill="black"/>
</g>
<defs>
<clipPath id="clip0_1925_13705">
<rect width="122" height="40" fill="white"/>
</clipPath>
</defs>
</svg>
