<svg width="181" height="108" viewBox="0 0 181 108" fill="none" xmlns="http://www.w3.org/2000/svg">
<g clip-path="url(#clip0_58_1074)">
<path d="M50.9626 39.1499C50.9626 41.3999 51.2633 43.1999 51.5639 44.5499C52.0149 45.8999 52.6163 47.2499 53.5183 48.8999C53.8189 49.3499 53.9693 49.7999 53.9693 50.2499C53.9693 50.8499 53.6686 51.4499 52.7666 52.0499L49.0083 54.5999C48.407 54.8999 47.956 55.1999 47.505 55.1999C46.9036 55.1999 46.3023 54.8999 45.701 54.2999C44.799 53.3999 44.1977 52.4999 43.5963 51.4499C42.995 50.3999 42.3937 49.3499 41.7923 47.8499C37.132 53.3999 31.2691 56.0999 24.0531 56.0999C18.9419 56.0999 15.0332 54.5999 12.0266 51.7499C9.01992 48.8999 7.5166 44.9999 7.5166 40.1999C7.5166 35.0999 9.32059 30.8999 12.9286 27.8999C16.5365 24.8999 21.4975 23.2499 27.6611 23.2499C29.7658 23.2499 31.8704 23.3999 33.9751 23.6999C36.2301 23.9999 38.485 24.4499 40.8904 25.0499V20.6999C40.8904 16.1999 39.9884 12.8999 38.034 11.0999C36.0797 9.2999 32.9227 8.3999 28.2624 8.3999C26.1578 8.3999 24.0531 8.6999 21.7982 9.1499C19.5432 9.7499 17.4385 10.3499 15.3339 11.2499C14.4319 11.5499 13.6802 11.8499 13.2292 11.9999C12.7782 11.9999 12.4776 12.1499 12.3272 12.1499C11.4252 12.1499 11.1246 11.5499 11.1246 10.3499V7.3499C11.1246 6.4499 11.2749 5.6999 11.5756 5.2499C11.8762 4.7999 12.4776 4.3499 13.2292 4.0499C15.3339 2.9999 17.8895 2.0999 20.7458 1.3499C23.7525 0.599902 26.7591 0.149902 30.0664 0.149902C37.2824 0.149902 42.3937 1.7999 45.8513 4.9499C49.1586 8.2499 50.8123 13.0499 50.8123 19.7999L50.9626 39.1499ZM26.6088 48.2999C28.5631 48.2999 30.6678 47.9999 32.7724 47.2499C34.8771 46.4999 36.8314 45.1499 38.485 43.3499C39.387 42.1499 40.1387 40.9499 40.5897 39.4499C40.8904 37.9499 41.191 36.2999 41.191 34.1999V31.6499C39.387 31.1999 37.583 30.8999 35.6287 30.5999C33.6744 30.2999 31.8704 30.2999 29.9161 30.2999C25.8571 30.2999 23.0008 31.0499 20.8962 32.6999C18.9419 34.3499 17.8895 36.5999 17.8895 39.5999C17.8895 42.4499 18.6412 44.5499 20.1445 45.8999C21.6478 47.6999 23.7525 48.2999 26.6088 48.2999ZM74.8654 54.8999C73.8131 54.8999 73.0615 54.7499 72.6105 54.2999C72.1595 53.9999 71.7085 53.0999 71.4078 51.8999L57.2766 5.3999C56.9759 4.1999 56.6752 3.4499 56.6752 2.9999C56.6752 2.0999 57.1262 1.4999 58.1786 1.4999H64.0415C65.2442 1.4999 65.9958 1.6499 66.4468 2.0999C66.8978 2.3999 67.3488 3.2999 67.6495 4.4999L77.7218 44.2499L87.0424 4.4999C87.343 3.2999 87.6437 2.5499 88.245 2.0999C88.696 1.7999 89.598 1.4999 90.6503 1.4999H95.461C96.6636 1.4999 97.4153 1.6499 97.8663 2.0999C98.3173 2.3999 98.7683 3.2999 99.0689 4.4999L108.54 44.6999L118.913 4.4999C119.213 3.2999 119.664 2.5499 120.115 2.0999C120.566 1.7999 121.318 1.4999 122.521 1.4999H128.083C128.985 1.4999 129.586 1.9499 129.586 2.9999C129.586 3.2999 129.586 3.5999 129.436 3.8999C129.436 4.1999 129.286 4.7999 128.985 5.3999L114.403 51.8999C114.102 53.0999 113.651 53.8499 113.2 54.2999C112.749 54.5999 111.998 54.8999 110.945 54.8999H105.834C104.631 54.8999 103.88 54.7499 103.429 54.2999C102.978 53.8499 102.527 53.0999 102.226 51.8999L92.9053 13.1999L83.5847 51.8999C83.284 53.0999 82.9834 53.8499 82.382 54.2999C81.9311 54.7499 81.0291 54.8999 79.9767 54.8999H74.8654ZM152.287 56.3999C149.13 56.3999 145.973 56.0999 142.966 55.3499C139.959 54.5999 137.554 53.8499 136.051 52.9499C135.149 52.3499 134.397 51.7499 134.247 51.2999C134.096 50.8499 133.796 50.0999 133.796 49.6499V46.6499C133.796 45.4499 134.247 44.8499 135.149 44.8499C135.449 44.8499 135.9 44.8499 136.201 44.9999C136.502 45.1499 137.103 45.2999 137.704 45.5999C139.809 46.4999 141.914 47.2499 144.319 47.6999C146.724 48.1499 149.13 48.4499 151.535 48.4499C155.293 48.4499 158.3 47.8499 160.254 46.4999C162.359 45.1499 163.411 43.1999 163.411 40.7999C163.411 39.1499 162.81 37.7999 161.757 36.5999C160.705 35.3999 158.6 34.4999 155.744 33.4499L147.025 30.7499C142.665 29.3999 139.358 27.2999 137.404 24.5999C135.449 21.8999 134.397 19.0499 134.397 15.8999C134.397 13.3499 134.998 11.0999 136.051 9.2999C137.103 7.4999 138.606 5.6999 140.41 4.3499C142.214 2.9999 144.319 1.9499 146.724 1.1999C149.13 0.449902 151.685 0.149902 154.241 0.149902C155.594 0.149902 156.947 0.149902 158.3 0.449902C159.653 0.599902 161.006 0.899902 162.208 1.0499C163.411 1.3499 164.614 1.6499 165.666 1.9499C166.718 2.2499 167.62 2.6999 168.222 2.9999C169.124 3.4499 169.725 3.8999 170.026 4.4999C170.326 4.9499 170.627 5.6999 170.627 6.4499V9.2999C170.627 10.4999 170.176 11.2499 169.274 11.2499C168.823 11.2499 168.071 10.9499 167.019 10.4999C163.561 8.9999 159.803 8.0999 155.444 8.0999C151.986 8.0999 149.28 8.6999 147.476 9.7499C145.672 10.7999 144.62 12.5999 144.62 15.1499C144.62 16.7999 145.221 18.2999 146.424 19.3499C147.626 20.5499 149.881 21.5999 153.038 22.6499L161.607 25.3499C165.967 26.6999 169.124 28.6499 170.928 31.0499C172.732 33.4499 173.634 36.2999 173.634 39.4499C173.634 41.9999 173.032 44.3999 172.13 46.3499C171.078 48.4499 169.575 50.2499 167.771 51.5999C165.967 53.0999 163.712 54.1499 161.156 54.8999C158.149 56.0999 155.293 56.3999 152.287 56.3999Z" fill="black"/>
<path d="M163.712 85.6501C143.868 100.2 115.004 108 90.3497 108C55.623 108 24.3539 95.2501 0.751695 73.9501C-1.05229 72.3001 0.601363 70.0501 2.85635 71.2501C28.4128 86.1001 59.8323 94.9501 92.4544 94.9501C114.403 94.9501 138.606 90.4501 160.856 81.0001C164.012 79.6501 166.869 83.2501 163.712 85.6501Z" fill="black"/>
<path d="M171.83 76.3501C169.274 73.0501 155.143 74.8501 148.679 75.6001C146.724 75.9001 146.424 74.1001 148.228 72.9001C159.502 64.9501 178.144 67.2001 180.248 69.9001C182.353 72.6001 179.647 91.2001 169.124 100.05C167.47 101.4 165.967 100.65 166.718 98.8501C169.124 92.8501 174.385 79.5001 171.83 76.3501Z" fill="black"/>
<path d="M50.9626 39.1499C50.9626 41.3999 51.2633 43.1999 51.5639 44.5499C52.0149 45.8999 52.6163 47.2499 53.5183 48.8999C53.8189 49.3499 53.9693 49.7999 53.9693 50.2499C53.9693 50.8499 53.6686 51.4499 52.7666 52.0499L49.0083 54.5999C48.407 54.8999 47.956 55.1999 47.505 55.1999C46.9036 55.1999 46.3023 54.8999 45.701 54.2999C44.799 53.3999 44.1977 52.4999 43.5963 51.4499C42.995 50.3999 42.3937 49.3499 41.7923 47.8499C37.132 53.3999 31.2691 56.0999 24.0531 56.0999C18.9419 56.0999 15.0332 54.5999 12.0266 51.7499C9.01992 48.8999 7.5166 44.9999 7.5166 40.1999C7.5166 35.0999 9.32059 30.8999 12.9286 27.8999C16.5365 24.8999 21.4975 23.2499 27.6611 23.2499C29.7658 23.2499 31.8704 23.3999 33.9751 23.6999C36.2301 23.9999 38.485 24.4499 40.8904 25.0499V20.6999C40.8904 16.1999 39.9884 12.8999 38.034 11.0999C36.0797 9.2999 32.9227 8.3999 28.2624 8.3999C26.1578 8.3999 24.0531 8.6999 21.7982 9.1499C19.5432 9.7499 17.4385 10.3499 15.3339 11.2499C14.4319 11.5499 13.6802 11.8499 13.2292 11.9999C12.7782 11.9999 12.4776 12.1499 12.3272 12.1499C11.4252 12.1499 11.1246 11.5499 11.1246 10.3499V7.3499C11.1246 6.4499 11.2749 5.6999 11.5756 5.2499C11.8762 4.7999 12.4776 4.3499 13.2292 4.0499C15.3339 2.9999 17.8895 2.0999 20.7458 1.3499C23.7525 0.599902 26.7591 0.149902 30.0664 0.149902C37.2824 0.149902 42.3937 1.7999 45.8513 4.9499C49.1586 8.2499 50.8123 13.0499 50.8123 19.7999L50.9626 39.1499ZM26.6088 48.2999C28.5631 48.2999 30.6678 47.9999 32.7724 47.2499C34.8771 46.4999 36.8314 45.1499 38.485 43.3499C39.387 42.1499 40.1387 40.9499 40.5897 39.4499C40.8904 37.9499 41.191 36.2999 41.191 34.1999V31.6499C39.387 31.1999 37.583 30.8999 35.6287 30.5999C33.6744 30.2999 31.8704 30.2999 29.9161 30.2999C25.8571 30.2999 23.0008 31.0499 20.8962 32.6999C18.9419 34.3499 17.8895 36.5999 17.8895 39.5999C17.8895 42.4499 18.6412 44.5499 20.1445 45.8999C21.6478 47.6999 23.7525 48.2999 26.6088 48.2999ZM74.8654 54.8999C73.8131 54.8999 73.0615 54.7499 72.6105 54.2999C72.1595 53.9999 71.7085 53.0999 71.4078 51.8999L57.2766 5.3999C56.9759 4.1999 56.6752 3.4499 56.6752 2.9999C56.6752 2.0999 57.1262 1.4999 58.1786 1.4999H64.0415C65.2442 1.4999 65.9958 1.6499 66.4468 2.0999C66.8978 2.3999 67.3488 3.2999 67.6495 4.4999L77.7218 44.2499L87.0424 4.4999C87.343 3.2999 87.6437 2.5499 88.245 2.0999C88.696 1.7999 89.598 1.4999 90.6503 1.4999H95.461C96.6636 1.4999 97.4153 1.6499 97.8663 2.0999C98.3173 2.3999 98.7683 3.2999 99.0689 4.4999L108.54 44.6999L118.913 4.4999C119.213 3.2999 119.664 2.5499 120.115 2.0999C120.566 1.7999 121.318 1.4999 122.521 1.4999H128.083C128.985 1.4999 129.586 1.9499 129.586 2.9999C129.586 3.2999 129.586 3.5999 129.436 3.8999C129.436 4.1999 129.286 4.7999 128.985 5.3999L114.403 51.8999C114.102 53.0999 113.651 53.8499 113.2 54.2999C112.749 54.5999 111.998 54.8999 110.945 54.8999H105.834C104.631 54.8999 103.88 54.7499 103.429 54.2999C102.978 53.8499 102.527 53.0999 102.226 51.8999L92.9053 13.1999L83.5847 51.8999C83.284 53.0999 82.9834 53.8499 82.382 54.2999C81.9311 54.7499 81.0291 54.8999 79.9767 54.8999H74.8654ZM152.287 56.3999C149.13 56.3999 145.973 56.0999 142.966 55.3499C139.959 54.5999 137.554 53.8499 136.051 52.9499C135.149 52.3499 134.397 51.7499 134.247 51.2999C134.096 50.8499 133.796 50.0999 133.796 49.6499V46.6499C133.796 45.4499 134.247 44.8499 135.149 44.8499C135.449 44.8499 135.9 44.8499 136.201 44.9999C136.502 45.1499 137.103 45.2999 137.704 45.5999C139.809 46.4999 141.914 47.2499 144.319 47.6999C146.724 48.1499 149.13 48.4499 151.535 48.4499C155.293 48.4499 158.3 47.8499 160.254 46.4999C162.359 45.1499 163.411 43.1999 163.411 40.7999C163.411 39.1499 162.81 37.7999 161.757 36.5999C160.705 35.3999 158.6 34.4999 155.744 33.4499L147.025 30.7499C142.665 29.3999 139.358 27.2999 137.404 24.5999C135.449 21.8999 134.397 19.0499 134.397 15.8999C134.397 13.3499 134.998 11.0999 136.051 9.2999C137.103 7.4999 138.606 5.6999 140.41 4.3499C142.214 2.9999 144.319 1.9499 146.724 1.1999C149.13 0.449902 151.685 0.149902 154.241 0.149902C155.594 0.149902 156.947 0.149902 158.3 0.449902C159.653 0.599902 161.006 0.899902 162.208 1.0499C163.411 1.3499 164.614 1.6499 165.666 1.9499C166.718 2.2499 167.62 2.6999 168.222 2.9999C169.124 3.4499 169.725 3.8999 170.026 4.4999C170.326 4.9499 170.627 5.6999 170.627 6.4499V9.2999C170.627 10.4999 170.176 11.2499 169.274 11.2499C168.823 11.2499 168.071 10.9499 167.019 10.4999C163.561 8.9999 159.803 8.0999 155.444 8.0999C151.986 8.0999 149.28 8.6999 147.476 9.7499C145.672 10.7999 144.62 12.5999 144.62 15.1499C144.62 16.7999 145.221 18.2999 146.424 19.3499C147.626 20.5499 149.881 21.5999 153.038 22.6499L161.607 25.3499C165.967 26.6999 169.124 28.6499 170.928 31.0499C172.732 33.4499 173.634 36.2999 173.634 39.4499C173.634 41.9999 173.032 44.3999 172.13 46.3499C171.078 48.4499 169.575 50.2499 167.771 51.5999C165.967 53.0999 163.712 54.1499 161.156 54.8999C158.149 56.0999 155.293 56.3999 152.287 56.3999Z" fill="black"/>
<path d="M163.712 85.6501C143.868 100.2 115.004 108 90.3497 108C55.623 108 24.3539 95.2501 0.751695 73.9501C-1.05229 72.3001 0.601363 70.0501 2.85635 71.2501C28.4128 86.1001 59.8323 94.9501 92.4544 94.9501C114.403 94.9501 138.606 90.4501 160.856 81.0001C164.012 79.6501 166.869 83.2501 163.712 85.6501Z" fill="black"/>
<path d="M171.83 76.3501C169.274 73.0501 155.143 74.8501 148.679 75.6001C146.724 75.9001 146.424 74.1001 148.228 72.9001C159.502 64.9501 178.144 67.2001 180.248 69.9001C182.353 72.6001 179.647 91.2001 169.124 100.05C167.47 101.4 165.967 100.65 166.718 98.8501C169.124 92.8501 174.385 79.5001 171.83 76.3501Z" fill="black"/>
</g>
<defs>
<clipPath id="clip0_58_1074">
<rect width="181" height="108" fill="white"/>
</clipPath>
</defs>
</svg>
