<svg width="39" height="24" viewBox="0 0 39 24" fill="none" xmlns="http://www.w3.org/2000/svg">
<g clip-path="url(#clip0_58_1074)">
<path d="M10.9601 8.43256C10.9601 8.9172 11.0247 9.30491 11.0894 9.59569C11.1864 9.88647 11.3157 10.1772 11.5097 10.5326C11.5744 10.6296 11.6067 10.7265 11.6067 10.8234C11.6067 10.9527 11.542 11.0819 11.348 11.2111L10.5398 11.7604C10.4105 11.825 10.3135 11.8896 10.2165 11.8896C10.0872 11.8896 9.95783 11.825 9.82851 11.6958C9.63453 11.5019 9.50521 11.3081 9.37589 11.0819C9.24656 10.8557 9.11724 10.6296 8.98792 10.3065C7.98568 11.5019 6.72479 12.0835 5.17293 12.0835C4.07369 12.0835 3.2331 11.7604 2.58649 11.1465C1.93988 10.5326 1.61658 9.69261 1.61658 8.65873C1.61658 7.56022 2.00454 6.65557 2.78047 6.00939C3.5564 5.36321 4.62331 5.00781 5.94886 5.00781C6.40148 5.00781 6.85411 5.04012 7.30674 5.10474C7.79169 5.16936 8.27665 5.26628 8.79394 5.39552V4.45856C8.79394 3.48929 8.59996 2.77849 8.17966 2.39078C7.75936 2.00307 7.08042 1.80922 6.07818 1.80922C5.62555 1.80922 5.17293 1.87384 4.68797 1.97077C4.20301 2.1 3.75039 2.22924 3.29776 2.42309C3.10378 2.48771 2.94213 2.55233 2.84513 2.58464C2.74814 2.58464 2.68348 2.61695 2.65115 2.61695C2.45717 2.61695 2.39251 2.48771 2.39251 2.22924V1.58306C2.39251 1.3892 2.42484 1.22766 2.4895 1.13073C2.55416 1.03381 2.68348 0.936878 2.84513 0.87226C3.29776 0.646097 3.84738 0.452243 4.46166 0.290698C5.10827 0.129154 5.75488 0.0322266 6.46615 0.0322266C8.01801 0.0322266 9.11724 0.387625 9.86084 1.06611C10.5721 1.77691 10.9277 2.8108 10.9277 4.2647L10.9601 8.43256ZM5.72255 10.4034C6.14284 10.4034 6.59547 10.3388 7.04809 10.1772C7.50072 10.0157 7.92102 9.72492 8.27665 9.33721C8.47063 9.07874 8.63229 8.82027 8.72928 8.49718C8.79394 8.17409 8.8586 7.81869 8.8586 7.36637V6.81711C8.47063 6.72019 8.08267 6.65557 7.66237 6.59095C7.24208 6.52633 6.85411 6.52633 6.43382 6.52633C5.56089 6.52633 4.94661 6.68788 4.49399 7.04328C4.07369 7.39868 3.84738 7.88331 3.84738 8.52949C3.84738 9.14336 4.00903 9.59569 4.33234 9.88647C4.65564 10.2742 5.10827 10.4034 5.72255 10.4034ZM16.1006 11.825C15.8743 11.825 15.7127 11.7927 15.6157 11.6958C15.5187 11.6312 15.4217 11.4373 15.357 11.1788L12.318 1.16304C12.2533 0.904569 12.1886 0.743024 12.1886 0.646097C12.1886 0.452243 12.2856 0.323007 12.5119 0.323007H13.7728C14.0315 0.323007 14.1931 0.355316 14.2901 0.452243C14.3871 0.516861 14.4841 0.710715 14.5488 0.969187L16.7149 9.53107L18.7194 0.969187C18.784 0.710715 18.8487 0.54917 18.978 0.452243C19.075 0.387625 19.269 0.323007 19.4953 0.323007H20.5299C20.7885 0.323007 20.9502 0.355316 21.0472 0.452243C21.1442 0.516861 21.2412 0.710715 21.3058 0.969187L23.3426 9.628L25.5734 0.969187C25.6381 0.710715 25.7351 0.54917 25.8321 0.452243C25.9291 0.387625 26.0907 0.323007 26.3494 0.323007H27.5456C27.7396 0.323007 27.8689 0.419934 27.8689 0.646097C27.8689 0.710715 27.8689 0.775333 27.8366 0.839951C27.8366 0.904569 27.8042 1.03381 27.7396 1.16304L24.6035 11.1788C24.5389 11.4373 24.4419 11.5988 24.3449 11.6958C24.2479 11.7604 24.0862 11.825 23.8599 11.825H22.7607C22.5021 11.825 22.3404 11.7927 22.2434 11.6958C22.1464 11.5988 22.0494 11.4373 21.9848 11.1788L19.9803 2.84311L17.9758 11.1788C17.9111 11.4373 17.8465 11.5988 17.7171 11.6958C17.6202 11.7927 17.4262 11.825 17.1999 11.825H16.1006ZM32.7508 12.1481C32.0719 12.1481 31.3929 12.0835 30.7463 11.9219C30.0997 11.7604 29.5824 11.5988 29.2591 11.405C29.0651 11.2758 28.9035 11.1465 28.8712 11.0496C28.8388 10.9527 28.7742 10.7911 28.7742 10.6942V10.048C28.7742 9.78954 28.8712 9.6603 29.0651 9.6603C29.1298 9.6603 29.2268 9.6603 29.2914 9.69261C29.3561 9.72492 29.4854 9.75723 29.6148 9.82185C30.0674 10.0157 30.52 10.1772 31.0373 10.2742C31.5546 10.3711 32.0719 10.4357 32.5892 10.4357C33.3974 10.4357 34.044 10.3065 34.4643 10.0157C34.9169 9.72492 35.1433 9.30491 35.1433 8.78796C35.1433 8.43256 35.0139 8.14178 34.7876 7.88331C34.5613 7.62484 34.1087 7.43098 33.4944 7.20482L31.6192 6.62326C30.6817 6.33248 29.9704 5.88015 29.5501 5.29859C29.1298 4.71703 28.9035 4.10316 28.9035 3.42467C28.9035 2.87542 29.0328 2.39078 29.2591 2.00307C29.4854 1.61537 29.8087 1.22766 30.1967 0.936878C30.5847 0.646097 31.0373 0.419934 31.5546 0.258389C32.0719 0.0968445 32.6215 0.0322266 33.1711 0.0322266C33.4621 0.0322266 33.7531 0.0322266 34.044 0.0968445C34.335 0.129154 34.626 0.193771 34.8846 0.22608C35.1433 0.290698 35.4019 0.355316 35.6282 0.419934C35.8545 0.484552 36.0485 0.581479 36.1778 0.646097C36.3718 0.743024 36.5011 0.839951 36.5658 0.969187C36.6305 1.06611 36.6951 1.22766 36.6951 1.3892V2.00307C36.6951 2.26155 36.5981 2.42309 36.4041 2.42309C36.3072 2.42309 36.1455 2.35847 35.9192 2.26155C35.1756 1.93846 34.3673 1.7446 33.4297 1.7446C32.6861 1.7446 32.1042 1.87384 31.7162 2.1C31.3283 2.32616 31.102 2.71387 31.102 3.26313C31.102 3.61852 31.2313 3.94161 31.4899 4.16778C31.7486 4.42625 32.2335 4.65241 32.9125 4.87857L34.7553 5.46014C35.6929 5.75092 36.3718 6.17093 36.7598 6.68788C37.1477 7.20482 37.3417 7.81869 37.3417 8.49718C37.3417 9.04643 37.2124 9.56338 37.0184 9.98339C36.7921 10.4357 36.4688 10.8234 36.0808 11.1142C35.6929 11.4373 35.2079 11.6635 34.6583 11.825C34.0117 12.0835 33.3974 12.1481 32.7508 12.1481Z" fill="white"/>
<path d="M35.2079 18.448C30.9403 21.582 24.7328 23.262 19.4306 23.262C11.9623 23.262 5.23758 20.5158 0.161698 15.9279C-0.226268 15.5725 0.129367 15.0879 0.614324 15.3463C6.1105 18.5449 12.8676 20.4512 19.8833 20.4512C24.6035 20.4512 29.8087 19.4819 34.5936 17.4464C35.2726 17.1556 35.8869 17.9311 35.2079 18.448Z" fill="white"/>
<path d="M36.9537 16.4451C36.4041 15.7343 33.3651 16.122 31.9749 16.2835C31.5546 16.3482 31.4899 15.9604 31.8779 15.702C34.3026 13.9896 38.3116 14.4742 38.7642 15.0558C39.2169 15.6374 38.6349 19.6437 36.3718 21.5499C36.0162 21.8407 35.6929 21.6791 35.8545 21.2914C36.3718 19.9991 37.5034 17.1236 36.9537 16.4451Z" fill="white"/>
<path d="M10.9601 8.43256C10.9601 8.9172 11.0247 9.30491 11.0894 9.59569C11.1864 9.88647 11.3157 10.1772 11.5097 10.5326C11.5744 10.6296 11.6067 10.7265 11.6067 10.8234C11.6067 10.9527 11.542 11.0819 11.348 11.2111L10.5398 11.7604C10.4105 11.825 10.3135 11.8896 10.2165 11.8896C10.0872 11.8896 9.95783 11.825 9.82851 11.6958C9.63453 11.5019 9.50521 11.3081 9.37589 11.0819C9.24656 10.8557 9.11724 10.6296 8.98792 10.3065C7.98568 11.5019 6.72479 12.0835 5.17293 12.0835C4.07369 12.0835 3.2331 11.7604 2.58649 11.1465C1.93988 10.5326 1.61658 9.69261 1.61658 8.65873C1.61658 7.56022 2.00454 6.65557 2.78047 6.00939C3.5564 5.36321 4.62331 5.00781 5.94886 5.00781C6.40148 5.00781 6.85411 5.04012 7.30674 5.10474C7.79169 5.16936 8.27665 5.26628 8.79394 5.39552V4.45856C8.79394 3.48929 8.59996 2.77849 8.17966 2.39078C7.75936 2.00307 7.08042 1.80922 6.07818 1.80922C5.62555 1.80922 5.17293 1.87384 4.68797 1.97077C4.20301 2.1 3.75039 2.22924 3.29776 2.42309C3.10378 2.48771 2.94213 2.55233 2.84513 2.58464C2.74814 2.58464 2.68348 2.61695 2.65115 2.61695C2.45717 2.61695 2.39251 2.48771 2.39251 2.22924V1.58306C2.39251 1.3892 2.42484 1.22766 2.4895 1.13073C2.55416 1.03381 2.68348 0.936878 2.84513 0.87226C3.29776 0.646097 3.84738 0.452243 4.46166 0.290698C5.10827 0.129154 5.75488 0.0322266 6.46615 0.0322266C8.01801 0.0322266 9.11724 0.387625 9.86084 1.06611C10.5721 1.77691 10.9277 2.8108 10.9277 4.2647L10.9601 8.43256ZM5.72255 10.4034C6.14284 10.4034 6.59547 10.3388 7.04809 10.1772C7.50072 10.0157 7.92102 9.72492 8.27665 9.33721C8.47063 9.07874 8.63229 8.82027 8.72928 8.49718C8.79394 8.17409 8.8586 7.81869 8.8586 7.36637V6.81711C8.47063 6.72019 8.08267 6.65557 7.66237 6.59095C7.24208 6.52633 6.85411 6.52633 6.43382 6.52633C5.56089 6.52633 4.94661 6.68788 4.49399 7.04328C4.07369 7.39868 3.84738 7.88331 3.84738 8.52949C3.84738 9.14336 4.00903 9.59569 4.33234 9.88647C4.65564 10.2742 5.10827 10.4034 5.72255 10.4034ZM16.1006 11.825C15.8743 11.825 15.7127 11.7927 15.6157 11.6958C15.5187 11.6312 15.4217 11.4373 15.357 11.1788L12.318 1.16304C12.2533 0.904569 12.1886 0.743024 12.1886 0.646097C12.1886 0.452243 12.2856 0.323007 12.5119 0.323007H13.7728C14.0315 0.323007 14.1931 0.355316 14.2901 0.452243C14.3871 0.516861 14.4841 0.710715 14.5488 0.969187L16.7149 9.53107L18.7194 0.969187C18.784 0.710715 18.8487 0.54917 18.978 0.452243C19.075 0.387625 19.269 0.323007 19.4953 0.323007H20.5299C20.7885 0.323007 20.9502 0.355316 21.0472 0.452243C21.1442 0.516861 21.2412 0.710715 21.3058 0.969187L23.3426 9.628L25.5734 0.969187C25.6381 0.710715 25.7351 0.54917 25.8321 0.452243C25.9291 0.387625 26.0907 0.323007 26.3494 0.323007H27.5456C27.7396 0.323007 27.8689 0.419934 27.8689 0.646097C27.8689 0.710715 27.8689 0.775333 27.8366 0.839951C27.8366 0.904569 27.8042 1.03381 27.7396 1.16304L24.6035 11.1788C24.5389 11.4373 24.4419 11.5988 24.3449 11.6958C24.2479 11.7604 24.0862 11.825 23.8599 11.825H22.7607C22.5021 11.825 22.3404 11.7927 22.2434 11.6958C22.1464 11.5988 22.0494 11.4373 21.9848 11.1788L19.9803 2.84311L17.9758 11.1788C17.9111 11.4373 17.8465 11.5988 17.7171 11.6958C17.6202 11.7927 17.4262 11.825 17.1999 11.825H16.1006ZM32.7508 12.1481C32.0719 12.1481 31.3929 12.0835 30.7463 11.9219C30.0997 11.7604 29.5824 11.5988 29.2591 11.405C29.0651 11.2758 28.9035 11.1465 28.8712 11.0496C28.8388 10.9527 28.7742 10.7911 28.7742 10.6942V10.048C28.7742 9.78954 28.8712 9.6603 29.0651 9.6603C29.1298 9.6603 29.2268 9.6603 29.2914 9.69261C29.3561 9.72492 29.4854 9.75723 29.6148 9.82185C30.0674 10.0157 30.52 10.1772 31.0373 10.2742C31.5546 10.3711 32.0719 10.4357 32.5892 10.4357C33.3974 10.4357 34.044 10.3065 34.4643 10.0157C34.9169 9.72492 35.1433 9.30491 35.1433 8.78796C35.1433 8.43256 35.0139 8.14178 34.7876 7.88331C34.5613 7.62484 34.1087 7.43098 33.4944 7.20482L31.6192 6.62326C30.6817 6.33248 29.9704 5.88015 29.5501 5.29859C29.1298 4.71703 28.9035 4.10316 28.9035 3.42467C28.9035 2.87542 29.0328 2.39078 29.2591 2.00307C29.4854 1.61537 29.8087 1.22766 30.1967 0.936878C30.5847 0.646097 31.0373 0.419934 31.5546 0.258389C32.0719 0.0968445 32.6215 0.0322266 33.1711 0.0322266C33.4621 0.0322266 33.7531 0.0322266 34.044 0.0968445C34.335 0.129154 34.626 0.193771 34.8846 0.22608C35.1433 0.290698 35.4019 0.355316 35.6282 0.419934C35.8545 0.484552 36.0485 0.581479 36.1778 0.646097C36.3718 0.743024 36.5011 0.839951 36.5658 0.969187C36.6305 1.06611 36.6951 1.22766 36.6951 1.3892V2.00307C36.6951 2.26155 36.5981 2.42309 36.4041 2.42309C36.3072 2.42309 36.1455 2.35847 35.9192 2.26155C35.1756 1.93846 34.3673 1.7446 33.4297 1.7446C32.6861 1.7446 32.1042 1.87384 31.7162 2.1C31.3283 2.32616 31.102 2.71387 31.102 3.26313C31.102 3.61852 31.2313 3.94161 31.4899 4.16778C31.7486 4.42625 32.2335 4.65241 32.9125 4.87857L34.7553 5.46014C35.6929 5.75092 36.3718 6.17093 36.7598 6.68788C37.1477 7.20482 37.3417 7.81869 37.3417 8.49718C37.3417 9.04643 37.2124 9.56338 37.0184 9.98339C36.7921 10.4357 36.4688 10.8234 36.0808 11.1142C35.6929 11.4373 35.2079 11.6635 34.6583 11.825C34.0117 12.0835 33.3974 12.1481 32.7508 12.1481Z" fill="white"/>
<path d="M35.2079 18.448C30.9403 21.582 24.7328 23.262 19.4306 23.262C11.9623 23.262 5.23758 20.5158 0.161698 15.9279C-0.226268 15.5725 0.129367 15.0879 0.614324 15.3463C6.1105 18.5449 12.8676 20.4512 19.8833 20.4512C24.6035 20.4512 29.8087 19.4819 34.5936 17.4464C35.2726 17.1556 35.8869 17.9311 35.2079 18.448Z" fill="white"/>
<path d="M36.9537 16.4451C36.4041 15.7343 33.3651 16.122 31.9749 16.2835C31.5546 16.3482 31.4899 15.9604 31.8779 15.702C34.3026 13.9896 38.3116 14.4742 38.7642 15.0558C39.2169 15.6374 38.6349 19.6437 36.3718 21.5499C36.0162 21.8407 35.6929 21.6791 35.8545 21.2914C36.3718 19.9991 37.5034 17.1236 36.9537 16.4451Z" fill="white"/>
</g>
<defs>
<clipPath id="clip0_58_1074">
<rect width="38.9259" height="23.2625" fill="white"/>
</clipPath>
</defs>
</svg>
