<svg width="299" height="89" viewBox="0 0 299 89" fill="none" xmlns="http://www.w3.org/2000/svg">
<path d="M63.4639 2.76659C63.4639 1.23864 64.703 0 66.231 0H86.5189C88.0469 0 89.2854 1.23864 89.2854 2.76659V23.0549C89.2854 24.5829 88.0469 25.8215 86.5189 25.8215C86.5189 25.8215 80.5071 25.4662 76.682 25.8215C56.2894 27.7159 34.1499 56.3186 33.6463 55.7929C31.1871 54.5633 61.9933 31.5932 63.4639 10.4516C63.6727 7.45766 63.4639 2.76659 63.4639 2.76659Z" fill="#292929"/>
<path d="M25.8215 85.3105C25.8215 86.8385 24.5829 88.0769 23.0549 88.0769H2.76659C1.23865 88.0769 1.90724e-06 86.8385 1.77366e-06 85.3105L0 65.0219C-1.33577e-07 63.4939 1.23864 62.2555 2.76659 62.2555C2.76659 62.2555 8.77832 62.6108 12.6034 62.2555C32.9963 60.3613 55.1358 31.7583 55.6394 32.284C58.0985 33.5136 27.2925 56.4838 25.8215 77.6253C25.6132 80.6191 25.8215 85.3105 25.8215 85.3105Z" fill="#292929"/>
<path d="M63.4639 2.76659C63.4639 1.23864 64.703 0 66.231 0H86.5189C88.0469 0 89.2854 1.23864 89.2854 2.76659V23.0549C89.2854 24.5829 88.0469 25.8215 86.5189 25.8215C86.5189 25.8215 80.5071 25.4662 76.682 25.8215C56.2894 27.7159 34.1499 56.3186 33.6463 55.7929C31.1871 54.5633 61.9933 31.5932 63.4639 10.4516C63.6727 7.45766 63.4639 2.76659 63.4639 2.76659Z" fill="#6DA770"/>
<path d="M25.8215 85.3105C25.8215 86.8385 24.5829 88.0769 23.0549 88.0769H2.76659C1.23865 88.0769 1.90724e-06 86.8385 1.77366e-06 85.3105L0 65.0219C-1.33577e-07 63.4939 1.23864 62.2555 2.76659 62.2555C2.76659 62.2555 8.77832 62.6108 12.6034 62.2555C32.9963 60.3613 55.1358 31.7583 55.6394 32.284C58.0985 33.5136 27.2925 56.4838 25.8215 77.6253C25.6132 80.6191 25.8215 85.3105 25.8215 85.3105Z" fill="#6DA770"/>
<path d="M45.3089 16.4472C30.4548 16.4472 18.4127 28.4889 18.4126 43.343H5.5332V20.9214C5.5332 12.5925 12.2851 5.84058 20.614 5.84058H45.3089V16.4472Z" fill="#292929"/>
<path d="M45.1875 70.2393C60.0416 70.2393 72.0829 58.1976 72.0835 43.3435H84.9631V65.7651C84.9631 74.094 78.2111 80.8459 69.8823 80.8459H45.1875V70.2393Z" fill="#292929"/>
<path d="M122.204 22.1044C121.663 19.1075 119.707 15.4863 114.213 15.4863C107.803 15.4863 105.264 20.8557 105.264 26.7245C105.264 32.635 107.803 38.0044 114.213 38.0044C119.748 38.0044 121.871 34.3832 122.204 30.762H127.157C126.491 37.4633 121.913 42.25 114.337 42.25C105.763 42.25 100.352 35.7151 100.352 26.7245C100.352 17.7756 105.763 11.2407 114.337 11.2407C121.871 11.2407 126.45 16.0274 127.157 22.1044H122.204ZM139.648 19.8567C140.397 19.8567 140.938 19.8983 141.563 19.9816V24.1023H141.479C137.275 23.3947 133.904 26.225 133.904 30.762V41.6256H129.533V20.3562H133.904V24.352H133.987C135.111 21.6881 136.859 19.8567 139.648 19.8567ZM152.42 42.25C145.76 42.25 141.722 37.6298 141.722 31.0117C141.722 24.3936 145.76 19.7735 152.42 19.7735C159.079 19.7735 163.117 24.3936 163.117 31.0117C163.117 37.6298 159.079 42.25 152.42 42.25ZM152.42 38.6704C156.582 38.6704 158.746 35.3821 158.746 31.0117C158.746 26.5997 156.582 23.3531 152.42 23.3531C148.257 23.3531 146.093 26.5997 146.093 31.0117C146.093 35.3821 148.257 38.6704 152.42 38.6704ZM174.503 28.7641C178.416 29.6798 182.661 30.5539 182.661 35.6319C182.661 39.7109 179.165 42.25 174.004 42.25C167.136 42.25 164.181 39.045 163.973 34.5497H168.218C168.426 36.8389 169.425 38.7952 173.921 38.7952C176.959 38.7952 178.249 37.2968 178.249 35.9649C178.249 33.301 175.71 33.0929 172.589 32.3437C169.217 31.5528 164.639 30.8868 164.639 26.0586C164.639 22.5622 167.719 19.7735 173.047 19.7735C178.832 19.7735 181.579 22.8952 181.871 26.5997H177.625C177.334 24.9347 176.501 23.2282 173.088 23.2282C170.466 23.2282 169.051 24.2271 169.051 25.7256C169.051 27.89 171.423 28.0565 174.503 28.7641ZM194.035 28.7641C197.948 29.6798 202.194 30.5539 202.194 35.6319C202.194 39.7109 198.697 42.25 193.536 42.25C186.668 42.25 183.713 39.045 183.505 34.5497H187.75C187.958 36.8389 188.957 38.7952 193.453 38.7952C196.491 38.7952 197.782 37.2968 197.782 35.9649C197.782 33.301 195.243 33.0929 192.121 32.3437C188.749 31.5528 184.171 30.8868 184.171 26.0586C184.171 22.5622 187.251 19.7735 192.579 19.7735C198.364 19.7735 201.111 22.8952 201.403 26.5997H197.157C196.866 24.9347 196.033 23.2282 192.62 23.2282C189.998 23.2282 188.583 24.2271 188.583 25.7256C188.583 27.89 190.955 28.0565 194.035 28.7641ZM219.347 20.3562H223.718V40.1688C223.718 46.2874 220.013 48.9929 213.978 48.9929C207.859 48.9929 204.488 45.7879 204.03 42.2083H208.442C208.858 44.0814 210.357 45.4966 213.811 45.4966C217.474 45.4966 219.347 43.8316 219.347 40.0023V37.4217H219.264C218.14 39.0034 216.184 40.585 212.812 40.585C207.485 40.585 203.489 36.8806 203.489 30.1792C203.489 23.4363 207.485 19.7735 212.812 19.7735C216.184 19.7735 218.14 21.3551 219.264 22.8536H219.347V20.3562ZM213.645 37.0054C217.183 37.0054 219.306 34.6745 219.306 30.1792C219.306 25.6839 217.183 23.3531 213.645 23.3531C209.815 23.3531 207.859 26.225 207.859 30.1792C207.859 34.0918 209.815 37.0054 213.645 37.0054ZM239.892 25.9337C239.892 24.3936 238.976 23.2282 236.063 23.2282C232.566 23.2282 231.276 24.3104 231.068 27.0575H226.822C227.031 22.9784 229.653 19.7735 236.063 19.7735C240.766 19.7735 244.263 21.5633 244.263 27.224V37.3384C244.263 38.8369 244.596 39.6277 246.302 39.4612V41.5424C245.303 41.917 244.595 42.0002 243.763 42.0002C241.432 42.0002 240.35 41.1677 239.934 39.0866H239.85C238.519 40.9596 236.104 42.25 232.816 42.25C228.487 42.25 225.823 39.7526 225.823 36.173C225.823 31.5112 229.278 30.0544 234.606 29.0138C237.894 28.3895 239.892 27.9732 239.892 25.9337ZM233.773 38.7952C237.395 38.7952 239.892 37.0054 239.892 33.5507V30.3457C239.184 30.8452 237.478 31.3447 235.438 31.7609C231.817 32.5518 230.236 33.5923 230.236 35.7567C230.236 37.713 231.401 38.7952 233.773 38.7952ZM257.776 23.9358H253.78V35.4654C253.78 37.8795 254.945 38.1709 257.776 38.0044V41.584C256.901 41.7921 255.944 41.917 254.779 41.917C251.282 41.917 249.368 40.3353 249.368 35.84V23.9358H246.288V20.3562H249.368V13.6549H253.78V20.3562H257.776V23.9358ZM269.323 38.6704C272.944 38.6704 274.401 36.4227 274.776 35.1324H279.146C278.064 39.1698 274.901 42.25 269.448 42.25C262.83 42.25 258.793 37.6714 258.793 31.0117C258.793 24.1023 262.83 19.7735 269.24 19.7735C276.108 19.7735 279.479 24.5601 279.479 32.1355H263.163C263.163 35.7151 265.452 38.6704 269.323 38.6704ZM269.24 23.2282C265.702 23.2282 263.163 25.6007 263.163 28.8889H275.109C275.109 25.6007 272.778 23.2282 269.24 23.2282ZM290.842 28.7641C294.754 29.6798 299 30.5539 299 35.6319C299 39.7109 295.504 42.25 290.342 42.25C283.475 42.25 280.519 39.045 280.311 34.5497H284.557C284.765 36.8389 285.764 38.7952 290.259 38.7952C293.298 38.7952 294.588 37.2968 294.588 35.9649C294.588 33.301 292.049 33.0929 288.927 32.3437C285.556 31.5528 280.977 30.8868 280.977 26.0586C280.977 22.5622 284.057 19.7735 289.385 19.7735C295.171 19.7735 297.918 22.8952 298.209 26.5997H293.964C293.672 24.9347 292.84 23.2282 289.427 23.2282C286.804 23.2282 285.389 24.2271 285.389 25.7256C285.389 27.89 287.762 28.0565 290.842 28.7641Z" fill="#292929"/>
<path d="M123.286 57.2788C122.745 54.4485 120.581 50.2029 114.379 50.2029C107.303 50.2029 104.348 56.3215 104.348 62.3152C104.348 68.3506 107.303 74.4692 114.379 74.4692C120.623 74.4692 123.037 70.2236 123.286 66.4775H127.032C126.367 73.054 121.705 77.799 114.379 77.799C106.221 77.799 100.602 71.3058 100.602 62.3152C100.602 53.3663 106.221 46.873 114.379 46.873C121.663 46.873 126.325 51.6181 127.032 57.2788H123.286ZM138.27 77.799C131.777 77.799 127.864 73.2205 127.864 66.6024C127.864 59.9843 131.777 55.4058 138.27 55.4058C144.722 55.4058 148.634 59.9843 148.634 66.6024C148.634 73.2205 144.722 77.799 138.27 77.799ZM138.27 74.8854C143.015 74.8854 145.304 71.1393 145.304 66.6024C145.304 62.0655 143.015 58.3194 138.27 58.3194C133.483 58.3194 131.194 62.0655 131.194 66.6024C131.194 71.1393 133.483 74.8854 138.27 74.8854ZM160.738 55.4058C164.609 55.4058 167.855 57.5286 167.855 62.3985V77.2163H164.525V63.2309C164.525 60.4838 163.235 58.3194 159.905 58.3194C156.159 58.3194 153.662 60.6919 153.662 63.9801V77.2163H150.332V55.9885H153.662V58.5275H153.745C154.869 57.0291 157.116 55.4058 160.738 55.4058ZM181.063 55.4058C184.934 55.4058 188.18 57.5286 188.18 62.3985V77.2163H184.851V63.2309C184.851 60.4838 183.56 58.3194 180.23 58.3194C176.484 58.3194 173.987 60.6919 173.987 63.9801V77.2163H170.657V55.9885H173.987V58.5275H174.07C175.194 57.0291 177.442 55.4058 181.063 55.4058ZM200.015 74.8854C204.261 74.8854 205.843 72.1383 206.217 70.6815H209.547C208.465 74.6357 205.426 77.799 200.14 77.799C193.689 77.799 189.776 73.2621 189.776 66.6024C189.776 59.5265 193.772 55.4058 199.974 55.4058C206.633 55.4058 209.88 59.9427 209.88 67.4765H193.106C193.106 71.3058 195.395 74.8854 200.015 74.8854ZM199.974 58.3194C195.978 58.3194 193.106 61.1498 193.106 64.5629H206.55C206.55 61.1498 203.97 58.3194 199.974 58.3194ZM226.579 63.6472C226.413 61.3163 224.831 58.3194 220.586 58.3194C215.549 58.3194 213.635 62.6066 213.635 66.6024C213.635 70.5982 215.549 74.8854 220.586 74.8854C224.873 74.8854 226.413 71.9302 226.579 69.3912H229.909C229.618 74.2194 225.83 77.799 220.586 77.799C214.384 77.799 210.305 73.2621 210.305 66.6024C210.305 59.9427 214.384 55.4058 220.586 55.4058C225.83 55.4058 229.41 58.9021 229.909 63.6472H226.579ZM240.671 58.9021H236.509V71.6804C236.509 74.0946 237.84 74.5108 240.671 74.3027V77.2163C239.922 77.3828 239.048 77.466 238.173 77.466C235.343 77.466 233.179 76.3422 233.179 72.0134V58.9021H230.057V55.9885H233.179V48.9126H236.509V55.9885H240.671V58.9021Z" fill="#292929"/>
</svg>
