<svg width="33" height="32" viewBox="0 0 33 32" fill="none" xmlns="http://www.w3.org/2000/svg">
<path d="M23.0577 1.00516C23.0577 0.450023 23.5078 0 24.063 0H31.434C31.9891 0 32.4391 0.450023 32.4391 1.00516V8.37629C32.4391 8.93142 31.9891 9.38145 31.434 9.38145C31.434 9.38145 29.2498 9.25234 27.86 9.38145C20.451 10.0697 12.4073 20.4616 12.2243 20.2706C11.3309 19.8239 22.5233 11.4784 23.0577 3.79725C23.1335 2.70951 23.0577 1.00516 23.0577 1.00516Z" fill="#EBF2A6"/>
<path d="M9.38145 30.9947C9.38145 31.5498 8.93144 31.9998 8.37629 31.9998H1.00516C0.450025 31.9998 6.92936e-07 31.5498 6.44406e-07 30.9947L0 23.6235C-4.85311e-08 23.0683 0.450023 22.6184 1.00516 22.6184C1.00516 22.6184 3.18933 22.7475 4.57904 22.6184C11.9882 21.9302 20.0319 11.5382 20.2148 11.7292C21.1083 12.1759 9.91589 20.5214 9.38145 28.2025C9.30578 29.2902 9.38145 30.9947 9.38145 30.9947Z" fill="#EBF2A6"/>
<path d="M23.0577 1.00516C23.0577 0.450023 23.5078 0 24.063 0H31.434C31.9891 0 32.4391 0.450023 32.4391 1.00516V8.37629C32.4391 8.93142 31.9891 9.38145 31.434 9.38145C31.434 9.38145 29.2498 9.25234 27.86 9.38145C20.451 10.0697 12.4073 20.4616 12.2243 20.2706C11.3309 19.8239 22.5233 11.4784 23.0577 3.79725C23.1335 2.70951 23.0577 1.00516 23.0577 1.00516Z" fill="#EBF2A6"/>
<path d="M9.38145 30.9947C9.38145 31.5498 8.93144 31.9998 8.37629 31.9998H1.00516C0.450025 31.9998 6.92936e-07 31.5498 6.44406e-07 30.9947L0 23.6235C-4.85311e-08 23.0683 0.450023 22.6184 1.00516 22.6184C1.00516 22.6184 3.18933 22.7475 4.57904 22.6184C11.9882 21.9302 20.0319 11.5382 20.2148 11.7292C21.1083 12.1759 9.91589 20.5214 9.38145 28.2025C9.30578 29.2902 9.38145 30.9947 9.38145 30.9947Z" fill="#EBF2A6"/>
<path d="M16.4616 5.97566C11.0649 5.97566 6.68975 10.3506 6.6897 15.7474H2.01038V7.60122C2.01038 4.57517 4.46348 2.12207 7.48953 2.12207H16.4616V5.97566Z" fill="#EBF2A6"/>
<path d="M16.4175 25.5193C21.8143 25.5193 26.1891 21.1443 26.1893 15.7476H30.8687V23.8937C30.8687 26.9198 28.4156 29.3729 25.3896 29.3729H16.4175V25.5193Z" fill="#EBF2A6"/>
</svg>
