<svg width="149" height="146" viewBox="0 0 149 146" fill="none" xmlns="http://www.w3.org/2000/svg">
<path d="M105.206 4.58627C105.206 2.05334 107.26 0 109.793 0H143.425C145.958 0 148.011 2.05334 148.011 4.58627V38.2189C148.011 40.7518 145.958 42.8052 143.425 42.8052C143.425 42.8052 133.459 42.2161 127.118 42.8052C93.3126 45.9456 56.6112 93.3612 55.7764 92.4897C51.6998 90.4514 102.768 52.373 105.206 17.3259C105.552 12.3628 105.206 4.58627 105.206 4.58627Z" fill="#292929"/>
<path d="M42.8052 141.422C42.8052 143.955 40.7519 146.008 38.2189 146.008H4.58627C2.05335 146.008 3.16169e-06 143.955 2.94026e-06 141.422L0 107.789C-2.21435e-07 105.256 2.05334 103.203 4.58627 103.203C4.58627 103.203 14.5521 103.792 20.893 103.203C54.699 100.063 91.4004 52.6467 92.2352 53.5182C96.3118 55.5566 45.2437 93.635 42.8052 128.682C42.4599 133.645 42.8052 141.422 42.8052 141.422Z" fill="#292929"/>
<path d="M105.206 4.58627C105.206 2.05334 107.26 0 109.793 0H143.425C145.958 0 148.011 2.05334 148.011 4.58627V38.2189C148.011 40.7518 145.958 42.8052 143.425 42.8052C143.425 42.8052 133.459 42.2161 127.118 42.8052C93.3126 45.9456 56.6112 93.3612 55.7764 92.4897C51.6998 90.4514 102.768 52.373 105.206 17.3259C105.552 12.3628 105.206 4.58627 105.206 4.58627Z" fill="#6DA770"/>
<path d="M42.8052 141.422C42.8052 143.955 40.7519 146.008 38.2189 146.008H4.58627C2.05335 146.008 3.16169e-06 143.955 2.94026e-06 141.422L0 107.789C-2.21435e-07 105.256 2.05334 103.203 4.58627 103.203C4.58627 103.203 14.5521 103.792 20.893 103.203C54.699 100.063 91.4004 52.6467 92.2352 53.5182C96.3118 55.5566 45.2437 93.635 42.8052 128.682C42.4599 133.645 42.8052 141.422 42.8052 141.422Z" fill="#6DA770"/>
<path d="M75.1101 27.2651C50.486 27.2651 30.5234 47.227 30.5232 71.8511H9.17261V34.6821C9.17261 20.875 20.3655 9.68213 34.1726 9.68213H75.1101V27.2651Z" fill="#292929"/>
<path d="M74.9087 116.438C99.5328 116.438 119.494 96.4762 119.495 71.8521H140.846V109.021C140.846 122.828 129.653 134.021 115.846 134.021H74.9087V116.438Z" fill="#292929"/>
</svg>
