<svg width="496" height="146" viewBox="0 0 496 146" fill="none" xmlns="http://www.w3.org/2000/svg">
<path d="M105.206 4.58627C105.206 2.05334 107.26 0 109.793 0H143.425C145.958 0 148.011 2.05334 148.011 4.58627V38.2189C148.011 40.7518 145.958 42.8052 143.425 42.8052C143.425 42.8052 133.459 42.2161 127.118 42.8052C93.3126 45.9456 56.6112 93.3612 55.7764 92.4897C51.6998 90.4514 102.768 52.373 105.206 17.3259C105.552 12.3628 105.206 4.58627 105.206 4.58627Z" fill="#292929"/>
<path d="M42.8052 141.422C42.8052 143.955 40.7519 146.008 38.2189 146.008H4.58627C2.05335 146.008 3.16169e-06 143.955 2.94026e-06 141.422L0 107.789C-2.21435e-07 105.256 2.05334 103.203 4.58627 103.203C4.58627 103.203 14.5521 103.792 20.893 103.203C54.699 100.063 91.4004 52.6467 92.2352 53.5182C96.3118 55.5566 45.2437 93.635 42.8052 128.682C42.4599 133.645 42.8052 141.422 42.8052 141.422Z" fill="#292929"/>
<path d="M105.206 4.58627C105.206 2.05334 107.26 0 109.793 0H143.425C145.958 0 148.011 2.05334 148.011 4.58627V38.2189C148.011 40.7518 145.958 42.8052 143.425 42.8052C143.425 42.8052 133.459 42.2161 127.118 42.8052C93.3126 45.9456 56.6112 93.3612 55.7764 92.4897C51.6998 90.4514 102.768 52.373 105.206 17.3259C105.552 12.3628 105.206 4.58627 105.206 4.58627Z" fill="#6DA770"/>
<path d="M42.8052 141.422C42.8052 143.955 40.7519 146.008 38.2189 146.008H4.58627C2.05335 146.008 3.16169e-06 143.955 2.94026e-06 141.422L0 107.789C-2.21435e-07 105.256 2.05334 103.203 4.58627 103.203C4.58627 103.203 14.5521 103.792 20.893 103.203C54.699 100.063 91.4004 52.6467 92.2352 53.5182C96.3118 55.5566 45.2437 93.635 42.8052 128.682C42.4599 133.645 42.8052 141.422 42.8052 141.422Z" fill="#6DA770"/>
<path d="M75.1101 27.2651C50.486 27.2651 30.5234 47.227 30.5232 71.8511H9.17261V34.6821C9.17261 20.875 20.3655 9.68213 34.1726 9.68213H75.1101V27.2651Z" fill="#292929"/>
<path d="M74.9087 116.438C99.5328 116.438 119.494 96.4762 119.495 71.8521H140.846V109.021C140.846 122.828 129.653 134.021 115.846 134.021H74.9087V116.438Z" fill="#292929"/>
<path d="M202.582 36.643C201.685 31.675 198.442 25.672 189.334 25.672C178.708 25.672 174.499 34.573 174.499 44.302C174.499 54.1 178.708 63.001 189.334 63.001C198.511 63.001 202.03 56.998 202.582 50.995H210.793C209.689 62.104 202.099 70.039 189.541 70.039C175.327 70.039 166.357 59.206 166.357 44.302C166.357 29.467 175.327 18.634 189.541 18.634C202.03 18.634 209.62 26.569 210.793 36.643H202.582ZM231.499 32.917C232.741 32.917 233.638 32.986 234.673 33.124V39.955H234.535C227.566 38.782 221.977 43.474 221.977 50.995V69.004H214.732V33.745H221.977V40.369H222.115C223.978 35.953 226.876 32.917 231.499 32.917ZM252.671 70.039C241.631 70.039 234.938 62.38 234.938 51.409C234.938 40.438 241.631 32.779 252.671 32.779C263.711 32.779 270.404 40.438 270.404 51.409C270.404 62.38 263.711 70.039 252.671 70.039ZM252.671 64.105C259.571 64.105 263.159 58.654 263.159 51.409C263.159 44.095 259.571 38.713 252.671 38.713C245.771 38.713 242.183 44.095 242.183 51.409C242.183 58.654 245.771 64.105 252.671 64.105ZM289.28 47.683C295.766 49.201 302.804 50.65 302.804 59.068C302.804 65.83 297.008 70.039 288.452 70.039C277.067 70.039 272.168 64.726 271.823 57.274H278.861C279.206 61.069 280.862 64.312 288.314 64.312C293.351 64.312 295.49 61.828 295.49 59.62C295.49 55.204 291.281 54.859 286.106 53.617C280.517 52.306 272.927 51.202 272.927 43.198C272.927 37.402 278.033 32.779 286.865 32.779C296.456 32.779 301.01 37.954 301.493 44.095H294.455C293.972 41.335 292.592 38.506 286.934 38.506C282.587 38.506 280.241 40.162 280.241 42.646C280.241 46.234 284.174 46.51 289.28 47.683ZM321.659 47.683C328.145 49.201 335.183 50.65 335.183 59.068C335.183 65.83 329.387 70.039 320.831 70.039C309.446 70.039 304.547 64.726 304.202 57.274H311.24C311.585 61.069 313.241 64.312 320.693 64.312C325.73 64.312 327.869 61.828 327.869 59.62C327.869 55.204 323.66 54.859 318.485 53.617C312.896 52.306 305.306 51.202 305.306 43.198C305.306 37.402 310.412 32.779 319.244 32.779C328.835 32.779 333.389 37.954 333.872 44.095H326.834C326.351 41.335 324.971 38.506 319.313 38.506C314.966 38.506 312.62 40.162 312.62 42.646C312.62 46.234 316.553 46.51 321.659 47.683ZM363.619 33.745H370.864V66.589C370.864 76.732 364.723 81.217 354.718 81.217C344.575 81.217 338.986 75.904 338.227 69.97H345.541C346.231 73.075 348.715 75.421 354.442 75.421C360.514 75.421 363.619 72.661 363.619 66.313V62.035H363.481C361.618 64.657 358.375 67.279 352.786 67.279C343.954 67.279 337.33 61.138 337.33 50.029C337.33 38.851 343.954 32.779 352.786 32.779C358.375 32.779 361.618 35.401 363.481 37.885H363.619V33.745ZM354.166 61.345C360.031 61.345 363.55 57.481 363.55 50.029C363.55 42.577 360.031 38.713 354.166 38.713C347.818 38.713 344.575 43.474 344.575 50.029C344.575 56.515 347.818 61.345 354.166 61.345ZM397.677 42.991C397.677 40.438 396.159 38.506 391.329 38.506C385.533 38.506 383.394 40.3 383.049 44.854H376.011C376.356 38.092 380.703 32.779 391.329 32.779C399.126 32.779 404.922 35.746 404.922 45.13V61.897C404.922 64.381 405.474 65.692 408.303 65.416V68.866C406.647 69.487 405.474 69.625 404.094 69.625C400.23 69.625 398.436 68.245 397.746 64.795H397.608C395.4 67.9 391.398 70.039 385.947 70.039C378.771 70.039 374.355 65.899 374.355 59.965C374.355 52.237 380.082 49.822 388.914 48.097C394.365 47.062 397.677 46.372 397.677 42.991ZM387.534 64.312C393.537 64.312 397.677 61.345 397.677 55.618V50.305C396.504 51.133 393.675 51.961 390.294 52.651C384.291 53.962 381.669 55.687 381.669 59.275C381.669 62.518 383.601 64.312 387.534 64.312ZM427.323 39.679H420.699V58.792C420.699 62.794 422.631 63.277 427.323 63.001V68.935C425.874 69.28 424.287 69.487 422.355 69.487C416.559 69.487 413.385 66.865 413.385 59.413V39.679H408.279V33.745H413.385V22.636H420.699V33.745H427.323V39.679ZM446.466 64.105C452.469 64.105 454.884 60.379 455.505 58.24H462.75C460.956 64.933 455.712 70.039 446.673 70.039C435.702 70.039 429.009 62.449 429.009 51.409C429.009 39.955 435.702 32.779 446.328 32.779C457.713 32.779 463.302 40.714 463.302 53.272H436.254C436.254 59.206 440.049 64.105 446.466 64.105ZM446.328 38.506C440.463 38.506 436.254 42.439 436.254 47.89H456.057C456.057 42.439 452.193 38.506 446.328 38.506ZM482.138 47.683C488.624 49.201 495.662 50.65 495.662 59.068C495.662 65.83 489.866 70.039 481.31 70.039C469.925 70.039 465.026 64.726 464.681 57.274H471.719C472.064 61.069 473.72 64.312 481.172 64.312C486.209 64.312 488.348 61.828 488.348 59.62C488.348 55.204 484.139 54.859 478.964 53.617C473.375 52.306 465.785 51.202 465.785 43.198C465.785 37.402 470.891 32.779 479.723 32.779C489.314 32.779 493.868 37.954 494.351 44.095H487.313C486.83 41.335 485.45 38.506 479.792 38.506C475.445 38.506 473.099 40.162 473.099 42.646C473.099 46.234 477.032 46.51 482.138 47.683Z" fill="#292929"/>
<path d="M204.376 94.9531C203.479 90.2611 199.891 83.2231 189.61 83.2231C177.88 83.2231 172.981 93.3661 172.981 103.302C172.981 113.307 177.88 123.45 189.61 123.45C199.96 123.45 203.962 116.412 204.376 110.202H210.586C209.482 121.104 201.754 128.97 189.61 128.97C176.086 128.97 166.771 118.206 166.771 103.302C166.771 88.4671 176.086 77.7031 189.61 77.7031C201.685 77.7031 209.413 85.5691 210.586 94.9531H204.376ZM229.215 128.97C218.451 128.97 211.965 121.38 211.965 110.409C211.965 99.4381 218.451 91.8481 229.215 91.8481C239.91 91.8481 246.396 99.4381 246.396 110.409C246.396 121.38 239.91 128.97 229.215 128.97ZM229.215 124.14C237.081 124.14 240.876 117.93 240.876 110.409C240.876 102.888 237.081 96.6781 229.215 96.6781C221.28 96.6781 217.485 102.888 217.485 110.409C217.485 117.93 221.28 124.14 229.215 124.14ZM266.46 91.8481C272.877 91.8481 278.259 95.3671 278.259 103.44V128.004H272.739V104.82C272.739 100.266 270.6 96.6781 265.08 96.6781C258.87 96.6781 254.73 100.611 254.73 106.062V128.004H249.21V92.8141H254.73V97.0231H254.868C256.731 94.5391 260.457 91.8481 266.46 91.8481ZM300.154 91.8481C306.571 91.8481 311.953 95.3671 311.953 103.44V128.004H306.433V104.82C306.433 100.266 304.294 96.6781 298.774 96.6781C292.564 96.6781 288.424 100.611 288.424 106.062V128.004H282.904V92.8141H288.424V97.0231H288.562C290.425 94.5391 294.151 91.8481 300.154 91.8481ZM331.572 124.14C338.61 124.14 341.232 119.586 341.853 117.171H347.373C345.579 123.726 340.542 128.97 331.779 128.97C321.084 128.97 314.598 121.449 314.598 110.409C314.598 98.6791 321.222 91.8481 331.503 91.8481C342.543 91.8481 347.925 99.3691 347.925 111.858H320.118C320.118 118.206 323.913 124.14 331.572 124.14ZM331.503 96.6781C324.879 96.6781 320.118 101.37 320.118 107.028H342.405C342.405 101.37 338.127 96.6781 331.503 96.6781ZM375.608 105.51C375.332 101.646 372.71 96.6781 365.672 96.6781C357.323 96.6781 354.149 103.785 354.149 110.409C354.149 117.033 357.323 124.14 365.672 124.14C372.779 124.14 375.332 119.241 375.608 115.032H381.128C380.645 123.036 374.366 128.97 365.672 128.97C355.391 128.97 348.629 121.449 348.629 110.409C348.629 99.3691 355.391 91.8481 365.672 91.8481C374.366 91.8481 380.3 97.6441 381.128 105.51H375.608ZM398.968 97.6441H392.068V118.827C392.068 122.829 394.276 123.519 398.968 123.174V128.004C397.726 128.28 396.277 128.418 394.828 128.418C390.136 128.418 386.548 126.555 386.548 119.379V97.6441H381.373V92.8141H386.548V81.0841H392.068V92.8141H398.968V97.6441Z" fill="#292929"/>
</svg>
