<svg width="181" height="38" viewBox="0 0 181 38" fill="none" xmlns="http://www.w3.org/2000/svg">
<g clip-path="url(#clip0_58_1085)">
<path d="M63.8894 21.8868L62.8106 24.8914H62.7207C62.5409 24.2139 62.2112 23.1829 61.6718 21.9457L55.8882 7.65888H50.2245V30.4294H53.9703V16.3783C53.9703 15.4945 53.9703 14.493 53.9404 13.2558C53.9104 12.6372 53.8505 12.1659 53.8205 11.8124H53.9104C54.0902 12.6961 54.3 13.3442 54.4498 13.7566L61.4021 30.3705H64.0392L70.9316 13.6093C71.0814 13.2263 71.2313 12.4604 71.3811 11.8124H71.471C71.3811 13.4914 71.3212 14.9938 71.2912 15.9069V30.3411H75.2768V7.59997H69.8228L63.8894 21.8868ZM79.0526 14.0217H82.9483V30.3411H79.0526V14.0217ZM81.0304 7.12865C80.3712 7.12865 79.8318 7.36431 79.3823 7.77671C78.9328 8.18912 78.693 8.71935 78.693 9.36741C78.693 9.98601 78.9328 10.5162 79.3823 10.9287C79.8318 11.3411 80.3712 11.5473 81.0304 11.5473C81.6897 11.5473 82.2591 11.3116 82.6786 10.9287C83.1281 10.5162 83.3679 9.98601 83.3679 9.36741C83.3679 8.74881 83.1281 8.21857 82.6786 7.77671C82.2891 7.36431 81.7197 7.12865 81.0304 7.12865ZM96.7631 13.8744C96.0439 13.7271 95.2947 13.6387 94.5755 13.6387C92.8074 13.6387 91.1892 14.0217 89.8407 14.7876C88.4922 15.5535 87.4134 16.6139 86.7241 17.9395C86.0049 19.2945 85.6453 20.8558 85.6453 22.6527C85.6453 24.2139 86.0049 25.5984 86.6942 26.8651C87.3834 28.1023 88.3424 29.1038 89.6309 29.7814C90.8596 30.4589 92.298 30.8124 93.9162 30.8124C95.7741 30.8124 97.3624 30.4294 98.621 29.7225L98.651 29.693V26.1581L98.5011 26.2759C97.9318 26.6883 97.2725 27.0418 96.6132 27.248C95.924 27.4837 95.2947 27.6015 94.7553 27.6015C93.197 27.6015 91.9684 27.1597 91.0993 26.1876C90.2003 25.2449 89.7508 23.9488 89.7508 22.3287C89.7508 20.6496 90.2003 19.324 91.1293 18.3519C92.0583 17.3798 93.2869 16.879 94.7852 16.879C96.0438 16.879 97.3324 17.2914 98.5011 18.1162L98.651 18.2341V14.493L98.621 14.4635C98.1116 14.2573 97.5422 14.0217 96.7631 13.8744ZM109.619 13.7566C108.66 13.7566 107.761 14.0511 106.982 14.6697C106.322 15.2 105.873 15.9659 105.483 16.879H105.453V14.0217H101.558V30.3411H105.453V22.0046C105.453 20.5907 105.753 19.4124 106.412 18.5581C107.072 17.6744 107.911 17.2325 108.93 17.2325C109.289 17.2325 109.649 17.3209 110.098 17.3798C110.518 17.4976 110.818 17.6155 111.027 17.7628L111.177 17.8806V14.0511L111.087 14.0217C110.818 13.8449 110.278 13.7566 109.619 13.7566ZM120.227 13.6682C117.5 13.6682 115.313 14.4635 113.784 16.0248C112.226 17.586 111.477 19.7364 111.477 22.4465C111.477 24.9798 112.256 27.0418 113.754 28.5442C115.253 30.017 117.29 30.7829 119.838 30.7829C122.505 30.7829 124.632 29.9876 126.161 28.3969C127.719 26.8062 128.468 24.6852 128.468 22.0635C128.468 19.4713 127.749 17.4093 126.28 15.9069C124.872 14.4046 122.804 13.6682 120.227 13.6682ZM123.344 26.217C122.624 27.1302 121.486 27.5721 120.077 27.5721C118.669 27.5721 117.53 27.1302 116.721 26.1581C115.912 25.2449 115.522 23.9193 115.522 22.2403C115.522 20.5023 115.942 19.1767 116.721 18.2341C117.53 17.2914 118.639 16.8201 120.047 16.8201C121.426 16.8201 122.505 17.262 123.284 18.1752C124.063 19.0883 124.482 20.4139 124.482 22.1519C124.422 23.9193 124.093 25.3038 123.344 26.217ZM137.158 20.7969C135.93 20.2961 135.151 19.9131 134.791 19.5891C134.491 19.2945 134.342 18.8821 134.342 18.3519C134.342 17.91 134.521 17.4682 134.971 17.1736C135.42 16.879 135.93 16.7318 136.679 16.7318C137.338 16.7318 138.027 16.8496 138.687 17.0263C139.346 17.2031 139.945 17.4682 140.425 17.8217L140.575 17.9395V14.3457L140.485 14.3162C140.035 14.1395 139.436 13.9628 138.717 13.8155C137.997 13.6976 137.338 13.6387 136.799 13.6387C134.941 13.6387 133.413 14.0806 132.214 15.0527C131.015 15.9659 130.446 17.2031 130.446 18.6465C130.446 19.4124 130.566 20.0899 130.835 20.6496C131.105 21.2093 131.495 21.7395 132.034 22.1814C132.573 22.5938 133.353 23.0651 134.431 23.5069C135.33 23.8899 136.02 24.1845 136.439 24.4201C136.859 24.6558 137.128 24.9209 137.338 25.1271C137.488 25.3628 137.578 25.6573 137.578 26.0403C137.578 27.1302 136.739 27.6604 135.031 27.6604C134.371 27.6604 133.682 27.5426 132.873 27.2775C132.064 27.0124 131.315 26.6294 130.686 26.1876L130.536 26.0697V29.8108L130.626 29.8403C131.195 30.1054 131.884 30.2821 132.723 30.4883C133.562 30.6356 134.312 30.7535 134.971 30.7535C136.979 30.7535 138.627 30.3116 139.796 29.3395C140.994 28.3969 141.623 27.1891 141.623 25.6279C141.623 24.538 141.324 23.5659 140.665 22.8294C139.796 22.1225 138.717 21.386 137.158 20.7969ZM151.902 13.6682C149.175 13.6682 146.988 14.4635 145.459 16.0248C143.931 17.586 143.152 19.7364 143.152 22.4465C143.152 24.9798 143.931 27.0418 145.429 28.5442C146.928 30.017 148.965 30.7829 151.513 30.7829C154.18 30.7829 156.307 29.9876 157.836 28.3969C159.394 26.8062 160.143 24.6852 160.143 22.0635C160.143 19.4713 159.424 17.4093 157.955 15.9069C156.547 14.4046 154.479 13.6682 151.902 13.6682ZM154.989 26.217C154.27 27.1302 153.131 27.5721 151.722 27.5721C150.284 27.5721 149.175 27.1302 148.366 26.1581C147.557 25.2449 147.167 23.9193 147.167 22.2403C147.167 20.5023 147.587 19.1767 148.366 18.2341C149.175 17.2914 150.284 16.8201 151.692 16.8201C153.041 16.8201 154.15 17.262 154.929 18.1752C155.708 19.0883 156.127 20.4139 156.127 22.1519C156.127 23.9193 155.738 25.3038 154.989 26.217ZM180.97 17.1736V14.0217H177.044V9.19067L176.924 9.22012L173.209 10.31L173.119 10.3395V14.0217H167.245V11.9597C167.245 11.017 167.485 10.2806 167.904 9.80927C168.324 9.33795 168.953 9.10229 169.732 9.10229C170.272 9.10229 170.841 9.22012 171.471 9.48524L171.62 9.57361V6.24493L171.53 6.21547C170.991 6.03873 170.272 5.9209 169.343 5.9209C168.174 5.9209 167.155 6.18601 166.226 6.62788C165.297 7.12865 164.608 7.80617 164.099 8.71935C163.589 9.60307 163.32 10.6046 163.32 11.7535V14.0217H160.593V17.1442H163.32V30.3411H167.245V17.1736H173.119V25.569C173.119 29.0155 174.767 30.7535 178.063 30.7535C178.603 30.7535 179.172 30.6651 179.711 30.5767C180.281 30.4589 180.7 30.3116 180.94 30.1938L180.97 30.1643V27.0124L180.82 27.1302C180.58 27.2775 180.371 27.3953 180.011 27.4837C179.711 27.5721 179.442 27.6015 179.232 27.6015C178.453 27.6015 177.913 27.4248 177.524 26.9829C177.164 26.5705 176.984 25.893 176.984 24.8914V17.1736H180.97Z" fill="black"/>
<path d="M0 0H18.3697V18.0574H0V0Z" fill="black"/>
<path d="M20.2876 0H38.6573V18.0574H20.2876V0Z" fill="black"/>
<path d="M0 19.9429H18.3697V38.0002H0V19.9429Z" fill="black"/>
<path d="M20.2876 19.9429H38.6573V38.0002H20.2876V19.9429Z" fill="black"/>
</g>
<defs>
<clipPath id="clip0_58_1085">
<rect width="181" height="38" fill="white"/>
</clipPath>
</defs>
</svg>
