<svg width="39" height="9" viewBox="0 0 39 9" fill="none" xmlns="http://www.w3.org/2000/svg">
<g clip-path="url(#clip0_58_1085)">
<path d="M13.74 4.78299L13.508 5.4396H13.4887C13.45 5.29154 13.3791 5.06623 13.2631 4.79587L12.0193 1.67375H10.8013V6.64982H11.6069V3.57921C11.6069 3.38609 11.6069 3.16722 11.6004 2.89685C11.594 2.76166 11.5811 2.65866 11.5746 2.58142H11.594C11.6326 2.77454 11.6777 2.91616 11.71 3.00628L13.2051 6.63695H13.7723L15.2545 2.97409C15.2868 2.89041 15.319 2.72304 15.3512 2.58142H15.3705C15.3512 2.94835 15.3383 3.27665 15.3319 3.47621V6.63051H16.189V1.66087H15.0161L13.74 4.78299ZM17.0011 3.06422H17.8389V6.63051H17.0011V3.06422ZM17.4264 1.55788C17.2846 1.55788 17.1686 1.60938 17.0719 1.6995C16.9753 1.78962 16.9237 1.90549 16.9237 2.04712C16.9237 2.1823 16.9753 2.29817 17.0719 2.3883C17.1686 2.47842 17.2846 2.52348 17.4264 2.52348C17.5682 2.52348 17.6906 2.47198 17.7809 2.3883C17.8775 2.29817 17.9291 2.1823 17.9291 2.04712C17.9291 1.91193 17.8775 1.79606 17.7809 1.6995C17.6971 1.60938 17.5746 1.55788 17.4264 1.55788ZM20.8099 3.03203C20.6552 2.99984 20.4941 2.98053 20.3394 2.98053C19.9592 2.98053 19.6111 3.06422 19.3211 3.23159C19.0311 3.39896 18.7991 3.6307 18.6509 3.92039C18.4962 4.2165 18.4189 4.55768 18.4189 4.95036C18.4189 5.29154 18.4962 5.5941 18.6444 5.8709C18.7927 6.14127 18.9989 6.36014 19.276 6.5082C19.5403 6.65626 19.8496 6.73351 20.1976 6.73351C20.5972 6.73351 20.9388 6.64982 21.2094 6.49533L21.2159 6.48889V5.71641L21.1836 5.74216C21.0612 5.83228 20.9194 5.90953 20.7776 5.95459C20.6294 6.00609 20.4941 6.03184 20.3781 6.03184C20.0429 6.03184 19.7787 5.93528 19.5918 5.72284C19.3985 5.51685 19.3018 5.23361 19.3018 4.87955C19.3018 4.51262 19.3985 4.22294 19.5983 4.01051C19.798 3.79808 20.0623 3.68864 20.3845 3.68864C20.6552 3.68864 20.9323 3.77876 21.1836 3.95901L21.2159 3.98476V3.16722L21.2094 3.16078C21.0999 3.11572 20.9774 3.06422 20.8099 3.03203ZM23.5746 3.00628C23.3684 3.00628 23.1751 3.07065 23.0075 3.20584C22.8657 3.32171 22.769 3.48908 22.6853 3.68864H22.6788V3.06422H21.841V6.63051H22.6788V4.80874C22.6788 4.49975 22.7433 4.24225 22.885 4.05557C23.0268 3.86245 23.2073 3.76589 23.4264 3.76589C23.5037 3.76589 23.5811 3.7852 23.6777 3.79808C23.768 3.82383 23.8324 3.84957 23.8775 3.88176L23.9097 3.90751V3.07065L23.8904 3.06422C23.8324 3.02559 23.7164 3.00628 23.5746 3.00628ZM25.856 2.98697C25.2696 2.98697 24.7991 3.16078 24.4704 3.50196C24.1353 3.84314 23.9742 4.31306 23.9742 4.9053C23.9742 5.45891 24.1418 5.90953 24.464 6.23783C24.7862 6.5597 25.2245 6.72707 25.7723 6.72707C26.3458 6.72707 26.8034 6.55326 27.1321 6.20565C27.4672 5.85803 27.6283 5.39454 27.6283 4.82162C27.6283 4.25513 27.4737 3.80451 27.1579 3.47621C26.855 3.1479 26.4103 2.98697 25.856 2.98697ZM26.5263 5.72928C26.3716 5.92884 26.1267 6.0254 25.8238 6.0254C25.5209 6.0254 25.276 5.92884 25.102 5.71641C24.928 5.51685 24.8442 5.22717 24.8442 4.86024C24.8442 4.48044 24.9345 4.19075 25.102 3.98476C25.276 3.77876 25.5145 3.67577 25.8174 3.67577C26.1138 3.67577 26.3458 3.77233 26.5134 3.97188C26.681 4.17144 26.7712 4.46112 26.7712 4.84093C26.7583 5.22717 26.6874 5.52972 26.5263 5.72928ZM29.4973 4.54481C29.2331 4.43537 29.0655 4.35169 28.9882 4.28088C28.9237 4.2165 28.8915 4.12638 28.8915 4.01051C28.8915 3.91395 28.9302 3.81739 29.0268 3.75301C29.1235 3.68864 29.2331 3.65645 29.3942 3.65645C29.536 3.65645 29.6842 3.6822 29.826 3.72083C29.9677 3.75945 30.0966 3.81739 30.1998 3.89464L30.232 3.92039V3.13503L30.2126 3.12859C30.116 3.08997 29.9871 3.05134 29.8324 3.01916C29.6777 2.99341 29.536 2.98053 29.4199 2.98053C29.0204 2.98053 28.6917 3.07709 28.4339 3.28952C28.1761 3.48908 28.0537 3.75945 28.0537 4.07488C28.0537 4.24225 28.0795 4.39031 28.1375 4.51262C28.1955 4.63493 28.2792 4.7508 28.3952 4.84736C28.5113 4.93749 28.6788 5.04049 28.9108 5.13705C29.1042 5.22073 29.2524 5.2851 29.3426 5.3366C29.4328 5.3881 29.4908 5.44604 29.536 5.4911C29.5682 5.5426 29.5875 5.60697 29.5875 5.69066C29.5875 5.92884 29.4071 6.04471 29.0397 6.04471C28.8979 6.04471 28.7497 6.01896 28.5757 5.96103C28.4017 5.90309 28.2406 5.81941 28.1052 5.72284L28.073 5.6971V6.51464L28.0923 6.52108C28.2148 6.57901 28.363 6.61764 28.5435 6.6627C28.7239 6.69489 28.885 6.72063 29.0268 6.72063C29.4586 6.72063 29.8131 6.62407 30.0644 6.41164C30.3222 6.20565 30.4575 5.94171 30.4575 5.60054C30.4575 5.36235 30.3931 5.14992 30.2513 4.98899C30.0644 4.83449 29.8324 4.67356 29.4973 4.54481ZM32.6681 2.98697C32.0816 2.98697 31.6111 3.16078 31.2825 3.50196C30.9538 3.84314 30.7862 4.31306 30.7862 4.9053C30.7862 5.45891 30.9538 5.90953 31.276 6.23783C31.5983 6.5597 32.0365 6.72707 32.5843 6.72707C33.1579 6.72707 33.6154 6.55326 33.9441 6.20565C34.2792 5.85803 34.4404 5.39454 34.4404 4.82162C34.4404 4.25513 34.2857 3.80451 33.9699 3.47621C33.667 3.1479 33.2223 2.98697 32.6681 2.98697ZM33.3319 5.72928C33.1772 5.92884 32.9323 6.0254 32.6294 6.0254C32.3201 6.0254 32.0816 5.92884 31.9076 5.71641C31.7336 5.51685 31.6498 5.22717 31.6498 4.86024C31.6498 4.48044 31.74 4.19075 31.9076 3.98476C32.0816 3.77876 32.3201 3.67577 32.623 3.67577C32.913 3.67577 33.1514 3.77233 33.319 3.97188C33.4865 4.17144 33.5768 4.46112 33.5768 4.84093C33.5768 5.22717 33.493 5.52972 33.3319 5.72928ZM38.9194 3.75301V3.06422H38.0752V2.00849L38.0494 2.01493L37.2502 2.25311L37.2309 2.25955V3.06422H35.9677V2.6136C35.9677 2.40761 36.0193 2.24667 36.1095 2.14368C36.1998 2.04068 36.3351 1.98918 36.5027 1.98918C36.6187 1.98918 36.7411 2.01493 36.8764 2.07287L36.9087 2.09218V1.36476L36.8893 1.35832C36.7733 1.31969 36.6187 1.29395 36.4189 1.29395C36.1675 1.29395 35.9484 1.35188 35.7486 1.44844C35.5488 1.55788 35.4006 1.70594 35.2911 1.90549C35.1815 2.09861 35.1235 2.31748 35.1235 2.56854V3.06422H34.537V3.74658H35.1235V6.63051H35.9677V3.75301H37.2309V5.58766C37.2309 6.34083 37.5854 6.72063 38.2943 6.72063C38.4103 6.72063 38.5327 6.70132 38.6487 6.68201C38.7712 6.65626 38.8614 6.62407 38.913 6.59832L38.9194 6.59189V5.90309L38.8872 5.92884C38.8356 5.96103 38.7905 5.98678 38.7132 6.00609C38.6487 6.0254 38.5907 6.03184 38.5456 6.03184C38.3781 6.03184 38.2621 5.99321 38.1783 5.89665C38.1009 5.80653 38.0623 5.65847 38.0623 5.4396V3.75301H38.9194Z" fill="white"/>
<path d="M0 0H3.95059V3.9461H0V0Z" fill="white"/>
<path d="M4.36304 0H8.31363V3.9461H4.36304V0Z" fill="white"/>
<path d="M0 4.35791H3.95059V8.30401H0V4.35791Z" fill="white"/>
<path d="M4.36304 4.35791H8.31363V8.30401H4.36304V4.35791Z" fill="white"/>
</g>
<defs>
<clipPath id="clip0_58_1085">
<rect width="38.9259" height="8.30419" fill="white"/>
</clipPath>
</defs>
</svg>
