<svg width="38" height="9" viewBox="0 0 38 9" fill="none" xmlns="http://www.w3.org/2000/svg">
<g clip-path="url(#clip0_58_1067)">
<path d="M4.0375 0.0458984C1.81688 0.0458984 0 1.63474 0 3.57666C0 5.51859 1.81688 7.10743 4.0375 7.10743C6.25813 7.10743 8.075 5.52839 8.075 3.57666C8.075 1.62493 6.26934 0.0458984 4.0375 0.0458984ZM4.0375 5.84224C2.65802 5.84224 1.54771 4.85166 1.54771 3.57666C1.54771 2.30166 2.65802 1.31109 4.0375 1.31109C5.41698 1.31109 6.52729 2.30166 6.52729 3.57666C6.52729 4.85166 5.41698 5.84224 4.0375 5.84224Z" fill="white"/>
<path d="M12.1573 2.00732C11.4283 2.00732 10.7218 2.26232 10.3517 2.69386V2.1054H8.89368V8.97079H10.3517V6.48944C10.7218 6.89156 11.4059 7.10732 12.1573 7.10732C13.7274 7.10732 14.9611 6.02848 14.9611 4.55732C14.9611 3.08617 13.7274 2.00732 12.1573 2.00732ZM11.9106 5.99906C11.0807 5.99906 10.3404 5.43021 10.3404 4.55732C10.3404 3.68444 11.0807 3.11559 11.9106 3.11559C12.7405 3.11559 13.4807 3.68444 13.4807 4.55732C13.4807 5.43021 12.7405 5.99906 11.9106 5.99906Z" fill="white"/>
<path d="M18.3932 2.00732C16.8007 2.00732 15.5446 3.09598 15.5446 4.55732C15.5446 6.01867 16.6437 7.10732 18.4381 7.10732C19.9073 7.10732 20.8494 6.33252 21.141 5.45963H19.7166C19.5372 5.82252 19.0325 6.07752 18.4269 6.07752C17.6755 6.07752 17.1035 5.61655 16.9689 4.95944H21.2083V4.45925C21.2083 3.1254 20.1428 2.00732 18.3932 2.00732ZM16.9801 4.05713C17.1371 3.43925 17.7203 3.03713 18.4269 3.03713C19.1783 3.03713 19.7503 3.46867 19.8176 4.05713H16.9801Z" fill="white"/>
<path d="M25.0886 2.00732C24.4381 2.00732 23.7539 2.26232 23.4399 2.68406V2.1054H21.9819V7.00925H23.4399V4.37098C23.4399 3.60598 23.911 3.10579 24.6736 3.10579C25.3802 3.10579 25.7615 3.57656 25.7615 4.23367V7.00925H27.2195V4.02771C27.2195 2.81156 26.3671 2.00732 25.0886 2.00732Z" fill="white"/>
<path d="M30.9536 0.144043L27.7797 7.00943H29.3386L30.0115 5.50885H33.6228L34.2957 7.00943H35.8771L32.7256 0.144043H30.9536ZM30.5162 4.37116L31.8172 1.4975L33.1069 4.37116H30.5162Z" fill="white"/>
<path d="M37.952 0.144043H36.4716V7.00943H37.952V0.144043Z" fill="white"/>
</g>
<defs>
<clipPath id="clip0_58_1067">
<rect width="38" height="9" fill="white"/>
</clipPath>
</defs>
</svg>
