<svg width="176" height="48" viewBox="0 0 176 48" fill="none" xmlns="http://www.w3.org/2000/svg">
<g clip-path="url(#clip0_58_1067)">
<path d="M18.7 0.245117C8.415 0.245117 0 8.71894 0 19.0759C0 29.4328 8.415 37.9066 18.7 37.9066C28.985 37.9066 37.4 29.4851 37.4 19.0759C37.4 8.66663 29.0369 0.245117 18.7 0.245117ZM18.7 31.1589C12.3108 31.1589 7.16833 25.8759 7.16833 19.0759C7.16833 12.2759 12.3108 6.99279 18.7 6.99279C25.0892 6.99279 30.2317 12.2759 30.2317 19.0759C30.2317 25.8759 25.0892 31.1589 18.7 31.1589Z" fill="black"/>
<path d="M56.3074 10.7065C52.931 10.7065 49.6585 12.0665 47.9443 14.3681V11.2296H41.1915V47.845H47.9443V34.6112C49.6585 36.7558 52.8271 37.9065 56.3074 37.9065C63.5794 37.9065 69.2933 32.1527 69.2933 24.3065C69.2933 16.4604 63.5794 10.7065 56.3074 10.7065ZM55.1646 31.9958C51.3207 31.9958 47.8924 28.9619 47.8924 24.3065C47.8924 19.6512 51.3207 16.6173 55.1646 16.6173C59.0085 16.6173 62.4366 19.6512 62.4366 24.3065C62.4366 28.9619 59.0085 31.9958 55.1646 31.9958Z" fill="black"/>
<path d="M85.1895 10.7065C77.8134 10.7065 71.9956 16.5127 71.9956 24.3065C71.9956 32.1004 77.0862 37.9065 85.3973 37.9065C92.202 37.9065 96.5653 33.7742 97.9159 29.1189H91.3189C90.4878 31.0542 88.1503 32.4142 85.3453 32.4142C81.8651 32.4142 79.2159 29.9558 78.5926 26.4512H98.2275V23.7835C98.2275 16.6696 93.2928 10.7065 85.1895 10.7065ZM78.6445 21.6388C79.3717 18.3435 82.0728 16.1989 85.3453 16.1989C88.8256 16.1989 91.4748 18.5004 91.7864 21.6388H78.6445Z" fill="black"/>
<path d="M116.2 10.7065C113.187 10.7065 110.018 12.0665 108.564 14.3158V11.2296H101.811V37.3835H108.564V23.3127C108.564 19.2327 110.746 16.565 114.278 16.565C117.55 16.565 119.316 19.0758 119.316 22.5804V37.3835H126.069V21.4819C126.069 14.9958 122.121 10.7065 116.2 10.7065Z" fill="black"/>
<path d="M143.364 0.769043L128.664 37.3844H135.884L139.001 29.3813H155.727L158.844 37.3844H166.168L151.571 0.769043H143.364ZM141.338 23.3137L147.364 7.9875L153.338 23.3137H141.338Z" fill="black"/>
<path d="M175.778 0.769043H168.921V37.3844H175.778V0.769043Z" fill="black"/>
</g>
<defs>
<clipPath id="clip0_58_1067">
<rect width="176" height="48" fill="white"/>
</clipPath>
</defs>
</svg>
