<svg width="220" height="51" viewBox="0 0 220 51" fill="none" xmlns="http://www.w3.org/2000/svg">
<g clip-path="url(#clip0_65_115)">
<path d="M74.4599 24.0577C71.3179 23.5287 69.4099 23.0147 69.4099 20.3217C69.4099 17.7217 71.1269 16.5567 74.9749 16.5567C76.9208 16.5836 78.862 16.7537 80.7829 17.0657L81.2649 17.1447V13.5117L80.8929 13.4737C78.9281 13.2457 76.9528 13.1192 74.9749 13.0947C68.5449 13.0947 65.4199 15.4807 65.4199 20.3897C65.4199 25.7057 68.9749 26.9697 72.8199 27.5437L73.0349 27.5777C75.9769 28.0317 78.5169 28.4237 78.5169 31.3777C78.5169 34.3947 76.6629 35.8627 72.8499 35.8627C70.6219 35.8186 68.4027 35.5679 66.2209 35.1137L65.7339 35.0277V38.6767L66.0759 38.7367C68.3805 39.1437 70.7157 39.3514 73.0559 39.3577C79.0619 39.3577 82.5069 36.4247 82.5069 31.3097C82.5019 25.3307 78.0619 24.6277 74.4599 24.0577Z" fill="black"/>
<path d="M97.476 19.6348V33.7468C95.6189 34.9535 93.497 35.6922 91.2921 35.8998C89.3921 35.8998 88.476 34.9998 88.476 33.1628V19.6348H84.7271V33.7108C84.7271 37.3548 86.778 39.3618 90.502 39.3618C93.0805 39.1772 95.5736 38.359 97.7601 36.9798L98.004 38.9518H101.225V19.6348H97.476Z" fill="black"/>
<path d="M115.657 19.2236C113.705 19.2236 111.473 19.9606 108.478 21.6026V19.6346H104.9V38.9516H108.65V24.8786C111.304 23.4046 113.328 22.6856 114.833 22.6856C116.754 22.6856 117.649 23.5566 117.649 25.4236V38.9516H121.397V24.9096C121.397 21.2426 119.359 19.2236 115.657 19.2236Z" fill="black"/>
<path d="M135.128 19.19C132.842 19.2508 130.619 19.9449 128.704 21.195V12H124.955V38.309L125.262 38.39C127.585 39.0066 129.976 39.3331 132.38 39.362C138.807 39.362 142.346 35.652 142.346 28.916C142.346 22.826 139.648 19.19 135.128 19.19ZM128.704 24.653C130.295 23.4936 132.171 22.79 134.132 22.618C137.709 22.618 138.46 26.137 138.46 29.088C138.46 33.828 136.528 36.037 132.38 36.037C131.144 36.0371 129.911 35.903 128.704 35.637V24.653Z" fill="black"/>
<path d="M148.87 19.6348H145.121V38.9518H148.87V19.6348Z" fill="black"/>
<path d="M148.904 13.0596H145.052V17.4806H148.904V13.0596Z" fill="black"/>
<path d="M156.706 22.254C156.523 22.375 156.342 22.495 156.16 22.614V19.635H152.515V38.952H156.264V26.116C158.404 24.7904 160.764 23.8593 163.232 23.367L163.583 23.312V19.458L163.131 19.499C160.519 19.733 158.581 21.015 156.706 22.254Z" fill="black"/>
<path d="M177.69 12V19.651C176.365 19.3964 175.02 19.2536 173.671 19.224C167.442 19.224 164.151 22.848 164.151 29.705C164.151 32.598 164.877 39.329 171.609 39.329C173.874 39.2745 176.084 38.6158 178.009 37.421L178.275 38.952H181.444V12H177.69ZM177.69 22.99V34.1C176.086 35.1844 174.226 35.8289 172.296 35.969C169.448 35.969 168.003 33.815 168.003 29.569C168.003 24.669 169.761 22.585 173.878 22.585C175.159 22.5963 176.435 22.7319 177.69 22.99Z" fill="black"/>
<path d="M200.296 13.4365L191.311 38.9515H195.421L197.38 33.3015H208.164L210.123 38.9515H214.268L205.248 13.4365H200.296ZM207.089 29.8045H198.351L202.72 17.0665L207.089 29.8045Z" fill="black"/>
<path d="M220 13.4717H216.114V38.9517H220V13.4717Z" fill="black"/>
<mask id="mask0_65_115" style="mask-type:luminance" maskUnits="userSpaceOnUse" x="7" y="-1" width="45" height="51">
<path d="M30.3898 0.000345126C28.4048 -0.0381552 26.4404 0.407575 24.6665 1.29899C22.8925 2.19041 21.3625 3.50065 20.2088 5.11634C17.7483 5.0724 15.3194 5.67429 13.1642 6.86201C11.0089 8.04973 9.20275 9.78174 7.92578 11.8853C10.4651 9.45179 13.8311 8.06891 17.3478 8.01432C19.1573 7.99714 20.9522 8.33889 22.6288 9.01982C24.3054 9.70074 25.8303 10.7073 27.1154 11.9814C28.4005 13.2554 29.4203 14.7715 30.1157 16.4422C30.8111 18.1128 31.1683 19.9048 31.1668 21.7143C31.2129 24.4784 30.3328 27.1784 28.6668 29.3843C26.3864 29.9908 24.0344 30.2862 21.6748 30.2623C20.2228 30.2543 19.1748 30.6293 18.6208 31.7623C17.8648 33.3163 19.3308 35.1143 22.3838 35.3683C23.0092 35.419 23.6381 35.4056 24.2608 35.3283C23.6754 35.4532 23.1309 35.7234 22.6775 36.1142C22.2242 36.505 21.8766 37.0037 21.6668 37.5643C21.3438 39.1083 23.2578 40.4493 25.8668 40.5493C26.4748 40.5724 27.0834 40.5258 27.6808 40.4103C27.1919 40.602 26.7565 40.9092 26.412 41.3055C26.0674 41.7018 25.8237 42.1755 25.7018 42.6863C25.5468 44.2113 27.5318 45.3163 30.0648 45.1503C30.8561 45.0996 31.6345 44.9252 32.3718 44.6333C31.8485 44.8813 31.3971 45.2587 31.0602 45.7297C30.7234 46.2008 30.5123 46.7499 30.4468 47.3253C30.4988 48.4943 31.7888 49.2253 33.5098 49.2253C38.0098 49.2253 51.7318 40.7383 51.7318 24.6583C51.7358 11.4413 42.4168 0.000345126 30.3898 0.000345126ZM29.8768 8.27332C29.4155 8.27333 28.9731 8.09014 28.6468 7.76405C28.3205 7.43795 28.1371 6.99565 28.1368 6.53434C28.1368 6.30584 28.1818 6.07955 28.2692 5.86845C28.3567 5.65734 28.4848 5.46554 28.6464 5.30396C28.808 5.14239 28.9998 5.01421 29.2109 4.92677C29.422 4.83932 29.6483 4.79432 29.8768 4.79432C30.3383 4.79432 30.7808 4.97765 31.1071 5.30396C31.4335 5.63028 31.6168 6.07287 31.6168 6.53434C31.6165 6.9953 31.4334 7.43731 31.1075 7.76335C30.7817 8.08939 30.3397 8.2728 29.8788 8.27332H29.8768Z" fill="white"/>
</mask>
<g mask="url(#mask0_65_115)">
<mask id="mask1_65_115" style="mask-type:luminance" maskUnits="userSpaceOnUse" x="2" y="-6" width="55" height="61">
<path d="M56.7357 -5.00098H2.92773V54.234H56.7357V-5.00098Z" fill="white"/>
</mask>
<g mask="url(#mask1_65_115)">
<mask id="mask2_65_115" style="mask-type:luminance" maskUnits="userSpaceOnUse" x="2" y="-6" width="55" height="61">
<path d="M56.7357 -5.00098H2.92773V54.234H56.7357V-5.00098Z" fill="white"/>
</mask>
<g mask="url(#mask2_65_115)">
<rect x="2.84961" y="-5.04297" width="54.24" height="59.52" fill="black" fill-opacity="0.7"/>
</g>
</g>
</g>
<path d="M12.5359 32.8008C14.3549 33.5008 16.1609 33.0648 16.6189 31.8458C17.0769 30.6268 16.0089 29.0808 14.1889 28.3778C12.3689 27.6748 10.4889 28.0828 10.0349 29.3048C9.58089 30.5268 10.7189 32.1018 12.5359 32.8008ZM5.01189 27.8398C6.26189 28.8348 7.7819 28.9398 8.4409 28.0988C9.0999 27.2578 8.64088 25.7858 7.39588 24.7878C6.15088 23.7898 4.57788 23.6458 3.91788 24.4878C3.25788 25.3298 3.76389 26.8448 5.01189 27.8398ZM2.76289 22.8668C3.40289 22.4388 3.42189 21.3308 2.78989 20.3668C2.15789 19.4028 1.11689 18.9548 0.47689 19.3838C-0.16311 19.8128 -0.15611 20.9618 0.47689 21.9218C1.10989 22.8818 2.12489 23.2948 2.76289 22.8668ZM2.72588 29.8308C1.84388 29.1308 0.735888 29.0308 0.271888 29.6238C-0.192111 30.2168 0.165889 31.2858 1.04789 31.9868C1.92989 32.6878 3.00388 32.7588 3.46688 32.1658C3.92988 31.5728 3.60888 30.5338 2.72588 29.8308ZM6.38988 38.9538C5.41488 38.5358 4.38988 38.7208 4.11388 39.3758C3.83788 40.0308 4.43089 40.9088 5.40389 41.3248C6.37689 41.7408 7.36888 41.5398 7.64188 40.8868C7.91488 40.2338 7.36488 39.3718 6.38988 38.9538ZM10.6899 35.8288C11.1219 34.8738 10.3479 33.5798 8.92588 32.9198C7.50388 32.2598 5.97789 32.4858 5.54589 33.4418C5.11389 34.3978 5.94589 35.7198 7.36489 36.3778C8.78389 37.0358 10.2609 36.7818 10.6899 35.8288ZM14.9779 42.8968C15.2029 41.9158 14.2269 40.8458 12.7629 40.4968C11.2989 40.1478 9.90588 40.6528 9.68288 41.6338C9.45988 42.6148 10.4949 43.7018 11.9559 44.0488C13.4169 44.3958 14.7569 43.8758 14.9809 42.8968H14.9779ZM19.7239 47.3298C18.5019 47.1948 17.4239 47.7458 17.3399 48.5648C17.2559 49.3838 18.2089 50.1648 19.4299 50.2938C20.6509 50.4228 21.6829 49.8698 21.7659 49.0528C21.8489 48.2358 20.9509 47.4648 19.7269 47.3298H19.7239ZM19.7659 37.8968C19.9799 36.6498 18.6809 35.3738 16.8189 35.0368C14.9569 34.6998 13.2429 35.4288 13.0299 36.6768C12.8169 37.9248 14.1929 39.2158 16.0509 39.5508C17.9089 39.8858 19.5559 39.1418 19.7689 37.8968H19.7659ZM20.5119 41.3068C18.7369 41.2158 17.2259 42.1068 17.1779 43.2918C17.1299 44.4768 18.5679 45.5198 20.3399 45.6078C22.1119 45.6958 23.5549 44.8078 23.6049 43.6188C23.6549 42.4298 22.2899 41.3968 20.5149 41.3068H20.5119ZM26.0179 46.7998C24.4179 46.9198 23.1749 47.8828 23.2669 48.9508C23.3589 50.0188 24.7609 50.7808 26.3529 50.6588C27.9449 50.5368 29.1329 49.5768 29.0419 48.5128C28.9509 47.4488 27.6179 46.6778 26.0209 46.7998H26.0179ZM14.3349 46.6528C13.4049 46.4388 12.5229 46.7668 12.3869 47.3908C12.2509 48.0148 12.9129 48.6978 13.8419 48.9108C14.7709 49.1238 15.6169 48.7858 15.7539 48.1638C15.8909 47.5418 15.2689 46.8658 14.3379 46.6528H14.3349Z" fill="black"/>
<path opacity="0.45" d="M42.5107 4.41745C39.1132 1.57054 34.8243 0.00629169 30.3917 -0.00256454C28.4067 -0.0412368 26.4423 0.404437 24.6683 1.29587C22.8943 2.1873 21.3643 3.49762 20.2107 5.11343C17.7503 5.06949 15.3213 5.67141 13.1661 6.85913C11.0109 8.04685 9.2047 9.77887 7.92773 11.8824C10.4671 9.44891 13.833 8.06603 17.3497 8.01144C19.1592 7.99426 20.9542 8.33601 22.6308 9.01694C24.3073 9.69786 25.8323 10.7045 27.1174 11.9785C28.4025 13.2525 29.4222 14.7687 30.1176 16.4393C30.813 18.1099 31.1703 19.9019 31.1687 21.7114C31.2146 24.4754 30.3346 27.1754 28.6687 29.3814C38.6307 26.5814 45.6147 19.2024 45.6147 11.9164C45.6147 9.49444 44.8777 6.34845 42.5107 4.41745ZM29.8787 8.27045C29.4174 8.27045 28.975 8.08727 28.6487 7.76117C28.3224 7.43507 28.139 6.99274 28.1387 6.53143C28.1387 6.30293 28.1837 6.07668 28.2712 5.86557C28.3586 5.65446 28.4868 5.46266 28.6484 5.30109C28.8099 5.13951 29.0018 5.01133 29.2129 4.92389C29.424 4.83645 29.6502 4.79144 29.8787 4.79144C30.1072 4.79144 30.3335 4.83645 30.5446 4.92389C30.7557 5.01133 30.9475 5.13951 31.1091 5.30109C31.2707 5.46266 31.3988 5.65446 31.4863 5.86557C31.5737 6.07668 31.6187 6.30293 31.6187 6.53143C31.619 6.7601 31.5742 6.9866 31.4868 7.19794C31.3995 7.40927 31.2714 7.60131 31.1098 7.76309C30.9482 7.92488 30.7563 8.05324 30.5451 8.14081C30.3338 8.22838 30.1074 8.27344 29.8787 8.27344V8.27045Z" fill="black"/>
</g>
<defs>
<clipPath id="clip0_65_115">
<rect width="220" height="50.671" fill="white"/>
</clipPath>
</defs>
</svg>
