<svg width="40" height="39" viewBox="0 0 40 39" fill="none" xmlns="http://www.w3.org/2000/svg">
<path d="M19.6263 38.9596C8.91238 38.9596 0.146484 30.1937 0.146484 19.4798C0.146484 8.7659 8.91238 0 19.6263 0C30.3401 0 39.106 8.60357 39.106 19.4798C39.106 30.1937 30.5025 38.9596 19.6263 38.9596ZM25.9572 25.3237C25.9572 25.1614 25.9572 25.1614 25.9572 25.3237C26.4442 22.0771 26.6065 18.9928 26.2819 15.9085C26.2819 15.5838 26.1195 15.5838 25.7949 15.5838C21.5742 15.5838 17.516 15.5838 13.2953 15.5838C12.9707 15.5838 12.8083 15.5838 12.8083 16.0708C12.8083 18.0188 12.646 20.1291 12.8083 22.0771C12.8083 23.2134 12.9707 24.3497 13.133 25.486C17.516 25.3237 21.7366 25.3237 25.9572 25.3237ZM25.7949 12.4995C25.7949 12.3372 25.7949 12.3372 25.7949 12.1749C25.3079 10.0645 24.8209 8.11657 23.6845 6.1686C23.1976 5.19461 22.5482 4.22062 21.5742 3.57129C20.2756 2.43497 18.8146 2.43497 17.516 3.57129C17.1913 3.89596 16.8666 4.22062 16.542 4.54528C15.4056 6.00626 14.594 7.79191 14.107 9.57756C13.7823 10.5515 13.62 11.3632 13.4577 12.3372C17.516 12.4995 21.5742 12.4995 25.7949 12.4995ZM28.8792 25.3237C29.0415 25.3237 29.0415 25.3237 29.0415 25.3237C30.9895 25.3237 32.7751 25.3237 34.7231 25.3237C35.0478 25.3237 35.0478 25.1614 35.2101 24.999C36.1841 22.0771 36.3464 18.9928 35.8594 15.9085C35.8594 15.5838 35.6971 15.4215 35.3724 15.4215C33.4244 15.4215 31.6388 15.4215 29.6908 15.4215C29.5285 15.4215 29.3661 15.4215 29.2038 15.4215C29.5285 18.8305 29.3662 21.9147 28.8792 25.3237ZM10.211 25.3237C9.72404 22.0771 9.72404 18.8305 9.88637 15.5838C9.72404 15.5838 9.72404 15.5838 9.56171 15.5838C7.61373 15.5838 5.50342 15.5838 3.55545 15.5838C3.23078 15.5838 3.23078 15.7462 3.06845 15.9085C2.41913 18.9928 2.58146 22.0771 3.55545 24.999C3.71778 25.3237 3.71778 25.3237 4.04244 25.3237C5.50342 25.3237 7.12674 25.3237 8.58772 25.3237C9.39938 25.3237 9.72404 25.3237 10.211 25.3237ZM13.7823 28.2457C14.107 29.0573 14.2693 29.7067 14.594 30.5183C15.2433 32.1416 16.055 33.7649 17.3536 35.0636C18.8146 36.3623 20.2756 36.3623 21.8989 35.0636C23.0352 34.0896 23.6845 32.791 24.3339 31.33C24.8209 30.356 25.1455 29.2197 25.4702 28.2457C21.4119 28.2457 17.6783 28.2457 13.7823 28.2457ZM34.7231 12.4995C33.9114 9.57756 28.2298 4.22062 25.7949 4.05829C27.4182 6.65559 28.2298 9.57756 28.8792 12.4995C30.8271 12.4995 32.7751 12.4995 34.7231 12.4995ZM10.3734 12.4995C11.0227 9.57756 11.8344 6.65559 13.2953 4.05829C9.23705 5.6816 6.31508 8.60357 4.3671 12.4995C6.47741 12.4995 8.42539 12.4995 10.3734 12.4995ZM13.4577 34.9013C12.9707 33.7649 12.4837 32.791 11.9967 31.817C11.5097 30.6806 11.3474 29.7067 11.0227 28.5703C11.0227 28.2457 10.698 28.2457 10.5357 28.2457C9.39938 28.2457 8.26306 28.2457 7.12674 28.2457C6.63975 28.2457 6.15275 28.2457 5.66576 28.2457C7.4514 31.33 10.0487 33.4403 13.4577 34.9013ZM25.7949 34.7389C29.0415 33.4403 31.6388 31.1676 33.7491 28.0833C31.9635 28.0833 30.3401 28.0833 28.7168 28.0833C28.5545 28.0833 28.3922 28.2457 28.3922 28.408C28.0675 29.382 27.9052 30.356 27.4182 31.33C26.9312 32.4663 26.2819 33.6026 25.7949 34.7389Z" fill="white"/>
</svg>
