<?xml version="1.0" encoding="UTF-8"?>
<svg xmlns="http://www.w3.org/2000/svg" xmlns:xlink="http://www.w3.org/1999/xlink" viewBox="0 0 841.89 595.28">
  <defs>
    <style>
      .cls-1 {
        clip-path: url(#clippath-4);
      }

      .cls-1, .cls-2, .cls-3, .cls-4, .cls-5, .cls-6, .cls-7, .cls-8, .cls-9, .cls-10, .cls-11, .cls-12, .cls-13, .cls-14, .cls-15, .cls-16, .cls-17, .cls-18 {
        fill: none;
      }

      .cls-2 {
        opacity: .24;
      }

      .cls-2, .cls-14, .cls-18 {
        mix-blend-mode: multiply;
      }

      .cls-3 {
        clip-path: url(#clippath-2);
      }

      .cls-19 {
        fill: #fff;
      }

      .cls-4 {
        clip-path: url(#clippath-6);
      }

      .cls-5 {
        clip-path: url(#clippath-9);
      }

      .cls-6 {
        clip-path: url(#clippath-12);
      }

      .cls-20 {
        fill: #6bc9f3;
      }

      .cls-20, .cls-21 {
        fill-rule: evenodd;
      }

      .cls-7 {
        clip-path: url(#clippath-7);
      }

      .cls-8 {
        clip-path: url(#clippath-10);
      }

      .cls-21 {
        fill: #5264ac;
      }

      .cls-9 {
        clip-path: url(#clippath-5);
      }

      .cls-10 {
        isolation: isolate;
      }

      .cls-11 {
        clip-path: url(#clippath-3);
      }

      .cls-12 {
        clip-path: url(#clippath-11);
      }

      .cls-14 {
        opacity: .3;
      }

      .cls-15 {
        clip-path: url(#clippath);
      }

      .cls-16 {
        clip-path: url(#clippath-1);
      }

      .cls-17 {
        clip-path: url(#clippath-8);
      }

      .cls-18 {
        opacity: .26;
      }
    </style>
    <clipPath id="clippath">
      <rect class="cls-13" x="325.98" y="282.57" width="30.51" height="17.59"/>
    </clipPath>
    <clipPath id="clippath-1">
      <rect class="cls-13" x="345.3" y="282.57" width="11.19" height="4.2"/>
    </clipPath>
    <clipPath id="clippath-2">
      <rect class="cls-13" x="191.24" y="247.12" width="80.64" height="25.66"/>
    </clipPath>
    <clipPath id="clippath-3">
      <rect class="cls-13" x="206.8" y="269.63" width="73.84" height="12.85"/>
    </clipPath>
    <clipPath id="clippath-4">
      <rect class="cls-13" x="220.6" y="282.51" width="68.45" height="11.06"/>
    </clipPath>
    <clipPath id="clippath-5">
      <rect class="cls-13" x="237.43" y="288.44" width="59.59" height="13.72"/>
    </clipPath>
    <clipPath id="clippath-6">
      <rect class="cls-13" x="260.69" y="288.56" width="45.29" height="18.73"/>
    </clipPath>
    <clipPath id="clippath-7">
      <rect class="cls-13" x="278.96" y="293.19" width="29.9" height="18.32"/>
    </clipPath>
    <clipPath id="clippath-8">
      <rect class="cls-13" x="251.61" y="272.23" width="63.7" height="73.93"/>
    </clipPath>
    <clipPath id="clippath-9">
      <rect class="cls-13" x="277.47" y="326.35" width="58.83" height="10.6"/>
    </clipPath>
    <clipPath id="clippath-10">
      <rect class="cls-13" x="186.05" y="238.43" width="134.67" height="98.18"/>
    </clipPath>
    <clipPath id="clippath-11">
      <rect class="cls-13" x="317.17" y="285.72" width="54.21" height="31.8"/>
    </clipPath>
    <clipPath id="clippath-12">
      <rect class="cls-13" x="327.44" y="277.51" width="30.82" height="7.93"/>
    </clipPath>
  </defs>
  <g class="cls-10">
    <g id="Layer_2" data-name="Layer 2">
      <g id="Layer_1-2" data-name="Layer 1">
        <g>
          <polygon class="cls-19" points="426.44 253.51 396.31 253.51 396.31 299.79 407.59 299.79 407.59 282.69 402.84 281.07 421.69 281.07 421.69 272.31 407.59 272.31 407.59 264.17 402.84 262.55 426.44 262.55 426.44 253.51"/>
          <path class="cls-19" d="m459.14,253.51h-13.06l-16.75,46.27h11.81l2.76-8.16h17.28l2.76,8.16h11.94l-16.75-46.27Zm-12.26,29.4l5.66-16.94,5.74,16.94h-11.4Z"/>
          <polygon class="cls-19" points="487.48 291.09 492.23 289.47 492.23 253.51 480.95 253.51 480.95 299.79 506.99 299.79 506.99 291.09 487.48 291.09"/>
          <path class="cls-19" d="m539.4,288.39c-1.7,1.01-3.62,1.52-5.77,1.52-3.47,0-6.28-1.21-8.44-3.63-2.16-2.42-3.23-5.65-3.23-9.69s1.07-7.27,3.23-9.7c2.15-2.42,4.96-3.62,8.44-3.62,2.15,0,4.07.5,5.77,1.51,1.69,1.01,3,2.49,3.92,4.42h12.4c-1.32-5.01-3.94-8.96-7.85-11.87-3.9-2.89-8.6-4.34-14.1-4.34-4.49,0-8.5,1-12.03,3-3.53,2-6.3,4.79-8.27,8.37-1.98,3.58-2.96,7.66-2.96,12.24s.99,8.63,2.96,12.19c1.98,3.57,4.74,6.34,8.27,8.34,3.53,2,7.55,3,12.03,3,5.5,0,10.2-1.44,14.1-4.32,3.92-2.87,6.53-6.82,7.85-11.83h-12.4c-.92,1.94-2.23,3.4-3.92,4.41"/>
          <path class="cls-19" d="m605.05,264.32c-2.08-3.59-4.94-6.42-8.57-8.44-3.62-2.01-7.61-3.02-11.96-3.02s-8.34,1.01-11.96,3.02c-3.63,2.02-6.51,4.84-8.64,8.44-2.13,3.61-3.19,7.68-3.19,12.2s1.06,8.6,3.19,12.23c2.13,3.62,5.01,6.45,8.64,8.46,3.62,2.02,7.62,3.04,11.96,3.04s8.33-1.01,11.94-3.04c3.59-2.01,6.45-4.84,8.57-8.46,2.11-3.63,3.17-7.7,3.17-12.23s-1.05-8.59-3.14-12.2m-11.66,21.96c-2.21,2.46-5.18,3.69-8.87,3.69s-6.71-1.21-8.93-3.65c-2.22-2.44-3.33-5.7-3.33-9.79s1.11-7.4,3.33-9.82c2.21-2.42,5.19-3.63,8.93-3.63s6.65,1.23,8.87,3.67c2.22,2.44,3.33,5.7,3.33,9.78s-1.11,7.29-3.33,9.76"/>
          <polygon class="cls-19" points="644.57 253.51 644.57 282.2 625.72 253.51 614.45 253.51 614.45 299.79 625.72 299.79 625.72 271.25 644.57 299.79 655.84 299.79 655.84 253.51 644.57 253.51"/>
          <polygon class="cls-19" points="400.45 342.64 402.39 341.99 402.39 314.58 399.33 314.58 399.33 345.13 413.36 345.13 413.36 342.64 400.45 342.64"/>
          <path class="cls-19" d="m438.64,326.71c-1.04-1.84-2.46-3.27-4.28-4.28-1.82-1-3.86-1.5-6.09-1.5s-4.27.5-6.07,1.5c-1.81,1.01-3.24,2.44-4.28,4.28-1.05,1.86-1.57,4.02-1.57,6.5s.51,4.63,1.55,6.49c1.04,1.85,2.45,3.27,4.24,4.29,1.8,1,3.81,1.5,6.06,1.5s4.27-.5,6.12-1.5c1.83-1.01,3.27-2.44,4.32-4.31,1.05-1.87,1.57-4.02,1.57-6.46s-.51-4.64-1.55-6.5m-2.84,11.81c-.82,1.44-1.92,2.51-3.25,3.23-1.35.71-2.8,1.07-4.37,1.07s-3.02-.36-4.36-1.07c-1.32-.71-2.38-1.79-3.19-3.23-.8-1.45-1.2-3.21-1.2-5.31s.4-3.87,1.2-5.32c.81-1.44,1.87-2.51,3.21-3.23,1.35-.71,2.8-1.07,4.37-1.07s3.04.36,4.37,1.07c1.35.71,2.43,1.79,3.24,3.23.82,1.45,1.23,3.21,1.23,5.32s-.42,3.86-1.25,5.31"/>
          <path class="cls-19" d="m465.23,321.27v5.2c-.73-1.6-1.92-2.93-3.58-3.98-1.65-1.05-3.61-1.57-5.86-1.57s-4.14.5-5.88,1.5c-1.73,1.01-3.08,2.44-4.06,4.28-.98,1.86-1.46,4-1.46,6.45s.49,4.61,1.46,6.46c.98,1.87,2.33,3.31,4.06,4.33,1.74,1.01,3.69,1.52,5.88,1.52s4.19-.52,5.83-1.6c1.64-1.06,2.85-2.4,3.61-4.03v5.89c0,1.75-.35,3.26-1.05,4.55-.7,1.29-1.67,2.25-2.88,2.9-1.23.65-2.61.99-4.15.99-2.13,0-3.93-.5-5.4-1.49-1.46-.99-2.46-2.32-2.99-3.98h-3.01c.49,2.5,1.75,4.49,3.77,5.94,2.02,1.46,4.57,2.19,7.63,2.19,2.15,0,4.08-.46,5.77-1.38,1.68-.92,3-2.21,3.95-3.9.94-1.69,1.42-3.63,1.42-5.82v-24.47h-3.06Zm-1.18,16.99c-.79,1.46-1.86,2.58-3.21,3.37-1.36.79-2.84,1.18-4.47,1.18s-3.21-.38-4.55-1.15c-1.35-.77-2.39-1.89-3.17-3.37-.77-1.46-1.17-3.18-1.17-5.13s.39-3.69,1.17-5.14c.77-1.44,1.82-2.54,3.17-3.3,1.33-.75,2.86-1.13,4.55-1.13s3.12.39,4.47,1.18c1.36.78,2.43,1.9,3.21,3.37.79,1.45,1.18,3.14,1.18,5.07s-.39,3.61-1.18,5.06"/>
          <path class="cls-19" d="m475.29,345.13h3.06v-23.86h-3.06v23.86Zm3.09-32.23c-.43-.42-.95-.63-1.57-.63s-1.13.21-1.57.63c-.44.43-.65.95-.65,1.6s.21,1.18.65,1.62c.44.44.96.65,1.57.65s1.14-.21,1.57-.65c.44-.44.65-.98.65-1.62s-.22-1.17-.65-1.6"/>
          <path class="cls-19" d="m500.67,335.43c-.73-.84-1.61-1.49-2.63-1.93-1.01-.43-2.38-.88-4.11-1.36-1.43-.4-2.56-.77-3.4-1.11-.85-.33-1.55-.81-2.12-1.4-.57-.6-.86-1.36-.86-2.29,0-1.08.49-1.99,1.44-2.71.96-.73,2.21-1.1,3.76-1.1,1.75,0,3.13.43,4.13,1.29,1.01.87,1.56,1.99,1.64,3.39h3.06c-.12-2.27-.96-4.06-2.54-5.36-1.57-1.3-3.64-1.94-6.2-1.94-1.64,0-3.1.29-4.38.87-1.27.58-2.27,1.37-2.96,2.37-.7.99-1.05,2.06-1.05,3.23,0,1.55.38,2.77,1.15,3.69.77.93,1.71,1.62,2.82,2.08,1.11.46,2.55.93,4.32,1.39,1.37.36,2.45.68,3.26.99.8.31,1.46.73,1.99,1.25.52.52.79,1.19.79,2.01,0,1.15-.48,2.13-1.42,2.93-.95.79-2.26,1.18-3.91,1.18-1.89,0-3.4-.42-4.52-1.25-1.12-.83-1.76-1.92-1.9-3.26h-3.14c.2,2.19,1.17,3.92,2.9,5.19,1.74,1.26,3.98,1.89,6.71,1.89,1.63,0,3.07-.29,4.32-.87,1.25-.58,2.23-1.38,2.93-2.38.7-1.01,1.05-2.15,1.05-3.43-.02-1.4-.4-2.52-1.13-3.37"/>
          <path class="cls-19" d="m518.11,323.85v-2.58h-6.56v-5.99h-3.11v5.99h-3.32v2.58h3.32v14.82c0,2.3.52,3.95,1.58,4.95,1.05,1.01,2.64,1.51,4.8,1.51h3.29v-2.62h-2.8c-1.4,0-2.38-.29-2.93-.83-.56-.56-.83-1.56-.83-3.01v-14.16l-1.93-.66h8.49Z"/>
          <path class="cls-19" d="m523.13,345.13h3.06v-23.86h-3.06v23.86Zm3.11-32.23c-.44-.42-.96-.63-1.58-.63s-1.13.21-1.57.63c-.43.43-.65.95-.65,1.6s.23,1.18.65,1.62c.44.44.96.65,1.57.65s1.14-.21,1.58-.65c.43-.44.65-.98.65-1.62s-.23-1.17-.65-1.6"/>
          <path class="cls-19" d="m548.36,341.44c-1.35.98-3.04,1.46-5.05,1.46-1.6,0-3.04-.37-4.32-1.1-1.29-.73-2.3-1.82-3.03-3.28-.75-1.45-1.12-3.23-1.12-5.32s.37-3.87,1.12-5.32c.74-1.44,1.75-2.52,3.03-3.25,1.28-.73,2.72-1.1,4.32-1.1,2.01,0,3.7.49,5.05,1.46,1.36.98,2.24,2.32,2.64,4.05h3.28c-.56-2.51-1.78-4.49-3.69-5.95-1.92-1.45-4.33-2.18-7.28-2.18-2.24,0-4.24.5-5.99,1.5-1.75,1.01-3.12,2.44-4.11,4.29-.99,1.86-1.49,4.02-1.49,6.5s.5,4.63,1.49,6.49c.99,1.84,2.36,3.27,4.11,4.28,1.75,1,3.75,1.5,5.99,1.5,2.92,0,5.33-.74,7.26-2.23,1.92-1.49,3.15-3.45,3.71-5.9h-3.28c-.4,1.75-1.28,3.12-2.64,4.09"/>
          <path class="cls-21" d="m371.38,287.85c-.07-.04-.15-.08-.23-.12-.08-.04-.16-.08-.24-.11-.07-.04-.13-.07-.2-.1-.02,0-.03,0-.04-.01-4.21-1.73-11.23.34-19.24,4.54h0c-2.73,1.42-5.56,3.09-8.43,4.94-8.95,5.76-18.3,13.25-25.83,20.52,10.96-12.16,24.39-22.54,41.8-30.2,1.53-.67,3.14-1.18,4.8-1.42,3.46-.52,5.99.14,7.61,1.96"/>
          <path class="cls-20" d="m356.49,284.71c-10.75,4.33-22.12,8.76-30.51,15.45,7.92-8.46,16.18-14.53,22.3-17.56.77-.08,1.81-.02,2.43.13.81,2.36,3.89,2.2,5.77,1.98"/>
          <g class="cls-18">
            <g class="cls-15">
              <path class="cls-20" d="m356.49,284.71c-10.75,4.33-22.12,8.76-30.51,15.45,7.92-8.46,16.18-14.53,22.3-17.56.77-.08,1.81-.02,2.43.13.81,2.36,3.89,2.2,5.77,1.98"/>
            </g>
          </g>
          <path class="cls-21" d="m364.21,279.96c-.41-.68-.86-1.28-1.34-1.78.52.51.96,1.11,1.34,1.78"/>
          <path class="cls-20" d="m314.74,279.26c-2.86-3.46-7.03-5.73-9.94-7.02-5.68-2.52-16.57-4.65-31.77-6.22-3.14-.33-6.46-.62-9.95-.9-13.88-1.08-29.88-2.53-44.29-6.02-12.14-2.96-21.26-6.9-27.55-11.97,10.74,10.32,24.96,15.71,41.86,17.29,13.76.75,26.94,2.93,38.78,8.37,1.18.46,2.26.99,3.25,1.6,1.12.68,2.12,1.47,2.96,2.38-12.32-4.74-48.55,12.24-71.37-7.22l.09.09c7.07,6.72,16.35,10.56,28.05,11.25,14.52.17,30.2-6.65,45.79.4,1.31.45,2.5,1.06,3.54,1.84-11.78-2.38-38.48,16.84-63.58-.62.17.14.42.35.73.61,1.27,1.02,3.6,2.7,8.72,4.7,2.1.82,4.88,1.79,8.27,2.62,6.1.91,12.46.85,19.04-.07,2.82-.39,5.56-1.14,8.22-2.13,7.45-2.77,15.02-4.51,23.47-1.74.57.15,1.11.35,1.64.59-9.97-.09-29.52,18.99-53.25,8.42,2.49,1.32,5.21,2.31,8.13,3.01,7.81,1.87,15.99,1.32,23.61-1.2,6.34-2.08,11.96-4.42,16.65-7.08,2.32-1.32,4.98-2.02,7.63-1.77,1.24.12,2.43.42,3.57.93-7.34,1.29-16.64,19.02-36.34,14.91,4.1,1.05,7.94,1.5,11.43,1.15,6.07-.4,10.8-2.51,14.47-5.96.49-.46.98-.92,1.5-1.36l8.24-6.79c.62-.51,1.28-1.01,1.98-1.41,2.47-1.41,5.01-1.86,7.66-.88-5.86,2.29-8.37,21.09-27.03,19.14,0,0,0,0,0,0,0,0,0,0,.01,0,1.79.42,3.53.8,5.16,1.06,3.05.48,6.26.32,9.16-.77,3.47-1.32,5.59-3.95,7.58-6.92,2.17-3.23,4.89-6.09,8-8.42,2.62-7.37.74-13.18-5.53-17.51-.04-.03-.08-.06-.13-.08-.15-.11-.3-.21-.46-.31-.03-.02-.08-.05-.12-.07l-.41-.26c-.18-.11-.37-.21-.55-.32-.19-.11-.38-.21-.57-.33-.2-.11-.39-.21-.58-.31-.17-.09-.34-.17-.52-.26-.49-.25-1-.49-1.53-.72-.17-.07-.32-.14-.49-.21-.44-.19-.9-.38-1.38-.56,4.24.37,8.64,1.36,12.21,3.8,3.91,2.69,6.17,7.22,6.46,11.91.64,10.2-7.06,20.2-13.85,27.08-9.36,9.47-20.96,16.73-32.68,22.93-2.1,1.11-4.21,2.18-6.35,3.22-.71.35-1.42.7-2.13,1.03-.85.4-1.7.8-2.54,1.2-.54.24-1.07.49-1.6.74-1.49.68-2.99,1.36-4.5,2.02-.78.35-1.56.69-2.35,1.03,5.85-2.18,15.97-6.77,22.08-9.58,4.65-2.14,9.1-4.68,13.3-7.59,6.02-4.17,12.85-9.61,18.79-15.69,6.97-7.13,15.15-17.67,14.51-27.41-.2-3.02-1.45-5.56-3.2-7.66m-12.3,6.82c1.12.3,2.28.4,3.42.46-8.41,1.39-15.88-3.03-21.35-8.61-5.01-5.15-10.96-10.04-21.8-11.13,3.11-.22,10.85.15,16.75,1.26,2.7.51,5,1.17,6.32,2.01.56.35.94.73,1.09,1.15,2.51,6.88,7.35,12.67,15.58,14.86"/>
          <path class="cls-21" d="m249.26,347.19c.79-.34,1.57-.69,2.35-1.03-.78.35-1.57.69-2.35,1.03"/>
          <path class="cls-20" d="m315.28,287.94c.64,10.2-7.06,20.2-13.85,27.08-9.36,9.47-20.96,16.74-32.68,22.93-5.6,2.95-11.33,5.66-17.14,8.21,23.37-10.44,45.01-25.63,56.5-40.91,5.23-6.95,10.58-20.1.08-28.07-2.71-2.06-6.48-3.78-11.58-4.95,4.24.37,8.64,1.36,12.21,3.8,3.92,2.69,6.17,7.22,6.46,11.91"/>
          <path class="cls-20" d="m308.87,293.19c-1.58,4.46-4.81,9.47-9.72,15.06,0,0-.02.01-.02.03-2.59,2.8-6.54,3.89-10.21,2.84-4.37-1.26-9.62-2.77-9.96-2.88,1.79.42,3.53.8,5.17,1.06,3.04.48,6.25.32,9.16-.77,3.47-1.32,5.59-3.95,7.58-6.92,2.17-3.23,4.89-6.09,8-8.42"/>
          <path class="cls-20" d="m305.98,289.08c-5.63-.81-9.61,5.38-15.4,11.02-1.16,1.13-2.41,2.23-3.77,3.26-4.67,3.54-10.72,4.74-16.42,3.37-.03,0-.06-.01-.09-.02-3.59-.87-6.75-1.64-9.62-2.38,4.1,1.05,7.94,1.5,11.43,1.15,6.07-.4,10.8-2.51,14.47-5.96.49-.46.98-.92,1.5-1.36l8.24-6.79c.62-.51,1.28-1.01,1.98-1.41,2.47-1.41,5.01-1.86,7.66-.88"/>
          <path class="cls-20" d="m297.03,289.42c-6.11-1.75-12.82,3.78-21.43,8.45-.05.03-.1.06-.15.08-9.26,5.02-20.32,5.56-30.04,1.51-.78-.32-1.55-.66-2.33-1.02-1.97-.9-5.09-2.63-5.64-2.93,2.49,1.31,5.21,2.31,8.13,3.01,7.81,1.87,15.99,1.32,23.61-1.19,6.34-2.08,11.96-4.42,16.64-7.08,2.33-1.32,4.98-2.03,7.63-1.77,1.24.12,2.43.42,3.57.93"/>
          <path class="cls-20" d="m289.05,286.51c-6.87-1.9-16.88,2.38-28.57,5.52-.16.04-.32.08-.48.13-13.78,3.64-28.51.14-39.11-9.39-.11-.09-.2-.17-.29-.26.17.14.42.35.73.61,1.28,1.02,3.6,2.7,8.72,4.7,2.1.82,4.88,1.79,8.27,2.62,6.1.91,12.46.85,19.04-.07,2.82-.39,5.56-1.14,8.22-2.13,7.45-2.77,15.02-4.51,23.47-1.74"/>
          <path class="cls-20" d="m280.64,281.29c-7.83-2.73-20.22-.19-34.06.85-3.44.26-6.97.39-10.55.33-11.06-.17-21.56-4.85-29.22-12.83,7.07,6.72,16.35,10.56,28.05,11.25,14.52.17,30.2-6.65,45.79.4"/>
          <path class="cls-21" d="m336.3,331.95c-.09.14-3.4-1.53-3.65-1.63-2.04-.84-4.27-1.24-6.46-1.54-4.63-.62-9.34-.46-13.98-.03-4.7.43-9.38,1.27-13.99,2.25-4.46.96-8.89,2.12-13.26,3.46-1.3.39-2.61.8-3.89,1.24-1.17.39-2.5.69-3.6,1.25.18-.11.37-.21.56-.32,0,0,.01,0,.02-.01,1.44-.69,2.85-1.38,4.23-2.09.04-.02.08-.03.12-.06.18-.08.36-.17.53-.25,19.46-9.04,36.76-10.95,53.37-2.27"/>
          <path class="cls-21" d="m371.61,287.99c-.08-.05-.16-.1-.23-.14-1.62-1.82-4.16-2.48-7.61-1.96-1.66.25-3.27.75-4.8,1.42-17.41,7.66-30.85,18.04-41.8,30.2,9.28-14.37,27.31-25.65,42.14-32.64,1.89-.62,5.19-2.25,6.31-3.61,1.51-.11,2.7.18,3.6.78,1.75,1.15,2.45,3.4,2.4,5.94"/>
          <g class="cls-18">
            <g class="cls-16">
              <path class="cls-20" d="m356.49,284.71c-10.75,4.33-14.33.91-8.21-2.11.77-.08,1.81-.02,2.43.13.81,2.36,3.89,2.2,5.77,1.98"/>
            </g>
          </g>
          <path class="cls-21" d="m358.26,283.79c-2.92-6.63-26.09-.95-29.79,1.64.36-2.49.02-5.47-1.04-7.93,2.47,2.73,10.05,2.17,17.66,1.63,7.01-.56,11.7.74,13.16,4.65"/>
          <path class="cls-21" d="m364.36,280.23c-.82,1-1.97,1.78-2.9,2.21-2.03.96-2.53,1.14-3.19,1.35-1.46-3.92-6.15-5.22-13.16-4.65-7.61.54-15.19,1.1-17.66-1.63,3.14,1.68,8.7,1.41,15.89-.18l.8-.18c6.03-1.82,11.15-2.4,14.9-1.23.14.04.28.09.41.13.14.04.27.09.4.14.13.05.27.11.4.17.04.01.08.03.12.05.06.03.11.05.17.08.02,0,.04.02.06.03.11.06.23.12.34.18.14.07.29.16.42.25.13.08.27.17.39.27.13.09.26.19.4.29.07.06.13.12.21.18.18.15.35.31.51.48.49.51.94,1.1,1.34,1.79.06.09.11.18.16.28"/>
          <path class="cls-21" d="m364.21,279.96c-.41-.68-.86-1.28-1.34-1.78.52.51.96,1.11,1.34,1.78"/>
          <path class="cls-21" d="m320.71,288.92c.14,4.41-1.16,8.6-3.06,12.64-5.02,10.65-14.36,19.14-14.39,19.15-3.9,3.68-7.44,6-10.75,8.09,0,0-4.84,3.17-9.58,5.43-.17.08-.35.17-.53.25-.04.02-.08.04-.12.06-1.38.71-2.79,1.4-4.23,2.09,1.22-.63,2.39-1.43,3.55-2.17,2.54-1.62,5.02-3.33,7.45-5.12,2.7-1.99,5.33-4.06,7.88-6.23,2.65-2.25,5.22-4.61,7.65-7.08,2.4-2.43,4.68-4.98,6.76-7.67,1.94-2.52,3.72-5.17,5.2-8,1.17-2.28,2.17-4.66,2.78-7.15,1.06-4.33.88-9.01-1.42-12.92-2.56-4.35-7.2-7.6-12.3-9.85-8.51-3.78-25.88-5.83-37.47-6.87l-1.79-.15c-.77-.07-1.51-.13-2.21-.19-.3-.02-.61-.04-.9-.07-26.07-2.03-65.46-5.68-77.18-24.69,7.99,6.74,17.94,10.82,27.89,13.68,10.78,3.09,21.87,4.53,32.98,5.63,2.67.27,4.33.41,7.66.73,5.82.56,8.24.79,11.36,1.13,2.42.26,4.23.47,5.32.61,1.65.2,1.91.24,4.84.6,6.06.75,7.11.85,9.84,1.26.95.14,2.06.31,3.55.56,3.37.58,4.56.9,7.61,1.47.26.05.91.17,1.78.37.25.06,1,.23,1.81.46.68.19,2.26.67,4.19,1.53.43.19,1.47.67,2.72,1.38.7.39,1.25.74,1.6.96,0,0,.55.36,1.08.73,2.75,1.89,4.63,3.96,4.61,3.96,1.24,1.32,2.1,2.63,2.7,3.62,2.15,3.57,3.22,7.62,3.13,11.8"/>
          <path class="cls-20" d="m271.87,272.78c-8.79-3.43-22.72-3.28-37.71-4.77-11.49-1.14-23.72-3.54-34.47-8.51-3.26-4.41-6.07-8.59-8.46-12.38,10.74,10.32,24.96,15.71,41.86,17.29,13.76.75,26.94,2.93,38.78,8.37"/>
          <path class="cls-20" d="m275.12,274.38c-1.07-.56-2.15-1.09-3.25-1.6"/>
          <g class="cls-14">
            <g class="cls-3">
              <path class="cls-20" d="m271.87,272.78c-8.79-3.43-22.72-3.28-37.71-4.77-11.49-1.14-23.72-3.54-34.47-8.51-3.26-4.41-6.07-8.59-8.46-12.38,10.74,10.32,24.96,15.71,41.86,17.29,13.76.75,26.94,2.93,38.78,8.37"/>
            </g>
          </g>
          <path class="cls-20" d="m284.18,283.13c-1.18-.7-2.36-1.32-3.54-1.84"/>
          <g class="cls-14">
            <g class="cls-11">
              <path class="cls-20" d="m280.64,281.29c-7.83-2.73-20.22-.19-34.06.85-3.44.26-6.97.39-10.55.33-11.06-.17-21.56-4.85-29.22-12.83,7.07,6.72,16.35,10.56,28.05,11.25,14.52.17,30.2-6.65,45.79.4"/>
            </g>
          </g>
          <path class="cls-20" d="m290.69,287.1c-.55-.22-1.09-.41-1.64-.59"/>
          <g class="cls-14">
            <g class="cls-1">
              <path class="cls-20" d="m289.05,286.51c-6.87-1.9-16.88,2.38-28.57,5.52-.16.04-.32.08-.48.13-13.78,3.64-28.51.14-39.11-9.39-.11-.09-.2-.17-.29-.26.17.14.42.35.73.61,1.28,1.02,3.6,2.7,8.72,4.7,2.1.82,4.88,1.79,8.27,2.62,6.1.91,12.46.85,19.04-.07,2.82-.39,5.56-1.14,8.22-2.13,7.45-2.77,15.02-4.51,23.47-1.74"/>
            </g>
          </g>
          <g class="cls-14">
            <g class="cls-9">
              <path class="cls-20" d="m297.03,289.42c-6.11-1.75-12.82,3.78-21.43,8.45-.05.03-.1.06-.15.08-9.26,5.02-20.32,5.56-30.04,1.51-.78-.32-1.55-.66-2.33-1.02-1.97-.9-5.09-2.63-5.64-2.93,2.49,1.31,5.21,2.31,8.13,3.01,7.81,1.87,15.99,1.32,23.61-1.19,6.34-2.08,11.96-4.42,16.64-7.08,2.33-1.32,4.98-2.03,7.63-1.77,1.24.12,2.43.42,3.57.93"/>
            </g>
          </g>
          <g class="cls-14">
            <g class="cls-4">
              <path class="cls-20" d="m305.98,289.08c-5.63-.81-9.61,5.38-15.4,11.02-1.16,1.13-2.41,2.23-3.77,3.26-4.67,3.54-10.72,4.74-16.42,3.37-.03,0-.06-.01-.09-.02-3.59-.87-6.75-1.64-9.62-2.38,4.1,1.05,7.94,1.5,11.43,1.15,6.07-.4,10.8-2.51,14.47-5.96.49-.46.98-.92,1.5-1.36l8.24-6.79c.62-.51,1.28-1.01,1.98-1.41,2.47-1.41,5.01-1.86,7.66-.88"/>
            </g>
          </g>
          <path class="cls-21" d="m308.89,293.17s-.02.01-.02.02"/>
          <path class="cls-20" d="m278.96,308.23s0,0-.02,0"/>
          <g class="cls-14">
            <g class="cls-7">
              <path class="cls-20" d="m308.87,293.19c-1.58,4.46-4.81,9.47-9.72,15.06,0,0-.02.01-.02.03-2.59,2.8-6.54,3.89-10.21,2.84-4.37-1.26-9.62-2.77-9.96-2.88,1.79.42,3.53.8,5.17,1.06,3.04.48,6.25.32,9.16-.77,3.47-1.32,5.59-3.95,7.58-6.92,2.17-3.23,4.89-6.09,8-8.42"/>
            </g>
          </g>
          <g class="cls-14">
            <g class="cls-17">
              <path class="cls-20" d="m315.28,287.94c.64,10.2-7.06,20.2-13.85,27.08-9.36,9.47-20.96,16.74-32.68,22.93-5.6,2.95-11.33,5.66-17.14,8.21,23.37-10.44,45.01-25.63,56.5-40.91,5.23-6.95,10.58-20.1.08-28.07-2.71-2.06-6.48-3.78-11.58-4.95,4.24.37,8.64,1.36,12.21,3.8,3.92,2.69,6.17,7.22,6.46,11.91"/>
            </g>
          </g>
          <path class="cls-21" d="m278.03,336.63s-.04.02-.06.03"/>
          <g class="cls-2">
            <g class="cls-5">
              <path class="cls-21" d="m336.3,331.95c-.09.14-3.4-1.53-3.65-1.63-2.04-.84-4.27-1.24-6.46-1.54-4.63-.62-9.34-.46-13.98-.03-4.7.43-9.38,1.27-13.99,2.25-4.46.96-8.89,2.12-13.26,3.46-1.3.39-2.61.8-3.89,1.24-1.17.39-2.5.69-3.6,1.25.18-.11.37-.21.56-.32,0,0,.01,0,.02-.01,1.44-.69,2.85-1.38,4.23-2.09.04-.02.08-.03.12-.06.18-.08.36-.17.53-.25,19.46-9.04,36.76-10.95,53.37-2.27"/>
            </g>
          </g>
          <path class="cls-21" d="m336.3,331.95c-16.76-8.76-34.22-6.74-53.9,2.52,8.17-4.17,15.41-8.65,20.86-13.76,4.47-4.61,8.74-9.52,12.13-15.01,3.52-5.7,5.75-11.92,5.26-18.7-.45-6.35-3.32-11.76-8.2-15.81-3.51-2.91-7.65-5.13-12.06-6.34-2.6-.71-5.27-1.07-7.91-1.63-5.37-1.15-10.94-1.7-16.39-2.41-7.15-.93-14.33-1.68-21.52-2.33-2.55-.23-5.11-.47-7.66-.73-11.11-1.11-22.2-2.54-32.98-5.63-9.95-2.85-19.91-6.93-27.89-13.68,6.96,2.21,13.92,4.42,20.89,6.63,13.15,4.17,26.42,7.99,40.19,9.35,6.4.63,12.84.83,19.26.55,7.56-.35,15.19-.3,22.68.83,8.55,1.28,17.02,4.07,23.92,9.41,5.88,4.56,10.46,11.07,11.17,18.63.07.75.1,1.5.1,2.25.02,8.13-3.5,15.67-7.68,22.46-1.79,2.91-3.78,5.72-5.95,8.37-1.99,2.42-6.69,7.11-6.69,7.11,0,0,1.92-.06,2.93-.07,4.62-.06,9.26.15,13.81,1.02,3.44.65,6.87,1.65,10.01,3.22,1.19.6,2.33,1.27,3.43,2.02.18.12,2.32,1.5,2.17,1.74"/>
          <g class="cls-14">
            <g class="cls-8">
              <path class="cls-21" d="m320.71,288.92c0,4.4-1.12,8.71-3.06,12.64-5.39,10.93-14.39,19.15-14.39,19.15-4.06,3.71-7.6,6.02-10.75,8.09,0,0-4.84,3.17-9.58,5.43-.17.08-.35.17-.53.25-.04.02-.08.04-.12.06-1.38.71-2.79,1.4-4.23,2.09,1.22-.63,2.39-1.43,3.55-2.17,2.54-1.62,5.02-3.33,7.45-5.12,2.7-1.99,5.33-4.06,7.88-6.23,2.65-2.25,5.22-4.61,7.65-7.08,2.4-2.43,4.68-4.98,6.76-7.67,1.94-2.52,3.72-5.17,5.2-8,1.17-2.28,2.17-4.66,2.78-7.15,1.06-4.33.89-9.01-1.42-12.92-2.56-4.35-7.2-7.6-12.3-9.85-8.51-3.78-25.88-5.83-37.47-6.87l-1.79-.15c-.77-.07-1.51-.13-2.21-.19-.3-.02-.61-.04-.9-.07-26.07-2.03-65.46-5.68-77.18-24.69,7.99,6.74,17.94,10.82,27.89,13.68,10.78,3.09,21.87,4.53,32.98,5.63,2.67.27,4.33.41,7.66.73,5.82.56,8.24.79,11.36,1.13,2.42.26,4.23.47,5.32.61,1.65.2,1.91.24,4.84.6,6.06.75,7.11.85,9.84,1.26.95.14,2.06.31,3.55.56,3.37.58,4.56.9,7.61,1.47.26.05.91.17,1.78.37.25.06,1,.23,1.81.46.68.19,2.26.67,4.19,1.53.43.19,1.47.67,2.72,1.38.7.39,1.25.74,1.6.96,0,0,.55.36,1.08.73,2.71,1.9,4.61,3.96,4.61,3.96,1.22,1.32,2.09,2.6,2.7,3.62,2.13,3.56,3.15,7.69,3.13,11.8"/>
            </g>
          </g>
          <g class="cls-14">
            <g class="cls-12">
              <path class="cls-21" d="m371.38,287.85c-.07-.04-.15-.08-.23-.12-.08-.04-.16-.08-.24-.11-.07-.04-.13-.07-.2-.1-.02,0-.03,0-.04-.01-4.21-1.73-11.23.34-19.24,4.54h0c-2.73,1.42-5.56,3.09-8.43,4.94-8.95,5.76-18.3,13.25-25.83,20.52,10.96-12.16,24.39-22.54,41.8-30.2,1.53-.67,3.14-1.18,4.8-1.42,3.46-.52,5.99.14,7.61,1.96"/>
            </g>
          </g>
          <g class="cls-14">
            <g class="cls-6">
              <path class="cls-21" d="m358.26,283.79c-2.92-6.63-26.09-.95-29.79,1.64.36-2.49.02-5.47-1.04-7.93,2.47,2.73,10.05,2.17,17.66,1.63,7.01-.56,11.7.74,13.16,4.65"/>
            </g>
          </g>
          <rect class="cls-13" width="841.89" height="595.28"/>
          <rect class="cls-13" width="841.89" height="595.28"/>
          <rect class="cls-13" width="841.89" height="595.28"/>
        </g>
      </g>
    </g>
  </g>
</svg>