<?xml version="1.0" encoding="utf-8"?>
<!-- Generator: Adobe Illustrator 26.5.0, SVG Export Plug-In . SVG Version: 6.00 Build 0)  -->
<svg version="1.1" xmlns="http://www.w3.org/2000/svg" xmlns:xlink="http://www.w3.org/1999/xlink" x="0px" y="0px"
	 viewBox="0 0 1194.27 290.04" style="enable-background:new 0 0 1194.27 290.04;" xml:space="preserve">
<style type="text/css">
	.st0{fill:#F2651D;}
	.st1{fill:#FFFFFF;}
	.st2{fill:#374FC4;}
</style>
<g id="Atom_Grove__x28_White_Orange_x29_">
</g>
<g id="Atom_Grove_Icon__x28_White_Orange_x29_">
	<g>
		<circle id="Atom_00000116945208745024109290000000226784079470799269_" class="st0" cx="142.04" cy="142.58" r="36.97"/>
		<g>
			<g id="AG_Icon_00000104695657836370813370000013316617267463619238_">
				<g>
					<path class="st1" d="M383.84,101.71c2.73-5,6-9.74,9.81-14.19c1.35-1.61,2.79-3.19,4.33-4.74
						c16.41-16.51,37.99-24.76,59.57-24.76c21.58,0,43.12,8.25,59.57,24.76c1.6,1.61,3.11,3.26,4.52,4.96l66.88,0
						c-6.89-16.73-17.12-32.4-30.62-46.01c-55.34-55.64-145.36-55.64-200.73,0c-5.64,5.67-10.68,11.67-15.16,17.99l16,15.99
						L383.84,101.71z"/>
					<path class="st1" d="M460.62,128.24l0,50.2l73.19,0c-4.03,8.73-9.55,16.93-16.71,24.15c-6.39,6.42-13.55,11.58-21.19,15.49
						c-31.66,16.27-71.49,11.1-97.93-15.49c-0.22-0.24-0.49-0.5-0.68-0.75l-0.03,0.05h-0.03c-0.28-0.3-0.57-0.6-0.84-0.89
						l-3.78-3.78l0,0L260.76,60.95l-2.77-2.91l-1.96-1.98L242.7,42.28c-0.16-0.18-0.32-0.36-0.48-0.52v-0.03
						c-0.22-0.22-0.46-0.47-0.71-0.68c-1.66-1.65-3.36-3.25-5.09-4.8c-3.22-2.91-6.53-5.62-9.94-8.17
						c-16.3-12.2-34.63-20.43-53.67-24.67c-0.52-0.14-1.05-0.24-1.59-0.35c-0.03-0.01-0.08-0.01-0.11-0.03
						c-1.25-0.25-2.5-0.49-3.77-0.71c-6.2-1.13-12.48-1.87-18.76-2.17c-4.51-0.23-9.03-0.23-13.56,0c-4.4,0.2-8.78,0.63-13.14,1.24
						c-19.34,2.73-38.22,9.48-55.31,20.23c-8.91,5.61-17.32,12.3-25.07,20.09C27.52,55.83,17.05,72.15,10.15,89.55
						c-1.84,4.62-3.44,9.33-4.76,14.09c-0.3,1.08-0.6,2.17-0.88,3.27c-0.03,0.11-0.05,0.19-0.08,0.28
						c-0.21,0.84-0.42,1.68-0.61,2.52c-0.14,0.57-0.27,1.14-0.39,1.71c-0.1,0.41-0.18,0.82-0.26,1.21c-0.2,0.88-0.39,1.79-0.55,2.67
						c-0.01,0.08-0.03,0.14-0.03,0.19c-0.21,1.07-0.41,2.15-0.58,3.21c-0.02,0.06-0.03,0.11-0.03,0.15
						c-0.18,1.12-0.35,2.21-0.51,3.3c-0.24,1.76-0.47,3.5-0.63,5.25c-0.07,0.49-0.12,0.96-0.17,1.44c0,0.05,0,0.1-0.01,0.14
						c-0.11,1.13-0.19,2.27-0.29,3.41c-0.48,6.8-0.5,13.6-0.01,20.4c0,0.08,0,0.16,0.01,0.22c0.08,0.99,0.17,2,0.26,2.99
						c0,0.17,0.01,0.33,0.04,0.5v0.01c0.21,2.14,0.47,4.26,0.77,6.38c0.02,0.18,0.05,0.35,0.06,0.51c0.11,0.72,0.22,1.45,0.35,2.17
						c0.08,0.55,0.17,1.11,0.27,1.66c0.09,0.52,0.17,1.04,0.28,1.54c0.14,0.77,0.28,1.53,0.44,2.28c0.04,0.18,0.07,0.38,0.12,0.55
						c0.21,1.07,0.45,2.14,0.69,3.19c0.21,0.99,0.46,1.97,0.71,2.96c6.03,24.14,18.44,46.96,37.17,65.81
						c27.68,27.83,63.99,41.75,100.37,41.75c13.29,0,26.58-1.86,39.44-5.58c0.17-0.06,0.35-0.11,0.51-0.16
						c0.64-0.17,1.28-0.37,1.91-0.56c0.66-0.21,1.32-0.43,1.98-0.63c14.22-4.64,27.85-11.56,40.32-20.83l0,27.74l57.69,0l0-40.32
						l-19.57-19.68l-3.34-3.36l-0.56-0.57v-0.01l-33.78-33.98l-8.28-8.32l-0.19-0.19c-3.14,6.75-7.23,13.12-12.24,18.95
						c-0.34,0.41-0.67,0.82-1.03,1.22c-0.08,0.07-0.16,0.17-0.21,0.23c-0.97,1.12-2.01,2.22-3.09,3.3c-32.86,33-86.27,33-119.14,0
						c-7.33-7.4-13.03-15.81-17.09-24.81c-7.15-15.85-9.2-33.49-6.15-50.36c2.43-13.54,8.17-26.59,17.19-37.86
						c1.87-2.34,3.88-4.6,6.04-6.78c7.78-7.82,16.68-13.77,26.24-17.88c10.6-4.58,21.97-6.88,33.34-6.88
						c19.18,0,38.33,6.51,53.86,19.53c0.64,0.53,1.29,1.08,1.92,1.65l0.12,0.17l8.8,9.06c0.11,0.13,0.2,0.26,0.31,0.39l0.56,0.6
						l0.16,0.15l10.07,10.46l8.82,9.19l2.66,2.77l14.84,15.45l35.43,36.91v0.02l2.31,2.46l0.99,1.02l1.03,1.06l0.57,0.59l7.97,8.3
						l20.13,20.97v0.03l29.16,29.18l3.66,3.66l2.66,2.67l8.31,8.31l0.23,0.23l0.73,0.76h0.03c16.38,16.44,35.75,28.03,56.35,34.77
						c0.68,0.22,1.37,0.45,2.06,0.65c0.96,0.29,1.93,0.58,2.91,0.85c12.74,3.66,25.87,5.48,39.03,5.48c6.48,0,12.94-0.4,19.38-1.19
						c21.49-2.7,42.43-10,60.99-22.78c1.02-0.69,2.04-1.43,3.05-2.17c0.17-0.14,0.38-0.27,0.55-0.41c0.08-0.04,0.14-0.09,0.21-0.15
						c2.5-1.86,4.93-3.8,7.3-5.81c0.05-0.03,0.09-0.08,0.14-0.12c22.73-19.18,39.32-44.38,46.41-74.94
						c2.42-10.37,3.74-21.36,3.83-32.94c0-0.47,0.02-0.93,0.02-1.4l0-15.2L460.62,128.24z"/>
				</g>
			</g>
		</g>
		<g>
			<path class="st1" d="M666.93,44.86c3.21-6.23,7.57-11.02,13.08-14.38c5.51-3.35,11.67-5.03,18.48-5.03c5.94,0,11.14,1.2,15.6,3.6
				c4.46,2.4,8.03,5.42,10.71,9.06V26.74h20.27v79.66h-20.27V94.76c-2.59,3.74-6.16,6.83-10.71,9.27c-4.55,2.44-9.8,3.67-15.74,3.67
				c-6.71,0-12.82-1.72-18.33-5.18c-5.51-3.45-9.87-8.31-13.08-14.59c-3.21-6.28-4.82-13.49-4.82-21.64
				C662.12,58.23,663.72,51.09,666.93,44.86z M721.93,53.99c-1.92-3.5-4.51-6.18-7.76-8.05c-3.26-1.87-6.76-2.8-10.5-2.8
				c-3.74,0-7.19,0.91-10.35,2.73c-3.16,1.82-5.73,4.48-7.69,7.98c-1.97,3.5-2.95,7.65-2.95,12.44c0,4.79,0.98,8.99,2.95,12.58
				c1.96,3.6,4.55,6.35,7.76,8.27c3.21,1.92,6.64,2.88,10.28,2.88c3.74,0,7.24-0.94,10.5-2.8c3.26-1.87,5.85-4.55,7.76-8.05
				c1.92-3.5,2.88-7.69,2.88-12.58C724.81,61.68,723.85,57.49,721.93,53.99z"/>
			<path class="st1" d="M784.91,0v106.4h-20.13V0H784.91z"/>
			<path class="st1" d="M835.6,29.12c4.55-2.44,9.75-3.67,15.6-3.67c6.81,0,12.96,1.68,18.48,5.03c5.51,3.36,9.87,8.12,13.08,14.31
				c3.21,6.18,4.82,13.35,4.82,21.5c0,8.15-1.61,15.36-4.82,21.64c-3.21,6.28-7.57,11.14-13.08,14.59
				c-5.51,3.45-11.67,5.18-18.48,5.18c-5.85,0-11-1.2-15.46-3.59c-4.46-2.4-8.08-5.42-10.86-9.06v49.32h-20.13V26.74h20.13v11.5
				C827.47,34.6,831.04,31.56,835.6,29.12z M864.07,53.85c-1.97-3.5-4.55-6.16-7.76-7.98c-3.21-1.82-6.69-2.73-10.42-2.73
				c-3.64,0-7.07,0.93-10.28,2.8c-3.21,1.87-5.8,4.58-7.76,8.12c-1.97,3.55-2.95,7.72-2.95,12.51c0,4.79,0.98,8.96,2.95,12.51
				c1.96,3.55,4.55,6.26,7.76,8.12c3.21,1.87,6.64,2.8,10.28,2.8c3.74,0,7.21-0.96,10.42-2.88c3.21-1.92,5.8-4.65,7.76-8.2
				c1.96-3.54,2.95-7.76,2.95-12.65C867.01,61.49,866.03,57.35,864.07,53.85z"/>
			<path class="st1" d="M963.21,29.55c4.7,2.64,8.36,6.52,11,11.65c2.64,5.13,3.95,11.29,3.95,18.48v46.73h-20.13v-44
				c0-6.33-1.58-11.19-4.75-14.59c-3.16-3.4-7.48-5.1-12.94-5.1c-5.56,0-9.95,1.7-13.16,5.1c-3.21,3.4-4.82,8.27-4.82,14.59v44
				h-20.13V0h20.13v36.67c2.59-3.45,6.04-6.16,10.35-8.12c4.31-1.96,9.11-2.95,14.38-2.95C953.14,25.59,958.51,26.91,963.21,29.55z"
				/>
			<path class="st1" d="M996.92,44.86c3.21-6.23,7.57-11.02,13.08-14.38c5.51-3.35,11.67-5.03,18.48-5.03c5.94,0,11.14,1.2,15.6,3.6
				c4.46,2.4,8.03,5.42,10.71,9.06V26.74h20.27v79.66h-20.27V94.76c-2.59,3.74-6.16,6.83-10.71,9.27c-4.55,2.44-9.8,3.67-15.74,3.67
				c-6.71,0-12.82-1.72-18.33-5.18c-5.51-3.45-9.87-8.31-13.08-14.59c-3.21-6.28-4.82-13.49-4.82-21.64
				C992.11,58.23,993.71,51.09,996.92,44.86z M1051.92,53.99c-1.92-3.5-4.51-6.18-7.76-8.05c-3.26-1.87-6.76-2.8-10.5-2.8
				c-3.74,0-7.19,0.91-10.35,2.73c-3.16,1.82-5.73,4.48-7.69,7.98c-1.97,3.5-2.95,7.65-2.95,12.44c0,4.79,0.98,8.99,2.95,12.58
				c1.96,3.6,4.55,6.35,7.76,8.27c3.21,1.92,6.64,2.88,10.28,2.88c3.74,0,7.24-0.94,10.5-2.8c3.26-1.87,5.85-4.55,7.76-8.05
				c1.92-3.5,2.88-7.69,2.88-12.58C1054.8,61.68,1053.84,57.49,1051.92,53.99z"/>
			<g>
				<path class="st1" d="M718.91,177.02c5.46,3.45,9.39,7.81,11.79,13.08V173h10.07v80.52c0,7.19-1.56,13.56-4.67,19.12
					c-3.12,5.56-7.45,9.85-13.01,12.87c-5.56,3.02-11.89,4.53-18.98,4.53c-10.07,0-18.43-2.4-25.09-7.19
					c-6.66-4.79-10.81-11.31-12.44-19.55h9.92c1.73,5.46,5.01,9.82,9.85,13.08c4.84,3.26,10.76,4.89,17.76,4.89
					c5.08,0,9.63-1.08,13.66-3.23c4.03-2.16,7.19-5.35,9.49-9.56c2.3-4.22,3.45-9.2,3.45-14.95V234.1
					c-2.49,5.37-6.45,9.8-11.86,13.3c-5.42,3.5-11.82,5.25-19.2,5.25c-7.19,0-13.64-1.68-19.34-5.03
					c-5.7-3.35-10.16-8.1-13.37-14.24c-3.21-6.13-4.82-13.23-4.82-21.28c0-8.05,1.6-15.12,4.82-21.21
					c3.21-6.09,7.67-10.78,13.37-14.09c5.7-3.31,12.15-4.96,19.34-4.96C707.03,171.85,713.45,173.57,718.91,177.02z M726.82,195.57
					c-2.59-4.79-6.11-8.48-10.57-11.07c-4.46-2.59-9.37-3.88-14.74-3.88c-5.56,0-10.55,1.25-14.95,3.74
					c-4.41,2.49-7.89,6.11-10.42,10.86c-2.54,4.75-3.81,10.38-3.81,16.9c0,6.42,1.27,12.06,3.81,16.89
					c2.54,4.84,6.01,8.53,10.42,11.07c4.41,2.54,9.39,3.81,14.95,3.81c5.37,0,10.28-1.29,14.74-3.88
					c4.46-2.59,7.98-6.28,10.57-11.07c2.59-4.79,3.88-10.35,3.88-16.68C730.7,205.92,729.41,200.36,726.82,195.57z"/>
				<path class="st1" d="M834.52,216.13h-65.14c0.29,5.94,1.73,11.02,4.31,15.24c2.59,4.22,5.99,7.41,10.21,9.56
					c4.22,2.16,8.82,3.24,13.8,3.24c6.52,0,12.01-1.58,16.46-4.75c4.46-3.16,7.4-7.43,8.84-12.8h10.64
					c-1.92,7.67-6.02,13.93-12.29,18.76c-6.28,4.84-14.16,7.26-23.65,7.26c-7.38,0-14-1.65-19.84-4.96
					c-5.85-3.31-10.42-8-13.73-14.09c-3.31-6.09-4.96-13.2-4.96-21.35c0-8.15,1.63-15.29,4.89-21.42
					c3.26-6.13,7.81-10.83,13.66-14.09c5.85-3.26,12.51-4.89,19.99-4.89s14.02,1.63,19.63,4.89c5.61,3.26,9.92,7.65,12.94,13.16
					c3.02,5.51,4.53,11.62,4.53,18.33C834.81,211.67,834.71,214.31,834.52,216.13z M821.07,192.98c-2.44-4.12-5.78-7.24-9.99-9.35
					c-4.22-2.11-8.82-3.16-13.8-3.16c-7.48,0-13.85,2.4-19.12,7.19c-5.27,4.79-8.2,11.55-8.77,20.27h55.21
					C824.69,202.09,823.52,197.1,821.07,192.98z"/>
				<path class="st1" d="M913.03,180.26c5.94,5.8,8.91,14.21,8.91,25.24v46.01h-9.92v-44.86c0-8.53-2.13-15.05-6.4-19.55
					c-4.27-4.5-10.09-6.76-17.47-6.76c-7.57,0-13.61,2.4-18.12,7.19c-4.51,4.79-6.76,11.84-6.76,21.14v42.85h-10.07V173h10.07v13.37
					c2.49-4.79,6.09-8.46,10.78-11c4.7-2.54,10.02-3.81,15.96-3.81C899.41,171.56,907.08,174.46,913.03,180.26z"/>
				<path class="st1" d="M1014.97,216.13h-65.14c0.29,5.94,1.73,11.02,4.31,15.24c2.59,4.22,5.99,7.41,10.21,9.56
					c4.22,2.16,8.82,3.24,13.8,3.24c6.52,0,12.01-1.58,16.46-4.75c4.46-3.16,7.4-7.43,8.84-12.8h10.64
					c-1.92,7.67-6.02,13.93-12.29,18.76c-6.28,4.84-14.16,7.26-23.65,7.26c-7.38,0-14-1.65-19.84-4.96
					c-5.85-3.31-10.42-8-13.73-14.09c-3.31-6.09-4.96-13.2-4.96-21.35c0-8.15,1.63-15.29,4.89-21.42
					c3.26-6.13,7.81-10.83,13.66-14.09c5.85-3.26,12.51-4.89,19.99-4.89s14.02,1.63,19.63,4.89c5.61,3.26,9.92,7.65,12.94,13.16
					c3.02,5.51,4.53,11.62,4.53,18.33C1015.26,211.67,1015.16,214.31,1014.97,216.13z M1001.53,192.98
					c-2.44-4.12-5.78-7.24-9.99-9.35c-4.22-2.11-8.82-3.16-13.8-3.16c-7.48,0-13.85,2.4-19.12,7.19c-5.27,4.79-8.2,11.55-8.77,20.27
					h55.21C1005.14,202.09,1003.97,197.1,1001.53,192.98z"/>
				<path class="st1" d="M1038.62,246.4c-5.7-4.17-8.89-9.85-9.56-17.04h10.35c0.48,4.41,2.56,7.98,6.25,10.71
					c3.69,2.73,8.65,4.1,14.88,4.1c5.46,0,9.75-1.29,12.87-3.88c3.11-2.59,4.67-5.8,4.67-9.63c0-2.68-0.86-4.89-2.59-6.61
					c-1.73-1.72-3.91-3.09-6.54-4.1c-2.64-1.01-6.21-2.08-10.71-3.24c-5.85-1.53-10.59-3.07-14.23-4.6
					c-3.64-1.53-6.74-3.81-9.27-6.83c-2.54-3.02-3.81-7.07-3.81-12.15c0-3.83,1.15-7.38,3.45-10.64c2.3-3.26,5.56-5.85,9.78-7.77
					c4.22-1.92,9.01-2.88,14.38-2.88c8.43,0,15.24,2.13,20.42,6.4c5.18,4.27,7.96,10.14,8.34,17.61h-10.06
					c-0.29-4.6-2.08-8.32-5.39-11.14c-3.31-2.83-7.84-4.24-13.59-4.24c-5.08,0-9.2,1.2-12.37,3.6c-3.16,2.4-4.75,5.37-4.75,8.91
					c0,3.07,0.93,5.58,2.8,7.55c1.87,1.97,4.19,3.5,6.97,4.6c2.78,1.1,6.52,2.33,11.22,3.67c5.66,1.53,10.16,3.02,13.52,4.46
					c3.35,1.44,6.23,3.55,8.63,6.33c2.4,2.78,3.64,6.47,3.74,11.07c0,4.22-1.15,7.98-3.45,11.29c-2.3,3.31-5.51,5.92-9.63,7.84
					c-4.12,1.92-8.87,2.88-14.24,2.88C1051.68,252.65,1044.33,250.57,1038.62,246.4z"/>
				<path class="st1" d="M1106.85,156.03c-1.44-1.44-2.16-3.21-2.16-5.32c0-2.11,0.72-3.86,2.16-5.25c1.44-1.39,3.16-2.08,5.18-2.08
					c2.01,0,3.74,0.7,5.18,2.08c1.44,1.39,2.16,3.14,2.16,5.25c0,2.11-0.72,3.88-2.16,5.32c-1.44,1.44-3.16,2.16-5.18,2.16
					C1110.01,158.19,1108.29,157.47,1106.85,156.03z M1117.06,173v78.51h-10.07V173H1117.06z"/>
				<path class="st1" d="M1144.88,246.4c-5.7-4.17-8.89-9.85-9.56-17.04h10.35c0.48,4.41,2.56,7.98,6.25,10.71
					c3.69,2.73,8.65,4.1,14.88,4.1c5.46,0,9.75-1.29,12.87-3.88c3.11-2.59,4.67-5.8,4.67-9.63c0-2.68-0.86-4.89-2.59-6.61
					c-1.73-1.72-3.91-3.09-6.54-4.1c-2.64-1.01-6.21-2.08-10.71-3.24c-5.85-1.53-10.59-3.07-14.23-4.6
					c-3.64-1.53-6.74-3.81-9.27-6.83c-2.54-3.02-3.81-7.07-3.81-12.15c0-3.83,1.15-7.38,3.45-10.64c2.3-3.26,5.56-5.85,9.78-7.77
					c4.22-1.92,9.01-2.88,14.38-2.88c8.43,0,15.24,2.13,20.42,6.4c5.18,4.27,7.96,10.14,8.34,17.61h-10.07
					c-0.29-4.6-2.08-8.32-5.39-11.14c-3.31-2.83-7.84-4.24-13.59-4.24c-5.08,0-9.2,1.2-12.37,3.6c-3.16,2.4-4.75,5.37-4.75,8.91
					c0,3.07,0.93,5.58,2.8,7.55c1.87,1.97,4.19,3.5,6.97,4.6c2.78,1.1,6.52,2.33,11.22,3.67c5.65,1.53,10.16,3.02,13.52,4.46
					c3.35,1.44,6.23,3.55,8.63,6.33c2.4,2.78,3.64,6.47,3.74,11.07c0,4.22-1.15,7.98-3.45,11.29c-2.3,3.31-5.51,5.92-9.63,7.84
					c-4.12,1.92-8.87,2.88-14.24,2.88C1157.94,252.65,1150.58,250.57,1144.88,246.4z"/>
			</g>
		</g>
	</g>
</g>
<g id="Atom_Grove__x28_White_x29_">
</g>
<g id="Atom_Grove_Icon__x28_White_x29_">
</g>
<g id="Atom_Grove__x28_Black_x29_">
</g>
<g id="Atom_Grove_Icon__x28_Black_x29_">
</g>
<g id="Atom_Grove__x28_Color_x29_">
</g>
<g id="Atom_Grove_Icon__x28_Color_x29_">
</g>
</svg>
