<svg width="1259" height="571" viewBox="0 0 1259 571" fill="none" xmlns="http://www.w3.org/2000/svg">
<rect width="1259" height="571" rx="25" fill="#374FC4"/>
<mask id="mask0_266_624" style="mask-type:alpha" maskUnits="userSpaceOnUse" x="0" y="0" width="1259" height="571">
<path d="M0 40C0 25.9987 0 18.998 2.72484 13.6502C5.12167 8.94619 8.94619 5.12167 13.6502 2.72484C18.998 0 25.9987 0 40 0H1219C1233 0 1240 0 1245.35 2.72484C1250.05 5.12167 1253.88 8.94619 1256.28 13.6502C1259 18.998 1259 25.9987 1259 40V531C1259 545.001 1259 552.002 1256.28 557.35C1253.88 562.054 1250.05 565.878 1245.35 568.275C1240 571 1233 571 1219 571H40C25.9987 571 18.998 571 13.6502 568.275C8.94619 565.878 5.12167 562.054 2.72484 557.35C0 552.002 0 545.001 0 531V40Z" fill="#0B2637"/>
</mask>
<g mask="url(#mask0_266_624)">
<path opacity="0.11" d="M-321.284 -15.3583C-260.181 -199.296 -36.1087 -318.337 167.756 -251.03C382.12 -180.257 395.249 -11.9105 293.744 168.711C241.399 261.856 226.829 392.678 114.725 425.285C-131.448 496.889 -394.042 203.664 -321.284 -15.3583Z" stroke="white" stroke-width="3"/>
<path opacity="0.11" d="M572.571 484.998C633.674 301.06 857.747 182.019 1061.61 249.326C1275.98 320.099 1289.1 488.445 1187.6 669.067C1135.25 762.212 1120.68 893.034 1008.58 925.641C762.408 997.245 499.813 704.019 572.571 484.998Z" stroke="white" stroke-width="3"/>
</g>
</svg>
