<?xml version="1.0" encoding="UTF-8"?>
<svg xmlns="http://www.w3.org/2000/svg" xmlns:xlink="http://www.w3.org/1999/xlink" viewBox="0 0 841.89 595.28">
  <defs>
    <style>
      .cls-1 {
        clip-path: url(#clippath-4);
      }

      .cls-1, .cls-2, .cls-3, .cls-4, .cls-5, .cls-6, .cls-7, .cls-8, .cls-9, .cls-10, .cls-11, .cls-12, .cls-13, .cls-14, .cls-15, .cls-16, .cls-17, .cls-18, .cls-19, .cls-20, .cls-21, .cls-22, .cls-23, .cls-24, .cls-25, .cls-26, .cls-27, .cls-28, .cls-29, .cls-30, .cls-31, .cls-32, .cls-33, .cls-34, .cls-35, .cls-36, .cls-37, .cls-38, .cls-39, .cls-40, .cls-41, .cls-42, .cls-43, .cls-44, .cls-45, .cls-46, .cls-47, .cls-48, .cls-49, .cls-50, .cls-51, .cls-52 {
        fill: none;
      }

      .cls-2 {
        opacity: .24;
      }

      .cls-2, .cls-50 {
        mix-blend-mode: multiply;
      }

      .cls-53 {
        fill: url(#linear-gradient-2);
      }

      .cls-3 {
        clip-path: url(#clippath-2);
      }

      .cls-4 {
        clip-path: url(#clippath-6);
      }

      .cls-54 {
        fill: url(#linear-gradient-17);
      }

      .cls-5 {
        clip-path: url(#clippath-9);
      }

      .cls-6 {
        clip-path: url(#clippath-45);
      }

      .cls-7 {
        clip-path: url(#clippath-12);
      }

      .cls-55 {
        fill: url(#linear-gradient-15);
      }

      .cls-56 {
        fill: #fff;
        fill-rule: evenodd;
      }

      .cls-8 {
        clip-path: url(#clippath-32);
      }

      .cls-9 {
        clip-path: url(#clippath-13);
      }

      .cls-57 {
        fill: url(#linear-gradient-18);
      }

      .cls-58 {
        fill: url(#linear-gradient-28);
      }

      .cls-59 {
        fill: url(#linear-gradient-14);
      }

      .cls-60 {
        fill: url(#linear-gradient-20);
      }

      .cls-61 {
        fill: url(#linear-gradient-6);
      }

      .cls-10 {
        clip-path: url(#clippath-36);
      }

      .cls-11 {
        clip-path: url(#clippath-21);
      }

      .cls-12 {
        clip-path: url(#clippath-28);
      }

      .cls-62 {
        fill: url(#linear-gradient-11);
      }

      .cls-13 {
        clip-path: url(#clippath-7);
      }

      .cls-14 {
        clip-path: url(#clippath-43);
      }

      .cls-15 {
        clip-path: url(#clippath-18);
      }

      .cls-16 {
        clip-path: url(#clippath-40);
      }

      .cls-17 {
        clip-path: url(#clippath-27);
      }

      .cls-18 {
        clip-path: url(#clippath-37);
      }

      .cls-19 {
        clip-path: url(#clippath-10);
      }

      .cls-20 {
        clip-path: url(#clippath-34);
      }

      .cls-63 {
        fill: url(#linear-gradient-10);
      }

      .cls-21 {
        clip-path: url(#clippath-35);
      }

      .cls-22 {
        clip-path: url(#clippath-22);
      }

      .cls-23 {
        clip-path: url(#clippath-5);
      }

      .cls-24 {
        clip-path: url(#clippath-24);
      }

      .cls-25 {
        clip-path: url(#clippath-26);
      }

      .cls-64 {
        fill: url(#linear-gradient-16);
      }

      .cls-26 {
        isolation: isolate;
      }

      .cls-27 {
        opacity: .3;
      }

      .cls-28 {
        clip-path: url(#clippath-31);
      }

      .cls-65 {
        fill: url(#linear-gradient-21);
      }

      .cls-29 {
        clip-path: url(#clippath-42);
      }

      .cls-30 {
        clip-path: url(#clippath-16);
      }

      .cls-66 {
        fill: url(#linear-gradient-25);
      }

      .cls-31 {
        clip-path: url(#clippath-15);
      }

      .cls-67 {
        fill: url(#linear-gradient-5);
      }

      .cls-32 {
        clip-path: url(#clippath-44);
      }

      .cls-33 {
        clip-path: url(#clippath-3);
      }

      .cls-34 {
        clip-path: url(#clippath-11);
      }

      .cls-35 {
        clip-path: url(#clippath-29);
      }

      .cls-36 {
        clip-rule: evenodd;
      }

      .cls-37 {
        clip-path: url(#clippath-33);
      }

      .cls-38 {
        clip-path: url(#clippath-19);
      }

      .cls-68 {
        fill: #0c2231;
      }

      .cls-40 {
        clip-path: url(#clippath-20);
      }

      .cls-41 {
        clip-path: url(#clippath-23);
      }

      .cls-42 {
        clip-path: url(#clippath-17);
      }

      .cls-69 {
        fill: url(#linear-gradient-7);
      }

      .cls-43 {
        clip-path: url(#clippath-38);
      }

      .cls-44 {
        clip-path: url(#clippath);
      }

      .cls-70 {
        fill: url(#linear-gradient-24);
      }

      .cls-71 {
        fill: url(#linear-gradient-9);
      }

      .cls-72 {
        fill: url(#linear-gradient-22);
      }

      .cls-73 {
        fill: url(#linear-gradient-3);
      }

      .cls-45 {
        clip-path: url(#clippath-1);
      }

      .cls-46 {
        clip-path: url(#clippath-8);
      }

      .cls-74 {
        fill: url(#linear-gradient);
      }

      .cls-47 {
        clip-path: url(#clippath-25);
      }

      .cls-48 {
        clip-path: url(#clippath-14);
      }

      .cls-75 {
        fill: url(#linear-gradient-27);
      }

      .cls-49 {
        clip-path: url(#clippath-39);
      }

      .cls-50 {
        opacity: .38;
      }

      .cls-76 {
        fill: url(#linear-gradient-23);
      }

      .cls-77 {
        fill: url(#linear-gradient-19);
      }

      .cls-78 {
        fill: url(#linear-gradient-4);
      }

      .cls-51 {
        clip-path: url(#clippath-30);
      }

      .cls-79 {
        fill: url(#linear-gradient-8);
      }

      .cls-52 {
        clip-path: url(#clippath-41);
      }

      .cls-80 {
        fill: url(#linear-gradient-12);
      }

      .cls-81 {
        fill: url(#linear-gradient-13);
      }

      .cls-82 {
        fill: url(#linear-gradient-26);
      }
    </style>
    <clipPath id="clippath">
      <path class="cls-39" d="m549.21,234.68c-2.51.37-4.93,1.13-7.25,2.15-26.29,11.57-46.58,27.25-63.13,45.61,11.37-10.98,25.48-22.29,39-30.99,4.35-2.79,8.62-5.31,12.74-7.46h0c12.11-6.33,22.71-9.46,29.06-6.85.01,0,.04.01.06.02.1.04.2.08.3.15.12.05.24.1.36.16.11.06.23.12.34.18-1.91-2.14-4.66-3.22-8.25-3.22-1.02,0-2.1.09-3.25.26"/>
    </clipPath>
    <linearGradient id="linear-gradient" x1="-314.5" y1="1271.39" x2="-313.5" y2="1271.39" gradientTransform="translate(28723.82 114459.68) scale(89.82 -89.82)" gradientUnits="userSpaceOnUse">
      <stop offset="0" stop-color="#6ac9f3"/>
      <stop offset="1" stop-color="#5264ac"/>
    </linearGradient>
    <clipPath id="clippath-1">
      <path class="cls-39" d="m525.83,229.72c-9.25,4.57-21.73,13.73-33.68,26.51,12.68-10.1,29.84-16.78,46.08-23.32-2.85.32-7.49.57-8.72-2.99-.66-.16-1.62-.25-2.54-.25-.4,0-.79.02-1.14.05"/>
    </clipPath>
    <linearGradient id="linear-gradient-2" x1="-315.33" y1="1266.39" x2="-314.33" y2="1266.39" gradientTransform="translate(51850.36 207017.42) scale(163.28 -163.28)" xlink:href="#linear-gradient"/>
    <clipPath id="clippath-2">
      <path class="cls-39" d="m525.83,229.72c-9.25,4.57-21.73,13.73-33.68,26.51,12.68-10.1,29.84-16.78,46.08-23.32-2.85.32-7.49.57-8.72-2.99-.66-.16-1.62-.25-2.54-.25-.4,0-.79.02-1.14.05"/>
    </clipPath>
    <linearGradient id="linear-gradient-3" x1="-309.47" y1="1270.24" x2="-308.47" y2="1270.24" gradientTransform="translate(20507.87 82484.69) scale(64.75 -64.75)" xlink:href="#linear-gradient"/>
    <clipPath id="clippath-3">
      <path class="cls-39" d="m549.88,225.72c-.58-1.02-1.25-1.92-2.03-2.7.73.77,1.41,1.67,2.03,2.7"/>
    </clipPath>
    <linearGradient id="linear-gradient-4" x1="-315.33" y1="1266.38" x2="-314.33" y2="1266.38" gradientTransform="translate(51847.79 206997.6) scale(163.28 -163.28)" xlink:href="#linear-gradient"/>
    <clipPath id="clippath-4">
      <path class="cls-39" d="m429.51,222.66c-7.56-7.78-16.55-15.16-32.92-16.8,4.7-.34,16.39.23,25.3,1.9,4.07.77,7.56,1.77,9.55,3.03.84.53,1.42,1.11,1.65,1.73,3.79,10.39,11.1,19.14,23.52,22.45,1.7.46,3.44.61,5.16.7-1.6.26-3.18.39-4.73.39-10.76,0-20.28-6.02-27.51-13.39m-77.64-20.42c20.79,1.13,40.68,4.42,58.56,12.65,1.79.7,3.42,1.49,4.91,2.41,1.7,1.03,3.2,2.22,4.47,3.6-6.95-2.67-18.93-.77-33.02,1.13-23.63,3.19-53.18,6.38-74.77-12.04l.14.14c10.68,10.15,24.69,15.94,42.36,16.99,7.34.08,14.88-1.01,22.55-2.11,15.22-2.18,30.94-4.36,46.6,2.72,1.98.68,3.77,1.6,5.35,2.78-6.6-1.33-16.28,1.82-27.8,4.97-19.55,5.35-44.37,10.69-68.22-5.9.25.21.63.53,1.1.92,1.92,1.55,5.44,4.07,13.17,7.1,3.17,1.24,7.37,2.7,12.49,3.96,9.21,1.37,18.81,1.28,28.75-.1,4.25-.59,8.4-1.73,12.41-3.22,11.26-4.18,22.68-6.81,35.44-2.62.86.22,1.68.53,2.47.89-5.91-.05-14.05,4.36-23.93,8.77-15.28,6.82-34.71,13.64-56.49,3.94,3.76,1.99,7.87,3.48,12.28,4.55,11.79,2.83,24.15,1.99,35.66-1.8,9.57-3.14,18.06-6.68,25.14-10.69,3.51-1.99,7.51-3.06,11.53-2.67,1.88.18,3.68.64,5.39,1.41-11.09,1.96-25.13,28.72-54.88,22.52,6.19,1.59,11.99,2.27,17.26,1.73,9.16-.6,16.31-3.79,21.86-9,.74-.7,1.49-1.39,2.27-2.05l12.45-10.26c.94-.77,1.93-1.52,2.99-2.13,3.73-2.13,7.56-2.81,11.57-1.33-8.85,3.45-12.64,31.85-40.81,28.9,0,0,0,.01,0,.01,0,0,0,0,.01,0,0,0,0,0,.01,0,2.7.64,5.33,1.21,7.8,1.61,4.6.73,9.45.49,13.83-1.17,5.24-1.99,8.44-5.96,11.45-10.45,3.28-4.88,7.38-9.19,12.08-12.71,3.95-11.12,1.11-19.91-8.35-26.44-.06-.04-.13-.09-.19-.13-.23-.16-.46-.31-.7-.47-.05-.03-.11-.07-.18-.11l-.62-.4c-.27-.16-.56-.32-.83-.49-.29-.17-.57-.32-.86-.49-.29-.16-.59-.32-.88-.48-.26-.14-.51-.26-.78-.39-.74-.38-1.51-.74-2.3-1.1-.25-.1-.49-.21-.74-.32-.67-.29-1.37-.57-2.08-.85,6.41.56,13.05,2.06,18.44,5.74,5.91,4.06,9.31,10.9,9.75,17.99.97,15.4-10.66,30.5-20.92,40.89-14.14,14.3-31.66,25.27-49.35,34.63-3.16,1.67-6.36,3.29-9.59,4.87-1.07.52-2.15,1.05-3.22,1.56-1.28.61-2.56,1.21-3.84,1.81-.81.37-1.61.75-2.42,1.11-2.26,1.04-4.52,2.05-6.8,3.05-1.18.53-2.36,1.05-3.56,1.56,8.84-3.3,24.12-10.22,33.35-14.47,7.02-3.24,13.74-7.07,20.09-11.46,9.09-6.3,19.4-14.51,28.38-23.69,10.53-10.76,22.88-26.69,21.91-41.4-.29-4.56-2.2-8.39-4.83-11.57-4.32-5.22-10.61-8.66-15.02-10.6-8.58-3.8-25.02-7.02-47.97-9.39-4.74-.49-9.75-.94-15.03-1.36-20.96-1.63-45.12-3.82-66.89-9.1-18.34-4.46-32.11-10.42-41.61-18.08,16.22,15.59,37.69,23.73,63.21,26.1"/>
    </clipPath>
    <linearGradient id="linear-gradient-5" x1="-315.33" y1="1266.23" x2="-314.33" y2="1266.23" gradientTransform="translate(51816.98 206999.43) scale(163.28 -163.28)" xlink:href="#linear-gradient"/>
    <clipPath id="clippath-5">
      <path class="cls-39" d="m465.29,221.53c15.86,12.03,7.79,31.88-.11,42.38-17.36,23.07-50.04,46.02-85.33,61.78,8.77-3.84,17.42-7.93,25.88-12.39,17.69-9.35,35.21-20.33,49.35-34.63,10.26-10.39,21.89-25.49,20.92-40.89-.44-7.08-3.84-13.92-9.76-17.99-5.38-3.69-12.03-5.18-18.44-5.74,7.71,1.77,13.4,4.36,17.49,7.48"/>
    </clipPath>
    <linearGradient id="linear-gradient-6" x1="-315.58" y1="1270.01" x2="-314.58" y2="1270.01" gradientTransform="translate(36257.29 144700.85) scale(113.72 -113.72)" xlink:href="#linear-gradient"/>
    <clipPath id="clippath-6">
      <path class="cls-39" d="m454.22,258.41c-3.01,4.49-6.21,8.46-11.45,10.45-4.38,1.65-9.23,1.9-13.83,1.17-2.47-.4-5.1-.97-7.8-1.61.5.16,8.43,2.45,15.03,4.35,5.54,1.59,11.51-.05,15.42-4.28,0-.02.02-.04.03-.04,7.42-8.45,12.3-16.02,14.68-22.75-4.7,3.52-8.8,7.83-12.08,12.71"/>
    </clipPath>
    <linearGradient id="linear-gradient-7" x1="-310.24" y1="1276.81" x2="-309.24" y2="1276.81" gradientTransform="translate(15652.02 62949.71) scale(49.1 -49.1)" xlink:href="#linear-gradient"/>
    <clipPath id="clippath-7">
      <path class="cls-39" d="m450.38,240.83c-1.07.61-2.05,1.35-2.99,2.13l-12.45,10.26c-.79.65-1.53,1.35-2.27,2.05-5.55,5.21-12.7,8.4-21.86,9-5.27.53-11.07-.15-17.26-1.74,4.33,1.11,9.1,2.27,14.52,3.59.05.01.09.02.14.03,8.6,2.07,17.74.25,24.8-5.09,2.04-1.55,3.93-3.2,5.69-4.92,8.74-8.52,14.75-17.86,23.25-16.64-1.46-.54-2.9-.79-4.31-.79-2.47,0-4.88.77-7.25,2.12"/>
    </clipPath>
    <linearGradient id="linear-gradient-8" x1="-313.21" y1="1273.05" x2="-312.21" y2="1273.05" gradientTransform="translate(22886.78 91682.77) scale(71.82 -71.82)" xlink:href="#linear-gradient"/>
    <clipPath id="clippath-8">
      <path class="cls-39" d="m431.51,241.27c-7.08,4.01-15.57,7.54-25.14,10.69-11.51,3.8-23.87,4.63-35.66,1.8-4.42-1.06-8.52-2.56-12.28-4.54.83.47,5.54,3.07,8.51,4.43,1.18.54,2.35,1.05,3.53,1.53,14.68,6.11,31.39,5.3,45.37-2.28.08-.04.15-.09.23-.13,13-7.06,23.13-15.41,32.36-12.77-1.71-.77-3.51-1.23-5.39-1.41-.55-.05-1.1-.08-1.65-.08-3.45,0-6.85,1.03-9.88,2.75"/>
    </clipPath>
    <linearGradient id="linear-gradient-9" x1="-314.49" y1="1271.4" x2="-313.49" y2="1271.4" gradientTransform="translate(28592.17 114384.42) scale(89.77 -89.77)" xlink:href="#linear-gradient"/>
    <clipPath id="clippath-9">
      <path class="cls-39" d="m333.44,229.97c16,14.39,38.25,19.68,59.06,14.17.24-.07.49-.12.73-.19,17.65-4.74,32.76-11.2,43.14-8.34-12.76-4.19-24.18-1.55-35.44,2.62-4.01,1.49-8.16,2.63-12.41,3.22-9.94,1.38-19.54,1.47-28.75.1-5.12-1.26-9.32-2.72-12.49-3.96-7.73-3.03-11.24-5.56-13.17-7.1-.48-.39-.85-.71-1.1-.92.14.13.27.26.43.39"/>
    </clipPath>
    <linearGradient id="linear-gradient-10" x1="-314.99" y1="1270.71" x2="-313.99" y2="1270.71" gradientTransform="translate(31644.14 126538.22) scale(99.39 -99.39)" xlink:href="#linear-gradient"/>
    <clipPath id="clippath-10">
      <path class="cls-39" d="m356.3,229.51c5.4.08,10.75-.11,15.94-.5,20.9-1.57,39.61-5.4,51.44-1.28-15.66-7.09-31.38-4.9-46.6-2.72-7.67,1.1-15.21,2.2-22.55,2.11-17.66-1.05-31.68-6.84-42.36-16.99,11.56,12.05,27.43,19.12,44.13,19.38"/>
    </clipPath>
    <linearGradient id="linear-gradient-11" x1="-315.23" y1="1270.47" x2="-314.23" y2="1270.47" gradientTransform="translate(33331.73 133285.17) scale(104.74 -104.74)" xlink:href="#linear-gradient"/>
    <clipPath id="clippath-11">
      <path class="cls-39" d="m427.14,307.67c-.26.12-.53.25-.81.38-.06.03-.13.06-.18.09-2.09,1.07-4.21,2.12-6.38,3.15,0,.01-.02.02-.03.02-.29.16-.57.33-.85.49,1.66-.84,3.66-1.29,5.43-1.88,1.95-.65,3.91-1.28,5.88-1.87,6.6-2.02,13.29-3.77,20.03-5.22,6.97-1.49,14.04-2.75,21.13-3.4,7-.65,14.12-.89,21.11.04,3.31.44,6.66,1.05,9.75,2.32.38.15,5.38,2.68,5.51,2.46-11.08-5.79-22.36-8.46-34.04-8.46-14.76,0-30.15,4.27-46.55,11.89"/>
    </clipPath>
    <linearGradient id="linear-gradient-12" x1="-314.41" y1="1271.53" x2="-313.41" y2="1271.53" gradientTransform="translate(28171.75 112545.53) scale(88.27 -88.27)" xlink:href="#linear-gradient"/>
    <clipPath id="clippath-12">
      <path class="cls-39" d="m551.99,227.71c-1.68,2.05-6.68,4.5-9.52,5.45-22.39,10.55-49.62,27.58-63.64,49.29,16.55-18.36,36.84-34.04,63.13-45.61,2.32-1.02,4.74-1.78,7.25-2.15,5.22-.78,9.05.21,11.5,2.96.11.06.24.14.35.21.08-3.82-.97-7.23-3.62-8.96-1.18-.77-2.67-1.21-4.52-1.21-.3,0-.61.01-.93.04"/>
    </clipPath>
    <linearGradient id="linear-gradient-13" x1="-315.79" y1="1267.36" x2="-314.79" y2="1267.36" gradientTransform="translate(52001.29 207188.45) scale(163.28 -163.28)" xlink:href="#linear-gradient"/>
    <clipPath id="clippath-13">
      <path class="cls-39" d="m525.83,229.72c-9.25,4.57-3.84,9.73,12.39,3.19-2.85.32-7.49.57-8.72-2.99-.66-.16-1.62-.25-2.54-.25-.4,0-.79.02-1.14.05"/>
    </clipPath>
    <linearGradient id="linear-gradient-14" x1="-303.41" y1="1270.41" x2="-302.41" y2="1270.41" gradientTransform="translate(13643.04 55308.24) scale(43.35 -43.35)" xlink:href="#linear-gradient"/>
    <clipPath id="clippath-14">
      <path class="cls-39" d="m495.92,234c5.58-3.92,40.57-12.5,44.98-2.48-2.21-5.91-9.29-7.88-19.87-7.03-11.49.81-22.94,1.66-26.67-2.46,1.59,3.71,2.11,8.21,1.57,11.97"/>
    </clipPath>
    <linearGradient id="linear-gradient-15" x1="-310.85" y1="1275.58" x2="-309.85" y2="1275.58" gradientTransform="translate(17178.9 68728.98) scale(53.7 -53.7)" xlink:href="#linear-gradient"/>
    <clipPath id="clippath-15">
      <path class="cls-39" d="m519.55,221.47l-1.21.28c-10.86,2.4-19.25,2.82-23.99.28,3.73,4.12,15.18,3.28,26.67,2.46,10.58-.85,17.66,1.11,19.87,7.03,1-.31,1.76-.59,4.82-2.03,1.41-.66,3.14-1.83,4.38-3.34-.08-.14-.15-.28-.24-.42-.61-1.03-1.29-1.93-2.03-2.7-.24-.26-.5-.5-.77-.73-.12-.09-.21-.19-.32-.27-.2-.16-.39-.31-.6-.44-.18-.14-.39-.28-.59-.4-.2-.13-.42-.26-.63-.37-.17-.1-.34-.19-.52-.28-.04-.01-.06-.03-.1-.04-.08-.04-.17-.08-.25-.12-.06-.03-.12-.06-.18-.08-.19-.1-.41-.18-.61-.26-.2-.08-.4-.15-.61-.21-.2-.07-.41-.14-.62-.2-2-.62-4.25-.91-6.73-.91-4.56,0-9.88.99-15.78,2.77"/>
    </clipPath>
    <linearGradient id="linear-gradient-16" x1="-313.69" y1="1272.35" x2="-312.69" y2="1272.35" gradientTransform="translate(24988.55 99636.94) scale(78.13 -78.13)" xlink:href="#linear-gradient"/>
    <clipPath id="clippath-16">
      <path class="cls-39" d="m549.88,225.72c-.58-1.02-1.25-1.92-2.03-2.7.73.77,1.41,1.67,2.03,2.7"/>
    </clipPath>
    <linearGradient id="linear-gradient-17" x1="-315.33" y1="1266.38" x2="-314.33" y2="1266.38" gradientTransform="translate(51847.79 206997.6) scale(163.28 -163.28)" xlink:href="#linear-gradient"/>
    <clipPath id="clippath-17">
      <path class="cls-39" d="m397.4,200.3c.44.04.9.07,1.36.11,1.06.09,2.18.18,3.35.29l2.7.23c17.5,1.57,43.74,4.67,56.59,10.38,7.7,3.39,14.71,8.31,18.58,14.87,3.48,5.91,3.73,12.98,2.14,19.52-.92,3.77-2.43,7.36-4.2,10.8-2.22,4.27-4.92,8.28-7.85,12.08-3.15,4.07-6.59,7.91-10.21,11.58-3.68,3.74-7.55,7.29-11.55,10.7-3.85,3.28-7.83,6.41-11.9,9.41-3.67,2.7-7.42,5.29-11.26,7.74-1.76,1.11-3.52,2.32-5.37,3.27,2.17-1.04,4.29-2.08,6.38-3.15.06-.02.13-.05.18-.08.27-.13.54-.25.8-.38,7.16-3.41,14.47-8.2,14.47-8.2,4.82-3.08,10.21-6.6,16.23-12.21.02,0,13.86-12.49,21.73-28.92,2.86-5.97,4.6-12.45,4.63-19.08.03-6.22-1.5-12.45-4.73-17.83-.93-1.55-2.25-3.47-4.08-5.47.03-.01-2.83-3.13-6.96-5.98-.8-.55-1.63-1.1-1.63-1.1-.53-.33-1.37-.87-2.42-1.45-1.89-1.07-3.47-1.79-4.11-2.09-2.92-1.3-5.3-2.02-6.33-2.31-1.22-.34-2.34-.61-2.73-.7-1.31-.3-2.29-.48-2.69-.55-4.61-.86-6.4-1.35-11.49-2.22-2.25-.38-3.92-.64-5.36-.85-4.12-.62-5.7-.77-14.86-1.91-4.42-.54-4.81-.61-7.3-.9-1.65-.2-4.39-.52-8.04-.92-4.72-.51-8.36-.86-17.15-1.7-5.02-.48-7.53-.69-11.56-1.1-16.78-1.67-33.53-3.84-49.8-8.51-15.03-4.31-30.06-10.47-42.12-20.66,17.7,28.71,77.19,34.23,116.56,37.29"/>
    </clipPath>
    <linearGradient id="linear-gradient-18" x1="-317.1" y1="1268.09" x2="-316.1" y2="1268.09" gradientTransform="translate(58044.6 231158.52) scale(182.1 -182.1)" xlink:href="#linear-gradient"/>
    <clipPath id="clippath-18">
      <path class="cls-39" d="m301.44,194.83c16.23,7.5,34.7,11.14,52.05,12.85,22.64,2.26,43.67,2.02,56.95,7.21-17.88-8.23-37.77-11.52-58.56-12.65-25.52-2.37-47-10.52-63.21-26.1,3.61,5.72,7.85,12.02,12.78,18.69"/>
    </clipPath>
    <linearGradient id="linear-gradient-19" x1="-315.44" y1="1270.22" x2="-314.44" y2="1270.22" gradientTransform="translate(34995.43 139929.78) scale(110.01 -110.01)" xlink:href="#linear-gradient"/>
    <clipPath id="clippath-19">
      <rect class="cls-39" width="841.89" height="595.28"/>
    </clipPath>
    <clipPath id="clippath-20">
      <rect class="cls-39" x="288.67" y="176.14" width="121.77" height="38.75"/>
    </clipPath>
    <clipPath id="clippath-21">
      <path class="cls-36" d="m410.44,214.89c-13.28-5.19-34.31-4.95-56.95-7.21-17.35-1.71-35.82-5.35-52.05-12.85-4.93-6.66-9.17-12.97-12.78-18.69,16.21,15.59,37.69,23.73,63.21,26.1,20.79,1.13,40.68,4.42,58.56,12.65"/>
    </clipPath>
    <linearGradient id="linear-gradient-20" x1="-315.44" y1="1270.22" x2="-314.44" y2="1270.22" gradientTransform="translate(34995.43 139929.78) scale(110.01 -110.01)" xlink:href="#linear-gradient"/>
    <clipPath id="clippath-22">
      <rect class="cls-39" x="312.17" y="210.13" width="111.51" height="19.4"/>
    </clipPath>
    <clipPath id="clippath-23">
      <path class="cls-36" d="m423.68,227.73c-11.83-4.12-30.54-.29-51.44,1.28-5.19.39-10.53.58-15.94.5-16.7-.26-32.57-7.33-44.13-19.38,10.68,10.15,24.7,15.94,42.36,16.99,21.93.25,45.61-10.05,69.15.61"/>
    </clipPath>
    <linearGradient id="linear-gradient-21" x1="-315.23" y1="1270.47" x2="-314.23" y2="1270.47" gradientTransform="translate(33331.74 133285.16) scale(104.74 -104.74)" xlink:href="#linear-gradient"/>
    <clipPath id="clippath-24">
      <rect class="cls-39" x="333.01" y="229.58" width="103.37" height="16.7"/>
    </clipPath>
    <clipPath id="clippath-25">
      <path class="cls-36" d="m436.37,235.62c-10.38-2.86-25.49,3.6-43.14,8.34-.24.07-.49.12-.73.19-20.81,5.5-43.06.21-59.06-14.17-.16-.14-.3-.26-.43-.39.25.21.63.53,1.1.92,1.92,1.55,5.44,4.07,13.17,7.1,3.17,1.24,7.37,2.7,12.49,3.96,9.21,1.37,18.81,1.28,28.75-.1,4.25-.59,8.4-1.73,12.41-3.22,11.25-4.18,22.68-6.81,35.44-2.62"/>
    </clipPath>
    <linearGradient id="linear-gradient-22" x1="-314.99" y1="1270.71" x2="-313.99" y2="1270.71" gradientTransform="translate(31644.14 126538.22) scale(99.39 -99.39)" xlink:href="#linear-gradient"/>
    <clipPath id="clippath-26">
      <rect class="cls-39" x="358.43" y="238.53" width="89.99" height="20.72"/>
    </clipPath>
    <clipPath id="clippath-27">
      <path class="cls-36" d="m448.43,240.01c-9.23-2.64-19.36,5.7-32.36,12.77-.08.04-.15.09-.23.13-13.98,7.58-30.69,8.39-45.37,2.28-1.17-.48-2.35-1-3.52-1.54-2.97-1.36-7.69-3.96-8.51-4.43,3.76,1.99,7.86,3.48,12.28,4.54,11.79,2.83,24.15,1.99,35.66-1.8,9.57-3.14,18.06-6.68,25.14-10.69,3.51-1.99,7.51-3.06,11.53-2.67,1.88.18,3.67.64,5.39,1.41"/>
    </clipPath>
    <linearGradient id="linear-gradient-23" x1="-314.49" y1="1271.4" x2="-313.49" y2="1271.4" gradientTransform="translate(28592.17 114384.42) scale(89.77 -89.77)" xlink:href="#linear-gradient"/>
    <clipPath id="clippath-28">
      <rect class="cls-39" x="393.54" y="238.71" width="68.4" height="28.28"/>
    </clipPath>
    <clipPath id="clippath-29">
      <path class="cls-36" d="m461.94,239.5c-8.51-1.22-14.51,8.12-23.25,16.64-1.76,1.72-3.64,3.38-5.69,4.92-7.05,5.34-16.19,7.16-24.8,5.09-.05-.01-.09-.02-.14-.03-5.42-1.31-10.19-2.48-14.52-3.59,6.19,1.59,11.99,2.27,17.26,1.73,9.16-.6,16.31-3.79,21.86-9,.74-.7,1.49-1.4,2.27-2.05l12.45-10.26c.94-.77,1.93-1.52,2.99-2.13,3.72-2.14,7.56-2.81,11.57-1.33"/>
    </clipPath>
    <linearGradient id="linear-gradient-24" x1="-313.21" y1="1273.05" x2="-312.21" y2="1273.05" gradientTransform="translate(22886.72 91682.77) scale(71.82 -71.82)" xlink:href="#linear-gradient"/>
    <clipPath id="clippath-30">
      <rect class="cls-39" x="421.14" y="245.7" width="45.16" height="27.67"/>
    </clipPath>
    <clipPath id="clippath-31">
      <path class="cls-36" d="m466.3,245.7c-2.38,6.73-7.26,14.3-14.68,22.75-.01,0-.03.02-.03.04-3.91,4.23-9.88,5.87-15.42,4.28-6.6-1.9-14.53-4.19-15.03-4.35,2.69.64,5.33,1.21,7.8,1.61,4.6.73,9.45.49,13.83-1.17,5.24-1.99,8.44-5.96,11.45-10.45,3.28-4.88,7.38-9.19,12.08-12.71"/>
    </clipPath>
    <linearGradient id="linear-gradient-25" x1="-310.24" y1="1276.81" x2="-309.24" y2="1276.81" gradientTransform="translate(15652.01 62949.71) scale(49.1 -49.1)" xlink:href="#linear-gradient"/>
    <clipPath id="clippath-32">
      <rect class="cls-39" x="379.84" y="214.05" width="96.2" height="111.64"/>
    </clipPath>
    <clipPath id="clippath-33">
      <path class="cls-36" d="m475.99,237.78c.97,15.4-10.66,30.5-20.92,40.89-14.14,14.3-31.66,25.27-49.35,34.63-8.46,4.46-17.11,8.55-25.88,12.39,35.29-15.76,67.97-38.71,85.33-61.78,7.9-10.5,15.98-30.35.11-42.38-4.09-3.11-9.78-5.71-17.49-7.48,6.41.56,13.05,2.06,18.44,5.74,5.91,4.06,9.31,10.9,9.76,17.99"/>
    </clipPath>
    <linearGradient id="linear-gradient-26" x1="-315.58" y1="1270.01" x2="-314.58" y2="1270.01" gradientTransform="translate(36257.27 144700.85) scale(113.72 -113.72)" xlink:href="#linear-gradient"/>
    <clipPath id="clippath-34">
      <rect class="cls-39" x="418.89" y="295.78" width="88.84" height="16.01"/>
    </clipPath>
    <clipPath id="clippath-35">
      <path class="cls-36" d="m507.73,304.24c-.13.21-5.13-2.32-5.51-2.46-3.09-1.27-6.44-1.88-9.75-2.32-6.99-.93-14.11-.7-21.11-.04-7.1.65-14.16,1.91-21.13,3.4-6.74,1.45-13.43,3.2-20.03,5.22-1.97.59-3.93,1.22-5.88,1.87-1.77.59-3.77,1.04-5.43,1.88.27-.16.56-.32.85-.49.01,0,.02,0,.03-.02,2.17-1.04,4.3-2.08,6.38-3.15.06-.02.13-.05.18-.09.27-.13.54-.25.8-.38,29.39-13.65,55.51-16.54,80.59-3.43"/>
    </clipPath>
    <linearGradient id="linear-gradient-27" x1="-314.41" y1="1271.56" x2="-313.41" y2="1271.56" gradientTransform="translate(28171.21 112545.48) scale(88.27 -88.27)" xlink:href="#linear-gradient"/>
    <clipPath id="clippath-36">
      <path class="cls-39" d="m322.95,183.67c16.28,4.67,33.02,6.83,49.8,8.51,3.85.38,7.71.74,11.56,1.1,10.85.99,21.69,2.12,32.5,3.52,8.23,1.07,16.63,1.9,24.75,3.64,3.98.85,8.02,1.39,11.94,2.47,6.65,1.83,12.91,5.18,18.21,9.58,7.36,6.11,11.69,14.29,12.38,23.87.73,10.24-2.63,19.63-7.95,28.24-5.11,8.28-11.56,15.7-18.32,22.66-8.24,7.72-19.17,14.49-31.51,20.79,29.71-13.98,56.09-17.04,81.4-3.8.23-.36-2.99-2.44-3.27-2.62-1.67-1.12-3.38-2.15-5.18-3.05-4.74-2.37-9.92-3.88-15.12-4.86-6.87-1.3-13.88-1.62-20.85-1.53-1.53.02-4.43.1-4.43.1,0,0,7.1-7.08,10.1-10.74,3.27-4,6.27-8.25,8.98-12.64,6.31-10.26,11.62-21.65,11.6-33.92,0-1.13-.06-2.27-.16-3.39-1.06-11.42-7.98-21.25-16.86-28.14-10.42-8.07-23.22-12.27-36.12-14.21-11.32-1.71-22.84-1.79-34.26-1.26-9.7.42-19.43.12-29.08-.84-20.8-2.04-40.84-7.81-60.7-14.11-10.52-3.34-21.03-6.68-31.55-10.01,12.06,10.19,27.09,16.35,42.12,20.66"/>
    </clipPath>
    <linearGradient id="linear-gradient-28" x1="-315.01" y1="1266.48" x2="-314.01" y2="1266.48" gradientTransform="translate(48263.13 192937.24) scale(152.16 -152.16)" xlink:href="#linear-gradient"/>
    <clipPath id="clippath-37">
      <rect class="cls-39" width="841.89" height="595.28"/>
    </clipPath>
    <clipPath id="clippath-38">
      <rect class="cls-39" x="-861.89" width="841.89" height="595.28"/>
    </clipPath>
    <clipPath id="clippath-39">
      <rect class="cls-39" x="-512.03" y="132.07" width="906.31" height="508.58"/>
    </clipPath>
    <clipPath id="clippath-40">
      <rect class="cls-39" x="-27.7" y="172.69" width="394.85" height="103.88"/>
    </clipPath>
    <clipPath id="clippath-41">
      <rect class="cls-39" x="-72.03" y="277.33" width="358.66" height="54.8"/>
    </clipPath>
    <clipPath id="clippath-42">
      <rect class="cls-39" x="-113.82" y="333.71" width="330.81" height="48.86"/>
    </clipPath>
    <clipPath id="clippath-43">
      <rect class="cls-39" x="-152.99" y="346.9" width="285.66" height="74.62"/>
    </clipPath>
    <clipPath id="clippath-44">
      <rect class="cls-39" x="-196.04" y="344.87" width="214.51" height="97.29"/>
    </clipPath>
    <clipPath id="clippath-45">
      <rect class="cls-39" x="-241.17" y="267.83" width="293.11" height="367.26"/>
    </clipPath>
  </defs>
  <g class="cls-26">
    <g id="Layer_2" data-name="Layer 2">
      <g id="Layer_1-2" data-name="Layer 1">
        <g>
          <polygon class="cls-68" points="335 346.04 309.01 346.04 309.01 385.96 318.74 385.96 318.74 371.21 314.65 369.81 330.91 369.81 330.91 362.25 318.74 362.25 318.74 355.23 314.65 353.84 335 353.84 335 346.04"/>
          <path class="cls-68" d="m363.2,346.04h-11.26l-14.44,39.91h10.18l2.38-7.04h14.91l2.38,7.04h10.3l-14.44-39.91Zm-10.57,25.36l4.89-14.61,4.95,14.61h-9.83Z"/>
          <polygon class="cls-68" points="387.66 378.45 391.75 377.06 391.75 346.04 382.02 346.04 382.02 385.96 404.48 385.96 404.48 378.45 387.66 378.45"/>
          <g>
            <path class="cls-68" d="m432.44,376.12c-1.47.87-3.12,1.31-4.98,1.31-3,0-5.42-1.05-7.28-3.13-1.86-2.08-2.78-4.88-2.78-8.36s.92-6.27,2.78-8.37c1.86-2.08,4.28-3.12,7.28-3.12,1.86,0,3.51.43,4.98,1.3,1.46.87,2.59,2.15,3.38,3.81h10.7c-1.14-4.32-3.4-7.73-6.78-10.24-3.37-2.49-7.42-3.75-12.17-3.75-3.87,0-7.33.86-10.38,2.59-3.05,1.73-5.43,4.13-7.13,7.22-1.7,3.09-2.56,6.61-2.56,10.55s.85,7.44,2.56,10.51c1.7,3.08,4.09,5.47,7.13,7.2,3.05,1.73,6.51,2.59,10.38,2.59,4.74,0,8.8-1.24,12.17-3.73,3.38-2.47,5.64-5.88,6.78-10.21h-10.7c-.79,1.67-1.92,2.94-3.38,3.81"/>
            <path class="cls-68" d="m489.06,355.36c-1.8-3.1-4.26-5.53-7.39-7.28-3.12-1.74-6.56-2.61-10.32-2.61s-7.2.87-10.32,2.61c-3.13,1.74-5.62,4.18-7.45,7.28-1.84,3.11-2.75,6.62-2.75,10.52s.91,7.42,2.75,10.55c1.84,3.12,4.32,5.56,7.45,7.3,3.12,1.74,6.57,2.62,10.32,2.62s7.19-.87,10.3-2.62c3.1-1.74,5.56-4.18,7.39-7.3,1.82-3.13,2.73-6.64,2.73-10.55s-.9-7.41-2.71-10.52m-10.06,18.94c-1.91,2.12-4.47,3.18-7.65,3.18s-5.79-1.05-7.7-3.15c-1.92-2.1-2.88-4.92-2.88-8.45s.95-6.38,2.88-8.47c1.91-2.08,4.48-3.13,7.7-3.13s5.74,1.06,7.65,3.16c1.92,2.1,2.87,4.92,2.87,8.44s-.95,6.29-2.87,8.42"/>
            <polygon class="cls-68" points="523.16 346.04 523.16 370.78 506.9 346.04 497.17 346.04 497.17 385.96 506.9 385.96 506.9 361.34 523.16 385.96 532.88 385.96 532.88 346.04 523.16 346.04"/>
            <polygon class="cls-68" points="362.67 421.43 364.15 420.93 364.15 400.01 361.81 400.01 361.81 423.33 372.52 423.33 372.52 421.43 362.67 421.43"/>
            <path class="cls-68" d="m391.82,409.27c-.79-1.41-1.88-2.5-3.27-3.27-1.39-.76-2.94-1.14-4.65-1.14s-3.26.38-4.63,1.14c-1.38.77-2.47,1.86-3.27,3.27-.8,1.42-1.2,3.07-1.2,4.96s.39,3.53,1.18,4.95c.79,1.41,1.87,2.5,3.23,3.27,1.37.76,2.91,1.15,4.62,1.15s3.26-.38,4.67-1.15c1.4-.77,2.5-1.86,3.3-3.29.8-1.43,1.2-3.07,1.2-4.93s-.39-3.54-1.18-4.96m-2.17,9.01c-.63,1.1-1.46,1.92-2.48,2.46-1.03.54-2.13.82-3.33.82s-2.31-.27-3.32-.82c-1.01-.54-1.82-1.36-2.43-2.46-.61-1.11-.92-2.45-.92-4.05s.31-2.95.92-4.06c.62-1.1,1.43-1.92,2.45-2.46,1.03-.54,2.13-.82,3.33-.82s2.32.27,3.33.82c1.03.54,1.85,1.36,2.47,2.46.63,1.11.94,2.45.94,4.06s-.32,2.94-.95,4.05"/>
            <path class="cls-68" d="m412.11,405.12v3.97c-.55-1.22-1.46-2.24-2.73-3.03-1.26-.8-2.75-1.2-4.47-1.2s-3.16.38-4.49,1.15c-1.32.77-2.35,1.86-3.1,3.27-.75,1.42-1.12,3.05-1.12,4.92s.37,3.52,1.12,4.93c.74,1.43,1.78,2.53,3.1,3.31,1.33.77,2.82,1.16,4.49,1.16s3.2-.4,4.45-1.22c1.25-.81,2.17-1.83,2.75-3.08v4.5c0,1.33-.26,2.49-.8,3.47-.54.98-1.27,1.72-2.2,2.22-.94.5-1.99.75-3.17.75-1.63,0-3-.38-4.12-1.14-1.12-.75-1.88-1.77-2.28-3.03h-2.3c.37,1.91,1.34,3.42,2.88,4.53,1.54,1.12,3.49,1.67,5.82,1.67,1.64,0,3.11-.35,4.4-1.05,1.28-.7,2.29-1.69,3.02-2.98.72-1.29,1.08-2.77,1.08-4.44v-18.68h-2.33Zm-.9,12.97c-.6,1.12-1.42,1.97-2.45,2.57-1.04.6-2.17.9-3.42.9s-2.45-.29-3.47-.88c-1.03-.59-1.83-1.44-2.42-2.57-.59-1.12-.89-2.43-.89-3.91s.3-2.82.89-3.92c.59-1.1,1.39-1.93,2.42-2.52,1.02-.57,2.18-.86,3.47-.86s2.38.3,3.42.9c1.04.6,1.85,1.45,2.45,2.57.6,1.11.9,2.4.9,3.87s-.3,2.75-.9,3.86"/>
            <path class="cls-68" d="m419.78,423.33h2.33v-18.21h-2.33v18.21Zm2.36-24.6c-.33-.32-.73-.48-1.2-.48s-.86.16-1.2.48c-.34.33-.5.73-.5,1.22s.16.9.5,1.24.74.5,1.2.5.87-.16,1.2-.5c.34-.34.5-.74.5-1.24s-.16-.89-.5-1.22"/>
            <path class="cls-68" d="m439.16,415.92c-.55-.64-1.23-1.13-2.01-1.47-.77-.33-1.82-.67-3.13-1.04-1.09-.31-1.95-.59-2.6-.85-.64-.25-1.18-.62-1.62-1.07-.44-.46-.65-1.04-.65-1.74,0-.83.37-1.52,1.1-2.07.73-.55,1.69-.84,2.87-.84,1.33,0,2.39.33,3.15.98.77.66,1.19,1.52,1.25,2.59h2.33c-.09-1.74-.73-3.1-1.93-4.09-1.2-.99-2.78-1.48-4.73-1.48-1.25,0-2.36.22-3.34.66-.97.45-1.73,1.04-2.26,1.81-.54.75-.8,1.57-.8,2.46,0,1.18.29,2.12.88,2.82.59.71,1.31,1.24,2.15,1.59.84.35,1.94.71,3.3,1.06,1.04.27,1.87.52,2.49.75.61.24,1.12.55,1.52.95.4.4.6.91.6,1.54,0,.88-.36,1.63-1.08,2.24-.73.6-1.73.9-2.99.9-1.44,0-2.6-.32-3.45-.95-.85-.63-1.34-1.46-1.45-2.49h-2.4c.15,1.67.89,2.99,2.22,3.96,1.33.96,3.03,1.44,5.12,1.44,1.24,0,2.34-.22,3.3-.66.95-.44,1.7-1.05,2.24-1.82.54-.77.8-1.64.8-2.62-.02-1.07-.31-1.93-.86-2.57"/>
            <path class="cls-68" d="m452.46,407.09v-1.97h-5.01v-4.57h-2.37v4.57h-2.54v1.97h2.54v11.31c0,1.75.4,3.02,1.21,3.78.8.77,2.02,1.15,3.66,1.15h2.51v-2h-2.14c-1.07,0-1.82-.22-2.23-.64s-.64-1.19-.64-2.3v-10.81l-1.47-.5h6.48Z"/>
            <path class="cls-68" d="m456.3,423.33h2.33v-18.21h-2.33v18.21Zm2.37-24.6c-.34-.32-.74-.48-1.21-.48s-.86.16-1.2.48c-.33.33-.5.73-.5,1.22s.17.9.5,1.24c.34.34.74.5,1.2.5s.87-.16,1.21-.5c.33-.34.5-.74.5-1.24s-.17-.89-.5-1.22"/>
            <path class="cls-68" d="m475.55,420.51c-1.03.75-2.32,1.12-3.85,1.12-1.22,0-2.32-.28-3.3-.83-.98-.55-1.75-1.39-2.32-2.51-.57-1.11-.85-2.46-.85-4.06s.28-2.95.85-4.06c.56-1.1,1.33-1.93,2.32-2.48.98-.55,2.08-.84,3.3-.84,1.54,0,2.83.37,3.85,1.12,1.03.74,1.71,1.77,2.02,3.09h2.51c-.43-1.92-1.36-3.43-2.82-4.54-1.46-1.11-3.31-1.66-5.56-1.66-1.71,0-3.23.38-4.57,1.14-1.33.77-2.38,1.86-3.13,3.27-.75,1.42-1.14,3.07-1.14,4.96s.38,3.53,1.14,4.95c.75,1.41,1.8,2.5,3.13,3.27,1.33.76,2.86,1.14,4.57,1.14,2.23,0,4.07-.56,5.54-1.7,1.46-1.14,2.41-2.63,2.83-4.51h-2.51c-.31,1.34-.98,2.38-2.02,3.12"/>
            <rect class="cls-39" width="841.89" height="595.28"/>
          </g>
          <g class="cls-44">
            <rect class="cls-74" x="474.5" y="225.87" width="90.54" height="65.13" transform="translate(-44.66 122.92) rotate(-12.94)"/>
          </g>
          <g class="cls-45">
            <rect class="cls-53" x="489.61" y="217.16" width="51.14" height="51.58" transform="translate(-17.81 443.82) rotate(-45.9)"/>
          </g>
          <g class="cls-3">
            <rect class="cls-73" x="488.79" y="218.49" width="52.8" height="48.92" transform="translate(-42.62 358.25) rotate(-36.93)"/>
          </g>
          <g class="cls-33">
            <rect class="cls-78" x="547.19" y="222.71" width="3.35" height="3.33" transform="translate(5.76 462.36) rotate(-45.9)"/>
          </g>
          <g class="cls-1">
            <rect class="cls-67" x="263.64" y="130.06" width="242.35" height="243.27" transform="translate(-63.74 352.87) rotate(-45.9)"/>
          </g>
          <g class="cls-23">
            <rect class="cls-61" x="368.63" y="204.13" width="123.73" height="131.49" transform="translate(-49.49 103.23) rotate(-12.94)"/>
          </g>
          <g class="cls-4">
            <rect class="cls-69" x="418.51" y="241.01" width="50.43" height="38.04" transform="translate(-46.95 105.94) rotate(-12.94)"/>
          </g>
          <g class="cls-13">
            <rect class="cls-79" x="391.06" y="231" width="73.36" height="44.49" transform="translate(-45.84 102.19) rotate(-12.94)"/>
          </g>
          <g class="cls-46">
            <rect class="cls-71" x="356.9" y="227.6" width="93.07" height="43.47" transform="translate(-45.58 96.65) rotate(-12.94)"/>
          </g>
          <g class="cls-5">
            <rect class="cls-63" x="332.07" y="218.26" width="105.24" height="42.7" transform="translate(-43.88 92.2) rotate(-12.94)"/>
          </g>
          <g class="cls-19">
            <rect class="cls-62" x="311.41" y="197.89" width="113.03" height="43.93" transform="translate(-39.88 87.95) rotate(-12.94)"/>
          </g>
          <g class="cls-34">
            <rect class="cls-80" x="418.22" y="286.04" width="90.17" height="35.49" transform="translate(-56.25 111.43) rotate(-12.94)"/>
          </g>
          <g class="cls-7">
            <rect class="cls-81" x="470.57" y="209.98" width="98.82" height="90.16" transform="translate(-56 315.69) rotate(-32.14)"/>
          </g>
          <g class="cls-9">
            <rect class="cls-59" x="516.36" y="223.38" width="22.09" height="22.35" transform="translate(-8.07 450.05) rotate(-45.9)"/>
          </g>
          <g class="cls-48">
            <rect class="cls-55" x="493.53" y="216.06" width="48.19" height="23.38" transform="translate(-39.69 131.83) rotate(-13.98)"/>
          </g>
          <g class="cls-31">
            <rect class="cls-64" x="493.63" y="212.49" width="57.21" height="25.24" transform="translate(-37.66 125.5) rotate(-13.23)"/>
          </g>
          <g class="cls-30">
            <rect class="cls-54" x="547.19" y="222.71" width="3.35" height="3.33" transform="translate(5.76 462.36) rotate(-45.9)"/>
          </g>
          <g class="cls-42">
            <rect class="cls-57" x="266.82" y="142.12" width="231.43" height="190.05" transform="translate(-43.38 91.66) rotate(-12.94)"/>
          </g>
          <g class="cls-15">
            <rect class="cls-77" x="285.87" y="163" width="127.36" height="65.03" transform="translate(-34.9 83.22) rotate(-12.94)"/>
          </g>
          <g class="cls-38">
            <g class="cls-2">
              <g class="cls-40">
                <g class="cls-11">
                  <rect class="cls-60" x="285.87" y="163" width="127.36" height="65.03" transform="translate(-34.9 83.22) rotate(-12.94)"/>
                </g>
              </g>
            </g>
            <g class="cls-2">
              <g class="cls-22">
                <g class="cls-41">
                  <rect class="cls-65" x="311.41" y="197.89" width="113.03" height="43.93" transform="translate(-39.88 87.95) rotate(-12.94)"/>
                </g>
              </g>
            </g>
            <g class="cls-50">
              <g class="cls-24">
                <g class="cls-47">
                  <rect class="cls-72" x="332.07" y="218.26" width="105.24" height="42.7" transform="translate(-43.88 92.2) rotate(-12.94)"/>
                </g>
              </g>
            </g>
            <g class="cls-2">
              <g class="cls-25">
                <g class="cls-17">
                  <rect class="cls-76" x="356.9" y="227.6" width="93.07" height="43.47" transform="translate(-45.58 96.65) rotate(-12.94)"/>
                </g>
              </g>
            </g>
            <g class="cls-2">
              <g class="cls-12">
                <g class="cls-35">
                  <rect class="cls-70" x="391.03" y="230.75" width="73.42" height="44.75" transform="translate(-45.81 102.19) rotate(-12.94)"/>
                </g>
              </g>
            </g>
            <g class="cls-2">
              <g class="cls-51">
                <g class="cls-28">
                  <rect class="cls-66" x="418.51" y="241.01" width="50.43" height="38.04" transform="translate(-46.95 105.94) rotate(-12.94)"/>
                </g>
              </g>
            </g>
            <g class="cls-2">
              <g class="cls-8">
                <g class="cls-37">
                  <rect class="cls-82" x="368.63" y="204.13" width="123.73" height="131.49" transform="translate(-49.49 103.23) rotate(-12.94)"/>
                </g>
              </g>
            </g>
            <g class="cls-2">
              <g class="cls-20">
                <g class="cls-21">
                  <rect class="cls-75" x="417.7" y="281.45" width="91.21" height="40.02" transform="translate(-55.73 111.38) rotate(-12.94)"/>
                </g>
              </g>
            </g>
          </g>
          <g class="cls-10">
            <rect class="cls-58" x="263.28" y="103.52" width="262.21" height="264.03" transform="translate(-49.22 354.83) rotate(-45.9)"/>
          </g>
          <g class="cls-18">
            <g class="cls-43">
              <g class="cls-27">
                <g class="cls-49">
                  <path class="cls-56" d="m-235.86,297.25c14.63-15.97,35.27-25.91,49.63-31.37,28.01-10.74,80.98-18.33,154.6-22.17,15.2-.8,31.28-1.42,48.19-1.91,67.13-1.79,144.61-4.86,214.9-18.18,59.24-11.27,104.13-28.04,135.69-50.93-54.27,47.1-124.11,69.6-205.94,73.03-66.51.23-130.53,7.5-188.91,30.84-5.81,1.94-11.15,4.21-16.05,6.89-5.59,3.01-10.57,6.57-14.85,10.75,60.55-19.81,230.97,70.89,345.7-17.31l-.47.42c-35.71,30.65-81.38,46.86-137.91,47.34-70.02-2.75-143.9-39.46-220.75-9.28-6.44,1.86-12.31,4.48-17.52,8.01,57.36-8.57,181.32,90.56,306.54,12.61-.84.63-2.09,1.6-3.67,2.75-6.39,4.62-18.02,12.11-43.18,20.53-10.31,3.44-23.97,7.43-40.5,10.6-29.6,2.87-60.23,1.04-91.73-4.98-13.47-2.57-26.52-6.87-39.08-12.28-35.24-15.15-71.27-25.42-112.66-14.13-2.77.57-5.45,1.41-8.04,2.45,48.08,2.03,137.57,98.75,254.53,53.6-12.31,5.73-25.66,9.84-39.92,12.51-38.08,7.12-77.37,2.43-113.5-11.54-30.02-11.59-56.54-24.23-78.47-38.18-10.88-6.92-23.47-10.98-36.35-10.39-6.03.27-11.83,1.45-17.42,3.62,35.07,8.04,75.54,95.72,171.46,80.77-20.02,4.06-38.64,5.29-55.35,2.73-29.14-3.4-51.43-14.74-68.28-32.26-2.26-2.35-4.51-4.69-6.92-6.91l-38.06-34.75c-2.87-2.63-5.91-5.16-9.21-7.28-11.54-7.42-23.66-10.2-36.68-6.13,27.68,12.45,35.16,103.68,125.54,98.85,0,0-.01.03.02.04-.03,0-.04.02-.07.01-8.7,1.6-17.21,2.98-25.15,3.86-14.79,1.58-30.22.02-43.94-5.96-16.4-7.2-25.96-20.39-34.84-35.19-9.66-16.11-22.07-30.52-36.48-42.52-10.8-36.13-.32-63.72,30.94-83,.21-.11.42-.26.63-.38.76-.48,1.52-.93,2.31-1.4.17-.09.37-.21.58-.32l2.03-1.16c.9-.48,1.83-.94,2.74-1.42.94-.5,1.87-.93,2.81-1.43.96-.46,1.93-.92,2.9-1.37.84-.39,1.67-.74,2.55-1.12,2.43-1.08,4.95-2.11,7.53-3.12.81-.29,1.6-.59,2.42-.92,2.18-.81,4.45-1.59,6.76-2.36-20.54.75-41.98,4.44-59.76,15.33-19.52,12-31.48,33.28-34.05,55.81-5.59,48.99,29.06,99.06,60.11,133.87,42.78,47.93,96.91,85.78,151.84,118.5,9.82,5.85,19.77,11.53,29.81,17.1,3.34,1.85,6.67,3.71,10.03,5.49,3.99,2.14,7.97,4.28,11.97,6.39,2.52,1.31,5.03,2.65,7.54,3.95,7.03,3.67,14.09,7.27,21.19,10.82,3.68,1.88,7.37,3.73,11.09,5.55-27.65-11.96-75.29-36.52-104.05-51.57-21.88-11.47-42.7-24.79-62.24-39.84-27.98-21.59-59.54-49.45-86.7-80.2-31.85-36.05-68.68-88.87-63.19-135.65,1.68-14.49,8.37-26.41,17.29-36.13m57.62,35.88c-5.49,1.19-11.08,1.38-16.58,1.39,40.18,8.76,77.24-10.69,105-36.25,25.39-23.6,55.26-45.68,107.79-48.27-14.93-1.84-52.32-1.94-81.03,1.95-13.11,1.81-24.4,4.42-30.95,8.13-2.77,1.55-4.69,3.3-5.53,5.25-13.79,32.53-38.51,59.27-78.7,67.81"/>
                  <path class="cls-56" d="m-240.57,338.97c-5.59,48.99,29.06,99.06,60.11,133.88,42.78,47.93,96.91,85.78,151.84,118.5,26.26,15.61,53.21,30.07,80.56,43.75-110.04-56.01-210.59-134.56-262.24-210.99-23.5-34.79-46.05-99.43,6.51-135.25,13.56-9.27,32.15-16.63,57.03-21.02-20.54.75-41.98,4.44-59.76,15.33-19.52,12-31.48,33.28-34.05,55.8"/>
                  <path class="cls-56" d="m-196.04,346.74c27.34-2.51,44.99,28.26,71.5,56.88,5.33,5.76,11.08,11.36,17.35,16.62,21.64,18.19,50.51,25.48,78.3,20.28l.44-.08c17.51-3.31,32.92-6.25,46.92-9.09-20.02,4.06-38.64,5.29-55.35,2.73-29.14-3.4-51.44-14.74-68.29-32.26-2.26-2.35-4.51-4.69-6.92-6.9l-38.06-34.75c-2.88-2.63-5.91-5.16-9.21-7.28-11.54-7.42-23.66-10.2-36.68-6.13"/>
                  <path class="cls-56" d="m-152.99,350.57c29.88-6.93,60.84,21.34,101.18,45.99.24.14.47.31.71.45,43.38,26.45,96.55,31.76,144.4,14.65,3.83-1.35,7.65-2.81,11.5-4.32,9.69-3.86,25.17-11.41,27.88-12.76-12.31,5.73-25.66,9.84-39.92,12.51-38.08,7.11-77.37,2.43-113.5-11.55-30.02-11.59-56.54-24.23-78.47-38.18-10.88-6.92-23.47-10.98-36.35-10.39-6.03.27-11.83,1.45-17.42,3.62"/>
                  <path class="cls-56" d="m-113.82,338.51c33.58-7.45,80.74,15.61,136.3,33.61.76.25,1.54.47,2.3.72,65.51,20.93,137.36,7.67,190.76-35.64.53-.4.99-.8,1.45-1.19-.84.63-2.09,1.6-3.67,2.75-6.39,4.62-18.02,12.11-43.18,20.53-10.31,3.44-23.97,7.43-40.5,10.6-29.6,2.87-60.23,1.04-91.73-4.98-13.47-2.57-26.52-6.87-39.08-12.28-35.24-15.15-71.27-25.42-112.66-14.13"/>
                  <path class="cls-56" d="m-72.03,315.39c38.41-11.23,97.49,4.04,163.93,12.43,16.5,2.07,33.52,3.56,50.78,4.18,53.35,1.88,105.1-18.09,143.96-54.67-35.71,30.65-81.38,46.86-137.91,47.34-70.01-2.75-143.9-39.46-220.75-9.28"/>
                  <path class="cls-56" d="m-267.04,342.35c-.97,21.19,3.51,42.13,11.67,61.65,22.45,53.69,64.61,95.79,64.66,95.8,18.28,18.89,34.92,31,49.8,41.6,0,0,22.54,16.46,44.85,28.5.81.44,1.66.89,2.51,1.34.18.12.39.22.58.3,6.49,3.76,13.1,7.44,19.86,11.1-5.74-3.33-11.17-7.49-16.59-11.32-11.84-8.44-23.39-17.29-34.66-26.51-12.51-10.24-24.71-20.87-36.45-31.96-12.22-11.51-24-23.49-35.13-36.01-10.95-12.3-21.31-25.12-30.7-38.62-8.74-12.61-16.68-25.83-23.08-39.83-5.09-11.26-9.32-22.97-11.64-35.15-4.03-21.12-2.06-43.64,10-61.94,13.39-20.32,36.56-34.87,61.69-44.44,41.92-16.12,126.15-21.76,182.25-23.93l8.65-.29c3.73-.16,7.31-.26,10.72-.37,1.47-.04,2.94-.07,4.35-.12,126.12-3.39,316.82-11.34,377.97-100.07-40.14,30.55-89.09,47.77-137.76,59.08-52.69,12.26-106.48,16.45-160.3,19.06-12.92.65-20.97.9-37.08,1.62-28.2,1.25-39.88,1.8-55.02,2.65-11.71.68-20.5,1.24-25.8,1.62-8.02.54-9.28.67-23.45,1.7-29.39,2.13-34.47,2.36-47.72,3.68-4.61.43-9.99.99-17.23,1.83-16.39,1.96-22.19,3.24-37.02,5.22-1.26.16-4.45.58-8.66,1.33-1.24.2-4.88.88-8.82,1.78-3.32.76-11.03,2.68-20.56,6.35-2.11.83-7.26,2.88-13.47,5.99-3.44,1.7-6.22,3.28-7.96,4.25,0,0-2.74,1.61-5.38,3.24-13.62,8.44-23.26,17.92-23.16,17.96-6.18,6.08-10.71,12-13.92,16.79-11.17,16.64-17.07,36.26-17.99,56.12"/>
                  <path class="cls-56" d="m-27.7,276.57c43.21-14.39,110.28-10.22,182.88-13.76,55.64-2.65,115.17-11.26,168.17-32.56,16.81-20.46,31.37-39.89,43.8-57.56-54.27,47.11-124.11,69.6-205.94,73.03-66.51.23-130.53,7.5-188.91,30.84"/>
                  <g class="cls-2">
                    <g class="cls-16">
                      <path class="cls-56" d="m-27.7,276.57c43.21-14.39,110.28-10.22,182.88-13.76,55.64-2.65,115.17-11.26,168.17-32.56,16.81-20.46,31.37-39.89,43.8-57.56-54.27,47.11-124.11,69.6-205.94,73.03-66.51.23-130.53,7.5-188.91,30.84"/>
                    </g>
                  </g>
                  <g class="cls-2">
                    <g class="cls-52">
                      <path class="cls-56" d="m-72.03,315.39c38.41-11.23,97.49,4.04,163.93,12.43,16.5,2.07,33.52,3.56,50.78,4.18,53.35,1.88,105.1-18.09,143.96-54.67-35.71,30.65-81.38,46.86-137.91,47.34-70.01-2.75-143.9-39.46-220.75-9.28"/>
                    </g>
                  </g>
                  <g class="cls-50">
                    <g class="cls-29">
                      <path class="cls-56" d="m-113.82,338.51c33.58-7.45,80.74,15.61,136.3,33.61.76.25,1.54.47,2.3.72,65.51,20.93,137.36,7.67,190.76-35.64.53-.4.99-.8,1.45-1.19-.84.63-2.09,1.6-3.67,2.75-6.39,4.62-18.02,12.11-43.18,20.53-10.31,3.44-23.97,7.43-40.5,10.6-29.6,2.87-60.23,1.04-91.73-4.98-13.47-2.57-26.52-6.87-39.08-12.28-35.24-15.15-71.27-25.42-112.66-14.13"/>
                    </g>
                  </g>
                  <g class="cls-2">
                    <g class="cls-14">
                      <path class="cls-56" d="m-152.99,350.57c29.88-6.93,60.84,21.34,101.18,45.99.24.14.47.31.71.45,43.38,26.45,96.55,31.76,144.4,14.65,3.83-1.35,7.65-2.81,11.5-4.32,9.69-3.86,25.17-11.41,27.88-12.76-12.31,5.73-25.66,9.84-39.92,12.51-38.08,7.11-77.37,2.43-113.5-11.55-30.02-11.59-56.54-24.23-78.47-38.18-10.88-6.92-23.47-10.98-36.35-10.39-6.03.27-11.83,1.45-17.42,3.62"/>
                    </g>
                  </g>
                  <g class="cls-2">
                    <g class="cls-32">
                      <path class="cls-56" d="m-196.04,346.74c27.34-2.51,44.99,28.26,71.5,56.88,5.33,5.76,11.08,11.36,17.35,16.62,21.64,18.19,50.51,25.48,78.3,20.28l.44-.08c17.51-3.31,32.92-6.25,46.92-9.09-20.02,4.06-38.64,5.29-55.35,2.73-29.14-3.4-51.44-14.74-68.29-32.26-2.26-2.35-4.51-4.69-6.92-6.9l-38.06-34.75c-2.88-2.63-5.91-5.16-9.21-7.28-11.54-7.42-23.66-10.2-36.68-6.13"/>
                    </g>
                  </g>
                  <g class="cls-2">
                    <g class="cls-6">
                      <path class="cls-56" d="m-240.57,338.97c-5.59,48.99,29.06,99.06,60.11,133.88,42.78,47.93,96.91,85.78,151.84,118.5,26.26,15.61,53.21,30.07,80.56,43.75-110.04-56.01-210.59-134.56-262.24-210.99-23.5-34.79-46.05-99.43,6.51-135.25,13.56-9.27,32.15-16.63,57.03-21.02-20.54.75-41.98,4.44-59.76,15.33-19.52,12-31.48,33.28-34.05,55.8"/>
                    </g>
                  </g>
                  <path class="cls-56" d="m-352.63,545.89c82.9-38.11,166.56-24.07,259.11,25.35-38.35-22.09-72.12-45.47-97.16-71.44-20.43-23.32-39.8-48.04-54.77-75.28-15.57-28.35-24.76-58.84-20.77-91.4,3.74-30.48,18.88-55.88,43.37-74.17,17.64-13.18,38.14-22.86,59.67-27.61,12.7-2.8,25.68-3.86,38.5-5.94,26.18-4.23,53.14-5.52,79.55-7.59,34.71-2.71,69.48-4.57,104.27-5.97,12.36-.49,24.72-1.02,37.08-1.62,53.82-2.61,107.6-6.8,160.3-19.06,48.67-11.31,97.62-28.53,137.76-59.08-34.11,8.94-68.18,17.89-102.29,26.82-64.38,16.88-129.25,32.05-195.96,35.18-30.98,1.47-62.06.86-92.94-2.05-36.35-3.53-73.12-5.17-109.52-1.54-41.5,4.09-83,15.42-117.57,39.47-29.46,20.52-53.12,50.77-58.37,87.05-.49,3.58-.86,7.2-1.05,10.8-2.07,39.16,13.02,76.37,31.49,110.12,7.94,14.47,16.79,28.51,26.6,41.8,9.01,12.16,30.49,35.91,30.49,35.91,0,0-9.22-.74-14.11-1.05-22.23-1.4-44.64-1.54-66.77,1.51-16.73,2.28-33.52,6.25-49.02,13.06-5.88,2.58-11.54,5.57-17.04,8.88-.92.54-11.53,6.65-10.86,7.85"/>
                </g>
              </g>
            </g>
          </g>
          <rect class="cls-39" width="841.89" height="595.28"/>
        </g>
      </g>
    </g>
  </g>
</svg>