<?xml version="1.0" encoding="UTF-8"?>
<svg xmlns="http://www.w3.org/2000/svg" xmlns:xlink="http://www.w3.org/1999/xlink" viewBox="0 0 480.76 121.17">
  <defs>
    <style>
      .cls-1 {
        clip-path: url(#clippath-4);
      }

      .cls-1, .cls-2, .cls-3, .cls-4, .cls-5, .cls-6, .cls-7, .cls-8, .cls-9, .cls-10, .cls-11, .cls-12, .cls-13, .cls-14, .cls-15, .cls-16, .cls-17 {
        fill: none;
      }

      .cls-2 {
        clip-path: url(#clippath-2);
      }

      .cls-18, .cls-19 {
        fill: #fff;
      }

      .cls-3 {
        clip-path: url(#clippath-6);
      }

      .cls-4 {
        clip-path: url(#clippath-9);
      }

      .cls-5 {
        clip-path: url(#clippath-12);
      }

      .cls-19, .cls-20, .cls-21, .cls-22 {
        fill-rule: evenodd;
      }

      .cls-20 {
        fill: #6bc9f3;
      }

      .cls-21 {
        fill: #f49737;
      }

      .cls-6 {
        clip-path: url(#clippath-7);
      }

      .cls-7 {
        clip-path: url(#clippath-10);
      }

      .cls-22 {
        fill: #5264ac;
      }

      .cls-8 {
        clip-path: url(#clippath-5);
      }

      .cls-9 {
        isolation: isolate;
      }

      .cls-10 {
        clip-path: url(#clippath-3);
      }

      .cls-11 {
        clip-path: url(#clippath-11);
      }

      .cls-13 {
        opacity: .3;
      }

      .cls-13, .cls-17 {
        mix-blend-mode: multiply;
      }

      .cls-14 {
        clip-path: url(#clippath);
      }

      .cls-15 {
        clip-path: url(#clippath-1);
      }

      .cls-16 {
        clip-path: url(#clippath-8);
      }

      .cls-17 {
        opacity: .26;
      }
    </style>
    <clipPath id="clippath">
      <rect class="cls-12" x="162.97" y="45.16" width="11.45" height="4.3"/>
    </clipPath>
    <clipPath id="clippath-1">
      <rect class="cls-12" x="5.31" y="8.89" width="82.52" height="26.26"/>
    </clipPath>
    <clipPath id="clippath-2">
      <rect class="cls-12" x="21.24" y="31.93" width="75.56" height="13.15"/>
    </clipPath>
    <clipPath id="clippath-3">
      <rect class="cls-12" x="35.36" y="45.11" width="70.05" height="11.32"/>
    </clipPath>
    <clipPath id="clippath-4">
      <rect class="cls-12" x="52.59" y="51.17" width="60.98" height="14.04"/>
    </clipPath>
    <clipPath id="clippath-5">
      <rect class="cls-12" x="76.38" y="51.29" width="46.35" height="19.16"/>
    </clipPath>
    <clipPath id="clippath-6">
      <rect class="cls-12" x="95.08" y="56.03" width="30.6" height="18.75"/>
    </clipPath>
    <clipPath id="clippath-7">
      <rect class="cls-12" x="67.1" y="34.58" width="65.19" height="75.65"/>
    </clipPath>
    <clipPath id="clippath-8">
      <rect class="cls-12" x="93.55" y="89.97" width="60.2" height="10.85"/>
    </clipPath>
    <clipPath id="clippath-9">
      <rect class="cls-12" y="0" width="137.81" height="100.48"/>
    </clipPath>
    <clipPath id="clippath-10">
      <rect class="cls-12" x="134.18" y="48.39" width="55.48" height="32.54"/>
    </clipPath>
    <clipPath id="clippath-11">
      <rect class="cls-12" x="144.69" y="39.99" width="31.54" height="8.11"/>
    </clipPath>
    <clipPath id="clippath-12">
      <rect class="cls-12" x="95.08" y="56.03" width="30.6" height="18.75"/>
    </clipPath>
  </defs>
  <g class="cls-9">
    <g id="Layer_2" data-name="Layer 2">
      <g id="Layer_1-2" data-name="Layer 1">
        <g>
          <polygon class="cls-18" points="246 15.43 215.16 15.43 215.16 62.79 226.71 62.79 226.71 45.28 221.85 43.63 241.14 43.63 241.14 34.66 226.71 34.66 226.71 26.33 221.85 24.68 246 24.68 246 15.43"/>
          <path class="cls-18" d="m279.46,15.43h-13.36l-17.14,47.35h12.08l2.83-8.36h17.68l2.83,8.36h12.22l-17.14-47.35Zm-12.54,30.08l5.8-17.33,5.87,17.33h-11.67Z"/>
          <polygon class="cls-18" points="308.47 53.88 313.33 52.23 313.33 15.43 301.78 15.43 301.78 62.79 328.43 62.79 328.43 53.88 308.47 53.88"/>
          <path class="cls-18" d="m361.59,51.12c-1.74,1.04-3.7,1.56-5.91,1.56-3.56,0-6.43-1.24-8.64-3.71-2.2-2.47-3.3-5.79-3.3-9.91s1.1-7.44,3.3-9.93c2.21-2.47,5.08-3.7,8.64-3.7,2.21,0,4.17.51,5.91,1.55,1.73,1.03,3.07,2.54,4.01,4.52h12.69c-1.35-5.13-4.03-9.17-8.04-12.14-3.99-2.96-8.81-4.45-14.43-4.45-4.59,0-8.7,1.02-12.31,3.07-3.62,2.05-6.44,4.9-8.46,8.56-2.02,3.67-3.03,7.84-3.03,12.52s1.01,8.83,3.03,12.47c2.02,3.65,4.85,6.49,8.46,8.54,3.62,2.05,7.72,3.07,12.31,3.07,5.63,0,10.44-1.47,14.43-4.42,4.01-2.94,6.69-6.98,8.04-12.11h-12.69c-.94,1.98-2.28,3.48-4.01,4.52"/>
          <path class="cls-18" d="m428.78,26.49c-2.13-3.68-5.05-6.56-8.77-8.64-3.7-2.06-7.78-3.09-12.24-3.09s-8.54,1.03-12.24,3.09c-3.71,2.07-6.66,4.96-8.84,8.64-2.18,3.69-3.26,7.86-3.26,12.48s1.08,8.81,3.26,12.52c2.18,3.7,5.13,6.6,8.84,8.66,3.7,2.07,7.79,3.1,12.24,3.1s8.53-1.04,12.22-3.1c3.68-2.06,6.6-4.96,8.77-8.66,2.16-3.71,3.24-7.88,3.24-12.52s-1.07-8.79-3.21-12.48m-11.94,22.47c-2.27,2.52-5.3,3.78-9.07,3.78s-6.87-1.24-9.13-3.74c-2.28-2.5-3.41-5.83-3.41-10.02s1.13-7.57,3.41-10.05c2.26-2.47,5.31-3.71,9.13-3.71s6.81,1.25,9.07,3.75c2.28,2.5,3.41,5.83,3.41,10.01s-1.13,7.47-3.41,9.99"/>
          <polygon class="cls-18" points="469.22 15.43 469.22 44.79 449.93 15.43 438.4 15.43 438.4 62.79 449.93 62.79 449.93 33.58 469.22 62.79 480.76 62.79 480.76 15.43 469.22 15.43"/>
          <polygon class="cls-18" points="219.4 106.64 221.39 105.97 221.39 77.92 218.26 77.92 218.26 109.19 232.62 109.19 232.62 106.64 219.4 106.64"/>
          <path class="cls-18" d="m258.49,90.33c-1.06-1.89-2.52-3.35-4.39-4.38-1.86-1.02-3.95-1.54-6.23-1.54s-4.37.51-6.21,1.54c-1.85,1.04-3.31,2.5-4.38,4.38-1.07,1.9-1.61,4.12-1.61,6.65s.52,4.74,1.58,6.64c1.06,1.89,2.51,3.35,4.34,4.38,1.84,1.02,3.9,1.53,6.2,1.53s4.37-.51,6.26-1.53c1.88-1.04,3.35-2.5,4.42-4.41,1.07-1.91,1.61-4.12,1.61-6.61s-.52-4.75-1.58-6.65m-2.91,12.08c-.84,1.47-1.96,2.57-3.33,3.3-1.38.73-2.86,1.1-4.47,1.1s-3.09-.37-4.46-1.1c-1.35-.73-2.44-1.83-3.26-3.3-.82-1.49-1.23-3.29-1.23-5.43s.41-3.96,1.23-5.44c.83-1.47,1.91-2.57,3.29-3.3,1.38-.73,2.86-1.1,4.47-1.1s3.11.37,4.47,1.1c1.38.73,2.48,1.83,3.31,3.3.84,1.49,1.26,3.29,1.26,5.44s-.43,3.95-1.28,5.43"/>
          <path class="cls-18" d="m285.69,84.77v5.32c-.74-1.63-1.96-3-3.67-4.07-1.69-1.07-3.69-1.61-5.99-1.61s-4.24.51-6.02,1.54c-1.77,1.04-3.15,2.5-4.15,4.38-1,1.9-1.5,4.09-1.5,6.6s.5,4.71,1.5,6.61c1,1.91,2.39,3.39,4.15,4.43,1.78,1.04,3.78,1.56,6.02,1.56s4.29-.54,5.97-1.63c1.68-1.08,2.91-2.46,3.69-4.13v6.03c0,1.79-.35,3.34-1.07,4.65-.72,1.32-1.7,2.3-2.95,2.97-1.26.67-2.67,1.01-4.25,1.01-2.18,0-4.02-.51-5.53-1.52-1.5-1.01-2.52-2.38-3.06-4.07h-3.08c.5,2.56,1.79,4.59,3.86,6.08,2.07,1.5,4.68,2.24,7.81,2.24,2.21,0,4.18-.48,5.91-1.41,1.72-.94,3.07-2.27,4.04-4,.96-1.73,1.45-3.71,1.45-5.96v-25.04h-3.13Zm-1.21,17.39c-.8,1.5-1.9,2.64-3.29,3.45-1.39.8-2.91,1.21-4.58,1.21s-3.29-.39-4.65-1.18c-1.38-.79-2.45-1.94-3.24-3.45-.79-1.5-1.19-3.25-1.19-5.25s.4-3.78,1.19-5.26c.79-1.47,1.86-2.59,3.24-3.37,1.36-.77,2.92-1.16,4.65-1.16s3.19.4,4.58,1.21c1.39.8,2.48,1.95,3.29,3.45.8,1.48,1.21,3.21,1.21,5.19s-.4,3.69-1.21,5.18"/>
          <path class="cls-18" d="m295.99,109.19h3.13v-24.42h-3.13v24.42Zm3.17-32.98c-.44-.43-.97-.65-1.61-.65s-1.16.22-1.61.65c-.45.44-.67.97-.67,1.63s.22,1.21.67,1.66c.45.45.99.67,1.61.67s1.17-.22,1.61-.67c.45-.45.67-1,.67-1.66s-.22-1.19-.67-1.63"/>
          <path class="cls-18" d="m321.96,99.26c-.74-.86-1.64-1.52-2.69-1.97-1.04-.44-2.44-.9-4.2-1.39-1.46-.41-2.62-.79-3.48-1.13-.86-.34-1.58-.83-2.17-1.44-.59-.61-.88-1.39-.88-2.34,0-1.11.5-2.03,1.47-2.78.99-.74,2.27-1.12,3.85-1.12,1.79,0,3.2.44,4.23,1.32,1.04.89,1.6,2.03,1.68,3.47h3.13c-.12-2.33-.99-4.15-2.59-5.48-1.61-1.33-3.73-1.98-6.35-1.98-1.68,0-3.17.29-4.48.89-1.3.6-2.33,1.4-3.03,2.42-.72,1.01-1.07,2.11-1.07,3.3,0,1.58.39,2.84,1.18,3.77.79.95,1.75,1.66,2.89,2.13s2.61.95,4.42,1.43c1.4.36,2.51.69,3.34,1.01.82.32,1.5.74,2.03,1.28.54.54.8,1.22.8,2.06,0,1.18-.49,2.18-1.45,3-.97.8-2.31,1.21-4.01,1.21-1.94,0-3.48-.43-4.63-1.28-1.14-.85-1.8-1.96-1.95-3.34h-3.22c.21,2.24,1.19,4.01,2.97,5.31,1.78,1.29,4.07,1.94,6.87,1.94,1.67,0,3.14-.29,4.42-.89s2.28-1.41,3-2.44c.72-1.04,1.07-2.2,1.07-3.51-.02-1.44-.41-2.58-1.16-3.45"/>
          <path class="cls-18" d="m339.81,87.41v-2.64h-6.71v-6.13h-3.18v6.13h-3.4v2.64h3.4v15.16c0,2.35.54,4.04,1.62,5.07,1.07,1.03,2.7,1.55,4.91,1.55h3.36v-2.68h-2.86c-1.44,0-2.44-.29-3-.85-.57-.57-.85-1.6-.85-3.08v-14.49l-1.97-.67h8.68Z"/>
          <path class="cls-18" d="m344.95,109.19h3.13v-24.42h-3.13v24.42Zm3.18-32.98c-.45-.43-.99-.65-1.62-.65s-1.16.22-1.61.65c-.44.44-.67.97-.67,1.63s.23,1.21.67,1.66c.45.45.99.67,1.61.67s1.17-.22,1.62-.67c.44-.45.67-1,.67-1.66s-.23-1.19-.67-1.63"/>
          <path class="cls-18" d="m370.77,105.41c-1.38,1-3.11,1.5-5.16,1.5-1.63,0-3.11-.38-4.42-1.12-1.32-.74-2.35-1.86-3.11-3.36-.77-1.49-1.15-3.3-1.15-5.44s.38-3.96,1.15-5.44c.76-1.47,1.79-2.58,3.11-3.33,1.32-.74,2.79-1.12,4.42-1.12,2.06,0,3.79.5,5.16,1.5,1.39,1,2.29,2.38,2.7,4.14h3.36c-.57-2.57-1.83-4.59-3.77-6.09-1.96-1.49-4.43-2.23-7.45-2.23-2.29,0-4.34.51-6.13,1.54-1.79,1.04-3.19,2.5-4.2,4.38-1.01,1.9-1.52,4.12-1.52,6.65s.51,4.74,1.52,6.64c1.01,1.89,2.41,3.35,4.2,4.38,1.79,1.02,3.84,1.54,6.13,1.54,2.98,0,5.46-.76,7.43-2.28,1.96-1.52,3.23-3.53,3.8-6.04h-3.36c-.41,1.79-1.32,3.19-2.7,4.19"/>
          <path class="cls-21" d="m189.66,50.57c-.08-.04-.16-.08-.23-.12-.08-.05-.16-.08-.24-.11-.07-.04-.13-.07-.21-.1-.01,0-.03,0-.04-.01-4.3-1.77-11.49.35-19.69,4.64h0c-2.79,1.46-5.68,3.17-8.63,5.06-9.16,5.89-18.72,13.56-26.43,21,11.21-12.44,24.96-23.07,42.78-30.91,1.57-.69,3.21-1.2,4.91-1.46,3.54-.53,6.13.14,7.79,2.01"/>
          <path class="cls-20" d="m174.42,47.36c-11,4.44-22.63,8.96-31.22,15.81,8.1-8.66,16.56-14.87,22.83-17.97.79-.08,1.85-.02,2.49.13.83,2.42,3.98,2.25,5.91,2.03"/>
          <path class="cls-19" d="m174.42,47.36c-11,4.44-22.63,8.96-31.22,15.81,8.1-8.66,16.56-14.87,22.83-17.97.79-.08,1.85-.02,2.49.13.83,2.42,3.98,2.25,5.91,2.03"/>
          <path class="cls-22" d="m182.32,42.49c-.42-.7-.88-1.31-1.37-1.83.53.53.98,1.14,1.37,1.83"/>
          <path class="cls-19" d="m131.7,41.78c-2.93-3.54-7.19-5.87-10.17-7.18-5.82-2.58-16.96-4.75-32.51-6.36-3.21-.33-6.61-.64-10.19-.92-14.2-1.1-30.58-2.59-45.32-6.17-12.43-3.03-21.76-7.06-28.19-12.25,10.99,10.56,25.54,16.08,42.84,17.69,14.09.76,27.57,2.99,39.68,8.57,1.21.47,2.32,1.01,3.33,1.63,1.15.7,2.17,1.51,3.03,2.44-12.61-4.85-49.69,12.53-73.04-7.39l.09.1c7.23,6.88,16.73,10.8,28.7,11.51,14.86.17,30.9-6.81,46.86.41,1.35.46,2.56,1.08,3.62,1.88-12.06-2.43-39.38,17.23-65.07-.63.17.14.42.36.75.62,1.3,1.05,3.69,2.76,8.92,4.81,2.15.84,5,1.83,8.46,2.68,6.24.93,12.75.87,19.48-.07,2.88-.4,5.69-1.17,8.41-2.18,7.63-2.83,15.37-4.62,24.02-1.78.58.15,1.14.36,1.68.61-10.21-.09-30.2,19.43-54.49,8.61,2.55,1.35,5.33,2.36,8.32,3.08,7.99,1.92,16.36,1.35,24.17-1.22,6.48-2.13,12.24-4.52,17.03-7.24,2.38-1.35,5.09-2.07,7.81-1.81,1.27.12,2.49.43,3.65.95-7.51,1.32-17.03,19.46-37.19,15.26,4.2,1.08,8.13,1.54,11.7,1.17,6.21-.41,11.05-2.57,14.81-6.1.5-.47,1.01-.95,1.54-1.39l8.44-6.95c.64-.52,1.31-1.03,2.03-1.44,2.52-1.45,5.12-1.9,7.84-.9-6,2.34-8.57,21.58-27.66,19.59,0,0,0,0,0,0,0,0,0,0,.02,0,1.83.43,3.61.82,5.28,1.09,3.12.49,6.4.33,9.37-.79,3.55-1.35,5.72-4.04,7.76-7.08,2.22-3.31,5-6.23,8.19-8.61,2.68-7.54.76-13.49-5.66-17.91-.04-.03-.09-.06-.13-.09-.16-.11-.31-.21-.47-.32-.03-.02-.08-.05-.12-.08l-.42-.27c-.19-.11-.38-.22-.56-.33-.19-.11-.39-.22-.58-.33-.2-.11-.4-.21-.6-.32-.17-.09-.35-.18-.53-.27-.5-.26-1.03-.5-1.56-.74-.17-.07-.33-.14-.5-.22-.45-.19-.93-.38-1.41-.57,4.34.38,8.85,1.39,12.49,3.89,4.01,2.75,6.31,7.39,6.61,12.19.66,10.44-7.22,20.67-14.18,27.71-9.58,9.69-21.45,17.12-33.44,23.46-2.14,1.13-4.31,2.23-6.5,3.3-.73.36-1.45.71-2.18,1.06-.87.41-1.74.82-2.6,1.22-.55.25-1.09.51-1.64.76-1.53.7-3.06,1.39-4.61,2.06-.8.36-1.6.71-2.41,1.06,5.99-2.24,16.34-6.92,22.6-9.8,4.76-2.19,9.31-4.79,13.61-7.77,6.16-4.27,13.14-9.83,19.23-16.05,7.13-7.29,15.51-18.08,14.85-28.05-.2-3.09-1.49-5.68-3.27-7.84m-12.59,6.98c1.15.31,2.33.41,3.5.47-8.61,1.42-16.25-3.1-21.85-8.81-5.12-5.27-11.21-10.27-22.31-11.39,3.18-.23,11.1.15,17.14,1.29,2.76.52,5.12,1.2,6.47,2.05.57.36.96.75,1.11,1.17,2.57,7.04,7.52,12.97,15.94,15.21"/>
          <path class="cls-19" d="m132.25,50.66c.66,10.44-7.22,20.67-14.18,27.71-9.58,9.69-21.45,17.13-33.44,23.46-5.73,3.02-11.6,5.79-17.53,8.4,23.91-10.68,46.06-26.23,57.82-41.87,5.35-7.12,10.83-20.56.08-28.72-2.77-2.11-6.63-3.87-11.85-5.07,4.34.38,8.85,1.39,12.49,3.89,4.01,2.75,6.31,7.39,6.61,12.19"/>
          <path class="cls-19" d="m125.68,56.03c-1.61,4.56-4.92,9.69-9.95,15.42,0,0-.02.01-.02.03-2.65,2.87-6.69,3.98-10.45,2.9-4.47-1.29-9.85-2.84-10.19-2.95,1.83.43,3.61.82,5.29,1.09,3.11.49,6.4.33,9.37-.79,3.55-1.35,5.72-4.04,7.76-7.08,2.22-3.31,5-6.23,8.19-8.61"/>
          <path class="cls-19" d="m122.73,51.83c-5.76-.83-9.83,5.5-15.76,11.28-1.19,1.16-2.47,2.29-3.85,3.33-4.78,3.62-10.97,4.85-16.8,3.45-.03,0-.06-.02-.09-.02-3.67-.89-6.91-1.68-9.84-2.43,4.2,1.08,8.13,1.54,11.69,1.18,6.21-.41,11.05-2.57,14.81-6.1.5-.47,1.01-.94,1.54-1.39l8.44-6.95c.64-.52,1.31-1.03,2.03-1.44,2.52-1.45,5.12-1.9,7.84-.9"/>
          <path class="cls-19" d="m113.57,52.18c-6.26-1.79-13.12,3.87-21.93,8.65-.05.03-.1.06-.15.09-9.47,5.13-20.79,5.69-30.74,1.55-.8-.33-1.59-.68-2.39-1.04-2.01-.92-5.21-2.69-5.77-3,2.55,1.35,5.33,2.36,8.32,3.08,7.99,1.92,16.36,1.35,24.17-1.22,6.48-2.13,12.24-4.52,17.03-7.24,2.38-1.35,5.09-2.07,7.81-1.81,1.27.12,2.49.43,3.65.95"/>
          <path class="cls-19" d="m105.4,49.2c-7.03-1.94-17.27,2.44-29.23,5.65-.16.05-.33.08-.5.13-14.1,3.73-29.18.14-40.02-9.61-.11-.09-.2-.18-.29-.27.17.14.43.36.75.62,1.31,1.05,3.69,2.76,8.93,4.81,2.15.84,5,1.83,8.46,2.68,6.24.93,12.75.87,19.48-.07,2.88-.4,5.69-1.17,8.41-2.18,7.63-2.83,15.37-4.62,24.02-1.78"/>
          <path class="cls-19" d="m96.8,43.85c-8.02-2.79-20.7-.19-34.86.87-3.52.26-7.14.39-10.8.34-11.32-.18-22.07-4.96-29.9-13.13,7.23,6.88,16.73,10.8,28.7,11.51,14.86.17,30.9-6.81,46.86.41"/>
          <path class="cls-21" d="m153.75,95.7c-.09.15-3.48-1.57-3.74-1.67-2.09-.86-4.36-1.27-6.6-1.57-4.74-.63-9.56-.47-14.3-.03-4.81.44-9.6,1.29-14.32,2.3-4.57.98-9.1,2.17-13.57,3.54-1.34.4-2.67.82-3.99,1.27-1.2.4-2.56.7-3.68,1.27.19-.11.38-.22.57-.33,0,0,.01,0,.02-.01,1.47-.7,2.91-1.41,4.32-2.14.04-.02.09-.03.13-.06.18-.09.37-.17.55-.26,19.92-9.25,37.62-11.21,54.61-2.32"/>
          <path class="cls-21" d="m189.89,50.71c-.08-.05-.16-.1-.24-.14-1.66-1.86-4.25-2.53-7.79-2.01-1.7.25-3.34.77-4.91,1.46-17.82,7.84-31.57,18.46-42.78,30.91,9.5-14.71,27.95-26.25,43.12-33.4,1.93-.64,5.32-2.3,6.45-3.69,1.55-.11,2.76.19,3.69.8,1.79,1.18,2.51,3.48,2.45,6.07"/>
          <g class="cls-17">
            <g class="cls-14">
              <path class="cls-20" d="m174.42,47.36c-11,4.44-14.67.93-8.4-2.16.79-.08,1.85-.02,2.49.13.83,2.42,3.98,2.25,5.91,2.03"/>
            </g>
          </g>
          <path class="cls-21" d="m176.24,46.42c-2.99-6.79-26.7-.97-30.48,1.68.37-2.55.02-5.6-1.06-8.11,2.53,2.79,10.29,2.22,18.08,1.67,7.17-.57,11.97.76,13.47,4.76"/>
          <path class="cls-21" d="m182.47,42.78c-.84,1.02-2.02,1.82-2.97,2.26-2.08.98-2.59,1.17-3.27,1.38-1.5-4.01-6.3-5.34-13.47-4.76-7.79.55-15.55,1.12-18.08-1.67,3.22,1.72,8.9,1.44,16.26-.19l.82-.19c6.17-1.86,11.41-2.45,15.25-1.26.14.04.28.09.42.14.14.04.28.09.41.14.14.06.28.11.41.18.04.01.08.03.12.05.06.03.11.05.17.08.02,0,.04.02.07.03.12.06.23.12.35.19.15.08.29.17.43.25.14.09.27.18.4.27.14.09.27.19.4.3.07.06.14.12.22.18.18.15.36.32.52.49.5.52.96,1.13,1.37,1.83.06.1.11.19.16.28"/>
          <path class="cls-22" d="m182.32,42.49c-.42-.7-.88-1.31-1.37-1.83.53.53.98,1.14,1.37,1.83"/>
          <path class="cls-21" d="m137.81,51.67c0,4.5-1.14,8.91-3.14,12.93-5.52,11.18-14.73,19.6-14.73,19.6-4.16,3.8-7.78,6.17-11,8.27,0,0-4.95,3.24-9.81,5.55-.18.08-.36.17-.55.26-.04.02-.08.04-.12.06-1.42.72-2.86,1.43-4.33,2.14,1.25-.64,2.45-1.46,3.64-2.22,2.6-1.66,5.14-3.41,7.63-5.24,2.76-2.03,5.46-4.15,8.07-6.38,2.71-2.31,5.34-4.72,7.83-7.25,2.45-2.49,4.78-5.09,6.92-7.85,1.99-2.58,3.81-5.29,5.32-8.19,1.2-2.33,2.22-4.77,2.84-7.32,1.08-4.43.91-9.22-1.45-13.23-2.62-4.45-7.37-7.78-12.59-10.08-8.71-3.86-26.49-5.97-38.35-7.03l-1.83-.16c-.79-.07-1.55-.13-2.27-.19-.31-.02-.62-.05-.92-.07C52.3,23.19,12,19.45,0,0c8.17,6.9,18.36,11.08,28.54,14,11.03,3.16,22.38,4.63,33.75,5.76,2.73.28,4.43.42,7.84.74,5.96.57,8.43.81,11.62,1.15,2.47.27,4.33.48,5.45.62,1.69.2,1.96.24,4.95.61,6.2.77,7.28.87,10.07,1.29.97.14,2.11.32,3.63.57,3.45.59,4.66.93,7.79,1.51.27.05.94.17,1.82.38.26.06,1.02.24,1.85.47.69.2,2.31.69,4.29,1.57.44.2,1.51.69,2.79,1.41.71.4,1.28.76,1.64.99,0,0,.57.37,1.1.74,2.77,1.94,4.71,4.05,4.71,4.05,1.24,1.35,2.14,2.66,2.77,3.71,2.18,3.65,3.22,7.87,3.21,12.08"/>
          <path class="cls-19" d="m87.83,35.15c-9-3.51-23.25-3.35-38.59-4.88-11.76-1.16-24.27-3.63-35.27-8.71-3.34-4.51-6.21-8.79-8.66-12.66,10.99,10.56,25.54,16.08,42.83,17.69,14.09.77,27.57,2.99,39.68,8.57"/>
          <path class="cls-20" d="m91.15,36.79c-1.09-.57-2.2-1.12-3.33-1.63"/>
          <g class="cls-13">
            <g class="cls-15">
              <path class="cls-20" d="m87.83,35.15c-9-3.51-23.25-3.35-38.59-4.88-11.76-1.16-24.27-3.63-35.27-8.71-3.34-4.51-6.21-8.79-8.66-12.66,10.99,10.56,25.54,16.08,42.83,17.69,14.09.77,27.57,2.99,39.68,8.57"/>
            </g>
          </g>
          <path class="cls-20" d="m100.43,45.74c-1.21-.72-2.42-1.35-3.62-1.88"/>
          <g class="cls-13">
            <g class="cls-2">
              <path class="cls-20" d="m96.8,43.85c-8.02-2.79-20.7-.19-34.86.87-3.52.26-7.14.39-10.8.34-11.32-.18-22.07-4.96-29.9-13.13,7.23,6.88,16.73,10.8,28.7,11.51,14.86.17,30.9-6.81,46.86.41"/>
            </g>
          </g>
          <path class="cls-20" d="m107.08,49.81c-.56-.22-1.12-.42-1.68-.61"/>
          <g class="cls-13">
            <g class="cls-10">
              <path class="cls-20" d="m105.4,49.2c-7.03-1.94-17.27,2.44-29.23,5.65-.16.05-.33.08-.5.13-14.1,3.73-29.18.14-40.02-9.61-.11-.09-.2-.18-.29-.27.17.14.43.36.75.62,1.31,1.05,3.69,2.76,8.93,4.81,2.15.84,5,1.83,8.46,2.68,6.24.93,12.75.87,19.48-.07,2.88-.4,5.69-1.17,8.41-2.18,7.63-2.83,15.37-4.62,24.02-1.78"/>
            </g>
          </g>
          <g class="cls-13">
            <g class="cls-1">
              <path class="cls-20" d="m113.57,52.18c-6.26-1.79-13.12,3.87-21.93,8.65-.05.03-.1.06-.15.09-9.47,5.13-20.79,5.69-30.74,1.55-.8-.33-1.59-.68-2.39-1.04-2.01-.92-5.21-2.69-5.77-3,2.55,1.35,5.33,2.36,8.32,3.08,7.99,1.92,16.36,1.35,24.17-1.22,6.48-2.13,12.24-4.52,17.03-7.24,2.38-1.35,5.09-2.07,7.81-1.81,1.27.12,2.49.43,3.65.95"/>
            </g>
          </g>
          <g class="cls-13">
            <g class="cls-8">
              <path class="cls-20" d="m122.73,51.83c-5.76-.83-9.83,5.5-15.76,11.28-1.19,1.16-2.47,2.29-3.85,3.33-4.78,3.62-10.97,4.85-16.8,3.45-.03,0-.06-.02-.09-.02-3.67-.89-6.91-1.68-9.84-2.43,4.2,1.08,8.13,1.54,11.69,1.18,6.21-.41,11.05-2.57,14.81-6.1.5-.47,1.01-.94,1.54-1.39l8.44-6.95c.64-.52,1.31-1.03,2.03-1.44,2.52-1.45,5.12-1.9,7.84-.9"/>
            </g>
          </g>
          <path class="cls-22" d="m125.71,56.01s-.02.01-.03.02"/>
          <path class="cls-20" d="m95.08,71.43s0,0-.02,0"/>
          <g class="cls-13">
            <g class="cls-3">
              <path class="cls-20" d="m125.68,56.03c-1.61,4.56-4.92,9.69-9.95,15.42,0,0-.02.01-.02.03-2.65,2.87-6.69,3.98-10.45,2.9-4.47-1.29-9.85-2.84-10.19-2.95,1.83.43,3.61.82,5.29,1.09,3.11.49,6.4.33,9.37-.79,3.55-1.35,5.72-4.04,7.76-7.08,2.22-3.31,5-6.23,8.19-8.61"/>
            </g>
          </g>
          <g class="cls-13">
            <g class="cls-6">
              <path class="cls-20" d="m132.25,50.66c.66,10.44-7.22,20.67-14.18,27.71-9.58,9.69-21.45,17.13-33.44,23.46-5.73,3.02-11.6,5.79-17.53,8.4,23.91-10.68,46.06-26.23,57.82-41.87,5.35-7.12,10.83-20.56.08-28.72-2.77-2.11-6.63-3.87-11.85-5.07,4.34.38,8.85,1.39,12.49,3.89,4.01,2.75,6.31,7.39,6.61,12.19"/>
            </g>
          </g>
          <path class="cls-22" d="m94.13,100.49s-.04.02-.06.03"/>
          <g class="cls-13">
            <g class="cls-16">
              <path class="cls-21" d="m153.75,95.7c-.09.15-3.48-1.57-3.74-1.67-2.09-.86-4.36-1.27-6.6-1.57-4.74-.63-9.56-.47-14.3-.03-4.81.44-9.6,1.29-14.32,2.3-4.57.98-9.1,2.17-13.57,3.54-1.34.4-2.67.82-3.99,1.27-1.2.4-2.56.7-3.68,1.27.19-.11.38-.22.57-.33,0,0,.01,0,.02-.01,1.47-.7,2.91-1.41,4.32-2.14.04-.02.09-.03.13-.06.18-.09.37-.17.55-.26,19.92-9.25,37.62-11.21,54.61-2.32"/>
            </g>
          </g>
          <path class="cls-21" d="m153.75,95.7c-17.15-8.96-35.02-6.89-55.16,2.58,8.36-4.27,15.77-8.85,21.35-14.08,4.58-4.72,8.95-9.75,12.41-15.36,3.6-5.84,5.88-12.2,5.38-19.14-.46-6.5-3.4-12.04-8.39-16.18-3.6-2.98-7.83-5.25-12.34-6.49-2.66-.73-5.4-1.1-8.09-1.67-5.5-1.18-11.2-1.74-16.77-2.46-7.32-.95-14.67-1.72-22.02-2.39-2.61-.24-5.23-.48-7.84-.74-11.37-1.13-22.72-2.6-33.75-5.76C18.36,11.08,8.17,6.9,0,0c7.13,2.26,14.25,4.52,21.38,6.79,13.46,4.27,27.03,8.18,41.13,9.56,6.55.65,13.14.85,19.71.57,7.74-.36,15.55-.31,23.21.85,8.75,1.31,17.42,4.16,24.48,9.63,6.02,4.66,10.7,11.33,11.43,19.07.07.76.11,1.54.11,2.3.02,8.32-3.58,16.04-7.86,22.99-1.84,2.98-3.86,5.86-6.08,8.57-2.04,2.48-6.85,7.28-6.85,7.28,0,0,1.96-.06,3-.07,4.72-.06,9.47.16,14.13,1.04,3.52.66,7.03,1.68,10.24,3.29,1.22.61,2.38,1.3,3.51,2.06.19.12,2.37,1.53,2.22,1.78"/>
          <g class="cls-13">
            <g class="cls-4">
              <path class="cls-21" d="m137.81,51.67c0,4.5-1.14,8.91-3.14,12.93-5.52,11.18-14.73,19.6-14.73,19.6-4.16,3.8-7.78,6.17-11,8.27,0,0-4.95,3.24-9.81,5.55-.18.08-.36.17-.55.26-.04.02-.08.04-.12.06-1.42.72-2.86,1.43-4.33,2.14,1.25-.64,2.45-1.46,3.64-2.22,2.6-1.66,5.14-3.41,7.63-5.24,2.76-2.03,5.46-4.15,8.07-6.38,2.71-2.31,5.34-4.72,7.83-7.25,2.45-2.49,4.78-5.09,6.92-7.85,1.99-2.58,3.81-5.29,5.32-8.19,1.2-2.33,2.22-4.77,2.84-7.32,1.08-4.43.91-9.22-1.45-13.23-2.62-4.45-7.37-7.78-12.59-10.08-8.71-3.86-26.49-5.97-38.35-7.03l-1.83-.16c-.79-.07-1.55-.13-2.27-.19-.31-.02-.62-.05-.92-.07C52.3,23.19,12,19.45,0,0c8.17,6.9,18.36,11.08,28.54,14,11.03,3.16,22.38,4.63,33.75,5.76,2.73.28,4.43.42,7.84.74,5.96.57,8.43.81,11.62,1.15,2.47.27,4.33.48,5.45.62,1.69.2,1.96.24,4.95.61,6.2.77,7.28.87,10.07,1.29.97.14,2.11.32,3.63.57,3.45.59,4.66.93,7.79,1.51.27.05.94.17,1.82.38.26.06,1.02.24,1.85.47.69.2,2.31.69,4.29,1.57.44.2,1.51.69,2.79,1.41.71.4,1.28.76,1.64.99,0,0,.57.37,1.1.74,2.77,1.94,4.71,4.05,4.71,4.05,1.24,1.35,2.14,2.66,2.77,3.71,2.18,3.65,3.22,7.87,3.21,12.08"/>
            </g>
          </g>
          <g class="cls-13">
            <g class="cls-7">
              <path class="cls-21" d="m189.66,50.57c-.08-.04-.16-.08-.23-.12-.08-.05-.16-.08-.24-.11-.07-.04-.13-.07-.21-.1-.01,0-.03,0-.04-.01-4.3-1.77-11.49.35-19.69,4.64h0c-2.79,1.46-5.68,3.17-8.63,5.06-9.16,5.89-18.72,13.56-26.43,21,11.21-12.44,24.96-23.07,42.78-30.91,1.57-.69,3.21-1.2,4.91-1.46,3.54-.53,6.13.14,7.79,2.01"/>
            </g>
          </g>
          <g class="cls-13">
            <g class="cls-11">
              <path class="cls-21" d="m176.24,46.42c-2.99-6.79-26.7-.97-30.48,1.68.37-2.55.02-5.6-1.06-8.11,2.53,2.79,10.29,2.22,18.08,1.67,7.17-.57,11.97.76,13.47,4.76"/>
            </g>
          </g>
          <g class="cls-13">
            <g class="cls-5">
              <path class="cls-20" d="m125.68,56.03c-1.61,4.56-4.92,9.69-9.95,15.42,0,0-.02.01-.02.03-2.65,2.87-6.69,3.98-10.45,2.9-4.47-1.29-9.85-2.84-10.19-2.95,1.83.43,3.61.82,5.29,1.09,3.11.49,6.4.33,9.37-.79,3.55-1.35,5.72-4.04,7.76-7.08,2.22-3.31,5-6.23,8.19-8.61"/>
            </g>
          </g>
        </g>
      </g>
    </g>
  </g>
</svg>