<?xml version="1.0" encoding="UTF-8"?>
<svg xmlns="http://www.w3.org/2000/svg" xmlns:xlink="http://www.w3.org/1999/xlink" viewBox="0 0 173.58 166.78">
  <defs>
    <style>
      .cls-1 {
        clip-path: url(#clippath-4);
      }

      .cls-1, .cls-2, .cls-3, .cls-4, .cls-5, .cls-6, .cls-7, .cls-8, .cls-9, .cls-10, .cls-11, .cls-12, .cls-13, .cls-14, .cls-15 {
        fill: none;
      }

      .cls-2 {
        clip-path: url(#clippath-2);
      }

      .cls-16, .cls-17 {
        fill: #fff;
      }

      .cls-3 {
        clip-path: url(#clippath-6);
      }

      .cls-4 {
        clip-path: url(#clippath-9);
      }

      .cls-17, .cls-18 {
        fill-rule: evenodd;
      }

      .cls-18 {
        fill: #6bc9f3;
      }

      .cls-5 {
        clip-path: url(#clippath-7);
      }

      .cls-6 {
        clip-path: url(#clippath-10);
      }

      .cls-7 {
        clip-path: url(#clippath-5);
      }

      .cls-8 {
        isolation: isolate;
      }

      .cls-9 {
        clip-path: url(#clippath-3);
      }

      .cls-10 {
        clip-path: url(#clippath-11);
      }

      .cls-12 {
        mix-blend-mode: multiply;
        opacity: .3;
      }

      .cls-13 {
        clip-path: url(#clippath);
      }

      .cls-14 {
        clip-path: url(#clippath-1);
      }

      .cls-15 {
        clip-path: url(#clippath-8);
      }
    </style>
    <clipPath id="clippath">
      <rect class="cls-11" x="148.97" y="41.29" width="10.47" height="3.93"/>
    </clipPath>
    <clipPath id="clippath-1">
      <rect class="cls-11" x="132.26" y="36.55" width="28.83" height="7.42"/>
    </clipPath>
    <clipPath id="clippath-2">
      <rect class="cls-11" x="0" width="125.97" height="91.85"/>
    </clipPath>
    <clipPath id="clippath-3">
      <rect class="cls-11" x="4.85" y="8.13" width="75.43" height="24"/>
    </clipPath>
    <clipPath id="clippath-4">
      <rect class="cls-11" x="19.41" y="29.19" width="69.07" height="12.01"/>
    </clipPath>
    <clipPath id="clippath-5">
      <rect class="cls-11" x="32.32" y="41.23" width="64.03" height="10.35"/>
    </clipPath>
    <clipPath id="clippath-6">
      <rect class="cls-11" x="48.07" y="46.78" width="55.74" height="12.83"/>
    </clipPath>
    <clipPath id="clippath-7">
      <rect class="cls-11" x="69.82" y="46.89" width="42.37" height="17.52"/>
    </clipPath>
    <clipPath id="clippath-8">
      <rect class="cls-11" x="86.91" y="51.22" width="27.97" height="17.14"/>
    </clipPath>
    <clipPath id="clippath-9">
      <rect class="cls-11" x="61.33" y="31.61" width="59.59" height="69.15"/>
    </clipPath>
    <clipPath id="clippath-10">
      <rect class="cls-11" x="85.52" y="82.24" width="55.03" height="9.92"/>
    </clipPath>
    <clipPath id="clippath-11">
      <rect class="cls-11" x="122.65" y="44.23" width="50.72" height="29.74"/>
    </clipPath>
  </defs>
  <g class="cls-8">
    <g id="Layer_2" data-name="Layer 2">
      <g id="Layer_1-2" data-name="Layer 1">
        <g>
          <polygon class="cls-16" points="33.56 113.38 17.46 113.38 17.46 138.1 23.48 138.1 23.48 128.96 20.95 128.1 31.02 128.1 31.02 123.42 23.48 123.42 23.48 119.07 20.95 118.2 33.56 118.2 33.56 113.38"/>
          <path class="cls-16" d="m51.03,113.38h-6.98l-8.95,24.72h6.31l1.47-4.36h9.23l1.47,4.36h6.38l-8.95-24.72Zm-6.55,15.71l3.03-9.05,3.07,9.05h-6.09Z"/>
          <polygon class="cls-16" points="66.17 133.45 68.71 132.59 68.71 113.38 62.68 113.38 62.68 138.1 76.59 138.1 76.59 133.45 66.17 133.45"/>
          <path class="cls-16" d="m93.91,132.01c-.91.54-1.93.81-3.08.81-1.86,0-3.36-.65-4.51-1.94-1.15-1.29-1.72-3.02-1.72-5.18s.57-3.89,1.72-5.18c1.15-1.29,2.65-1.93,4.51-1.93,1.15,0,2.18.27,3.08.81.9.54,1.6,1.33,2.09,2.36h6.63c-.71-2.68-2.1-4.79-4.2-6.34-2.09-1.54-4.6-2.32-7.54-2.32-2.4,0-4.54.53-6.43,1.6-1.89,1.07-3.36,2.56-4.42,4.47-1.06,1.91-1.58,4.1-1.58,6.54s.53,4.61,1.58,6.51c1.06,1.91,2.53,3.39,4.42,4.46,1.89,1.07,4.03,1.6,6.43,1.6,2.94,0,5.45-.77,7.54-2.31,2.09-1.53,3.49-3.64,4.2-6.32h-6.63c-.49,1.04-1.19,1.82-2.09,2.36"/>
          <path class="cls-16" d="m128.99,119.15c-1.11-1.92-2.64-3.43-4.58-4.51-1.93-1.07-4.06-1.61-6.39-1.61s-4.46.54-6.39,1.61c-1.94,1.08-3.48,2.59-4.62,4.51-1.14,1.93-1.7,4.1-1.7,6.52s.57,4.6,1.7,6.54c1.14,1.93,2.68,3.45,4.62,4.52,1.93,1.08,4.07,1.62,6.39,1.62s4.45-.54,6.38-1.62c1.92-1.07,3.45-2.59,4.58-4.52,1.13-1.94,1.69-4.12,1.69-6.54s-.56-4.59-1.68-6.52m-6.23,11.73c-1.18,1.32-2.77,1.97-4.74,1.97s-3.59-.65-4.77-1.95c-1.19-1.3-1.78-3.05-1.78-5.23s.59-3.96,1.78-5.25c1.18-1.29,2.77-1.94,4.77-1.94s3.55.65,4.74,1.96c1.19,1.3,1.78,3.05,1.78,5.23s-.59,3.9-1.78,5.21"/>
          <polygon class="cls-16" points="150.1 113.38 150.1 128.7 140.03 113.38 134.01 113.38 134.01 138.1 140.03 138.1 140.03 122.85 150.1 138.1 156.13 138.1 156.13 113.38 150.1 113.38"/>
          <polygon class="cls-16" points="50.69 160.07 51.61 159.76 51.61 146.81 50.16 146.81 50.16 161.25 56.8 161.25 56.8 160.07 50.69 160.07"/>
          <path class="cls-16" d="m68.75,152.54c-.49-.87-1.16-1.55-2.03-2.03-.86-.47-1.82-.71-2.88-.71s-2.02.24-2.87.71c-.85.48-1.53,1.15-2.02,2.03-.49.88-.74,1.9-.74,3.07s.24,2.19.73,3.07c.49.87,1.16,1.55,2,2.02.85.47,1.8.71,2.86.71s2.02-.24,2.89-.71c.87-.48,1.55-1.15,2.04-2.04.5-.88.74-1.9.74-3.05s-.24-2.2-.73-3.07m-1.34,5.58c-.39.68-.91,1.19-1.54,1.53-.64.34-1.32.51-2.07.51s-1.43-.17-2.06-.51c-.62-.34-1.12-.84-1.51-1.53-.38-.69-.57-1.52-.57-2.51s.19-1.83.57-2.51c.38-.68.88-1.19,1.52-1.53s1.32-.51,2.06-.51,1.44.17,2.07.51c.64.34,1.15.84,1.53,1.53.39.69.58,1.52.58,2.51s-.2,1.82-.59,2.51"/>
          <path class="cls-16" d="m81.32,149.97v2.46c-.34-.75-.91-1.38-1.69-1.88-.78-.5-1.7-.74-2.77-.74s-1.96.24-2.78.71c-.82.48-1.46,1.15-1.92,2.03-.46.88-.69,1.89-.69,3.05s.23,2.18.69,3.05c.46.88,1.1,1.56,1.92,2.05.82.48,1.74.72,2.78.72s1.98-.25,2.76-.75c.78-.5,1.35-1.14,1.71-1.91v2.79c0,.83-.16,1.54-.49,2.15-.33.61-.79,1.06-1.36,1.37-.58.31-1.23.47-1.96.47-1.01,0-1.86-.24-2.56-.7-.69-.47-1.16-1.1-1.41-1.88h-1.42c.23,1.18.83,2.12,1.78,2.81.96.69,2.16,1.04,3.61,1.04,1.02,0,1.93-.22,2.73-.65.79-.43,1.42-1.05,1.87-1.85.45-.8.67-1.72.67-2.75v-11.57h-1.45Zm-.56,8.03c-.37.69-.88,1.22-1.52,1.59-.64.37-1.35.56-2.12.56s-1.52-.18-2.15-.55c-.64-.37-1.13-.89-1.5-1.59-.37-.69-.55-1.5-.55-2.42s.19-1.74.55-2.43c.37-.68.86-1.2,1.5-1.56.63-.35,1.35-.53,2.15-.53s1.48.18,2.12.56c.64.37,1.15.9,1.52,1.59.37.69.56,1.49.56,2.4s-.19,1.71-.56,2.39"/>
          <path class="cls-16" d="m86.07,161.25h1.45v-11.28h-1.45v11.28Zm1.46-15.24c-.2-.2-.45-.3-.74-.3s-.53.1-.74.3c-.21.2-.31.45-.31.75s.1.56.31.76.45.31.74.31.54-.1.74-.31c.21-.21.31-.46.31-.76s-.1-.55-.31-.75"/>
          <path class="cls-16" d="m98.07,156.66c-.34-.4-.76-.7-1.24-.91-.48-.2-1.13-.42-1.94-.64-.68-.19-1.21-.37-1.61-.52-.4-.16-.73-.38-1-.66-.27-.28-.4-.64-.4-1.08,0-.51.23-.94.68-1.28.46-.34,1.05-.52,1.78-.52.83,0,1.48.2,1.95.61.48.41.74.94.78,1.6h1.45c-.06-1.07-.46-1.92-1.2-2.53-.74-.61-1.72-.92-2.93-.92-.78,0-1.46.13-2.07.41-.6.28-1.07.65-1.4,1.12-.33.47-.49.97-.49,1.52,0,.73.18,1.31.55,1.74.36.44.81.76,1.33.98.52.22,1.2.44,2.04.66.65.17,1.16.32,1.54.47.38.15.69.34.94.59.25.25.37.56.37.95,0,.55-.23,1.01-.67,1.38-.45.37-1.07.56-1.85.56-.89,0-1.61-.2-2.14-.59-.53-.39-.83-.91-.9-1.54h-1.49c.1,1.04.55,1.85,1.37,2.45.82.6,1.88.9,3.17.9.77,0,1.45-.13,2.04-.41.59-.28,1.05-.65,1.38-1.12.33-.48.5-1.02.5-1.62-.01-.66-.19-1.19-.53-1.59"/>
          <path class="cls-16" d="m106.31,151.19v-1.22h-3.1v-2.83h-1.47v2.83h-1.57v1.22h1.57v7.01c0,1.09.25,1.87.75,2.34.49.48,1.25.72,2.27.72h1.55v-1.24h-1.32c-.66,0-1.12-.13-1.38-.39-.26-.26-.39-.74-.39-1.42v-6.7l-.91-.31h4.01Z"/>
          <path class="cls-16" d="m108.69,161.25h1.45v-11.28h-1.45v11.28Zm1.47-15.24c-.21-.2-.46-.3-.75-.3s-.54.1-.74.3c-.2.2-.31.45-.31.75s.11.56.31.76c.21.21.46.31.74.31s.54-.1.75-.31c.2-.21.31-.46.31-.76s-.11-.55-.31-.75"/>
          <path class="cls-16" d="m120.62,159.5c-.64.46-1.44.69-2.39.69-.75,0-1.43-.17-2.04-.52-.61-.34-1.09-.86-1.43-1.55-.35-.69-.53-1.53-.53-2.51s.17-1.83.53-2.51c.35-.68.83-1.19,1.43-1.54.61-.34,1.29-.52,2.04-.52.95,0,1.75.23,2.39.69.64.46,1.06,1.1,1.25,1.91h1.55c-.26-1.19-.84-2.12-1.74-2.81-.91-.69-2.05-1.03-3.44-1.03-1.06,0-2,.24-2.83.71-.83.48-1.47,1.15-1.94,2.03-.47.88-.7,1.9-.7,3.07s.24,2.19.7,3.07c.47.87,1.11,1.55,1.94,2.03.83.47,1.77.71,2.83.71,1.38,0,2.52-.35,3.43-1.05.9-.7,1.49-1.63,1.75-2.79h-1.55c-.19.83-.61,1.47-1.25,1.93"/>
          <path class="cls-17" d="m173.36,46.23c-.07-.04-.14-.07-.21-.11-.08-.04-.15-.07-.22-.1-.06-.04-.12-.07-.19-.09-.02,0-.03,0-.04-.01-3.93-1.61-10.5.32-18,4.24h0c-2.55,1.33-5.2,2.89-7.89,4.62-8.37,5.39-17.11,12.4-24.16,19.2,10.25-11.37,22.82-21.09,39.1-28.25,1.43-.63,2.94-1.1,4.49-1.33,3.23-.48,5.6.13,7.12,1.83"/>
          <path class="cls-17" d="m159.44,43.3c-10.06,4.05-20.69,8.19-28.54,14.45,7.4-7.92,15.14-13.59,20.86-16.42.72-.07,1.69-.02,2.28.12.76,2.21,3.63,2.05,5.4,1.85"/>
          <path class="cls-17" d="m159.44,43.3c-10.06,4.05-20.69,8.19-28.54,14.45,7.4-7.92,15.14-13.59,20.86-16.42.72-.07,1.69-.02,2.28.12.76,2.21,3.63,2.05,5.4,1.85"/>
          <path class="cls-17" d="m166.66,38.84c-.38-.64-.8-1.19-1.26-1.67.48.48.9,1.04,1.26,1.67"/>
          <path class="cls-17" d="m120.38,38.19c-2.67-3.24-6.57-5.36-9.3-6.56-5.32-2.35-15.5-4.35-29.72-5.82-2.93-.31-6.04-.58-9.31-.84-12.98-1.01-27.95-2.36-41.43-5.64-11.36-2.77-19.89-6.46-25.77-11.2,10.04,9.65,23.35,14.7,39.16,16.17,12.88.7,25.2,2.74,36.27,7.83,1.1.43,2.12.93,3.04,1.49,1.05.64,1.98,1.38,2.77,2.23-11.53-4.43-45.42,11.45-66.77-6.76l.09.09c6.61,6.29,15.3,9.87,26.24,10.52,13.58.16,28.25-6.22,42.83.38,1.23.42,2.34.99,3.31,1.72-11.02-2.22-36,15.75-59.48-.58.16.13.39.33.68.57,1.19.96,3.37,2.52,8.16,4.4,1.96.77,4.57,1.68,7.74,2.45,5.7.85,11.65.79,17.81-.06,2.63-.37,5.2-1.07,7.69-1.99,6.97-2.59,14.05-4.22,21.95-1.63.53.14,1.04.33,1.53.55-9.33-.08-27.61,17.76-49.81,7.87,2.33,1.23,4.87,2.16,7.61,2.82,7.3,1.75,14.96,1.23,22.09-1.12,5.93-1.95,11.19-4.14,15.57-6.62,2.17-1.23,4.65-1.89,7.14-1.65,1.16.11,2.28.4,3.34.87-6.87,1.21-15.57,17.79-33.99,13.95,3.84.98,7.43,1.4,10.69,1.07,5.68-.37,10.11-2.35,13.54-5.57.46-.43.92-.86,1.41-1.27l7.71-6.35c.58-.48,1.2-.94,1.86-1.32,2.31-1.32,4.68-1.74,7.16-.83-5.48,2.14-7.83,19.73-25.28,17.9,0,0,0,0,0,0,0,0,0,0,.01,0,1.67.4,3.3.75,4.83.99,2.85.45,5.85.3,8.57-.72,3.25-1.23,5.23-3.69,7.09-6.47,2.03-3.02,4.57-5.69,7.48-7.87,2.45-6.89.69-12.33-5.17-16.38-.04-.02-.08-.05-.12-.08-.14-.1-.29-.2-.43-.29-.03-.02-.07-.04-.11-.07l-.38-.24c-.17-.1-.35-.2-.52-.3-.18-.11-.35-.2-.53-.3-.18-.1-.37-.2-.55-.29-.16-.08-.32-.16-.48-.24-.46-.23-.94-.46-1.43-.68-.15-.06-.3-.13-.46-.2-.41-.18-.85-.35-1.29-.52,3.97.35,8.09,1.27,11.42,3.56,3.66,2.52,5.77,6.75,6.04,11.14.6,9.54-6.6,18.89-12.96,25.33-8.75,8.86-19.61,15.65-30.57,21.45-1.96,1.04-3.94,2.04-5.94,3.02-.66.33-1.33.65-2,.97-.79.38-1.59.75-2.38,1.12-.5.23-1,.46-1.5.69-1.4.64-2.8,1.27-4.21,1.89-.73.33-1.46.65-2.2.97,5.47-2.04,14.94-6.33,20.65-8.96,4.35-2.01,8.51-4.38,12.44-7.1,5.63-3.9,12.02-8.99,17.58-14.67,6.52-6.67,14.17-16.53,13.57-25.64-.18-2.82-1.36-5.2-2.99-7.16m-11.51,6.38c1.05.29,2.13.38,3.2.43-7.87,1.3-14.85-2.83-19.97-8.05-4.68-4.82-10.25-9.39-20.4-10.41,2.91-.21,10.15.14,15.67,1.18,2.52.48,4.68,1.1,5.91,1.88.52.33.88.68,1.02,1.07,2.35,6.43,6.87,11.86,14.57,13.9"/>
          <path class="cls-17" d="m120.89,46.31c.6,9.54-6.6,18.89-12.96,25.33-8.76,8.86-19.61,15.65-30.57,21.45-5.24,2.76-10.6,5.3-16.03,7.68,21.86-9.76,42.1-23.98,52.86-38.27,4.89-6.51,9.9-18.8.07-26.25-2.53-1.93-6.06-3.54-10.83-4.63,3.97.35,8.09,1.27,11.42,3.56,3.66,2.52,5.77,6.76,6.04,11.14"/>
          <path class="cls-17" d="m114.89,51.22c-1.47,4.17-4.5,8.86-9.09,14.09,0,0-.02.01-.02.03-2.42,2.62-6.12,3.64-9.55,2.65-4.09-1.18-9-2.6-9.31-2.7,1.67.4,3.3.75,4.83.99,2.85.45,5.85.3,8.57-.72,3.25-1.23,5.23-3.69,7.09-6.47,2.03-3.02,4.57-5.69,7.48-7.87"/>
          <path class="cls-17" d="m112.19,47.38c-5.27-.75-8.99,5.03-14.4,10.31-1.09,1.06-2.26,2.09-3.52,3.05-4.37,3.31-10.03,4.44-15.36,3.16-.03,0-.06-.01-.09-.02-3.36-.81-6.31-1.53-9-2.22,3.84.98,7.43,1.4,10.69,1.08,5.68-.37,10.1-2.35,13.54-5.58.46-.43.92-.86,1.41-1.27l7.71-6.35c.58-.48,1.2-.94,1.86-1.32,2.31-1.32,4.68-1.74,7.16-.83"/>
          <path class="cls-17" d="m103.81,47.7c-5.72-1.64-11.99,3.53-20.04,7.91-.05.02-.09.05-.14.08-8.66,4.69-19.01,5.2-28.1,1.41-.73-.3-1.45-.62-2.18-.95-1.84-.84-4.76-2.46-5.27-2.74,2.33,1.23,4.87,2.16,7.61,2.82,7.3,1.75,14.96,1.23,22.09-1.12,5.93-1.95,11.19-4.13,15.57-6.62,2.18-1.23,4.65-1.89,7.14-1.65,1.17.11,2.28.4,3.34.87"/>
          <path class="cls-17" d="m96.35,44.98c-6.43-1.77-15.79,2.23-26.72,5.17-.15.04-.3.08-.45.12-12.89,3.41-26.67.13-36.59-8.78-.1-.08-.18-.16-.27-.24.16.13.39.33.68.57,1.19.96,3.37,2.52,8.16,4.4,1.96.77,4.57,1.67,7.74,2.45,5.7.85,11.65.79,17.81-.06,2.63-.36,5.2-1.07,7.69-1.99,6.97-2.59,14.05-4.22,21.95-1.63"/>
          <path class="cls-17" d="m88.49,40.09c-7.33-2.55-18.92-.18-31.86.79-3.21.24-6.52.36-9.87.31-10.35-.16-20.17-4.54-27.33-12,6.61,6.29,15.3,9.87,26.24,10.52,13.58.16,28.25-6.22,42.84.38"/>
          <path class="cls-17" d="m140.55,87.48c-.08.13-3.18-1.43-3.42-1.53-1.91-.79-3.99-1.16-6.04-1.44-4.33-.58-8.74-.43-13.07-.03-4.4.4-8.77,1.18-13.09,2.11-4.18.9-8.32,1.98-12.4,3.24-1.22.37-2.44.75-3.64,1.16-1.1.37-2.34.64-3.36,1.17.17-.1.35-.2.52-.3,0,0,.01,0,.02-.01,1.35-.64,2.66-1.29,3.95-1.95.04-.01.08-.03.12-.05.17-.08.34-.16.5-.24,18.2-8.46,34.39-10.24,49.92-2.12"/>
          <path class="cls-17" d="m173.58,46.36c-.07-.04-.15-.09-.22-.13-1.52-1.7-3.89-2.32-7.12-1.83-1.55.23-3.06.7-4.49,1.33-16.29,7.16-28.85,16.88-39.1,28.25,8.68-13.44,25.55-23.99,39.42-30.53,1.76-.58,4.86-2.1,5.9-3.37,1.41-.1,2.52.17,3.37.73,1.64,1.07,2.29,3.18,2.24,5.55"/>
          <g class="cls-12">
            <g class="cls-13">
              <path class="cls-18" d="m159.44,43.3c-10.06,4.05-13.41.85-7.68-1.97.72-.07,1.69-.02,2.28.12.76,2.21,3.63,2.05,5.4,1.85"/>
            </g>
          </g>
          <path class="cls-17" d="m161.1,42.43c-2.73-6.21-24.4-.89-27.86,1.54.34-2.33.02-5.12-.97-7.42,2.31,2.55,9.4,2.03,16.52,1.53,6.55-.53,10.94.69,12.31,4.35"/>
          <g class="cls-12">
            <g class="cls-14">
              <path class="cls-18" d="m161.1,42.43c-2.73-6.21-24.4-.89-27.86,1.54.34-2.33.02-5.12-.97-7.42,2.31,2.55,9.4,2.03,16.52,1.53,6.55-.53,10.94.69,12.31,4.35"/>
            </g>
          </g>
          <path class="cls-17" d="m166.8,39.1c-.77.94-1.84,1.66-2.72,2.07-1.9.9-2.36,1.07-2.99,1.26-1.37-3.66-5.76-4.88-12.31-4.35-7.12.5-14.21,1.03-16.52-1.53,2.94,1.58,8.13,1.32,14.86-.17l.75-.17c5.64-1.7,10.43-2.24,13.94-1.15.13.04.26.08.38.13.13.04.25.08.38.13.12.05.26.1.38.16.04.01.07.03.11.05.05.03.11.05.16.08.02,0,.04.02.06.03.11.06.21.11.32.17.14.07.27.15.39.23.12.08.25.16.36.25.13.08.25.18.37.27.07.05.12.11.2.17.17.14.33.29.48.45.45.48.88,1.03,1.26,1.67.05.09.1.17.15.26"/>
          <path class="cls-17" d="m166.66,38.84c-.38-.64-.8-1.19-1.26-1.67.48.48.9,1.04,1.26,1.67"/>
          <g class="cls-12">
            <g class="cls-2">
              <path class="cls-18" d="m125.98,47.23c-.02,4.11-1.09,8.12-2.87,11.82-4.88,10.17-13.45,17.91-13.46,17.91-3.72,3.48-7.07,5.66-10.05,7.56,0,0-4.53,2.96-8.96,5.08-.16.08-.33.16-.5.24-.04.02-.08.04-.11.05-1.29.66-2.61,1.31-3.95,1.95,1.14-.59,2.24-1.34,3.32-2.03,2.38-1.52,4.7-3.12,6.97-4.79,2.52-1.86,4.99-3.8,7.37-5.83,2.48-2.11,4.88-4.31,7.16-6.63,2.24-2.27,4.37-4.65,6.32-7.17,1.82-2.36,3.48-4.84,4.86-7.48,1.1-2.13,2.03-4.36,2.6-6.69.99-4.05.83-8.43-1.33-12.09-2.39-4.07-6.74-7.11-11.51-9.21-7.96-3.53-24.21-5.46-35.05-6.43l-1.67-.14c-.72-.07-1.41-.12-2.07-.18-.29-.02-.57-.04-.84-.07C47.82,21.2,10.97,17.78,0,0c7.47,6.31,16.78,10.13,26.09,12.8,10.08,2.89,20.45,4.23,30.85,5.27,2.5.25,4.05.38,7.16.68,5.45.52,7.7.74,10.63,1.06,2.26.25,3.96.44,4.98.57,1.55.18,1.79.22,4.52.56,5.67.7,6.65.8,9.2,1.18.89.13,1.93.29,3.32.52,3.15.54,4.26.85,7.12,1.38.24.04.85.16,1.66.34.24.05.94.22,1.69.43.63.18,2.11.63,3.92,1.43.4.18,1.38.63,2.55,1.29.65.36,1.17.7,1.5.9,0,0,.51.34,1.01.68,2.55,1.77,4.33,3.7,4.31,3.71,1.14,1.24,1.96,2.43,2.53,3.39,2,3.33,2.95,7.19,2.93,11.04"/>
            </g>
          </g>
          <path class="cls-17" d="m80.28,32.13c-8.23-3.21-21.25-3.06-35.28-4.47-10.75-1.06-22.19-3.32-32.24-7.96-3.05-4.13-5.68-8.03-7.92-11.58,10.04,9.66,23.35,14.7,39.16,16.17,12.88.7,25.2,2.74,36.28,7.83"/>
          <path class="cls-17" d="m83.32,33.63c-1-.52-2.01-1.02-3.04-1.49"/>
          <g class="cls-12">
            <g class="cls-9">
              <path class="cls-18" d="m80.28,32.13c-8.23-3.21-21.25-3.06-35.28-4.47-10.75-1.06-22.19-3.32-32.24-7.96-3.05-4.13-5.68-8.03-7.92-11.58,10.04,9.66,23.35,14.7,39.16,16.17,12.88.7,25.2,2.74,36.28,7.83"/>
            </g>
          </g>
          <path class="cls-17" d="m91.8,41.81c-1.1-.66-2.21-1.23-3.31-1.72"/>
          <g class="cls-12">
            <g class="cls-1">
              <path class="cls-18" d="m88.49,40.09c-7.33-2.55-18.92-.18-31.86.79-3.21.24-6.52.36-9.87.31-10.35-.16-20.17-4.54-27.33-12,6.61,6.29,15.3,9.87,26.24,10.52,13.58.16,28.25-6.22,42.84.38"/>
            </g>
          </g>
          <path class="cls-17" d="m97.88,45.53c-.51-.2-1.02-.38-1.53-.55"/>
          <g class="cls-12">
            <g class="cls-7">
              <path class="cls-18" d="m96.35,44.98c-6.43-1.77-15.79,2.23-26.72,5.17-.15.04-.3.08-.45.12-12.89,3.41-26.67.13-36.59-8.78-.1-.08-.18-.16-.27-.24.16.13.39.33.68.57,1.19.96,3.37,2.52,8.16,4.4,1.96.77,4.57,1.67,7.74,2.45,5.7.85,11.65.79,17.81-.06,2.63-.36,5.2-1.07,7.69-1.99,6.97-2.59,14.05-4.22,21.95-1.63"/>
            </g>
          </g>
          <g class="cls-12">
            <g class="cls-3">
              <path class="cls-18" d="m103.81,47.7c-5.72-1.64-11.99,3.53-20.04,7.91-.05.02-.09.05-.14.08-8.66,4.69-19.01,5.2-28.1,1.41-.73-.3-1.45-.62-2.18-.95-1.84-.84-4.76-2.46-5.27-2.74,2.33,1.23,4.87,2.16,7.61,2.82,7.3,1.75,14.96,1.23,22.09-1.12,5.93-1.95,11.19-4.13,15.57-6.62,2.18-1.23,4.65-1.89,7.14-1.65,1.17.11,2.28.4,3.34.87"/>
            </g>
          </g>
          <g class="cls-12">
            <g class="cls-5">
              <path class="cls-18" d="m112.19,47.38c-5.27-.75-8.99,5.03-14.4,10.31-1.09,1.06-2.26,2.09-3.52,3.05-4.37,3.31-10.03,4.44-15.36,3.16-.03,0-.06-.01-.09-.02-3.36-.81-6.31-1.53-9-2.22,3.84.98,7.43,1.4,10.69,1.08,5.68-.37,10.1-2.35,13.54-5.58.46-.43.92-.86,1.41-1.27l7.71-6.35c.58-.48,1.2-.94,1.86-1.32,2.31-1.32,4.68-1.74,7.16-.83"/>
            </g>
          </g>
          <path class="cls-17" d="m114.91,51.2s-.02.01-.02.02"/>
          <path class="cls-17" d="m86.91,65.29s0,0-.01,0"/>
          <g class="cls-12">
            <g class="cls-15">
              <path class="cls-18" d="m114.89,51.22c-1.47,4.17-4.5,8.86-9.09,14.09,0,0-.02.01-.02.03-2.42,2.62-6.12,3.64-9.55,2.65-4.09-1.18-9-2.6-9.31-2.7,1.67.4,3.3.75,4.83.99,2.85.45,5.85.3,8.57-.72,3.25-1.23,5.23-3.69,7.09-6.47,2.03-3.02,4.57-5.69,7.48-7.87"/>
            </g>
          </g>
          <g class="cls-12">
            <g class="cls-4">
              <path class="cls-18" d="m120.89,46.31c.6,9.54-6.6,18.89-12.96,25.33-8.76,8.86-19.61,15.65-30.57,21.45-5.24,2.76-10.6,5.3-16.03,7.68,21.86-9.76,42.1-23.98,52.86-38.27,4.89-6.51,9.9-18.8.07-26.25-2.53-1.93-6.06-3.54-10.83-4.63,3.97.35,8.09,1.27,11.42,3.56,3.66,2.52,5.77,6.76,6.04,11.14"/>
            </g>
          </g>
          <path class="cls-17" d="m86.04,91.86s-.04.02-.05.03"/>
          <g class="cls-12">
            <g class="cls-6">
              <path class="cls-18" d="m140.55,87.48c-.08.13-3.18-1.43-3.42-1.53-1.91-.79-3.99-1.16-6.04-1.44-4.33-.58-8.74-.43-13.07-.03-4.4.4-8.77,1.18-13.09,2.11-4.18.9-8.32,1.98-12.4,3.24-1.22.37-2.44.75-3.64,1.16-1.1.37-2.34.64-3.36,1.17.17-.1.35-.2.52-.3,0,0,.01,0,.02-.01,1.35-.64,2.66-1.29,3.95-1.95.04-.01.08-.03.12-.05.17-.08.34-.16.5-.24,18.2-8.46,34.39-10.24,49.92-2.12"/>
            </g>
          </g>
          <path class="cls-17" d="m140.55,87.48c-15.68-8.19-32.01-6.3-50.42,2.36,7.64-3.9,14.41-8.09,19.51-12.88,4.19-4.31,8.18-8.91,11.35-14.04,3.29-5.33,5.37-11.15,4.92-17.49-.42-5.94-3.11-11.01-7.67-14.79-3.29-2.73-7.16-4.8-11.28-5.93-2.43-.67-4.93-1-7.4-1.53-5.03-1.08-10.23-1.59-15.33-2.25-6.69-.87-13.41-1.57-20.13-2.18-2.39-.22-4.78-.44-7.16-.68-10.4-1.04-20.77-2.38-30.85-5.27C16.78,10.13,7.47,6.31,0,0c6.51,2.07,13.03,4.14,19.54,6.2,12.3,3.9,24.71,7.48,37.6,8.74,5.98.59,12.01.78,18.02.52,7.07-.33,14.21-.28,21.22.78,8,1.2,15.92,3.8,22.38,8.8,5.5,4.26,9.79,10.35,10.44,17.43.06.7.1,1.4.1,2.1.01,7.6-3.27,14.66-7.18,21.01-1.68,2.72-3.53,5.35-5.56,7.83-1.86,2.27-6.26,6.65-6.26,6.65,0,0,1.79-.05,2.74-.06,4.32-.05,8.66.14,12.91.95,3.22.61,6.43,1.54,9.36,3.01,1.11.56,2.18,1.19,3.21,1.89.17.11,2.17,1.4,2.03,1.63"/>
          <g class="cls-12">
            <g class="cls-10">
              <path class="cls-18" d="m173.36,46.23c-.07-.04-.14-.07-.21-.11-.08-.04-.15-.07-.22-.1-.06-.04-.12-.07-.19-.09-.02,0-.03,0-.04-.01-3.93-1.61-10.5.32-18,4.24h0c-2.55,1.33-5.2,2.89-7.89,4.62-8.37,5.39-17.11,12.4-24.16,19.2,10.25-11.37,22.82-21.09,39.1-28.25,1.43-.63,2.94-1.1,4.49-1.33,3.23-.48,5.6.13,7.12,1.83"/>
            </g>
          </g>
        </g>
      </g>
    </g>
  </g>
</svg>