<svg width="281" height="270" viewBox="0 0 281 270" fill="none" xmlns="http://www.w3.org/2000/svg">
<path d="M54.1899 183.03H28.2V222.95H37.9299V208.2L33.8399 206.8H50.0999V199.24H37.9299V192.22L33.8399 190.83H54.1899V183.03Z" fill="#0C2231"/>
<path d="M82.39 183.03H71.1299L56.6899 222.94H66.8699L69.2499 215.9H84.1599L86.5399 222.94H96.8399L82.3999 183.03H82.39ZM71.8199 208.39L76.7099 193.78L81.6599 208.39H71.83H71.8199Z" fill="#0C2231"/>
<path d="M106.85 215.44L110.94 214.05V183.03H101.21V222.95H123.67V215.44H106.85Z" fill="#0C2231"/>
<path d="M151.63 213.11C150.16 213.98 148.51 214.42 146.65 214.42C143.65 214.42 141.23 213.37 139.37 211.29C137.51 209.21 136.59 206.41 136.59 202.93C136.59 199.45 137.51 196.66 139.37 194.56C141.23 192.48 143.65 191.44 146.65 191.44C148.51 191.44 150.16 191.87 151.63 192.74C153.09 193.61 154.22 194.89 155.01 196.55H165.71C164.57 192.23 162.31 188.82 158.93 186.31C155.56 183.82 151.51 182.56 146.76 182.56C142.89 182.56 139.43 183.42 136.38 185.15C133.33 186.88 130.95 189.28 129.25 192.37C127.55 195.46 126.69 198.98 126.69 202.92C126.69 206.86 127.54 210.36 129.25 213.43C130.95 216.51 133.34 218.9 136.38 220.63C139.43 222.36 142.89 223.22 146.76 223.22C151.5 223.22 155.56 221.98 158.93 219.49C162.31 217.02 164.57 213.61 165.71 209.28H155.01C154.22 210.95 153.09 212.22 151.63 213.09" fill="#0C2231"/>
<path d="M208.25 192.35C206.45 189.25 203.99 186.82 200.86 185.07C197.74 183.33 194.3 182.46 190.54 182.46C186.78 182.46 183.34 183.33 180.22 185.07C177.09 186.81 174.6 189.25 172.77 192.35C170.93 195.46 170.02 198.97 170.02 202.87C170.02 206.77 170.93 210.29 172.77 213.42C174.61 216.54 177.09 218.98 180.22 220.72C183.34 222.46 186.79 223.34 190.54 223.34C194.29 223.34 197.73 222.47 200.84 220.72C203.94 218.98 206.4 216.54 208.23 213.42C210.05 210.29 210.96 206.78 210.96 202.87C210.96 198.96 210.06 195.46 208.25 192.35ZM198.19 211.29C196.28 213.41 193.72 214.47 190.54 214.47C187.36 214.47 184.75 213.42 182.84 211.32C180.92 209.22 179.96 206.4 179.96 202.87C179.96 199.34 180.91 196.49 182.84 194.4C184.75 192.32 187.32 191.27 190.54 191.27C193.76 191.27 196.28 192.33 198.19 194.43C200.11 196.53 201.06 199.35 201.06 202.87C201.06 206.39 200.11 209.16 198.19 211.29Z" fill="#0C2231"/>
<path d="M242.35 183.03V207.77L226.09 183.03H216.36V222.95H226.09V198.33L242.35 222.95H252.07V183.03H242.35Z" fill="#0C2231"/>
<path d="M81.86 258.42L83.34 257.92V237H81V260.32H91.71V258.42H81.86Z" fill="#0C2231"/>
<path d="M111.01 246.26C110.22 244.85 109.13 243.76 107.74 242.99C106.35 242.23 104.8 241.85 103.09 241.85C101.38 241.85 99.83 242.23 98.46 242.99C97.08 243.76 95.99 244.85 95.19 246.26C94.39 247.68 93.99 249.33 93.99 251.22C93.99 253.11 94.38 254.75 95.17 256.17C95.96 257.58 97.04 258.67 98.4 259.44C99.77 260.2 101.31 260.59 103.02 260.59C104.73 260.59 106.28 260.21 107.69 259.44C109.09 258.67 110.19 257.58 110.99 256.15C111.79 254.72 112.19 253.08 112.19 251.22C112.19 249.36 111.8 247.68 111.01 246.26ZM108.84 255.27C108.21 256.37 107.38 257.19 106.36 257.73C105.33 258.27 104.23 258.55 103.03 258.55C101.83 258.55 100.72 258.28 99.71 257.73C98.7 257.19 97.89 256.37 97.28 255.27C96.67 254.16 96.36 252.82 96.36 251.22C96.36 249.62 96.67 248.27 97.28 247.16C97.9 246.06 98.71 245.24 99.73 244.7C100.76 244.16 101.86 243.88 103.06 243.88C104.26 243.88 105.38 244.15 106.39 244.7C107.42 245.24 108.24 246.06 108.86 247.16C109.49 248.27 109.8 249.61 109.8 251.22C109.8 252.83 109.48 254.16 108.85 255.27" fill="#0C2231"/>
<path d="M131.3 242.11V246.08C130.75 244.86 129.84 243.84 128.57 243.05C127.31 242.25 125.82 241.85 124.1 241.85C122.38 241.85 120.94 242.23 119.61 243C118.29 243.77 117.26 244.86 116.51 246.27C115.76 247.69 115.39 249.32 115.39 251.19C115.39 253.06 115.76 254.71 116.51 256.12C117.25 257.55 118.29 258.65 119.61 259.43C120.94 260.2 122.43 260.59 124.1 260.59C125.77 260.59 127.3 260.19 128.55 259.37C129.8 258.56 130.72 257.54 131.3 256.29V260.79C131.3 262.12 131.04 263.28 130.5 264.26C129.96 265.24 129.23 265.98 128.3 266.48C127.36 266.98 126.31 267.23 125.13 267.23C123.5 267.23 122.13 266.85 121.01 266.09C119.89 265.34 119.13 264.32 118.73 263.06H116.43C116.8 264.97 117.77 266.48 119.31 267.59C120.85 268.71 122.8 269.26 125.13 269.26C126.77 269.26 128.24 268.91 129.53 268.21C130.81 267.51 131.82 266.52 132.55 265.23C133.27 263.94 133.63 262.46 133.63 260.79V242.11H131.3ZM130.4 255.08C129.8 256.2 128.98 257.05 127.95 257.65C126.91 258.25 125.78 258.55 124.53 258.55C123.28 258.55 122.08 258.26 121.06 257.67C120.03 257.08 119.23 256.23 118.64 255.1C118.05 253.98 117.75 252.67 117.75 251.19C117.75 249.71 118.05 248.37 118.64 247.27C119.23 246.17 120.03 245.34 121.06 244.75C122.08 244.18 123.24 243.89 124.53 243.89C125.82 243.89 126.91 244.19 127.95 244.79C128.99 245.39 129.8 246.24 130.4 247.36C131 248.47 131.3 249.76 131.3 251.23C131.3 252.7 131 253.98 130.4 255.09" fill="#0C2231"/>
<path d="M138.97 260.32H141.3V242.11H138.97V260.32ZM141.33 235.72C141 235.4 140.6 235.24 140.13 235.24C139.66 235.24 139.27 235.4 138.93 235.72C138.59 236.05 138.43 236.45 138.43 236.94C138.43 237.43 138.59 237.84 138.93 238.18C139.27 238.52 139.67 238.68 140.13 238.68C140.59 238.68 141 238.52 141.33 238.18C141.67 237.84 141.83 237.44 141.83 236.94C141.83 236.44 141.67 236.05 141.33 235.72Z" fill="#0C2231"/>
<path d="M158.35 252.91C157.8 252.27 157.12 251.78 156.34 251.44C155.57 251.11 154.52 250.77 153.21 250.4C152.12 250.09 151.26 249.81 150.61 249.55C149.97 249.3 149.43 248.93 148.99 248.48C148.55 248.02 148.34 247.44 148.34 246.74C148.34 245.91 148.71 245.22 149.44 244.67C150.17 244.12 151.13 243.83 152.31 243.83C153.64 243.83 154.7 244.16 155.46 244.81C156.23 245.47 156.65 246.33 156.71 247.4H159.04C158.95 245.66 158.31 244.3 157.11 243.31C155.91 242.32 154.33 241.83 152.38 241.83C151.13 241.83 150.02 242.05 149.04 242.49C148.07 242.94 147.31 243.53 146.78 244.3C146.24 245.05 145.98 245.87 145.98 246.76C145.98 247.94 146.27 248.88 146.86 249.58C147.45 250.29 148.17 250.82 149.01 251.17C149.85 251.52 150.95 251.88 152.31 252.23C153.35 252.5 154.18 252.75 154.8 252.98C155.41 253.22 155.92 253.53 156.32 253.93C156.72 254.33 156.92 254.84 156.92 255.47C156.92 256.35 156.56 257.1 155.84 257.71C155.11 258.31 154.11 258.61 152.85 258.61C151.41 258.61 150.25 258.29 149.4 257.66C148.55 257.03 148.06 256.2 147.95 255.17H145.55C145.7 256.84 146.44 258.16 147.77 259.13C149.1 260.09 150.8 260.57 152.89 260.57C154.13 260.57 155.23 260.35 156.19 259.91C157.14 259.47 157.89 258.86 158.43 258.09C158.97 257.32 159.23 256.45 159.23 255.47C159.21 254.4 158.92 253.54 158.37 252.9" fill="#0C2231"/>
<path d="M171.65 244.08V242.11H166.64V237.54H164.27V242.11H161.73V244.08H164.27V255.39C164.27 257.14 164.67 258.41 165.48 259.17C166.28 259.94 167.5 260.32 169.14 260.32H171.65V258.32H169.51C168.44 258.32 167.69 258.1 167.28 257.68C166.87 257.26 166.64 256.49 166.64 255.38V244.57L165.17 244.07H171.65V244.08Z" fill="#0C2231"/>
<path d="M175.49 260.32H177.82V242.11H175.49V260.32ZM177.86 235.72C177.52 235.4 177.12 235.24 176.65 235.24C176.18 235.24 175.79 235.4 175.45 235.72C175.12 236.05 174.95 236.45 174.95 236.94C174.95 237.43 175.12 237.84 175.45 238.18C175.79 238.52 176.19 238.68 176.65 238.68C177.11 238.68 177.52 238.52 177.86 238.18C178.19 237.84 178.36 237.44 178.36 236.94C178.36 236.44 178.19 236.05 177.86 235.72Z" fill="#0C2231"/>
<path d="M194.74 257.5C193.71 258.25 192.42 258.62 190.89 258.62C189.67 258.62 188.57 258.34 187.59 257.79C186.61 257.24 185.84 256.4 185.27 255.28C184.7 254.17 184.42 252.82 184.42 251.22C184.42 249.62 184.7 248.27 185.27 247.16C185.83 246.06 186.6 245.23 187.59 244.68C188.57 244.13 189.67 243.84 190.89 243.84C192.43 243.84 193.72 244.21 194.74 244.96C195.77 245.7 196.45 246.73 196.76 248.05H199.27C198.84 246.13 197.91 244.62 196.45 243.51C194.99 242.4 193.14 241.85 190.89 241.85C189.18 241.85 187.66 242.23 186.32 242.99C184.99 243.76 183.94 244.85 183.19 246.26C182.44 247.68 182.05 249.33 182.05 251.22C182.05 253.11 182.43 254.75 183.19 256.17C183.94 257.58 184.99 258.67 186.32 259.44C187.65 260.2 189.18 260.58 190.89 260.58C193.12 260.58 194.96 260.02 196.43 258.88C197.89 257.74 198.84 256.25 199.26 254.37H196.75C196.44 255.71 195.77 256.75 194.73 257.49" fill="#0C2231"/>
<mask id="mask0_6_629" style="mask-type:luminance" maskUnits="userSpaceOnUse" x="198" y="71" width="82" height="49">
<path d="M268.4 71.67C265.89 72.04 263.47 72.8 261.15 73.82C234.86 85.39 214.57 101.07 198.02 119.43C209.39 108.45 223.5 97.14 237.02 88.44C241.37 85.65 245.64 83.13 249.76 80.98C261.87 74.65 272.47 71.52 278.82 74.13C278.83 74.13 278.86 74.14 278.88 74.15C278.98 74.19 279.08 74.23 279.18 74.3C279.3 74.35 279.42 74.4 279.54 74.46C279.65 74.52 279.77 74.58 279.88 74.64C277.97 72.5 275.22 71.42 271.63 71.42C270.61 71.42 269.53 71.51 268.38 71.68" fill="white"/>
</mask>
<g mask="url(#mask0_6_629)">
<path d="M275.8 53.5143L187.559 73.7889L202.144 137.265L290.385 116.99L275.8 53.5143Z" fill="url(#paint0_linear_6_629)"/>
</g>
<mask id="mask1_6_629" style="mask-type:luminance" maskUnits="userSpaceOnUse" x="211" y="66" width="47" height="28">
<path d="M245.02 66.71C235.77 71.28 223.29 80.44 211.34 93.22C224.02 83.12 241.18 76.44 257.42 69.9C254.57 70.22 249.93 70.47 248.7 66.91C248.04 66.75 247.08 66.66 246.16 66.66C245.76 66.66 245.37 66.68 245.02 66.71Z" fill="white"/>
</mask>
<g mask="url(#mask1_6_629)">
<path d="M233.643 43.6076L198.054 80.3326L235.095 116.228L270.684 79.5028L233.643 43.6076Z" fill="url(#paint1_linear_6_629)"/>
</g>
<mask id="mask2_6_629" style="mask-type:luminance" maskUnits="userSpaceOnUse" x="211" y="66" width="47" height="28">
<path d="M245.02 66.71C235.77 71.28 223.29 80.44 211.34 93.22C224.02 83.12 241.18 76.44 257.42 69.9C254.57 70.22 249.93 70.47 248.7 66.91C248.04 66.75 247.08 66.66 246.16 66.66C245.76 66.66 245.37 66.68 245.02 66.71Z" fill="white"/>
</mask>
<g mask="url(#mask2_6_629)">
<path d="M240.778 44.486L198.571 76.2103L227.964 115.316L270.171 83.5912L240.778 44.486Z" fill="url(#paint2_linear_6_629)"/>
</g>
<mask id="mask3_6_629" style="mask-type:luminance" maskUnits="userSpaceOnUse" x="267" y="60" width="3" height="3">
<path d="M269.07 62.71C268.49 61.69 267.82 60.79 267.04 60.01C267.77 60.78 268.45 61.68 269.07 62.71Z" fill="white"/>
</mask>
<g mask="url(#mask3_6_629)">
<path d="M268.012 58.9795L265.68 61.3852L268.072 63.7026L270.403 61.2969L268.012 58.9795Z" fill="url(#paint3_linear_6_629)"/>
</g>
<mask id="mask4_6_629" style="mask-type:luminance" maskUnits="userSpaceOnUse" x="7" y="13" width="193" height="152">
<path d="M148.7 59.65C141.14 51.87 132.15 44.49 115.78 42.85C120.48 42.51 132.17 43.08 141.08 44.75C145.15 45.52 148.64 46.52 150.63 47.78C151.47 48.31 152.05 48.89 152.28 49.51C156.07 59.9 163.38 68.65 175.8 71.96C177.5 72.42 179.24 72.57 180.96 72.66C179.36 72.92 177.78 73.05 176.23 73.05C165.47 73.05 155.95 67.03 148.72 59.66M71.0799 39.24C91.8699 40.37 111.76 43.66 129.64 51.89C131.43 52.59 133.06 53.38 134.55 54.3C136.25 55.33 137.75 56.52 139.02 57.9C132.07 55.23 120.09 57.13 106 59.03C82.3699 62.22 52.8199 65.41 31.2299 46.99L31.3699 47.13C42.0499 57.28 56.0599 63.07 73.7299 64.12C81.0699 64.2 88.6099 63.11 96.2799 62.01C111.5 59.83 127.22 57.65 142.88 64.73C144.86 65.41 146.65 66.33 148.23 67.51C141.63 66.18 131.95 69.33 120.43 72.48C100.88 77.83 76.0599 83.17 52.2099 66.58C52.4599 66.79 52.8399 67.11 53.3099 67.5C55.2299 69.05 58.7499 71.57 66.4799 74.6C69.6499 75.84 73.8499 77.3 78.9699 78.56C88.1799 79.93 97.7799 79.84 107.72 78.46C111.97 77.87 116.12 76.73 120.13 75.24C131.39 71.06 142.81 68.43 155.57 72.62C156.43 72.84 157.25 73.15 158.04 73.51C152.13 73.46 143.99 77.87 134.11 82.28C118.83 89.1 99.3999 95.92 77.6199 86.22C81.3799 88.21 85.4899 89.7 89.8999 90.77C101.69 93.6 114.05 92.76 125.56 88.97C135.13 85.83 143.62 82.29 150.7 78.28C154.21 76.29 158.21 75.22 162.23 75.61C164.11 75.79 165.91 76.25 167.62 77.02C156.53 78.98 142.49 105.74 112.74 99.54C118.93 101.13 124.73 101.81 130 101.27C139.16 100.67 146.31 97.48 151.86 92.27C152.6 91.57 153.35 90.88 154.13 90.22L166.58 79.96C167.52 79.19 168.51 78.44 169.57 77.83C173.3 75.7 177.13 75.02 181.14 76.5C172.29 79.95 168.5 108.35 140.33 105.4V105.41C140.33 105.41 140.33 105.41 140.34 105.41C140.34 105.41 140.34 105.41 140.35 105.41C143.05 106.05 145.68 106.62 148.15 107.02C152.75 107.75 157.6 107.51 161.98 105.85C167.22 103.86 170.42 99.89 173.43 95.4C176.71 90.52 180.81 86.21 185.51 82.69C189.46 71.57 186.62 62.78 177.16 56.25C177.1 56.21 177.03 56.16 176.97 56.12C176.74 55.96 176.51 55.81 176.27 55.65C176.22 55.62 176.16 55.58 176.09 55.54L175.47 55.14C175.2 54.98 174.91 54.82 174.64 54.65C174.35 54.48 174.07 54.33 173.78 54.16C173.49 54 173.19 53.84 172.9 53.68C172.64 53.54 172.39 53.42 172.12 53.29C171.38 52.91 170.61 52.55 169.82 52.19C169.57 52.09 169.33 51.98 169.08 51.87C168.41 51.58 167.71 51.3 167 51.02C173.41 51.58 180.05 53.08 185.44 56.76C191.35 60.82 194.75 67.66 195.19 74.75C196.16 90.15 184.53 105.25 174.27 115.64C160.13 129.94 142.61 140.91 124.92 150.27C121.76 151.94 118.56 153.56 115.33 155.14C114.26 155.66 113.18 156.19 112.11 156.7C110.83 157.31 109.55 157.91 108.27 158.51C107.46 158.88 106.66 159.26 105.85 159.62C103.59 160.66 101.33 161.67 99.0499 162.67C97.8699 163.2 96.6899 163.72 95.4899 164.23C104.33 160.93 119.61 154.01 128.84 149.76C135.86 146.52 142.58 142.69 148.93 138.3C158.02 132 168.33 123.79 177.31 114.61C187.84 103.85 200.19 87.92 199.22 73.21C198.93 68.65 197.02 64.82 194.39 61.64C190.07 56.42 183.78 52.98 179.37 51.04C170.79 47.24 154.35 44.02 131.4 41.65C126.66 41.16 121.65 40.71 116.37 40.29C95.4099 38.66 71.2499 36.47 49.4799 31.19C31.1399 26.73 17.3699 20.77 7.86987 13.11C24.0899 28.7 45.5599 36.84 71.0799 39.21" fill="white"/>
</mask>
<g mask="url(#mask4_6_629)">
<path d="M100.974 -82.9943L-67.6802 91.0436L107.018 260.338L275.673 86.3004L100.974 -82.9943Z" fill="url(#paint4_linear_6_629)"/>
</g>
<mask id="mask5_6_629" style="mask-type:luminance" maskUnits="userSpaceOnUse" x="99" y="51" width="97" height="112">
<path d="M184.48 58.52C200.34 70.55 192.27 90.4 184.37 100.9C167.01 123.97 134.33 146.92 99.0399 162.68C107.81 158.84 116.46 154.75 124.92 150.29C142.61 140.94 160.13 129.96 174.27 115.66C184.53 105.27 196.16 90.17 195.19 74.77C194.75 67.69 191.35 60.85 185.43 56.78C180.05 53.09 173.4 51.6 166.99 51.04C174.7 52.81 180.39 55.4 184.48 58.52Z" fill="white"/>
</mask>
<g mask="url(#mask5_6_629)">
<path d="M195.267 28.9117L74.6796 56.6186L104.124 184.769L224.712 157.062L195.267 28.9117Z" fill="url(#paint5_linear_6_629)"/>
</g>
<mask id="mask6_6_629" style="mask-type:luminance" maskUnits="userSpaceOnUse" x="140" y="82" width="46" height="29">
<path d="M173.41 95.4C170.4 99.89 167.2 103.86 161.96 105.85C157.58 107.5 152.73 107.75 148.13 107.02C145.66 106.62 143.03 106.05 140.33 105.41C140.83 105.57 148.76 107.86 155.36 109.76C160.9 111.35 166.87 109.71 170.78 105.48C170.78 105.46 170.8 105.44 170.81 105.44C178.23 96.99 183.11 89.42 185.49 82.69C180.79 86.21 176.69 90.52 173.41 95.4Z" fill="white"/>
</mask>
<g mask="url(#mask6_6_629)">
<path d="M183.241 72.8096L134.091 84.1024L142.61 121.176L191.759 109.884L183.241 72.8096Z" fill="url(#paint6_linear_6_629)"/>
</g>
<mask id="mask7_6_629" style="mask-type:luminance" maskUnits="userSpaceOnUse" x="112" y="75" width="70" height="29">
<path d="M169.57 77.82C168.5 78.43 167.52 79.17 166.58 79.95L154.13 90.21C153.34 90.86 152.6 91.56 151.86 92.26C146.31 97.47 139.16 100.66 130 101.26C124.73 101.79 118.93 101.11 112.74 99.52C117.07 100.63 121.84 101.79 127.26 103.11C127.31 103.12 127.35 103.13 127.4 103.14C136 105.21 145.14 103.39 152.2 98.05C154.24 96.5 156.13 94.85 157.89 93.13C166.63 84.61 172.64 75.27 181.14 76.49C179.68 75.95 178.24 75.7 176.83 75.7C174.36 75.7 171.95 76.47 169.58 77.82" fill="white"/>
</mask>
<g mask="url(#mask7_6_629)">
<path d="M177.704 60.3159L106.207 76.7435L116.17 120.104L187.667 103.676L177.704 60.3159Z" fill="url(#paint7_linear_6_629)"/>
</g>
<mask id="mask8_6_629" style="mask-type:luminance" maskUnits="userSpaceOnUse" x="77" y="75" width="91" height="22">
<path d="M150.7 78.26C143.62 82.27 135.13 85.8 125.56 88.95C114.05 92.75 101.69 93.58 89.8999 90.75C85.4799 89.69 81.3799 88.19 77.6199 86.21C78.4499 86.68 83.1599 89.28 86.1299 90.64C87.3099 91.18 88.4799 91.69 89.6599 92.17C104.34 98.28 121.05 97.47 135.03 89.89C135.11 89.85 135.18 89.8 135.26 89.76C148.26 82.7 158.39 74.35 167.62 76.99C165.91 76.22 164.11 75.76 162.23 75.58C161.68 75.53 161.13 75.5 160.58 75.5C157.13 75.5 153.73 76.53 150.7 78.25" fill="white"/>
</mask>
<g mask="url(#mask8_6_629)">
<path d="M163.12 54.6981L72.4131 75.5394L82.1473 117.905L172.854 97.0642L163.12 54.6981Z" fill="url(#paint8_linear_6_629)"/>
</g>
<mask id="mask9_6_629" style="mask-type:luminance" maskUnits="userSpaceOnUse" x="52" y="66" width="104" height="18">
<path d="M52.6299 66.96C68.6299 81.35 90.8799 86.64 111.69 81.13C111.93 81.06 112.18 81.01 112.42 80.94C130.07 76.2 145.18 69.74 155.56 72.6C142.8 68.41 131.38 71.05 120.12 75.22C116.11 76.71 111.96 77.85 107.71 78.44C97.7699 79.82 88.1699 79.91 78.9599 78.54C73.8399 77.28 69.6399 75.82 66.4699 74.58C58.7399 71.55 55.2299 69.02 53.2999 67.48C52.8199 67.09 52.45 66.77 52.2 66.56C52.34 66.69 52.4699 66.82 52.6299 66.95" fill="white"/>
</mask>
<g mask="url(#mask9_6_629)">
<path d="M150.39 43.9802L47.8221 67.5467L57.384 109.162L159.951 85.5959L150.39 43.9802Z" fill="url(#paint9_linear_6_629)"/>
</g>
<mask id="mask10_6_629" style="mask-type:luminance" maskUnits="userSpaceOnUse" x="31" y="47" width="112" height="20">
<path d="M75.49 66.5C80.89 66.58 86.24 66.39 91.43 66C112.33 64.43 131.04 60.6 142.87 64.72C127.21 57.63 111.49 59.82 96.27 62C88.6 63.1 81.06 64.2 73.72 64.11C56.06 63.06 42.04 57.27 31.36 47.12C42.92 59.17 58.79 66.24 75.49 66.5Z" fill="white"/>
</mask>
<g mask="url(#mask10_6_629)">
<path d="M137.285 22.7595L27.1254 48.0704L36.9626 90.8848L147.122 65.5739L137.285 22.7595Z" fill="url(#paint10_linear_6_629)"/>
</g>
<mask id="mask11_6_629" style="mask-type:luminance" maskUnits="userSpaceOnUse" x="138" y="132" width="89" height="17">
<path d="M146.33 144.66C146.07 144.78 145.8 144.91 145.52 145.04C145.46 145.07 145.39 145.1 145.34 145.13C143.25 146.2 141.13 147.25 138.96 148.28C138.96 148.29 138.94 148.3 138.93 148.3C138.64 148.46 138.36 148.63 138.08 148.79C139.74 147.95 141.74 147.5 143.51 146.91C145.46 146.26 147.42 145.63 149.39 145.04C155.99 143.02 162.68 141.27 169.42 139.82C176.39 138.33 183.46 137.07 190.55 136.42C197.55 135.77 204.67 135.53 211.66 136.46C214.97 136.9 218.32 137.51 221.41 138.78C221.79 138.93 226.79 141.46 226.92 141.24C215.84 135.45 204.56 132.78 192.88 132.78C178.12 132.78 162.73 137.05 146.33 144.67" fill="white"/>
</mask>
<g mask="url(#mask11_6_629)">
<path d="M222.473 113.352L134.592 133.544L142.54 168.133L230.42 147.941L222.473 113.352Z" fill="url(#paint11_linear_6_629)"/>
</g>
<mask id="mask12_6_629" style="mask-type:luminance" maskUnits="userSpaceOnUse" x="198" y="64" width="83" height="56">
<path d="M271.18 64.7C269.5 66.75 264.5 69.2 261.66 70.15C239.27 80.7 212.04 97.73 198.02 119.44C214.57 101.08 234.86 85.4 261.15 73.83C263.47 72.81 265.89 72.05 268.4 71.68C273.62 70.9 277.45 71.89 279.9 74.64C280.01 74.7 280.14 74.78 280.25 74.85C280.33 71.03 279.28 67.62 276.63 65.89C275.45 65.12 273.96 64.68 272.11 64.68C271.81 64.68 271.5 64.69 271.18 64.72" fill="white"/>
</mask>
<g mask="url(#mask12_6_629)">
<path d="M257.029 27.571L173.353 80.1422L221.317 156.485L304.993 103.914L257.029 27.571Z" fill="url(#paint12_linear_6_629)"/>
</g>
<mask id="mask13_6_629" style="mask-type:luminance" maskUnits="userSpaceOnUse" x="240" y="66" width="18" height="7">
<path d="M245.02 66.71C235.77 71.28 241.18 76.44 257.41 69.9C254.56 70.22 249.92 70.47 248.69 66.91C248.03 66.75 247.07 66.66 246.15 66.66C245.75 66.66 245.36 66.68 245.01 66.71" fill="white"/>
</mask>
<g mask="url(#mask13_6_629)">
<path d="M246.249 55.8178L230.877 71.6813L246.927 87.2349L262.299 71.3715L246.249 55.8178Z" fill="url(#paint13_linear_6_629)"/>
</g>
<mask id="mask14_6_629" style="mask-type:luminance" maskUnits="userSpaceOnUse" x="213" y="59" width="48" height="12">
<path d="M215.11 70.99C220.69 67.07 255.68 58.49 260.09 68.51C257.88 62.6 250.8 60.63 240.22 61.48C228.73 62.29 217.28 63.14 213.55 59.02C215.14 62.73 215.66 67.23 215.12 70.99" fill="white"/>
</mask>
<g mask="url(#mask14_6_629)">
<path d="M257.371 47.6099L210.608 59.2518L216.256 81.9393L263.019 70.2974L257.371 47.6099Z" fill="url(#paint14_linear_6_629)"/>
</g>
<mask id="mask15_6_629" style="mask-type:luminance" maskUnits="userSpaceOnUse" x="213" y="55" width="57" height="14">
<path d="M238.74 58.46L237.53 58.74C226.67 61.14 218.28 61.56 213.54 59.02C217.27 63.14 228.72 62.3 240.21 61.48C250.79 60.63 257.87 62.59 260.08 68.51C261.08 68.2 261.84 67.92 264.9 66.48C266.31 65.82 268.04 64.65 269.28 63.14C269.2 63 269.13 62.86 269.04 62.72C268.43 61.69 267.75 60.79 267.01 60.02C266.77 59.76 266.51 59.52 266.24 59.29C266.12 59.2 266.03 59.1 265.92 59.02C265.72 58.86 265.53 58.71 265.32 58.58C265.14 58.44 264.93 58.3 264.73 58.18C264.53 58.05 264.31 57.92 264.1 57.81C263.93 57.71 263.76 57.62 263.58 57.53C263.54 57.52 263.52 57.5 263.48 57.49C263.4 57.45 263.31 57.41 263.23 57.37C263.17 57.34 263.11 57.31 263.05 57.29C262.86 57.19 262.64 57.11 262.44 57.03C262.24 56.95 262.04 56.88 261.83 56.82C261.63 56.75 261.42 56.68 261.21 56.62C259.21 56 256.96 55.71 254.48 55.71C249.92 55.71 244.6 56.7 238.7 58.48" fill="white"/>
</mask>
<g mask="url(#mask15_6_629)">
<path d="M266.381 43.2747L210.689 56.3679L216.466 80.938L272.157 67.8448L266.381 43.2747Z" fill="url(#paint15_linear_6_629)"/>
</g>
<mask id="mask16_6_629" style="mask-type:luminance" maskUnits="userSpaceOnUse" x="267" y="60" width="3" height="3">
<path d="M269.07 62.71C268.49 61.69 267.82 60.79 267.04 60.01C267.77 60.78 268.45 61.68 269.07 62.71Z" fill="white"/>
</mask>
<g mask="url(#mask16_6_629)">
<path d="M268.012 58.9795L265.68 61.3852L268.072 63.7026L270.403 61.2969L268.012 58.9795Z" fill="url(#paint16_linear_6_629)"/>
</g>
<mask id="mask17_6_629" style="mask-type:luminance" maskUnits="userSpaceOnUse" x="0" y="0" width="204" height="149">
<path d="M116.59 37.29C117.03 37.33 117.49 37.36 117.95 37.4C119.01 37.49 120.13 37.58 121.3 37.69L124 37.92C141.5 39.49 167.74 42.59 180.59 48.3C188.29 51.69 195.3 56.61 199.17 63.17C202.65 69.08 202.9 76.15 201.31 82.69C200.39 86.46 198.88 90.05 197.11 93.49C194.89 97.76 192.19 101.77 189.26 105.57C186.11 109.64 182.67 113.48 179.05 117.15C175.37 120.89 171.5 124.44 167.5 127.85C163.65 131.13 159.67 134.26 155.6 137.26C151.93 139.96 148.18 142.55 144.34 145C142.58 146.11 140.82 147.32 138.97 148.27C141.14 147.23 143.26 146.19 145.35 145.12C145.41 145.1 145.48 145.07 145.53 145.04C145.8 144.91 146.07 144.79 146.33 144.66C153.49 141.25 160.8 136.46 160.8 136.46C165.62 133.38 171.01 129.86 177.03 124.25C177.05 124.25 190.89 111.76 198.76 95.33C201.62 89.36 203.36 82.88 203.39 76.25C203.42 70.03 201.89 63.8 198.66 58.42C197.73 56.87 196.41 54.95 194.58 52.95C194.61 52.94 191.75 49.82 187.62 46.97C186.82 46.42 185.99 45.87 185.99 45.87C185.46 45.54 184.62 45 183.57 44.42C181.68 43.35 180.1 42.63 179.46 42.33C176.54 41.03 174.16 40.31 173.13 40.02C171.91 39.68 170.79 39.41 170.4 39.32C169.09 39.02 168.11 38.84 167.71 38.77C163.1 37.91 161.31 37.42 156.22 36.55C153.97 36.17 152.3 35.91 150.86 35.7C146.74 35.08 145.16 34.93 136 33.79C131.58 33.25 131.19 33.18 128.7 32.89C127.05 32.69 124.31 32.37 120.66 31.97C115.94 31.46 112.3 31.11 103.51 30.27C98.4899 29.79 95.9799 29.58 91.9499 29.17C75.1699 27.5 58.4199 25.33 42.1499 20.66C27.1199 16.35 12.0899 10.19 0.0299072 0C17.7299 28.71 77.2199 34.23 116.59 37.29Z" fill="white"/>
</mask>
<g mask="url(#mask17_6_629)">
<path d="M193.232 -44.4126L-32.3209 7.41162L10.2371 192.635L235.79 140.811L193.232 -44.4126Z" fill="url(#paint17_linear_6_629)"/>
</g>
<mask id="mask18_6_629" style="mask-type:luminance" maskUnits="userSpaceOnUse" x="7" y="13" width="123" height="39">
<path d="M20.63 31.82C36.86 39.32 55.33 42.96 72.68 44.67C95.32 46.93 116.35 46.69 129.63 51.88C111.75 43.65 91.86 40.36 71.07 39.23C45.55 36.86 24.07 28.71 7.85999 13.13C11.47 18.85 15.71 25.15 20.64 31.82" fill="white"/>
</mask>
<g mask="url(#mask18_6_629)">
<path d="M123.527 -13.4643L-0.598999 15.0555L13.9632 78.4341L138.089 49.9143L123.527 -13.4643Z" fill="url(#paint18_linear_6_629)"/>
</g>
<mask id="mask19_6_629" style="mask-type:luminance" maskUnits="userSpaceOnUse" x="0" y="0" width="227" height="146">
<path d="M42.14 20.66C58.42 25.33 75.16 27.49 91.94 29.17C95.79 29.55 99.65 29.91 103.5 30.27C114.35 31.26 125.19 32.39 136 33.79C144.23 34.86 152.63 35.69 160.75 37.43C164.73 38.28 168.77 38.82 172.69 39.9C179.34 41.73 185.6 45.08 190.9 49.48C198.26 55.59 202.59 63.77 203.28 73.35C204.01 83.59 200.65 92.98 195.33 101.59C190.22 109.87 183.77 117.29 177.01 124.25C168.77 131.97 157.84 138.74 145.5 145.04C175.21 131.06 201.59 128 226.9 141.24C227.13 140.88 223.91 138.8 223.63 138.62C221.96 137.5 220.25 136.47 218.45 135.57C213.71 133.2 208.53 131.69 203.33 130.71C196.46 129.41 189.45 129.09 182.48 129.18C180.95 129.2 178.05 129.28 178.05 129.28C178.05 129.28 185.15 122.2 188.15 118.54C191.42 114.54 194.42 110.29 197.13 105.9C203.44 95.64 208.75 84.25 208.73 71.98C208.73 70.85 208.67 69.71 208.57 68.59C207.51 57.17 200.59 47.34 191.71 40.45C181.29 32.38 168.49 28.18 155.59 26.24C144.27 24.53 132.75 24.45 121.33 24.98C111.63 25.4 101.9 25.1 92.25 24.14C71.45 22.1 51.41 16.33 31.55 10.03C21.03 6.69001 10.52 3.35002 0 0.0200195C12.06 10.21 27.09 16.37 42.12 20.68" fill="white"/>
</mask>
<g mask="url(#mask19_6_629)">
<path d="M110.006 -113.507L-72.4696 74.7926L117.137 258.534L299.613 70.2346L110.006 -113.507Z" fill="url(#paint19_linear_6_629)"/>
</g>
<defs>
<linearGradient id="paint0_linear_6_629" x1="196.877" y1="110.187" x2="284.416" y2="90.0736" gradientUnits="userSpaceOnUse">
<stop stop-color="#6AC9F3"/>
<stop offset="1" stop-color="#5264AC"/>
</linearGradient>
<linearGradient id="paint1_linear_6_629" x1="127.445" y1="187.827" x2="241.074" y2="70.5716" gradientUnits="userSpaceOnUse">
<stop stop-color="#6AC9F3"/>
<stop offset="1" stop-color="#5264AC"/>
</linearGradient>
<linearGradient id="paint2_linear_6_629" x1="194.213" y1="102.204" x2="245.972" y2="63.3001" gradientUnits="userSpaceOnUse">
<stop stop-color="#6AC9F3"/>
<stop offset="1" stop-color="#5264AC"/>
</linearGradient>
<linearGradient id="paint3_linear_6_629" x1="136.167" y1="195.555" x2="249.795" y2="78.3004" gradientUnits="userSpaceOnUse">
<stop stop-color="#6AC9F3"/>
<stop offset="1" stop-color="#5264AC"/>
</linearGradient>
<linearGradient id="paint4_linear_6_629" x1="64.1274" y1="126.509" x2="177.756" y2="9.25384" gradientUnits="userSpaceOnUse">
<stop stop-color="#6AC9F3"/>
<stop offset="1" stop-color="#5264AC"/>
</linearGradient>
<linearGradient id="paint5_linear_6_629" x1="91.4991" y1="125.792" x2="202.331" y2="100.326" gradientUnits="userSpaceOnUse">
<stop stop-color="#6AC9F3"/>
<stop offset="1" stop-color="#5264AC"/>
</linearGradient>
<linearGradient id="paint6_linear_6_629" x1="138.679" y1="100.829" x2="186.533" y2="89.8338" gradientUnits="userSpaceOnUse">
<stop stop-color="#6AC9F3"/>
<stop offset="1" stop-color="#5264AC"/>
</linearGradient>
<linearGradient id="paint7_linear_6_629" x1="111.934" y1="97.3021" x2="181.93" y2="81.2194" gradientUnits="userSpaceOnUse">
<stop stop-color="#6AC9F3"/>
<stop offset="1" stop-color="#5264AC"/>
</linearGradient>
<linearGradient id="paint8_linear_6_629" x1="81.0314" y1="97.4068" x2="168.522" y2="77.3045" gradientUnits="userSpaceOnUse">
<stop stop-color="#6AC9F3"/>
<stop offset="1" stop-color="#5264AC"/>
</linearGradient>
<linearGradient id="paint9_linear_6_629" x1="58.2988" y1="89.8604" x2="155.165" y2="67.6039" gradientUnits="userSpaceOnUse">
<stop stop-color="#6AC9F3"/>
<stop offset="1" stop-color="#5264AC"/>
</linearGradient>
<linearGradient id="paint10_linear_6_629" x1="34.2629" y1="65.1582" x2="136.343" y2="41.7037" gradientUnits="userSpaceOnUse">
<stop stop-color="#6AC9F3"/>
<stop offset="1" stop-color="#5264AC"/>
</linearGradient>
<linearGradient id="paint11_linear_6_629" x1="139.96" y1="154.409" x2="225.989" y2="134.642" gradientUnits="userSpaceOnUse">
<stop stop-color="#6AC9F3"/>
<stop offset="1" stop-color="#5264AC"/>
</linearGradient>
<linearGradient id="paint12_linear_6_629" x1="170.074" y1="134.082" x2="308.332" y2="47.2184" gradientUnits="userSpaceOnUse">
<stop stop-color="#6AC9F3"/>
<stop offset="1" stop-color="#5264AC"/>
</linearGradient>
<linearGradient id="paint13_linear_6_629" x1="221.722" y1="99.2147" x2="251.89" y2="68.0839" gradientUnits="userSpaceOnUse">
<stop stop-color="#6AC9F3"/>
<stop offset="1" stop-color="#5264AC"/>
</linearGradient>
<linearGradient id="paint14_linear_6_629" x1="206.997" y1="74.8606" x2="259.106" y2="61.8875" gradientUnits="userSpaceOnUse">
<stop stop-color="#6AC9F3"/>
<stop offset="1" stop-color="#5264AC"/>
</linearGradient>
<linearGradient id="paint15_linear_6_629" x1="200.976" y1="74.8252" x2="277.032" y2="56.9443" gradientUnits="userSpaceOnUse">
<stop stop-color="#6AC9F3"/>
<stop offset="1" stop-color="#5264AC"/>
</linearGradient>
<linearGradient id="paint16_linear_6_629" x1="136.167" y1="195.555" x2="249.795" y2="78.3004" gradientUnits="userSpaceOnUse">
<stop stop-color="#6AC9F3"/>
<stop offset="1" stop-color="#5264AC"/>
</linearGradient>
<linearGradient id="paint17_linear_6_629" x1="22.4575" y1="94.5694" x2="199.933" y2="53.7917" gradientUnits="userSpaceOnUse">
<stop stop-color="#6AC9F3"/>
<stop offset="1" stop-color="#5264AC"/>
</linearGradient>
<linearGradient id="paint18_linear_6_629" x1="13.8939" y1="42.3819" x2="121.11" y2="17.7473" gradientUnits="userSpaceOnUse">
<stop stop-color="#6AC9F3"/>
<stop offset="1" stop-color="#5264AC"/>
</linearGradient>
<linearGradient id="paint19_linear_6_629" x1="65.375" y1="113.782" x2="171.265" y2="4.51209" gradientUnits="userSpaceOnUse">
<stop stop-color="#6AC9F3"/>
<stop offset="1" stop-color="#5264AC"/>
</linearGradient>
</defs>
</svg>
