<?xml version="1.0" encoding="utf-8"?>
<!-- Generator: Adobe Illustrator 21.1.0, SVG Export Plug-In . SVG Version: 6.00 Build 0)  -->
<svg version="1.1" id="Layer_1" xmlns="http://www.w3.org/2000/svg" xmlns:xlink="http://www.w3.org/1999/xlink" x="0px" y="0px"
	 viewBox="0 0 273 273" style="enable-background:new 0 0 273 273;" xml:space="preserve">
<style type="text/css">
	.st0{fill:#FDCD3B;}
</style>
<title>Combined Shape</title>
<desc>Created with Sketch.</desc>
<path class="st0" d="M150.9,39.1c-4.3-3.7-8.8-7.3-13.7-10.3c-2.8-1.7-7-4.2-10.1-3.8c0,0-0.1,0-0.1,0c-0.8,0.6-1.8,1-3,1
	c0,0,0,0,0,0c-2.4,1.1-5,3-6.9,4.3c-4.9,3.3-9.5,7-14,10.7c-6.5,5.5-12.9,11.2-19,17.1V140c9.8-0.9,19.6-1.6,29.1-3.9
	c10.2-2.5,20.3-5.5,30.2-8.8c9.2-3.1,20.3-6.6,27.2-13.8c0.2-0.2,0.4-0.3,0.5-0.5V61c0-0.9,0.2-1.7,0.6-2.4
	C164.9,51.9,158.1,45.3,150.9,39.1z M100,83c-6.4,0-6.4-10,0-10C106.4,73,106.4,83,100,83z M146.8,103.3c-5.9,15.9-28,21.6-36.1,4.2
	c-2.7-5.8,5.9-10.9,8.6-5c1.8,3.9,4.5,6.6,9.1,5.8c4-0.7,7.4-3.9,8.8-7.7C139.4,94.7,149.1,97.3,146.8,103.3z M154,82
	c-6.4,0-6.4-10,0-10C160.4,72,160.4,82,154,82z"/>
<path class="st0" d="M258.5,0H20C9,0,0,9,0,20v238.5c0,7.7,6.3,14,14,14h244.5c7.7,0,14-6.3,14-14V14C272.5,6.3,266.2,0,258.5,0z
	 M213.5,152.5c-9.8-8.8-21.4-15.5-31.5-24v7.4c0,1.3-0.4,2.3-1,3v114c0,6.4-10,6.4-10,0V125.9c-6.5,4.3-14.2,7.1-21.3,9.6
	c-10.6,3.8-21.4,6.8-32.3,9.7c-10.9,2.9-22.2,3.5-33.5,4.6V255c0,6.4-10,6.4-10,0V151c-1.5,0.2-3.1,0.5-4.6,0.7
	c-16.3,3-29.9,13.2-46.1,16.1c-6.3,1.1-9-8.5-2.7-9.6c15.6-2.7,28.7-12.6,44.2-15.7c3-0.6,6-1.1,9.1-1.4V59.9
	c-0.2-0.3-0.3-0.6-0.5-0.9c-0.9-1.7-0.8-3.8,0.9-5.5c0,0,0.1-0.1,0.1-0.1c0,0,0.1-0.1,0.1-0.1c6.6-6.6,13.6-12.9,20.7-18.9
	c7.1-6,14.5-12.2,22.8-16.4c7.2-3.7,13.3-3.3,20.5,0.3c16.1,8.1,29.3,22.7,41.9,35.3c2.1,2.1,1.7,4.6,0.4,6.4
	c0.1,0.3,0.1,0.7,0.1,1.1v53c0.2,0.1,0.4,0.3,0.5,0.5c11.5,12.2,26.6,19.9,39,31C225.3,149.8,218.2,156.8,213.5,152.5z"/>
</svg>
