<?xml version="1.0" encoding="utf-8"?>
<!-- Generator: Adobe Illustrator 23.0.1, SVG Export Plug-In . SVG Version: 6.00 Build 0)  -->
<svg version="1.1" id="Layer_1" xmlns="http://www.w3.org/2000/svg" xmlns:xlink="http://www.w3.org/1999/xlink" x="0px" y="0px"
	 viewBox="0 0 273 273" style="enable-background:new 0 0 273 273;" xml:space="preserve">
<style type="text/css">
	.st0{fill:#FBBF10;}
	.st1{fill:#FED410;}
	.st2{fill:#EA9804;}
	.st3{fill:#FED40E;}
	.st4{fill:#EA9805;}
	.st5{fill:#FBBE11;}
</style>
<title>Combined Shape</title>
<desc>Created with Sketch.</desc>
<g>
	<path class="st0" d="M22.8,72c1.7-1.3,3.3-2.8,5.1-3.9c35.5-20.5,71-41,106.4-61.6c2.9-1.7,5-1.8,7.9-0.1
		c36.2,21,72.4,41.9,108.6,62.9c1.1,0.6,1.9,1.8,2.9,2.7c-4.5,2.5-8.9,5.1-13.4,7.6c-8.1,4.5-16.2,8.9-24.3,13.3
		c-1.2-0.6-2.5-1.2-3.7-1.8c-22.5-13-45.2-25.9-67.5-39.2c-4.6-2.7-7.9-2.8-12.5,0c-23.6,13.9-47.5,27.3-71.2,41
		c-2.9-1.4-6-2.6-8.8-4.2C42.5,83.1,32.7,77.5,22.8,72z"/>
	<path class="st1" d="M216.1,92.9c8.1-4.4,16.2-8.9,24.3-13.3c4.5-2.5,9-5,13.4-7.6c0.2,1.9,0.5,3.7,0.5,5.6
		c0.1,40.9,0.1,81.7,0.2,122.6c0,2.8-0.3,5.1-3.4,6.8c-20.7,11.7-41.2,23.7-61.8,35.6c-0.6,0.3-1.2,0.5-2.6,1.1
		c0-11.6,0.1-22.7-0.1-33.8c0-2.1-1-4.1-1.5-6.2c2.3-2.4,4.3-5.3,7.1-7c6.2-3.9,12.6-7.4,19.2-10.7c3.7-1.9,5.6-4.2,4.9-8.4
		c0-10.8,0.1-21.7,0-32.5C216.3,127.6,216.2,110.2,216.1,92.9z"/>
	<path class="st2" d="M22.8,72c9.8,5.5,19.7,11.1,29.6,16.6c2.8,1.6,5.9,2.8,8.8,4.2c0,28.4-0.1,56.8-0.1,85.2
		c-0.5,3.6,0.7,5.9,4.2,7.7c6.5,3.3,12.7,7.4,19.1,10.8c3.9,2.1,6.8,4.4,5.9,9.4c0,12.2,0,24.5,0,37.4c-1.6-0.6-2.8-1-3.9-1.6
		C66.1,230,46,218.5,25.9,206.8c-1.5-0.9-3.2-3.3-3.2-5c-0.2-42.9-0.1-85.9-0.1-128.8C22.6,72.7,22.7,72.3,22.8,72z"/>
	<path class="st0" d="M90.2,205.8c1-5-2-7.3-5.9-9.4c-6.5-3.4-12.6-7.5-19.1-10.8c-3.5-1.8-4.7-4.1-4.2-7.7c1.5-0.7,3.1-1.4,4.6-2.2
		c23-13.2,46-26.4,68.9-39.9c3.5-2.1,6-1.9,9.3,0.1c8.5,5.2,17.2,10.1,25.9,15.1c15.5,8.9,31.1,17.7,46.7,26.5
		c0.7,4.2-1.2,6.5-4.9,8.4c-6.6,3.3-13,6.8-19.2,10.7c-2.7,1.7-4.7,4.7-7.1,7c-13.9-7.9-27.8-15.7-41.6-23.8
		c-3.3-1.9-5.6-1.8-8.8,0.1C120,188.7,105.1,197.2,90.2,205.8z"/>
	<path class="st3" d="M176,205.8c0.3,0.9,0.9,1.8,0.9,2.7c0.1,12.7,0.1,25.5-0.1,38.2c0,1.5-1.1,3.7-2.4,4.4
		c-11.8,7-23.8,13.7-35.7,20.5c0-14.7,0-29.5,0-44.2C151.1,220.2,163.5,213,176,205.8z"/>
	<path class="st4" d="M138.7,227.4c0,14.7,0,29.5,0,44.2c-12.2-6.9-24.4-13.8-36.5-20.8c-0.9-0.5-1.6-2.2-1.6-3.4
		c0-13.6,0.1-27.1,0.2-40.7c4.5,2.4,9.1,4.8,13.6,7.3C122.5,218.4,130.6,222.9,138.7,227.4z"/>
	<path class="st5" d="M138.7,227.4c-8.1-4.5-16.2-9-24.3-13.4c-4.5-2.5-9.1-4.8-13.6-7.3c3.2-2.1,6.3-4.4,9.6-6.4
		c6.5-3.9,13.3-7.2,19.5-11.5c5.9-4.2,10.7-4.4,16.9-0.2c9.3,6.3,19.4,11.6,29.1,17.3C163.5,213,151.1,220.2,138.7,227.4z"/>
</g>
</svg>
