<?xml version="1.0" encoding="utf-8"?>
<!-- Generator: Adobe Illustrator 26.5.0, SVG Export Plug-In . SVG Version: 6.00 Build 0)  -->
<svg version="1.1" xmlns="http://www.w3.org/2000/svg" xmlns:xlink="http://www.w3.org/1999/xlink" x="0px" y="0px"
	 viewBox="0 0 1194.27 568.5" style="enable-background:new 0 0 1194.27 568.5;" xml:space="preserve">
<g id="Atom_Grove__x28_White_Orange_x29_">
</g>
<g id="Atom_Grove__x28_White_x29_">
</g>
<g id="Atom_Grove__x28_Black_x29_">
</g>
<g id="Atom_Grove_Icon__x28_Black_x29_">
	<g>
		<circle id="Atom_00000094595487446987888810000002665853220290479282_" cx="283" cy="284.08" r="73.65"/>
		<g id="AG_Icon_00000014597230300068517920000006046284983318893196_">
			<g>
				<path d="M764.76,202.65c5.43-9.96,11.95-19.4,19.55-28.26c2.68-3.21,5.56-6.36,8.62-9.44c32.7-32.89,75.69-49.33,118.68-49.33
					c42.99,0,85.91,16.44,118.68,49.33c3.19,3.21,6.2,6.49,9.01,9.89l133.25,0c-13.73-33.34-34.11-64.55-61-91.66
					c-110.25-110.87-289.62-110.87-399.93,0c-11.24,11.31-21.27,23.25-30.21,35.84l31.87,31.86L764.76,202.65z"/>
				<path d="M917.75,255.5l0,100.03l145.82,0c-8.03,17.39-19.03,33.74-33.29,48.11c-12.73,12.79-27,23.08-42.23,30.85
					c-63.08,32.42-142.43,22.11-195.12-30.85c-0.44-0.48-0.97-0.99-1.35-1.49l-0.06,0.1h-0.06c-0.56-0.6-1.14-1.2-1.66-1.78
					l-7.54-7.53l0,0l-262.71-271.5l-5.52-5.8l-3.91-3.95l-26.55-27.44c-0.32-0.35-0.63-0.71-0.95-1.03v-0.06
					c-0.45-0.44-0.91-0.93-1.41-1.35c-3.31-3.29-6.69-6.48-10.14-9.56c-6.42-5.8-13.02-11.2-19.81-16.27
					c-32.48-24.32-69-40.7-106.93-49.15c-1.04-0.27-2.09-0.48-3.17-0.7c-0.06-0.02-0.15-0.02-0.21-0.06
					c-2.5-0.5-4.99-0.97-7.51-1.41c-12.36-2.24-24.86-3.73-37.37-4.31c-9-0.46-17.99-0.46-27.02,0c-8.76,0.41-17.49,1.26-26.17,2.48
					c-38.53,5.44-76.16,18.88-110.2,40.31C114.9,54.32,98.14,67.65,82.71,83.16c-27.87,28.07-48.75,60.59-62.48,95.27
					c-3.68,9.21-6.85,18.59-9.48,28.07c-0.6,2.15-1.2,4.33-1.76,6.52c-0.06,0.21-0.1,0.39-0.15,0.56c-0.43,1.68-0.83,3.35-1.22,5.03
					c-0.27,1.14-0.54,2.26-0.77,3.4c-0.19,0.81-0.37,1.62-0.52,2.42c-0.41,1.76-0.77,3.56-1.1,5.32c-0.02,0.15-0.06,0.27-0.06,0.39
					c-0.43,2.13-0.81,4.27-1.16,6.4c-0.04,0.12-0.06,0.21-0.06,0.29c-0.37,2.22-0.7,4.41-1.03,6.58c-0.48,3.5-0.93,6.96-1.26,10.47
					c-0.14,0.97-0.23,1.92-0.33,2.86c0,0.1,0,0.19-0.02,0.27c-0.21,2.24-0.39,4.53-0.58,6.79c-0.95,13.54-0.99,27.1-0.02,40.64
					c0,0.15,0,0.31,0.02,0.44c0.15,1.97,0.33,3.98,0.52,5.96c0,0.33,0.02,0.66,0.08,0.99v0.02c0.43,4.26,0.93,8.49,1.53,12.71
					c0.04,0.37,0.1,0.7,0.12,1.03c0.21,1.43,0.44,2.88,0.7,4.33c0.15,1.1,0.35,2.21,0.54,3.31c0.17,1.04,0.35,2.07,0.56,3.08
					c0.27,1.53,0.56,3.06,0.87,4.55c0.08,0.37,0.14,0.75,0.23,1.1c0.43,2.13,0.89,4.26,1.37,6.36c0.43,1.97,0.91,3.93,1.41,5.9
					c12.01,48.09,36.73,93.57,74.05,131.11c55.15,55.44,127.5,83.18,199.98,83.18c26.48,0,52.96-3.71,78.58-11.12
					c0.33-0.12,0.7-0.21,1.03-0.31c1.28-0.35,2.55-0.74,3.81-1.12c1.32-0.43,2.63-0.85,3.95-1.26c28.34-9.25,55.5-23.04,80.34-41.49
					v55.27l114.94,0v-80.34l-39-39.21l-6.65-6.69l-1.12-1.14v-0.02l-67.3-67.7l-16.5-16.58l-0.39-0.39
					c-6.25,13.44-14.41,26.13-24.39,37.76c-0.68,0.81-1.33,1.62-2.05,2.44c-0.15,0.14-0.31,0.33-0.43,0.46
					c-1.93,2.22-4,4.43-6.15,6.58c-65.48,65.75-171.89,65.75-237.37,0c-14.6-14.74-25.96-31.49-34.05-49.42
					c-14.24-31.59-18.34-66.72-12.24-100.34c4.84-26.98,16.27-52.98,34.26-75.44c3.73-4.66,7.74-9.17,12.03-13.5
					c15.49-15.57,33.23-27.43,52.29-35.63c21.12-9.13,43.78-13.71,66.43-13.71c38.2,0,76.37,12.98,107.3,38.92
					c1.28,1.06,2.57,2.15,3.83,3.29l0.23,0.33l17.53,18.05c0.21,0.25,0.41,0.52,0.62,0.77l1.12,1.2l0.31,0.29l20.06,20.83
					l17.56,18.32l5.3,5.51l29.56,30.78l70.59,73.55v0.04l4.6,4.89l1.97,2.03l2.05,2.11l1.14,1.18l15.88,16.54l40.1,41.78v0.06
					l58.09,58.13l7.29,7.29l5.3,5.32l16.56,16.56l0.46,0.46l1.45,1.51h0.06c32.63,32.75,71.22,55.85,112.27,69.27
					c1.35,0.44,2.73,0.89,4.1,1.3c1.92,0.58,3.85,1.16,5.8,1.7c25.38,7.29,51.55,10.91,77.76,10.91c12.9,0,25.79-0.79,38.61-2.38
					c42.81-5.38,84.53-19.92,121.52-45.38c2.03-1.37,4.06-2.84,6.07-4.31c0.35-0.27,0.75-0.54,1.1-0.81
					c0.15-0.08,0.27-0.17,0.43-0.29c4.99-3.71,9.83-7.56,14.55-11.57c0.1-0.06,0.17-0.15,0.27-0.23
					c45.28-38.2,78.34-88.42,92.46-149.32c4.82-20.66,7.45-42.56,7.62-65.63c0-0.93,0.04-1.86,0.04-2.79V255.5L917.75,255.5z"/>
			</g>
		</g>
	</g>
</g>
</svg>
