<svg width="20" height="18" viewBox="0 0 20 18" fill="none" xmlns="http://www.w3.org/2000/svg">
<mask id="path-1-inside-1_1980_5442" fill="white">
<path d="M0 5H20V18H0V5Z"/>
</mask>
<path d="M20 18V19H21V18H20ZM0 18H-1V19H0V18ZM19 5V18H21V5H19ZM20 17H0V19H20V17ZM1 18V5H-1V18H1Z" fill="#1B1B1B" mask="url(#path-1-inside-1_1980_5442)"/>
<path d="M9.64645 12.3536C9.84171 12.5488 10.1583 12.5488 10.3536 12.3536L13.5355 9.17157C13.7308 8.97631 13.7308 8.65973 13.5355 8.46447C13.3403 8.2692 13.0237 8.2692 12.8284 8.46447L10 11.2929L7.17157 8.46447C6.97631 8.2692 6.65973 8.2692 6.46447 8.46447C6.2692 8.65973 6.2692 8.97631 6.46447 9.17157L9.64645 12.3536ZM9.5 -2.18557e-08L9.5 12L10.5 12L10.5 2.18557e-08L9.5 -2.18557e-08Z" fill="#1B1B1B"/>
</svg>
