<svg width="120" height="30" viewBox="0 0 120 30" fill="none" xmlns="http://www.w3.org/2000/svg">
<g clip-path="url(#clip0_2_283)">
<path d="M16.5585 18.3334C18.5076 18.3334 20.0875 16.7355 20.0875 14.7644C20.0875 12.7933 18.5076 11.1954 16.5585 11.1954C14.6095 11.1954 13.0295 12.7933 13.0295 14.7644C13.0295 16.7355 14.6095 18.3334 16.5585 18.3334Z" fill="#F2651D"/>
<path d="M39.6398 10.8189C39.9004 10.3362 40.2125 9.87864 40.5762 9.44904C40.7051 9.29361 40.8425 9.14108 40.9895 8.99145C42.5559 7.3976 44.6159 6.60116 46.6758 6.60116C48.7357 6.60116 50.7919 7.3976 52.3621 8.99145C52.5148 9.14688 52.659 9.30616 52.7936 9.47028H59.1777C58.52 7.85519 57.5435 6.34244 56.2548 5.02855C50.9723 -0.342849 42.3793 -0.342849 37.094 5.02855C36.5556 5.57592 36.0745 6.15515 35.6469 6.76527L37.1741 8.30892L39.6398 10.8189Z" fill="white"/>
<path d="M46.9689 13.3801V18.2263H53.9553C53.5706 19.0691 53.0437 19.8607 52.3602 20.5577C51.7502 21.1775 51.0668 21.6756 50.3375 22.0531C47.3154 23.6238 43.5134 23.1246 40.9895 20.5577C40.9685 20.5345 40.9427 20.5094 40.9246 20.4853L40.9217 20.4901H40.9189C40.8921 20.4612 40.8645 20.4322 40.8387 20.4042L40.4779 20.0393L27.8911 6.88399L27.6267 6.60306L27.4396 6.41192L26.1671 5.08162C26.1519 5.06424 26.1366 5.04686 26.1213 5.03142V5.02852C26.1003 5.00728 26.0774 4.98315 26.0535 4.96288C25.8951 4.80359 25.7328 4.64913 25.5677 4.49949C25.2603 4.21857 24.9443 3.95695 24.6188 3.71077C23.0629 2.533 21.3132 1.73849 19.4957 1.32917C19.4461 1.31566 19.3955 1.306 19.344 1.29538C19.3411 1.29442 19.3363 1.29442 19.3335 1.29249C19.2141 1.26835 19.0948 1.24518 18.9736 1.22394C18.3818 1.11486 17.7823 1.04342 17.1828 1.01446C16.7523 0.992252 16.3209 0.992252 15.8885 1.01446C15.4684 1.03376 15.0504 1.07527 14.6342 1.13416C12.788 1.39771 10.9858 2.04935 9.3545 3.08714C8.50399 3.62872 7.70121 4.27456 6.96143 5.02659C5.62695 6.38971 4.62753 7.96522 3.96889 9.64499C3.79325 10.091 3.64052 10.5457 3.51452 11.0052C3.48588 11.1095 3.45724 11.2147 3.43052 11.3209C3.42765 11.3315 3.42574 11.3392 3.42288 11.3479C3.40283 11.429 3.38279 11.5101 3.36465 11.5912C3.35129 11.6462 3.33888 11.7013 3.32742 11.7563C3.31788 11.7959 3.31024 11.8354 3.30261 11.8731C3.28351 11.958 3.26538 12.0459 3.25011 12.1309C3.24915 12.1386 3.24724 12.1444 3.24724 12.1492C3.2272 12.2525 3.2081 12.3568 3.19188 12.4591C3.18997 12.4649 3.18901 12.4697 3.18901 12.4736C3.17183 12.5817 3.1556 12.6869 3.14033 12.7921C3.11742 12.962 3.09547 13.13 3.08019 13.299C3.07351 13.3463 3.06874 13.3916 3.06397 13.438C3.06397 13.4428 3.06397 13.4476 3.06301 13.4515C3.05251 13.5606 3.04488 13.6706 3.03533 13.7807C2.98951 14.4372 2.9876 15.0936 3.03438 15.7501C3.03438 15.7578 3.03438 15.7655 3.03533 15.7713C3.04297 15.8669 3.05156 15.9644 3.06015 16.06C3.06015 16.0764 3.0611 16.0918 3.06397 16.1082V16.1092C3.08401 16.3158 3.10883 16.5205 3.13747 16.7251C3.13938 16.7425 3.14224 16.7589 3.14319 16.7744C3.15369 16.8439 3.1642 16.9143 3.1766 16.9838C3.18424 17.0369 3.19283 17.091 3.20238 17.1441C3.21097 17.1943 3.2186 17.2445 3.2291 17.2928C3.24247 17.3671 3.25583 17.4405 3.27111 17.5129C3.27492 17.5302 3.27779 17.5496 3.28256 17.566C3.30261 17.6693 3.32552 17.7726 3.34842 17.8739C3.36847 17.9695 3.39233 18.0641 3.4162 18.1597C3.9918 20.4901 5.1764 22.6931 6.96429 24.5129C9.60651 27.1995 13.0725 28.5433 16.5452 28.5433C17.8138 28.5433 19.0824 28.3638 20.31 28.0047C20.3262 27.9989 20.3434 27.994 20.3586 27.9892C20.4197 27.9728 20.4808 27.9535 20.541 27.9352C20.604 27.9149 20.667 27.8936 20.73 27.8743C22.0874 27.4264 23.3884 26.7584 24.5787 25.8634V28.5414H30.0856V24.649L28.2175 22.7491L27.8987 22.4247L27.8452 22.3697V22.3688L24.6208 19.0884L23.8304 18.2852L23.8122 18.2668C23.5125 18.9185 23.1221 19.5334 22.6439 20.0962C22.6114 20.1358 22.5799 20.1754 22.5455 20.214C22.5379 20.2208 22.5303 20.2304 22.5255 20.2362C22.4329 20.3443 22.3336 20.4505 22.2305 20.5548C19.0939 23.7406 13.9956 23.7406 10.8579 20.5548C10.1582 19.8404 9.61414 19.0285 9.22659 18.1597C8.54408 16.6295 8.3484 14.9266 8.63954 13.298C8.8715 11.9909 9.41941 10.731 10.2804 9.64306C10.4589 9.41716 10.6508 9.19898 10.857 8.98853C11.5996 8.2336 12.4492 7.65919 13.3617 7.26242C14.3736 6.82028 15.4589 6.59824 16.5442 6.59824C18.3751 6.59824 20.2031 7.2267 21.6855 8.48363C21.7466 8.5348 21.8086 8.58789 21.8688 8.64292L21.8802 8.65933L22.7202 9.53397C22.7307 9.54652 22.7393 9.55907 22.7498 9.57162L22.8033 9.62954L22.8185 9.64402L23.7798 10.6538L24.6217 11.541L24.8756 11.8084L26.2922 13.2999L29.6742 16.8632V16.8651L29.8947 17.1026L29.9892 17.2011L30.0875 17.3034L30.1419 17.3603L30.9027 18.1616L32.8242 20.186V20.1889L35.6077 23.0059L35.9571 23.3592L36.211 23.617L37.0042 24.4192L37.0262 24.4414L37.0959 24.5148H37.0987C38.6623 26.1019 40.5113 27.2208 42.4777 27.8714C42.5426 27.8927 42.6084 27.9149 42.6743 27.9342C42.7659 27.9622 42.8585 27.9902 42.9521 28.0162C44.1682 28.3696 45.4215 28.5453 46.6777 28.5453C47.2963 28.5453 47.9129 28.5067 48.5277 28.4304C50.579 28.1697 52.5778 27.465 54.3495 26.2313C54.4469 26.1646 54.5442 26.0932 54.6406 26.0218C54.6569 26.0082 54.6769 25.9957 54.6931 25.9822C54.7008 25.9783 54.7065 25.9735 54.7132 25.9677C54.9518 25.7881 55.1838 25.6009 55.41 25.4068C55.4148 25.4039 55.4186 25.3991 55.4234 25.3952C57.5931 23.5436 59.1767 21.1109 59.8535 18.1606C60.0845 17.1595 60.2105 16.0986 60.2191 14.9807C60.2191 14.9353 60.221 14.8909 60.221 14.8455V13.3781L46.9689 13.3801Z" fill="white"/>
<path d="M66.6623 5.33072C66.9687 4.72929 67.3849 4.26687 67.9109 3.9425C68.4369 3.61909 69.0249 3.45691 69.6749 3.45691C70.2419 3.45691 70.7383 3.57276 71.164 3.80445C71.5898 4.03614 71.9305 4.32769 72.1864 4.67909V3.58144H74.1212V11.2717H72.1864V10.148C71.9391 10.509 71.5984 10.8073 71.164 11.0429C70.7297 11.2785 70.2286 11.3972 69.6615 11.3972C69.021 11.3972 68.4378 11.2311 67.9118 10.8971C67.3859 10.5641 66.9697 10.0949 66.6633 9.48863C66.3569 8.88237 66.2032 8.18633 66.2032 7.39954C66.2032 6.62144 66.3559 5.93215 66.6623 5.33072ZM71.9124 6.21212C71.7291 5.87423 71.4819 5.61551 71.1717 5.43498C70.8605 5.25445 70.5264 5.16467 70.1694 5.16467C69.8124 5.16467 69.483 5.25252 69.1814 5.42822C68.8798 5.60392 68.6344 5.86072 68.4474 6.1986C68.2593 6.53648 68.1658 6.93712 68.1658 7.39954C68.1658 7.86196 68.2593 8.26742 68.4474 8.61399C68.6344 8.96153 68.8817 9.22701 69.1881 9.41236C69.4945 9.59772 69.8219 9.69039 70.1694 9.69039C70.5264 9.69039 70.8605 9.59965 71.1717 9.42009C71.4828 9.23956 71.7301 8.98084 71.9124 8.64295C72.0957 8.30507 72.1873 7.90057 72.1873 7.4285C72.1873 6.9545 72.0957 6.55 71.9124 6.21212Z" fill="white"/>
<path d="M77.9242 1V11.2717H76.0027V1H77.9242Z" fill="white"/>
<path d="M82.7629 3.81121C83.1972 3.57565 83.6936 3.45691 84.252 3.45691C84.902 3.45691 85.4891 3.61909 86.016 3.9425C86.542 4.26687 86.9581 4.72639 87.2646 5.32396C87.571 5.92057 87.7247 6.61275 87.7247 7.39954C87.7247 8.18633 87.571 8.88237 87.2646 9.48863C86.9581 10.0949 86.542 10.5641 86.016 10.8971C85.49 11.2302 84.902 11.3972 84.252 11.3972C83.6936 11.3972 83.202 11.2813 82.7762 11.0506C82.3505 10.8189 82.0049 10.5274 81.7396 10.176V14.9373H79.8181V3.58144H81.7396V4.69164C81.9868 4.34024 82.3276 4.04676 82.7629 3.81121ZM85.4805 6.1986C85.2924 5.86072 85.0462 5.60392 84.7398 5.42822C84.4333 5.25252 84.1012 5.16467 83.7451 5.16467C83.3976 5.16467 83.0702 5.25445 82.7638 5.43498C82.4574 5.61551 82.2102 5.87713 82.0231 6.21887C81.835 6.56158 81.7415 6.96415 81.7415 7.42657C81.7415 7.88899 81.835 8.29155 82.0231 8.63426C82.2102 8.97698 82.4574 9.23859 82.7638 9.41816C83.0702 9.59868 83.3976 9.68846 83.7451 9.68846C84.1021 9.68846 84.4333 9.59579 84.7398 9.41043C85.0462 9.22508 85.2934 8.96153 85.4805 8.61882C85.6676 8.27707 85.7621 7.86968 85.7621 7.39761C85.7611 6.93615 85.6676 6.53648 85.4805 6.1986Z" fill="white"/>
<path d="M94.9439 3.85271C95.3926 4.10757 95.742 4.48214 95.994 4.97738C96.246 5.47262 96.371 6.0673 96.371 6.76141V11.2727H94.4495V7.02496C94.4495 6.41387 94.2987 5.9447 93.9961 5.61647C93.6944 5.28824 93.2821 5.12412 92.7609 5.12412C92.2301 5.12412 91.8111 5.28824 91.5047 5.61647C91.1983 5.9447 91.0446 6.41484 91.0446 7.02496V11.2727H89.123V1H91.0446V4.54006C91.2918 4.20701 91.6211 3.94539 92.0325 3.75617C92.444 3.56696 92.9021 3.47138 93.4052 3.47138C93.9827 3.47042 94.4953 3.59785 94.9439 3.85271Z" fill="white"/>
<path d="M98.1618 5.33072C98.4682 4.72929 98.8844 4.26687 99.4103 3.9425C99.9363 3.61909 100.524 3.45691 101.174 3.45691C101.741 3.45691 102.238 3.57276 102.663 3.80445C103.089 4.03614 103.43 4.32769 103.686 4.67909V3.58144H105.621V11.2717H103.686V10.148C103.439 10.509 103.098 10.8073 102.663 11.0429C102.229 11.2785 101.728 11.3972 101.161 11.3972C100.52 11.3972 99.9373 11.2311 99.4113 10.8971C98.8853 10.5641 98.4691 10.0949 98.1627 9.48863C97.8563 8.88237 97.7026 8.18633 97.7026 7.39954C97.7026 6.62144 97.8554 5.93215 98.1618 5.33072ZM103.412 6.21212C103.229 5.87423 102.981 5.61551 102.671 5.43498C102.36 5.25445 102.026 5.16467 101.669 5.16467C101.312 5.16467 100.982 5.25252 100.681 5.42822C100.379 5.60392 100.134 5.86072 99.9468 6.1986C99.7588 6.53648 99.6652 6.93712 99.6652 7.39954C99.6652 7.86196 99.7588 8.26742 99.9468 8.61399C100.134 8.96153 100.381 9.22701 100.688 9.41236C100.994 9.59772 101.321 9.69039 101.669 9.69039C102.026 9.69039 102.36 9.59965 102.671 9.42009C102.982 9.23956 103.23 8.98084 103.412 8.64295C103.595 8.30507 103.687 7.90057 103.687 7.4285C103.687 6.9545 103.595 6.55 103.412 6.21212Z" fill="white"/>
<path d="M71.6241 18.0892C72.1453 18.4223 72.5205 18.8432 72.7495 19.352V17.7012H73.7108V25.4744C73.7108 26.1685 73.5619 26.7835 73.265 27.3202C72.9672 27.857 72.5539 28.2711 72.0231 28.5627C71.4924 28.8542 70.8882 29 70.2114 29C69.2501 29 68.4521 28.7683 67.8164 28.3059C67.1807 27.8435 66.7845 27.2141 66.6289 26.4186H67.5758C67.741 26.9457 68.0541 27.3666 68.5161 27.6813C68.9781 27.996 69.5432 28.1534 70.2114 28.1534C70.6963 28.1534 71.1306 28.0491 71.5153 27.8416C71.9 27.633 72.2016 27.3251 72.4212 26.9186C72.6407 26.5113 72.7505 26.0305 72.7505 25.4754V23.5997C72.5128 24.1181 72.1348 24.5457 71.6184 24.8836C71.101 25.2215 70.4901 25.3904 69.7856 25.3904C69.0993 25.3904 68.4836 25.2283 67.9395 24.9049C67.3954 24.5814 66.9697 24.1229 66.6633 23.5301C66.3569 22.9384 66.2032 22.2529 66.2032 21.4758C66.2032 20.6987 66.3559 20.0161 66.6633 19.4282C66.9697 18.8403 67.3954 18.3875 67.9395 18.068C68.4836 17.7485 69.0993 17.5892 69.7856 17.5892C70.4901 17.5901 71.1029 17.7562 71.6241 18.0892ZM72.3792 19.88C72.1319 19.4176 71.7959 19.0614 71.3702 18.8113C70.9445 18.5613 70.4758 18.4368 69.9632 18.4368C69.4325 18.4368 68.9561 18.5575 68.5361 18.7978C68.1152 19.0382 67.783 19.3877 67.5415 19.8462C67.299 20.3048 67.1778 20.8483 67.1778 21.4777C67.1778 22.0975 67.299 22.642 67.5415 23.1083C67.7839 23.5755 68.1152 23.9317 68.5361 24.177C68.9571 24.4222 69.4325 24.5448 69.9632 24.5448C70.4758 24.5448 70.9445 24.4202 71.3702 24.1702C71.7959 23.9202 72.1319 23.5639 72.3792 23.1015C72.6264 22.6391 72.7495 22.1023 72.7495 21.4913C72.7495 20.8792 72.6264 20.3424 72.3792 19.88Z" fill="white"/>
<path d="M82.6598 21.8649H76.4418C76.4695 22.4383 76.6069 22.9287 76.8532 23.3361C77.1004 23.7435 77.425 24.0515 77.8278 24.259C78.2306 24.4675 78.6697 24.5718 79.1451 24.5718C79.7674 24.5718 80.2915 24.4193 80.7163 24.1132C81.142 23.8082 81.4227 23.396 81.5601 22.8775H82.5758C82.3925 23.618 82.0011 24.2223 81.4026 24.6886C80.8031 25.1559 80.051 25.3895 79.1451 25.3895C78.4406 25.3895 77.8087 25.2302 77.2512 24.9106C76.6928 24.5911 76.2566 24.1383 75.9406 23.5504C75.6247 22.9625 75.4672 22.2761 75.4672 21.4893C75.4672 20.7025 75.6228 20.0133 75.9339 19.4215C76.2451 18.8297 76.6795 18.376 77.2379 18.0612C77.7963 17.7465 78.432 17.5892 79.146 17.5892C79.86 17.5892 80.4843 17.7465 81.0198 18.0612C81.5553 18.376 81.9668 18.7998 82.255 19.3317C82.5433 19.8636 82.6874 20.4535 82.6874 21.1012C82.6874 21.4343 82.6779 21.6892 82.6598 21.8649ZM81.3759 19.63C81.143 19.2323 80.8241 18.9311 80.4223 18.7274C80.0195 18.5237 79.5804 18.4223 79.105 18.4223C78.391 18.4223 77.7829 18.654 77.2799 19.1164C76.7768 19.5788 76.4971 20.2314 76.4427 21.0732H81.7128C81.7214 20.5095 81.6097 20.0277 81.3759 19.63Z" fill="white"/>
<path d="M90.154 18.402C90.721 18.9619 91.0045 19.7738 91.0045 20.8386V25.2804H90.0576V20.9497C90.0576 20.1262 89.8543 19.4968 89.4467 19.0623C89.0391 18.6279 88.4835 18.4097 87.7791 18.4097C87.0565 18.4097 86.4799 18.6414 86.0494 19.1039C85.6189 19.5663 85.4041 20.2469 85.4041 21.1447V25.2813H84.4429V17.7011H85.4041V18.9919C85.6418 18.5294 85.9854 18.1752 86.4331 17.9299C86.8818 17.6847 87.3896 17.5621 87.9566 17.5621C88.8539 17.5621 89.586 17.8421 90.154 18.402Z" fill="white"/>
<path d="M99.8848 21.8649H93.6668C93.6945 22.4383 93.8319 22.9287 94.0782 23.3361C94.3255 23.7435 94.65 24.0515 95.0528 24.259C95.4556 24.4675 95.8947 24.5718 96.3701 24.5718C96.9925 24.5718 97.5165 24.4193 97.9413 24.1132C98.367 23.8082 98.6477 23.396 98.7851 22.8775H99.8008C99.6175 23.618 99.2261 24.2223 98.6276 24.6886C98.0282 25.1559 97.276 25.3895 96.3701 25.3895C95.6657 25.3895 95.0337 25.2302 94.4763 24.9106C93.9179 24.5911 93.4816 24.1383 93.1657 23.5504C92.8497 22.9625 92.6922 22.2761 92.6922 21.4893C92.6922 20.7025 92.8478 20.0133 93.159 19.4215C93.4702 18.8297 93.9045 18.376 94.4629 18.0612C95.0213 17.7465 95.6571 17.5892 96.3711 17.5892C97.0851 17.5892 97.7094 17.7465 98.2449 18.0612C98.7804 18.376 99.1918 18.7998 99.4801 19.3317C99.7683 19.8636 99.9125 20.4535 99.9125 21.1012C99.9125 21.4343 99.9029 21.6892 99.8848 21.8649ZM98.6019 19.63C98.369 19.2323 98.0501 18.9311 97.6483 18.7274C97.2454 18.5237 96.8063 18.4223 96.331 18.4223C95.617 18.4223 95.0089 18.654 94.5059 19.1164C94.0028 19.5788 93.7231 20.2314 93.6687 21.0732H98.9388C98.9465 20.5095 98.8348 20.0277 98.6019 19.63Z" fill="white"/>
<path d="M102.142 24.7871C101.598 24.3845 101.294 23.8362 101.23 23.1421H102.218C102.264 23.5678 102.462 23.9124 102.814 24.176C103.167 24.4395 103.64 24.5718 104.235 24.5718C104.756 24.5718 105.165 24.4473 105.463 24.1972C105.76 23.9472 105.909 23.6373 105.909 23.2676C105.909 23.0088 105.827 22.7955 105.662 22.6294C105.497 22.4634 105.289 22.3311 105.037 22.2336C104.785 22.1361 104.445 22.0328 104.015 21.9209C103.457 21.7731 103.004 21.6245 102.657 21.4768C102.309 21.3291 102.013 21.109 101.772 20.8174C101.529 20.5259 101.408 20.1349 101.408 19.6445C101.408 19.2747 101.518 18.932 101.738 18.6173C101.957 18.3026 102.268 18.0526 102.671 17.8672C103.074 17.6818 103.531 17.5892 104.044 17.5892C104.848 17.5892 105.499 17.7948 105.993 18.207C106.487 18.6192 106.753 19.1859 106.789 19.9071H105.829C105.801 19.463 105.63 19.1039 105.314 18.8316C104.998 18.5584 104.566 18.4223 104.017 18.4223C103.532 18.4223 103.139 18.5381 102.836 18.7698C102.535 19.0015 102.383 19.2882 102.383 19.63C102.383 19.9264 102.472 20.1687 102.65 20.3589C102.829 20.549 103.05 20.6967 103.315 20.8029C103.581 20.9091 103.938 21.0279 104.386 21.1572C104.927 21.3049 105.356 21.4488 105.677 21.5878C105.997 21.7268 106.272 21.9305 106.501 22.1989C106.73 22.4673 106.848 22.8235 106.858 23.2676C106.858 23.675 106.748 24.0379 106.528 24.3575C106.309 24.677 106.003 24.929 105.609 25.1143C105.216 25.2997 104.763 25.3924 104.25 25.3924C103.389 25.3904 102.687 25.1896 102.142 24.7871Z" fill="white"/>
<path d="M108.655 16.0629C108.518 15.9239 108.449 15.753 108.449 15.5493C108.449 15.3456 108.518 15.1767 108.655 15.0425C108.793 14.9083 108.957 14.8417 109.15 14.8417C109.342 14.8417 109.507 14.9093 109.644 15.0425C109.782 15.1767 109.85 15.3456 109.85 15.5493C109.85 15.753 109.782 15.9239 109.644 16.0629C109.507 16.2019 109.343 16.2714 109.15 16.2714C108.957 16.2714 108.793 16.2019 108.655 16.0629ZM109.63 17.7011V25.2804H108.669V17.7011H109.63Z" fill="white"/>
<path d="M112.285 24.7871C111.741 24.3845 111.437 23.8362 111.373 23.1421H112.361C112.407 23.5678 112.605 23.9124 112.957 24.176C113.31 24.4395 113.783 24.5718 114.378 24.5718C114.899 24.5718 115.309 24.4473 115.606 24.1972C115.903 23.9472 116.052 23.6373 116.052 23.2676C116.052 23.0088 115.97 22.7955 115.805 22.6294C115.64 22.4634 115.432 22.3311 115.181 22.2336C114.929 22.1361 114.588 22.0328 114.158 21.9209C113.6 21.7731 113.147 21.6245 112.8 21.4768C112.452 21.3291 112.157 21.109 111.915 20.8174C111.673 20.5259 111.551 20.1349 111.551 19.6445C111.551 19.2747 111.661 18.932 111.881 18.6173C112.1 18.3026 112.411 18.0526 112.814 17.8672C113.217 17.6818 113.674 17.5892 114.187 17.5892C114.992 17.5892 115.642 17.7948 116.136 18.207C116.631 18.6192 116.896 19.1859 116.932 19.9071H115.971C115.943 19.463 115.772 19.1039 115.456 18.8316C115.141 18.5584 114.708 18.4223 114.159 18.4223C113.674 18.4223 113.281 18.5381 112.978 18.7698C112.677 19.0015 112.525 19.2882 112.525 19.63C112.525 19.9264 112.614 20.1687 112.792 20.3589C112.971 20.549 113.192 20.6967 113.458 20.8029C113.723 20.9091 114.08 21.0279 114.529 21.1572C115.068 21.3049 115.498 21.4488 115.819 21.5878C116.139 21.7268 116.414 21.9305 116.643 22.1989C116.872 22.4673 116.99 22.8235 117 23.2676C117 23.675 116.89 24.0379 116.671 24.3575C116.451 24.677 116.145 24.929 115.751 25.1143C115.358 25.2997 114.905 25.3924 114.392 25.3924C113.532 25.3904 112.83 25.1896 112.285 24.7871Z" fill="white"/>
</g>
<defs>
<clipPath id="clip0_2_283">
<rect width="114" height="28" fill="white" transform="translate(3 1)"/>
</clipPath>
</defs>
</svg>
