<svg width="771" height="195" viewBox="0 0 771 195" fill="none" xmlns="http://www.w3.org/2000/svg">
<g clip-path="url(#clip0_2_287)">
<path d="M91.6986 120.858C104.88 120.858 115.566 109.901 115.566 96.3848C115.566 82.8685 104.88 71.9114 91.6986 71.9114C78.5171 71.9114 67.8314 82.8685 67.8314 96.3848C67.8314 109.901 78.5171 120.858 91.6986 120.858Z" fill="black"/>
<path d="M247.8 69.3297C249.563 66.0199 251.674 62.8821 254.134 59.9363C255.005 58.8705 255.935 57.8246 256.929 56.7985C267.523 45.8693 281.455 40.4079 295.386 40.4079C309.318 40.4079 323.224 45.8693 333.844 56.7985C334.877 57.8643 335.851 58.9566 336.762 60.0819H379.938C375.49 49.007 368.886 38.6338 360.171 29.6243C324.444 -7.20811 266.329 -7.20811 230.583 29.6243C226.942 33.3777 223.688 37.3496 220.796 41.5333L231.125 52.1183L247.8 69.3297Z" fill="black"/>
<path d="M297.368 86.8931V120.124H344.618C342.017 125.903 338.453 131.332 333.831 136.111C329.705 140.361 325.083 143.777 320.151 146.365C299.712 157.136 273.998 153.713 256.929 136.111C256.787 135.952 256.613 135.78 256.49 135.615L256.471 135.648H256.451C256.27 135.449 256.083 135.251 255.909 135.059L253.469 132.556L168.342 42.3486L166.554 40.4223L165.289 39.1116L156.683 29.9895C156.58 29.8704 156.476 29.7512 156.373 29.6453V29.6254C156.231 29.4798 156.076 29.3143 155.915 29.1753C154.843 28.083 153.745 27.0239 152.629 25.9978C150.55 24.0714 148.413 22.2775 146.212 20.5894C135.689 12.5133 123.855 7.06523 111.563 4.25844C111.227 4.16577 110.885 4.09957 110.537 4.02675C110.517 4.02013 110.485 4.02013 110.466 4.00689C109.659 3.8414 108.852 3.68252 108.032 3.53689C104.029 2.78885 99.9749 2.29899 95.9207 2.1004C93.0091 1.94814 90.091 1.94814 87.1666 2.1004C84.326 2.23279 81.4983 2.51744 78.6836 2.92125C66.198 4.72845 54.0094 9.1968 42.9764 16.3131C37.2243 20.0268 31.7949 24.4554 26.7917 29.6122C17.7664 38.9593 11.0072 49.7628 6.55264 61.2812C5.36477 64.3395 4.33184 67.4574 3.47967 70.6085C3.286 71.3234 3.09232 72.045 2.91156 72.7731C2.89219 72.846 2.87928 72.8989 2.85991 72.9585C2.72434 73.5145 2.58877 74.0706 2.46611 74.6267C2.37573 75.004 2.2918 75.3813 2.21433 75.7586C2.14977 76.0301 2.09813 76.3015 2.04648 76.5596C1.91736 77.1422 1.7947 77.7446 1.69141 78.3271C1.68495 78.3801 1.67204 78.4198 1.67204 78.4529C1.53647 79.1612 1.40735 79.8761 1.2976 80.5778C1.28469 80.6176 1.27824 80.6507 1.27824 80.6771C1.16203 81.4186 1.05228 82.1401 0.948988 82.8617C0.794048 84.0268 0.645564 85.1786 0.542271 86.3371C0.49708 86.6614 0.464801 86.9726 0.432522 87.2903C0.432522 87.3234 0.432522 87.3565 0.426066 87.383C0.355052 88.131 0.303405 88.8857 0.238847 89.6403C-0.0710325 94.1418 -0.0839442 98.6432 0.232391 103.145C0.232391 103.198 0.232391 103.251 0.238847 103.29C0.290494 103.946 0.348596 104.614 0.406699 105.27C0.406699 105.382 0.413154 105.488 0.432522 105.601V105.607C0.568094 107.024 0.735946 108.427 0.929621 109.831C0.942532 109.95 0.9619 110.062 0.968356 110.168C1.03937 110.645 1.11038 111.128 1.19431 111.605C1.24596 111.969 1.30406 112.34 1.36862 112.704C1.42672 113.048 1.47837 113.392 1.54938 113.723C1.63976 114.233 1.73014 114.736 1.83344 115.232C1.85926 115.352 1.87863 115.484 1.91091 115.596C2.04648 116.305 2.20142 117.013 2.35636 117.708C2.49193 118.364 2.65333 119.012 2.81472 119.668C6.70759 135.648 14.7193 150.754 26.811 163.232C44.6808 181.655 68.1219 190.87 91.6082 190.87C100.188 190.87 108.768 189.639 117.07 187.176C117.18 187.136 117.296 187.103 117.399 187.07C117.812 186.958 118.226 186.825 118.632 186.699C119.058 186.56 119.484 186.415 119.911 186.282C129.091 183.211 137.89 178.63 145.94 172.493V190.857H183.184V164.166L170.55 151.138L168.394 148.914L168.032 148.536V148.53L146.224 126.036L140.879 120.528L140.756 120.402C138.729 124.871 136.089 129.088 132.854 132.947C132.635 133.218 132.422 133.49 132.189 133.755C132.138 133.801 132.086 133.867 132.054 133.907C131.428 134.648 130.756 135.376 130.059 136.091C108.845 157.937 74.3646 157.937 53.1443 136.091C48.4122 131.193 44.7324 125.625 42.1113 119.668C37.4954 109.175 36.172 97.498 38.141 86.3304C39.7098 77.3673 43.4154 68.7284 49.2386 61.268C50.4458 59.7189 51.7434 58.2229 53.1379 56.7798C58.1605 51.6031 63.9062 47.6643 70.078 44.9436C76.9212 41.9117 84.2614 40.3892 91.6017 40.3892C103.984 40.3892 116.347 44.6987 126.373 53.3176C126.786 53.6685 127.206 54.0325 127.612 54.4099L127.69 54.5224L133.371 60.5199C133.442 60.606 133.5 60.692 133.571 60.7781L133.933 61.1753L134.036 61.2746L140.537 68.1989L146.231 74.2824L147.948 76.1161L157.529 86.3437L180.402 110.777V110.791L181.893 112.419L182.532 113.094L183.197 113.796L183.565 114.186L188.71 119.681L201.706 133.563V133.582L220.531 152.899L222.894 155.322L224.611 157.089L229.976 162.59L230.124 162.743L230.596 163.246H230.615C241.19 174.129 253.695 181.801 266.994 186.263C267.433 186.408 267.878 186.56 268.323 186.693C268.943 186.885 269.569 187.077 270.202 187.256C278.427 189.678 286.903 190.883 295.399 190.883C299.583 190.883 303.753 190.618 307.911 190.095C321.784 188.308 335.303 183.476 347.285 175.016C347.943 174.559 348.602 174.069 349.254 173.579C349.363 173.486 349.499 173.4 349.609 173.308C349.66 173.281 349.699 173.248 349.744 173.208C351.358 171.977 352.927 170.693 354.457 169.362C354.489 169.342 354.515 169.309 354.548 169.283C369.222 156.586 379.932 139.904 384.509 119.674C386.071 112.81 386.923 105.534 386.982 97.8687C386.982 97.5576 386.994 97.2531 386.994 96.9419V86.8799L297.368 86.8931Z" fill="black"/>
<path d="M430.558 31.6963C432.631 27.5722 435.446 24.4013 439.003 22.177C442.56 19.9594 446.537 18.8473 450.933 18.8473C454.768 18.8473 458.125 19.6417 461.004 21.2304C463.883 22.8192 466.188 24.8183 467.918 27.2279V19.7012H481.004V72.4344H467.918V64.729C466.246 67.2048 463.942 69.2503 461.004 70.8655C458.067 72.4807 454.677 73.295 450.843 73.295C446.511 73.295 442.566 72.1563 439.009 69.8659C435.452 67.5821 432.637 64.3649 430.565 60.2077C428.493 56.0504 427.453 51.2776 427.453 45.8825C427.453 40.5469 428.486 35.8204 430.558 31.6963ZM466.065 37.7401C464.826 35.4232 463.154 33.6491 461.056 32.4112C458.951 31.1733 456.692 30.5577 454.277 30.5577C451.863 30.5577 449.635 31.1601 447.595 32.3649C445.555 33.5697 443.896 35.3305 442.631 37.6475C441.359 39.9644 440.726 42.7116 440.726 45.8825C440.726 49.0533 441.359 51.8336 442.631 54.2101C443.896 56.5933 445.568 58.4137 447.641 59.6847C449.713 60.9557 451.927 61.5912 454.277 61.5912C456.692 61.5912 458.951 60.9689 461.056 59.7376C463.16 58.4998 464.832 56.7256 466.065 54.4087C467.305 52.0918 467.925 49.3181 467.925 46.081C467.925 42.8307 467.305 40.0571 466.065 37.7401Z" fill="black"/>
<path d="M506.724 2V72.4344H493.729V2H506.724Z" fill="black"/>
<path d="M539.449 21.2767C542.386 19.6615 545.743 18.8473 549.52 18.8473C553.916 18.8473 557.887 19.9594 561.45 22.177C565.007 24.4013 567.822 27.5523 569.895 31.6499C571.967 35.741 573.006 40.4873 573.006 45.8825C573.006 51.2776 571.967 56.0504 569.895 60.2076C567.822 64.3649 565.007 67.5821 561.45 69.8659C557.893 72.1497 553.916 73.2949 549.52 73.2949C545.743 73.2949 542.419 72.5006 539.539 70.9184C536.66 69.3297 534.323 67.3305 532.528 64.9209V97.5697H519.533V19.7012H532.528V27.314C534.2 24.9044 536.505 22.892 539.449 21.2767ZM557.829 37.6475C556.557 35.3305 554.891 33.5697 552.819 32.3649C550.747 31.1601 548.5 30.5577 546.092 30.5577C543.742 30.5577 541.528 31.1733 539.455 32.4112C537.383 33.6491 535.711 35.4431 534.446 37.7865C533.174 40.1365 532.541 42.8969 532.541 46.0678C532.541 49.2387 533.174 51.9991 534.446 54.3491C535.711 56.6992 537.383 58.4931 539.455 59.7244C541.528 60.9623 543.742 61.5779 546.092 61.5779C548.506 61.5779 550.747 60.9424 552.819 59.6714C554.891 58.4005 556.563 56.5933 557.829 54.2432C559.094 51.8998 559.733 49.1063 559.733 45.8692C559.727 42.705 559.094 39.9644 557.829 37.6475Z" fill="black"/>
<path d="M621.832 21.5614C624.866 23.3091 627.229 25.8775 628.933 29.2735C630.637 32.6694 631.483 36.7472 631.483 41.5068V72.441H618.488V43.314C618.488 39.1237 617.468 35.9065 615.421 33.6558C613.381 31.405 610.592 30.2797 607.067 30.2797C603.478 30.2797 600.644 31.405 598.571 33.6558C596.499 35.9065 595.46 39.1303 595.46 43.314V72.441H582.464V2H595.46V26.2747C597.132 23.9909 599.359 22.1969 602.141 20.8995C604.924 19.602 608.023 18.9466 611.425 18.9466C615.331 18.94 618.797 19.8138 621.832 21.5614Z" fill="black"/>
<path d="M643.594 31.6963C645.667 27.5722 648.481 24.4013 652.038 22.177C655.596 19.9594 659.572 18.8473 663.969 18.8473C667.804 18.8473 671.161 19.6417 674.04 21.2304C676.919 22.8192 679.224 24.8183 680.954 27.2279V19.7012H694.04V72.4344H680.954V64.729C679.282 67.2048 676.977 69.2503 674.04 70.8655C671.103 72.4807 667.713 73.295 663.878 73.295C659.547 73.295 655.602 72.1563 652.045 69.8659C648.488 67.5821 645.673 64.3649 643.601 60.2077C641.528 56.0504 640.489 51.2776 640.489 45.8825C640.489 40.5469 641.522 35.8204 643.594 31.6963ZM679.101 37.7401C677.862 35.4232 676.19 33.6491 674.092 32.4112C671.987 31.1733 669.727 30.5577 667.313 30.5577C664.899 30.5577 662.671 31.1601 660.631 32.3649C658.591 33.5697 656.932 35.3305 655.667 37.6475C654.395 39.9644 653.762 42.7116 653.762 45.8825C653.762 49.0533 654.395 51.8336 655.667 54.2101C656.932 56.5933 658.604 58.4137 660.676 59.6847C662.749 60.9557 664.963 61.5912 667.313 61.5912C669.727 61.5912 671.987 60.9689 674.092 59.7376C676.196 58.4998 677.868 56.7256 679.101 54.4087C680.341 52.0918 680.961 49.3181 680.961 46.081C680.961 42.8307 680.341 40.0571 679.101 37.7401Z" fill="black"/>
<path d="M464.116 119.183C467.641 121.467 470.178 124.353 471.727 127.842V116.522H478.228V169.825C478.228 174.584 477.221 178.801 475.213 182.482C473.199 186.162 470.404 189.002 466.814 191.001C463.225 193 459.138 194 454.561 194C448.06 194 442.663 192.411 438.364 189.24C434.064 186.07 431.385 181.753 430.332 176.299H436.737C437.854 179.913 439.971 182.799 443.096 184.957C446.22 187.115 450.042 188.194 454.561 188.194C457.841 188.194 460.778 187.48 463.38 186.056C465.982 184.626 468.022 182.515 469.506 179.728C470.991 176.934 471.734 173.638 471.734 169.831V156.969C470.126 160.524 467.57 163.456 464.077 165.773C460.578 168.09 456.446 169.249 451.682 169.249C447.04 169.249 442.876 168.137 439.196 165.919C435.517 163.701 432.637 160.557 430.565 156.492C428.493 152.434 427.453 147.734 427.453 142.405C427.453 137.077 428.486 132.396 430.565 128.365C432.637 124.334 435.517 121.229 439.196 119.038C442.876 116.847 447.04 115.754 451.682 115.754C456.446 115.761 460.591 116.899 464.116 119.183ZM469.222 131.463C467.55 128.292 465.278 125.849 462.399 124.135C459.519 122.42 456.349 121.566 452.883 121.566C449.293 121.566 446.072 122.394 443.231 124.042C440.384 125.691 438.138 128.087 436.504 131.231C434.864 134.376 434.045 138.103 434.045 142.419C434.045 146.669 434.864 150.402 436.504 153.6C438.144 156.804 440.384 159.246 443.231 160.928C446.078 162.609 449.293 163.45 452.883 163.45C456.349 163.45 459.519 162.596 462.399 160.881C465.278 159.167 467.55 156.724 469.222 153.553C470.894 150.382 471.727 146.702 471.727 142.511C471.727 138.314 470.894 134.634 469.222 131.463Z" fill="black"/>
<path d="M538.752 145.073H496.698C496.886 149.005 497.815 152.368 499.481 155.162C501.153 157.955 503.348 160.067 506.072 161.49C508.797 162.92 511.766 163.635 514.981 163.635C519.191 163.635 522.735 162.589 525.608 160.491C528.487 158.399 530.385 155.572 531.315 152.017H538.184C536.944 157.095 534.297 161.239 530.249 164.436C526.195 167.64 521.108 169.242 514.981 169.242C510.217 169.242 505.943 168.15 502.173 165.959C498.396 163.768 495.446 160.663 493.309 156.631C491.172 152.6 490.107 147.893 490.107 142.498C490.107 137.103 491.159 132.377 493.264 128.319C495.369 124.261 498.306 121.149 502.083 118.991C505.859 116.833 510.159 115.754 514.988 115.754C519.817 115.754 524.039 116.833 527.661 118.991C531.282 121.149 534.065 124.055 536.014 127.703C537.964 131.35 538.939 135.395 538.939 139.837C538.939 142.121 538.874 143.868 538.752 145.073ZM530.069 129.748C528.493 127.021 526.337 124.956 523.619 123.559C520.895 122.162 517.925 121.467 514.71 121.467C509.881 121.467 505.769 123.056 502.367 126.227C498.964 129.398 497.073 133.873 496.705 139.645H532.347C532.406 135.779 531.65 132.476 530.069 129.748Z" fill="black"/>
<path d="M589.436 121.328C593.271 125.168 595.188 130.735 595.188 138.036V168.494H588.784V138.798C588.784 133.151 587.409 128.835 584.653 125.856C581.896 122.877 578.139 121.381 573.374 121.381C568.487 121.381 564.588 122.97 561.676 126.141C558.765 129.312 557.312 133.979 557.312 140.135V168.501H550.811V116.522H557.312V125.373C558.92 122.202 561.244 119.772 564.272 118.091C567.306 116.41 570.74 115.569 574.575 115.569C580.643 115.569 585.595 117.489 589.436 121.328Z" fill="black"/>
<path d="M655.247 145.073H613.194C613.381 149.005 614.311 152.368 615.976 155.162C617.648 157.955 619.843 160.067 622.568 161.49C625.292 162.92 628.262 163.635 631.477 163.635C635.686 163.635 639.23 162.589 642.103 160.491C644.982 158.399 646.88 155.572 647.81 152.017H654.679C653.439 157.095 650.792 161.239 646.745 164.436C642.69 167.64 637.603 169.242 631.477 169.242C626.712 169.242 622.438 168.15 618.668 165.959C614.892 163.768 611.941 160.663 609.804 156.631C607.668 152.6 606.602 147.893 606.602 142.498C606.602 137.103 607.655 132.377 609.759 128.319C611.864 124.261 614.801 121.149 618.578 118.991C622.355 116.833 626.654 115.754 631.483 115.754C636.312 115.754 640.534 116.833 644.156 118.991C647.778 121.149 650.56 124.055 652.51 127.703C654.459 131.35 655.434 135.395 655.434 139.837C655.434 142.121 655.37 143.868 655.247 145.073ZM646.57 129.748C644.995 127.021 642.839 124.956 640.121 123.559C637.397 122.162 634.427 121.467 631.212 121.467C626.383 121.467 622.271 123.056 618.868 126.227C615.466 129.398 613.575 133.873 613.207 139.645H648.849C648.901 135.779 648.146 132.476 646.57 129.748Z" fill="black"/>
<path d="M670.515 165.111C666.835 162.351 664.776 158.591 664.343 153.831H671.025C671.335 156.751 672.678 159.114 675.06 160.921C677.442 162.728 680.644 163.635 684.666 163.635C688.191 163.635 690.961 162.781 692.975 161.067C694.983 159.352 695.99 157.227 695.99 154.692C695.99 152.918 695.435 151.455 694.318 150.316C693.201 149.178 691.793 148.271 690.096 147.602C688.391 146.933 686.087 146.225 683.181 145.457C679.405 144.444 676.345 143.425 673.995 142.412C671.645 141.399 669.644 139.89 668.01 137.891C666.37 135.892 665.551 133.211 665.551 129.848C665.551 127.312 666.293 124.962 667.778 122.804C669.263 120.646 671.367 118.932 674.092 117.661C676.816 116.39 679.908 115.754 683.375 115.754C688.817 115.754 693.214 117.164 696.558 119.991C699.902 122.818 701.697 126.703 701.942 131.648H695.447C695.26 128.603 694.105 126.141 691.968 124.274C689.831 122.401 686.906 121.467 683.194 121.467C679.915 121.467 677.255 122.262 675.208 123.85C673.168 125.439 672.142 127.405 672.142 129.748C672.142 131.781 672.742 133.442 673.95 134.746C675.157 136.051 676.655 137.063 678.449 137.792C680.244 138.52 682.658 139.334 685.693 140.221C689.347 141.234 692.252 142.22 694.421 143.173C696.584 144.127 698.443 145.523 699.992 147.364C701.542 149.204 702.342 151.647 702.407 154.692C702.407 157.485 701.664 159.974 700.18 162.166C698.695 164.357 696.622 166.084 693.963 167.355C691.303 168.626 688.236 169.262 684.769 169.262C678.946 169.249 674.201 167.872 670.515 165.111Z" fill="black"/>
<path d="M714.563 105.288C713.634 104.335 713.169 103.163 713.169 101.767C713.169 100.37 713.634 99.2114 714.563 98.2913C715.493 97.3711 716.603 96.9144 717.907 96.9144C719.205 96.9144 720.322 97.3778 721.251 98.2913C722.181 99.2114 722.646 100.37 722.646 101.767C722.646 103.163 722.181 104.335 721.251 105.288C720.322 106.242 719.211 106.718 717.907 106.718C716.603 106.718 715.493 106.242 714.563 105.288ZM721.155 116.522V168.494H714.654V116.522H721.155Z" fill="black"/>
<path d="M739.115 165.111C735.435 162.351 733.375 158.591 732.943 153.831H739.625C739.935 156.751 741.277 159.114 743.66 160.921C746.042 162.728 749.244 163.635 753.266 163.635C756.791 163.635 759.56 162.781 761.575 161.067C763.582 159.352 764.589 157.227 764.589 154.692C764.589 152.918 764.034 151.455 762.917 150.316C761.8 149.178 760.393 148.271 758.695 147.602C756.991 146.933 754.686 146.225 751.781 145.457C748.004 144.444 744.944 143.425 742.594 142.412C740.244 141.399 738.243 139.89 736.61 137.891C734.97 135.892 734.15 133.211 734.15 129.848C734.15 127.312 734.893 124.962 736.377 122.804C737.862 120.646 739.967 118.932 742.691 117.661C745.416 116.39 748.508 115.754 751.975 115.754C757.417 115.754 761.813 117.164 765.157 119.991C768.502 122.818 770.296 126.703 770.542 131.648H764.041C763.853 128.603 762.698 126.141 760.561 124.274C758.424 122.401 755.5 121.467 751.787 121.467C748.508 121.467 745.848 122.262 743.802 123.85C741.762 125.439 740.735 127.405 740.735 129.748C740.735 131.781 741.335 133.442 742.543 134.746C743.75 136.051 745.248 137.063 747.042 137.792C748.837 138.52 751.252 139.334 754.286 140.221C757.933 141.234 760.845 142.22 763.014 143.173C765.177 144.127 767.036 145.523 768.586 147.364C770.135 149.204 770.935 151.647 771 154.692C771 157.485 770.258 159.974 768.773 162.166C767.288 164.357 765.216 166.084 762.556 167.355C759.896 168.626 756.829 169.262 753.363 169.262C747.546 169.249 742.794 167.872 739.115 165.111Z" fill="black"/>
</g>
<defs>
<clipPath id="clip0_2_287">
<rect width="771" height="192" fill="white" transform="translate(0 2)"/>
</clipPath>
</defs>
</svg>
