<svg width="18" height="17" viewBox="0 0 18 17" fill="none" xmlns="http://www.w3.org/2000/svg">
<path d="M4.29243 5.875H0.75V16.7383H4.29243V5.875Z" fill="#1B1B1B"/>
<path d="M2.50568 4.45494C3.66154 4.45494 4.6012 3.55558 4.6012 2.4511C4.6012 1.34663 3.66154 0.447266 2.50568 0.447266C1.34982 0.447266 0.410156 1.34663 0.410156 2.4511C0.410156 3.55558 1.34982 4.45494 2.50568 4.45494Z" fill="#1B1B1B"/>
<path d="M9.96357 11.0416C9.96357 9.51112 10.7036 8.60387 12.1256 8.60387C13.4312 8.60387 14.0548 9.47956 14.0548 11.0416V16.7454H17.5806V9.86613C17.5806 6.95504 15.8427 5.55078 13.4145 5.55078C10.9864 5.55078 9.96357 7.3495 9.96357 7.3495V5.88212H6.5625V16.7454H9.96357V11.0416Z" fill="#1B1B1B"/>
</svg>
