<svg width="21" height="19" viewBox="0 0 21 19" fill="none" xmlns="http://www.w3.org/2000/svg">
<mask id="path-1-inside-1_594_893" fill="white">
<path d="M0.5 6H20.5V19H0.5V6Z"/>
</mask>
<path d="M20.5 19V20H21.5V19H20.5ZM0.5 19H-0.5V20H0.5V19ZM19.5 6V19H21.5V6H19.5ZM20.5 18H0.5V20H20.5V18ZM1.5 19V6H-0.5V19H1.5Z" fill="#1B1B1B" mask="url(#path-1-inside-1_594_893)"/>
<path d="M10.8536 0.646446C10.6583 0.451184 10.3417 0.451184 10.1464 0.646446L6.96447 3.82843C6.7692 4.02369 6.7692 4.34027 6.96447 4.53553C7.15973 4.7308 7.47631 4.7308 7.67157 4.53553L10.5 1.70711L13.3284 4.53553C13.5237 4.7308 13.8403 4.7308 14.0355 4.53553C14.2308 4.34027 14.2308 4.02369 14.0355 3.82843L10.8536 0.646446ZM11 13L11 1L10 1L10 13L11 13Z" fill="#1B1B1B"/>
</svg>
