<svg width="1226" height="597" viewBox="0 0 1226 597" fill="none" xmlns="http://www.w3.org/2000/svg">
<g opacity="0.05">
<path d="M290.457 375.642C332.206 375.642 366.05 341.016 366.05 298.303C366.05 255.59 332.206 220.964 290.457 220.964C248.708 220.964 214.864 255.59 214.864 298.303C214.864 341.016 248.708 375.642 290.457 375.642Z" fill="white"/>
<path d="M784.928 212.795C790.501 202.336 797.193 192.423 804.993 183.119C807.744 179.748 810.7 176.441 813.841 173.206C847.404 138.669 891.528 121.406 935.652 121.406C979.776 121.406 1023.83 138.669 1057.46 173.206C1060.74 176.577 1063.83 180.022 1066.71 183.592H1203.48C1189.38 148.582 1168.47 115.809 1140.87 87.3409C1027.71 -29.0821 843.606 -29.0821 730.386 87.3409C718.849 99.2174 708.554 111.755 699.378 124.976L732.089 158.432L784.928 212.795Z" fill="white"/>
<path d="M941.954 268.292V373.332H1091.62C1083.38 391.593 1072.09 408.762 1057.45 423.851C1044.39 437.282 1029.74 448.087 1014.11 456.246C949.364 490.29 867.921 479.464 813.841 423.851C813.389 423.347 812.845 422.812 812.455 422.287L812.393 422.392H812.332C811.757 421.762 811.162 421.132 810.628 420.523L802.889 412.615L533.237 127.517L527.572 121.427L523.559 117.279L496.308 88.4645C495.98 88.0969 495.662 87.7189 495.333 87.3829V87.3199C494.881 86.8578 494.399 86.3433 493.886 85.9023C490.489 82.4475 487.019 79.0977 483.478 75.8634C476.889 69.7729 470.115 64.1025 463.146 58.7785C429.809 33.2405 392.325 16.0401 353.394 7.16683C352.327 6.88331 351.249 6.66279 350.141 6.43177C350.079 6.41077 349.987 6.41077 349.925 6.36877C347.359 5.84373 344.804 5.35019 342.217 4.88815C329.531 2.53596 316.701 0.971329 303.861 0.36228C294.624 -0.12076 285.397 -0.12076 276.128 0.36228C267.137 0.792815 258.177 1.68539 249.268 2.96649C209.721 8.67896 171.098 22.7921 136.16 45.2954C117.932 57.0354 100.74 71.033 84.8924 87.3199C56.2871 116.796 34.8562 150.945 20.7639 187.362C16.9868 197.033 13.7332 206.883 11.0338 216.837C10.418 219.095 9.80215 221.384 9.22737 223.684C9.16579 223.905 9.12473 224.094 9.07341 224.272C8.63207 226.036 8.22152 227.79 7.82123 229.554C7.5441 230.751 7.26698 231.927 7.03091 233.124C6.8359 233.975 6.65115 234.825 6.49719 235.665C6.07637 237.514 5.70688 239.404 5.36817 241.252C5.34764 241.409 5.30659 241.535 5.30659 241.661C4.86524 243.898 4.47521 246.145 4.11598 248.382C4.07492 248.508 4.0544 248.603 4.0544 248.687C3.67464 251.018 3.33593 253.317 2.99722 255.596C2.50456 259.271 2.04268 262.905 1.70398 266.59C1.56028 267.609 1.46791 268.607 1.36527 269.594C1.36527 269.699 1.36527 269.793 1.34474 269.877C1.1292 272.229 0.944454 274.634 0.749441 277.007C-0.225624 291.225 -0.26668 305.465 0.728913 319.683C0.728913 319.84 0.728913 320.008 0.749441 320.145C0.903398 322.214 1.08815 324.324 1.28316 326.403C1.28316 326.75 1.30369 327.096 1.36527 327.443V327.464C1.80662 331.937 2.31981 336.379 2.93564 340.811C2.97669 341.199 3.03828 341.546 3.0588 341.892C3.27435 343.394 3.51041 344.916 3.77727 346.439C3.93123 347.594 4.13651 348.76 4.33152 349.915C4.50601 351.007 4.69076 352.088 4.9063 353.149C5.18342 354.756 5.48107 356.362 5.79925 357.927C5.88136 358.315 5.94294 358.715 6.03532 359.082C6.47666 361.319 6.9488 363.555 7.44146 365.761C7.88281 367.829 8.37547 369.887 8.88867 371.956C21.2155 422.455 46.5878 470.213 84.8924 509.633C141.497 567.85 215.756 596.979 290.149 596.979C317.327 596.979 344.506 593.083 370.802 585.302C371.141 585.176 371.52 585.082 371.859 584.977C373.173 584.609 374.476 584.199 375.77 583.8C377.124 583.349 378.469 582.908 379.824 582.477C408.912 572.764 436.788 558.283 462.284 538.909V596.947H580.256V512.584L540.227 471.41L533.402 464.385L532.252 463.188V463.167L463.176 392.076L446.241 374.665L445.841 374.256C439.426 388.369 431.051 401.695 420.807 413.907C420.109 414.758 419.442 415.608 418.703 416.469C418.549 416.616 418.385 416.816 418.262 416.952C416.281 419.283 414.156 421.604 411.95 423.862C344.742 492.905 235.525 492.905 168.317 423.862C153.332 408.384 141.672 390.795 133.369 371.967C118.753 338.794 114.545 301.905 120.806 266.601C125.773 238.27 137.505 210.967 155.969 187.383C159.798 182.489 163.914 177.753 168.317 173.206C184.216 156.857 202.424 144.403 221.986 135.792C243.664 126.205 266.922 121.395 290.169 121.395C329.377 121.395 368.554 135.025 400.3 162.264C401.614 163.378 402.938 164.522 404.231 165.719L404.467 166.066L422.46 185.02C422.675 185.282 422.881 185.566 423.096 185.828L424.246 187.089L424.564 187.393L445.153 209.266L463.176 228.504L468.616 234.29L498.956 266.611L571.409 343.845V343.887L576.13 349.022L578.152 351.154L580.256 353.37L581.426 354.609L597.725 371.977L638.883 415.85V415.913L698.506 476.954L705.988 484.609L711.428 490.196L728.425 507.585L728.897 508.068L730.385 509.654H730.447C763.938 544.044 803.546 568.301 845.679 582.393C847.065 582.855 848.481 583.328 849.887 583.758C851.858 584.367 853.839 584.976 855.84 585.544C881.89 593.199 908.75 597 935.652 597C948.892 597 962.122 596.17 975.28 594.501C1019.22 588.851 1062.04 573.583 1100.01 546.848C1102.09 545.409 1104.17 543.866 1106.24 542.322C1106.6 542.038 1107.01 541.755 1107.37 541.471C1107.52 541.387 1107.64 541.293 1107.81 541.167C1112.93 537.271 1117.9 533.228 1122.74 529.017C1122.84 528.954 1122.92 528.86 1123.02 528.776C1169.49 488.663 1203.43 435.927 1217.92 371.977C1222.86 350.282 1225.56 327.285 1225.74 303.06C1225.74 302.083 1225.78 301.107 1225.78 300.13V268.323H941.964L941.954 268.292Z" fill="white"/>
</g>
</svg>
