<svg width="256" height="256" viewBox="0 0 256 256" fill="none" xmlns="http://www.w3.org/2000/svg">
<path d="M65.633 142.589C73.7732 142.589 80.372 135.99 80.372 127.85C80.372 119.709 73.7732 113.111 65.633 113.111C57.4929 113.111 50.894 119.709 50.894 127.85C50.894 135.99 57.4929 142.589 65.633 142.589Z" fill="#F2651D"/>
<path d="M162.043 111.554C163.13 109.561 164.435 107.672 165.956 105.898C166.492 105.256 167.069 104.626 167.681 104.009C174.225 97.4273 182.828 94.1373 191.431 94.1373C200.035 94.1373 208.624 97.4273 215.182 104.009C215.82 104.652 216.423 105.308 216.985 105.989H243.651C240.904 99.3164 236.825 93.0706 231.444 87.6453C209.38 65.4578 173.484 65.4578 151.409 87.6453C149.16 89.9087 147.152 92.2981 145.363 94.8177L151.741 101.194L162.043 111.554Z" fill="#374FC4"/>
<path d="M192.66 122.13V142.148H221.842C220.235 145.629 218.034 148.901 215.18 151.776C212.632 154.336 209.777 156.395 206.729 157.95C194.105 164.438 178.225 162.375 167.681 151.776C167.593 151.68 167.487 151.578 167.411 151.478L167.399 151.498H167.387C167.275 151.378 167.159 151.258 167.055 151.142L165.546 149.635L112.97 95.3018L111.865 94.1411L111.082 93.3506L105.769 87.8593C105.705 87.7893 105.643 87.7172 105.579 87.6532V87.6412C105.491 87.5531 105.397 87.455 105.297 87.371C104.634 86.7126 103.958 86.0742 103.268 85.4578C101.983 84.2971 100.662 83.2165 99.3032 82.2018C92.8032 77.3349 85.4947 74.0569 77.9041 72.3658C77.696 72.3118 77.4859 72.2698 77.2697 72.2257C77.2577 72.2217 77.2397 72.2217 77.2277 72.2137C76.7274 72.1137 76.2291 72.0196 75.7248 71.9316C73.2513 71.4833 70.7497 71.1851 68.2462 71.069C66.4451 70.977 64.646 70.977 62.8389 71.069C61.0858 71.1511 59.3388 71.3212 57.6017 71.5653C49.891 72.654 42.3604 75.3437 35.5482 79.6323C31.9941 81.8696 28.642 84.5373 25.5521 87.6412C19.9747 93.2586 15.7962 99.7666 13.0485 106.707C12.3121 108.55 11.6777 110.427 11.1513 112.324C11.0313 112.754 10.9112 113.191 10.7991 113.629C10.7871 113.671 10.7791 113.707 10.7691 113.741C10.6831 114.077 10.603 114.412 10.525 114.748C10.4709 114.976 10.4169 115.2 10.3709 115.428C10.3328 115.59 10.2968 115.752 10.2668 115.912C10.1848 116.265 10.1127 116.625 10.0467 116.977C10.0427 117.007 10.0347 117.031 10.0347 117.055C9.94861 117.481 9.87257 117.91 9.80253 118.336C9.79452 118.36 9.79052 118.378 9.79052 118.394C9.71647 118.838 9.65043 119.276 9.58439 119.711C9.48833 120.411 9.39828 121.104 9.33224 121.806C9.30422 122 9.28621 122.19 9.2662 122.378C9.2662 122.398 9.2662 122.416 9.2622 122.432C9.22017 122.881 9.18415 123.339 9.14612 123.791C8.95601 126.501 8.948 129.215 9.14212 131.924C9.14212 131.954 9.14212 131.986 9.14612 132.012C9.17614 132.406 9.21216 132.809 9.25019 133.205C9.25019 133.271 9.25419 133.337 9.2662 133.403V133.407C9.35225 134.26 9.45231 135.106 9.57238 135.951C9.58039 136.025 9.5924 136.091 9.5964 136.157C9.63843 136.443 9.68445 136.733 9.73648 137.023C9.7665 137.243 9.80653 137.466 9.84455 137.686C9.87857 137.894 9.91459 138.1 9.95662 138.302C10.0107 138.608 10.0687 138.914 10.1307 139.213C10.1467 139.287 10.1587 139.363 10.1768 139.433C10.2628 139.859 10.3549 140.285 10.4509 140.706C10.537 141.1 10.633 141.492 10.7331 141.886C13.1366 151.51 18.0836 160.612 25.5521 168.124C36.5889 179.219 51.0677 184.77 65.5726 184.77C70.8718 184.77 76.1711 184.028 81.2982 182.545C81.3642 182.521 81.4383 182.503 81.5043 182.483C81.7605 182.413 82.0146 182.335 82.2668 182.259C82.5309 182.173 82.7931 182.089 83.0573 182.007C88.7287 180.156 94.164 177.396 99.1351 173.704V184.764H122.137V168.687L114.332 160.84L113.002 159.501L112.777 159.273V159.269L99.3092 145.721L96.0072 142.403L95.9291 142.325C94.6784 145.014 93.0454 147.554 91.0481 149.881C90.9121 150.043 90.782 150.205 90.6379 150.369C90.6079 150.397 90.5758 150.436 90.5518 150.462C90.1656 150.906 89.7513 151.348 89.3211 151.778C76.2171 164.936 54.9221 164.936 41.8181 151.778C38.8963 148.829 36.6229 145.476 35.0039 141.888C32.1542 135.566 31.3337 128.536 32.5544 121.808C33.523 116.409 35.8104 111.206 39.4106 106.711C40.1571 105.778 40.9596 104.876 41.8181 104.009C44.918 100.893 48.4681 98.5198 52.2825 96.8788C56.509 95.0517 61.0438 94.1351 65.5766 94.1351C73.2213 94.1351 80.8599 96.7327 87.0497 101.924C87.3059 102.136 87.564 102.354 87.8162 102.582L87.8622 102.648L91.3703 106.261C91.4124 106.311 91.4524 106.365 91.4944 106.415L91.7185 106.655L91.7806 106.713L95.795 110.881L99.3092 114.548L100.37 115.65L106.285 121.81L120.412 136.529V136.537L121.333 137.516L121.727 137.922L122.137 138.344L122.365 138.58L125.543 141.89L133.568 150.251V150.263L145.193 161.897L146.652 163.355L147.713 164.42L151.027 167.734L151.119 167.826L151.409 168.128H151.421C157.951 174.682 165.674 179.305 173.889 181.991C174.159 182.079 174.435 182.169 174.709 182.251C175.093 182.367 175.48 182.483 175.87 182.591C180.949 184.05 186.186 184.774 191.431 184.774C194.013 184.774 196.593 184.616 199.158 184.298C207.725 183.222 216.074 180.312 223.477 175.217C223.883 174.942 224.29 174.648 224.692 174.354C224.762 174.3 224.842 174.246 224.912 174.192C224.942 174.176 224.966 174.158 224.998 174.134C225.997 173.392 226.965 172.621 227.91 171.819C227.93 171.807 227.944 171.789 227.964 171.773C237.025 164.128 243.641 154.078 246.467 141.89C247.432 137.756 247.958 133.373 247.992 128.756C247.992 128.57 248 128.384 248 128.198V122.136H192.662L192.66 122.13Z" fill="#374FC4"/>
</svg>
