<svg width="647" height="61" viewBox="0 0 647 61" fill="none" xmlns="http://www.w3.org/2000/svg">
<path d="M582.635 59.5V0H589.945V59.5H582.635Z" fill="#F8F8F8"/>
<path d="M538.8 37.5701C538.8 23.8851 546.705 14.6201 558.775 14.6201C571.1 14.6201 578.75 23.4601 578.75 38.9301H546.11C546.62 48.0251 551.805 54.2301 558.775 54.2301C564.13 54.2301 568.38 50.6601 570.335 44.8801H577.9C575.52 54.3151 568.55 60.5201 558.775 60.5201C546.705 60.5201 538.8 51.2551 538.8 37.5701ZM546.535 32.9801H571.015C569.655 25.6701 564.895 20.9101 558.775 20.9101C552.655 20.9101 547.895 25.6701 546.535 32.9801Z" fill="#F8F8F8"/>
<path d="M534.88 59.4999H527.57V53.9749C524.68 57.9699 520.006 60.5199 514.651 60.5199C507.511 60.5199 499.521 55.2499 499.521 44.2849V15.6399H506.831V44.2849C506.831 49.8099 509.89 54.5699 517.201 54.5699C523.321 54.5699 527.57 51.0849 527.57 44.2849V15.6399H534.88V59.4999Z" fill="#F8F8F8"/>
<path d="M459.561 15.6401H466.871V21.1651C469.761 17.1701 474.436 14.6201 479.791 14.6201C486.931 14.6201 494.921 19.8901 494.921 30.8551V59.5001H487.611V30.8551C487.611 25.3301 484.551 20.5701 477.241 20.5701C471.121 20.5701 466.871 24.0551 466.871 30.8551V59.5001H459.561V15.6401Z" fill="#F8F8F8"/>
<path d="M447.327 26.6051C447.327 22.8651 443.417 20.9101 438.317 20.9101C433.812 20.9101 429.987 23.5451 429.987 26.6051H422.677C422.677 20.0601 429.817 14.6201 438.317 14.6201C446.137 14.6201 454.637 18.1051 454.637 26.6051V59.5001H447.327V53.3801C445.032 57.8851 440.612 60.5201 435.427 60.5201C424.547 60.5201 419.787 53.8901 419.787 46.8351C419.787 37.9101 427.097 33.2351 436.277 33.2351H438.317C444.267 33.2351 447.327 30.9401 447.327 26.6051ZM427.097 46.8351C427.097 51.3401 430.412 54.2301 436.277 54.2301C442.312 54.2301 447.327 50.4051 447.327 45.9851V36.2951C445.202 38.2501 442.227 39.1851 438.317 39.1851H436.277C430.412 39.1851 427.097 42.2451 427.097 46.8351Z" fill="#F8F8F8"/>
<path d="M356.871 15.6401H364.181V20.8251C366.901 17.0851 371.151 14.6201 375.996 14.6201C380.586 14.6201 385.516 17.0851 388.151 22.1001C390.871 17.5951 395.546 14.6201 401.156 14.6201C411.016 14.6201 416.201 20.1451 416.201 30.8551V59.5001H408.891V30.8551C408.891 25.3301 406.511 20.5701 399.626 20.5701C393.931 20.5701 390.191 24.0551 390.191 30.8551V59.5001H382.881V30.8551C382.881 25.3301 380.501 20.5701 373.616 20.5701C367.921 20.5701 364.181 24.0551 364.181 30.8551V59.5001H356.871V15.6401Z" fill="#F8F8F8"/>
<path d="M292.659 15.6401H299.969V20.8251C302.689 17.0851 306.939 14.6201 311.784 14.6201C316.374 14.6201 321.304 17.0851 323.939 22.1001C326.659 17.5951 331.334 14.6201 336.944 14.6201C346.804 14.6201 351.989 20.1451 351.989 30.8551V59.5001H344.679V30.8551C344.679 25.3301 342.299 20.5701 335.414 20.5701C329.719 20.5701 325.979 24.0551 325.979 30.8551V59.5001H318.669V30.8551C318.669 25.3301 316.289 20.5701 309.404 20.5701C303.709 20.5701 299.969 24.0551 299.969 30.8551V59.5001H292.659V15.6401Z" fill="#F8F8F8"/>
<path d="M245.385 59.5V0H289.245V6.46H253.035V26.52H286.1V32.98H253.035V53.04H289.245V59.5H245.385Z" fill="#F8F8F8"/>
<path d="M215.088 26.6051C215.088 22.8651 211.178 20.9101 206.078 20.9101C201.573 20.9101 197.748 23.5451 197.748 26.6051H190.438C190.438 20.0601 197.578 14.6201 206.078 14.6201C213.898 14.6201 222.398 18.1051 222.398 26.6051V59.5001H215.088V53.3801C212.793 57.8851 208.373 60.5201 203.188 60.5201C192.308 60.5201 187.548 53.8901 187.548 46.8351C187.548 37.9101 194.858 33.2351 204.038 33.2351H206.078C212.028 33.2351 215.088 30.9401 215.088 26.6051ZM194.858 46.8351C194.858 51.3401 198.173 54.2301 204.038 54.2301C210.073 54.2301 215.088 50.4051 215.088 45.9851V36.2951C212.963 38.2501 209.988 39.1851 206.078 39.1851H204.038C198.173 39.1851 194.858 42.2451 194.858 46.8351Z" fill="#F8F8F8"/>
<path d="M176.262 59.5V15.64H183.572V59.5H176.262ZM174.902 4.59C174.902 1.955 177.112 0 179.917 0C182.637 0 184.847 1.955 184.847 4.59C184.847 7.14 182.637 9.095 179.917 9.095C177.112 9.095 174.902 7.14 174.902 4.59Z" fill="#F8F8F8"/>
<path d="M171.211 0V59.5H163.901V52.615C161.011 57.46 156.591 60.52 151.066 60.52C140.356 60.52 131.346 50.235 131.346 37.57C131.346 24.905 140.356 14.62 151.066 14.62C157.016 14.62 161.181 17.34 163.901 21.76V0H171.211ZM138.656 37.57C138.656 46.495 144.691 54.23 151.066 54.23C158.631 54.23 163.901 48.365 163.901 37.655V37.485C163.901 26.775 158.631 20.91 151.066 20.91C144.691 20.91 138.656 28.645 138.656 37.57Z" fill="#F8F8F8"/>
<path d="M108.859 60.5201C96.7893 60.5201 88.8843 51.2551 88.8843 37.5701C88.8843 23.8851 96.7893 14.6201 108.859 14.6201C120.929 14.6201 128.834 23.8851 128.834 37.5701C128.834 51.0001 120.929 60.5201 108.859 60.5201ZM96.1943 37.5701C96.1943 47.4301 101.549 54.2301 108.859 54.2301C116.169 54.2301 121.524 47.4301 121.524 37.5701C121.524 27.7101 116.169 20.9101 108.859 20.9101C101.549 20.9101 96.1943 27.7101 96.1943 37.5701Z" fill="#F8F8F8"/>
<path d="M55.0142 0H62.3242V36.21L81.4492 15.64H90.7142L72.0142 34.765L91.7342 59.5H83.4892C83.4892 59.5 69.9742 42.585 67.5092 39.44L62.4092 44.625L62.3242 44.71V59.5H55.0142V0Z" fill="#F8F8F8"/>
<path d="M19.38 0H33.575L52.955 59.5H44.88L39.1 41.65H13.855L8.075 59.5H0L19.38 0ZM15.98 35.19H36.975L26.52 2.975L15.98 35.19Z" fill="#F8F8F8"/>
<path d="M508.827 7.91406C508.827 5.34473 509.531 3.43139 510.937 2.17406C512.411 0.862055 514.186 0.206055 516.263 0.206055C517.469 0.206055 518.641 0.370055 519.78 0.698054C520.985 0.971387 522.425 1.40872 524.1 2.01006C524.502 2.11939 525.172 2.33806 526.11 2.66606C527.115 2.99406 527.919 3.15806 528.521 3.15806C530.062 3.15806 530.833 2.22872 530.833 0.370053H536.861C536.861 2.99406 536.125 4.93472 534.651 6.19206C533.244 7.44939 531.503 8.07806 529.426 8.07806C528.22 8.07806 527.014 7.94139 525.808 7.66806C524.67 7.34006 523.263 6.87539 521.588 6.27406C521.186 6.16472 520.483 5.94606 519.478 5.61806C518.541 5.29006 517.77 5.12606 517.167 5.12606C515.627 5.12606 514.856 6.05539 514.856 7.91406H508.827Z" fill="#F8F8F8"/>
</svg>
